<?xml version="1.0" standalone="no"?>
<!DOCTYPE svg PUBLIC "-//W3C//DTD SVG 20010904//EN"
 "http://www.w3.org/TR/2001/REC-SVG-20010904/DTD/svg10.dtd">
<svg version="1.0" xmlns="http://www.w3.org/2000/svg"
 width="450.000000pt" height="600.000000pt" viewBox="0 0 450.000000 600.000000"
 preserveAspectRatio="xMidYMid meet">
<metadata>
Created by potrace 1.16, written by Peter Selinger 2001-2019
</metadata>
<g transform="translate(0.000000,600.000000) scale(0.100000,-0.100000)"
fill="#000000" stroke="none">
<path d="M2075 4061 c-3 -7 0 -8 10 -5 16 7 45 -12 45 -28 0 -6 -7 -5 -15 2
-12 10 -19 10 -27 2 -15 -15 -48 -16 -48 -2 0 12 -37 13 -44 1 -3 -5 4 -11 15
-14 34 -9 11 -28 -25 -21 -28 5 -34 2 -39 -15 -2 -11 0 -22 7 -24 15 -6 -12
-33 -41 -42 -18 -5 -25 -1 -35 19 -14 32 -21 32 -42 1 -18 -27 -42 -34 -32
-10 9 24 -10 18 -47 -15 -19 -16 -44 -30 -55 -30 -11 0 -25 -7 -32 -15 -7 -8
-19 -15 -27 -15 -20 0 -63 30 -63 45 0 7 -8 19 -17 26 -9 8 -14 9 -10 2 10
-16 -2 -43 -19 -43 -8 0 -19 -9 -26 -20 -8 -12 -24 -20 -40 -20 -15 0 -30 -4
-33 -10 -3 -5 -22 -10 -41 -10 -24 0 -34 -4 -34 -16 0 -26 -40 -74 -61 -74
-11 0 -30 7 -43 15 -44 29 -39 -10 12 -90 l47 -75 45 5 c25 2 140 7 255 11
116 3 275 14 355 23 122 13 145 19 148 34 2 10 -3 17 -12 17 -9 0 -16 -4 -16
-9 0 -5 -7 -12 -16 -15 -12 -5 -14 -1 -8 17 4 12 7 30 6 39 0 10 3 20 9 23 5
4 9 16 9 28 0 25 26 67 41 67 6 0 8 -9 4 -19 -5 -16 -1 -19 15 -18 11 1 20 8
20 15 0 10 7 12 24 8 15 -4 26 -1 29 7 5 16 33 -6 40 -33 6 -22 -9 -28 -16 -7
-3 9 -9 7 -24 -5 -11 -10 -27 -18 -36 -18 -9 0 -17 -7 -17 -15 0 -14 3 -13 25
1 16 11 36 14 55 11 l29 -6 -5 67 c-11 154 -16 192 -25 197 -5 4 -9 2 -9 -3 0
-5 -30 -10 -67 -11 -58 -1 -65 0 -49 12 27 20 18 61 -16 65 -14 2 -29 -2 -33
-7z"/>
<path d="M2597 3590 c-43 -10 -104 -18 -136 -19 -32 0 -71 -5 -86 -11 -16 -6
-53 -15 -84 -19 -31 -5 -92 -17 -136 -26 -122 -27 -314 -52 -328 -43 -8 5 -6
8 8 9 21 1 42 4 85 13 14 3 50 9 80 14 31 6 43 10 27 11 -17 0 -26 5 -22 11 6
10 76 7 94 -5 5 -3 22 5 36 18 l27 23 -73 -3 c-92 -3 -90 -3 -169 -14 -71 -9
-502 -23 -700 -22 -251 1 -756 12 -788 18 -18 3 -41 3 -51 0 -25 -8 -35 -49
-19 -78 7 -12 11 -26 10 -32 -1 -8 57 -49 138 -96 12 -7 13 -11 2 -18 -12 -7
-11 -14 2 -39 22 -43 20 -49 -12 -44 -26 3 -29 0 -41 -39 -7 -24 -15 -59 -17
-78 -3 -19 -10 -41 -16 -48 -6 -7 -8 -16 -5 -20 4 -3 2 -13 -2 -22 -12 -22
-19 -69 -27 -177 -12 -164 40 -431 120 -618 63 -149 71 -202 52 -345 -9 -64
-23 -168 -31 -231 -8 -63 -25 -259 -36 -435 -11 -176 -23 -327 -26 -335 -19
-49 6 -74 61 -59 62 17 116 94 180 259 21 52 66 154 101 225 35 72 78 168 95
214 35 89 85 155 133 176 23 9 41 9 85 -1 35 -9 133 -15 257 -16 204 -3 424
19 595 58 105 24 217 70 280 115 30 22 64 28 65 13 0 -7 13 -24 28 -40 15 -15
41 -52 57 -83 17 -31 52 -84 78 -118 216 -281 342 -454 342 -470 0 -15 -12
-17 -26 -3 -5 5 -15 6 -24 0 -28 -17 14 -32 97 -34 93 -2 102 48 42 234 -16
52 -39 136 -49 186 -11 51 -30 136 -44 190 -13 55 -29 129 -35 165 -6 37 -28
120 -48 185 -35 112 -38 127 -37 244 0 141 2 154 28 193 10 15 21 47 25 70 9
66 6 218 -5 225 -5 4 -10 47 -11 96 -2 67 -7 96 -22 120 -11 17 -22 48 -26 69
-4 20 -11 37 -16 37 -5 0 -9 5 -9 12 0 6 -12 36 -27 67 -15 31 -27 58 -28 61
0 3 -14 20 -30 38 -17 19 -31 38 -31 43 -1 5 -2 15 -3 23 0 8 -9 22 -18 32
-14 14 -15 18 -4 22 7 2 21 12 31 22 9 9 38 28 63 40 54 27 86 58 92 88 5 27
-9 27 -118 2z m-407 -328 c0 -15 -24 -39 -62 -61 -21 -13 -38 -28 -38 -35 0
-26 34 -56 79 -70 27 -8 61 -21 77 -29 16 -8 52 -20 79 -26 41 -10 56 -20 84
-57 34 -45 35 -46 20 -87 -10 -25 -33 -56 -60 -79 -42 -36 -47 -37 -125 -39
-45 -1 -86 1 -92 5 -5 3 -13 22 -16 41 -7 38 -64 137 -75 130 -4 -2 -7 4 -8
13 -2 35 -10 82 -15 87 -3 3 -3 22 -1 43 3 36 1 40 -36 58 -35 16 -39 22 -34
44 3 14 7 28 9 31 2 3 43 11 91 18 48 7 93 15 98 16 18 6 25 5 25 -3z m20
-766 c36 -7 64 -17 63 -22 -1 -6 16 -21 38 -33 48 -27 50 -52 10 -106 -70 -95
-250 -204 -392 -239 -75 -18 -224 -21 -301 -5 -82 17 -316 143 -356 191 -10
13 -5 16 45 23 32 4 81 8 108 10 28 2 66 8 85 13 30 9 23 10 -52 11 -49 1 -90
6 -93 11 -5 8 -11 7 -21 -1 -10 -8 -14 -8 -14 -1 0 20 68 46 208 79 12 3 22 9
22 13 0 5 19 11 43 15 23 4 48 12 55 17 7 7 36 8 72 4 48 -6 64 -4 87 11 15
10 24 13 20 6 -5 -9 0 -8 19 2 34 17 263 18 354 1z"/>
<path d="M1750 2308 c0 -17 49 -59 82 -71 10 -3 37 0 60 9 28 10 44 11 48 4 4
-6 18 7 34 30 14 22 23 40 19 40 -198 7 -243 5 -243 -12z"/>
<path d="M3865 2764 c-22 -8 -46 -17 -54 -19 -11 -4 -11 -8 0 -22 13 -15 11
-16 -21 -9 -19 4 -56 10 -81 13 -44 5 -47 4 -67 -29 -12 -20 -22 -49 -22 -66
0 -42 89 -162 170 -230 139 -117 133 -109 113 -142 -21 -37 -34 -42 -73 -27
-25 9 -36 9 -58 -4 -15 -8 -28 -24 -30 -34 -2 -11 -12 -50 -23 -88 -15 -47
-19 -79 -14 -107 4 -25 3 -40 -3 -40 -13 0 -82 80 -82 94 0 6 -12 25 -26 41
l-27 30 7 -37 c5 -28 3 -38 -6 -38 -7 0 -21 -24 -30 -53 -14 -42 -15 -60 -7
-90 6 -21 9 -43 6 -50 -4 -14 41 -45 111 -77 28 -13 52 -27 52 -32 0 -4 8 -8
18 -8 10 0 22 -3 26 -7 10 -11 75 -31 80 -25 3 2 -1 16 -8 31 -20 39 -28 81
-16 81 5 0 10 -7 10 -15 0 -8 9 -24 21 -36 11 -11 18 -27 15 -37 -5 -13 3 -22
29 -34 29 -13 50 -14 121 -7 92 10 104 13 104 33 0 12 -36 32 -102 56 -35 12
-36 28 -3 36 18 5 35 -1 60 -20 40 -31 118 -66 146 -66 17 0 18 3 8 23 -6 12
-21 32 -32 45 -21 22 -52 116 -35 106 4 -3 8 -11 8 -19 0 -8 12 -26 27 -40 32
-29 86 -33 168 -12 l49 13 -40 45 c-22 24 -46 58 -54 74 -8 17 -17 32 -20 35
-3 3 -12 14 -20 24 -14 18 -14 19 7 5 13 -7 33 -33 45 -56 13 -24 26 -43 30
-43 4 0 19 -13 34 -29 33 -38 74 -47 74 -17 0 11 -9 40 -19 63 -26 57 -87 97
-149 97 -35 1 -54 7 -72 24 -32 29 -60 45 -60 34 0 -5 10 -14 23 -20 15 -7 17
-11 6 -11 -18 -1 -52 32 -43 42 4 4 -6 11 -22 17 -34 13 -130 89 -138 110 -3
8 -9 21 -12 28 -9 18 26 15 71 -8 50 -25 136 -42 152 -28 8 7 41 -20 112 -92
67 -67 116 -107 147 -120 25 -11 48 -20 50 -20 2 0 4 151 4 335 0 184 -2 335
-5 335 -12 0 -69 -33 -88 -51 -22 -21 -57 -26 -57 -8 0 5 -4 8 -10 4 -5 -3 -6
-13 -3 -22 4 -11 3 -14 -5 -9 -7 4 -12 15 -12 24 0 14 -2 15 -10 2 -10 -16
-12 -15 -28 23 -6 15 -16 27 -22 27 -15 0 -26 -33 -12 -38 7 -2 12 -7 12 -12
0 -15 -27 -18 -56 -6 -54 23 -99 38 -119 40 -11 0 -39 11 -63 24 -50 26 -56
27 -48 7 7 -20 -18 -19 -38 1 -9 8 -16 12 -16 8 0 -4 -6 1 -14 12 -12 15 -17
17 -27 7 -17 -17 -36 -16 -42 0 -3 7 3 13 12 14 10 1 32 15 50 32 36 33 28 37
-34 15z"/>
</g>
</svg>
