<?xml version="1.0" standalone="no"?>
<!DOCTYPE svg PUBLIC "-//W3C//DTD SVG 20010904//EN"
 "http://www.w3.org/TR/2001/REC-SVG-20010904/DTD/svg10.dtd">
<svg version="1.0" xmlns="http://www.w3.org/2000/svg"
 width="564.000000pt" height="564.000000pt" viewBox="0 0 564.000000 564.000000"
 preserveAspectRatio="xMidYMid meet">
<metadata>
Created by potrace 1.16, written by Peter Selinger 2001-2019
</metadata>
<g transform="translate(0.000000,564.000000) scale(0.100000,-0.100000)"
fill="#000000" stroke="none">
<path d="M3414 4345 c-4 -8 -12 -15 -20 -15 -8 0 -14 -4 -14 -10 0 -5 -10 -10
-23 -10 -26 0 -128 -71 -186 -129 -21 -21 -49 -57 -62 -81 -13 -24 -30 -45
-36 -48 -19 -5 -16 28 4 50 19 22 1 25 -21 3 -8 -8 -17 -15 -20 -15 -3 0 -15
-9 -26 -20 -25 -25 -18 -70 10 -70 29 0 32 -16 10 -55 -11 -20 -18 -40 -15
-46 3 -5 0 -6 -8 -3 -22 8 -26 -7 -12 -40 11 -27 13 -28 23 -10 10 16 11 14
12 -18 0 -43 19 -52 21 -10 1 16 3 20 6 10 2 -10 9 -18 15 -18 5 0 8 7 4 15
-3 8 -2 15 3 15 9 0 31 -45 31 -65 0 -7 5 -15 12 -17 17 -6 2 -37 -23 -47 -14
-4 -18 -10 -12 -14 18 -11 37 1 56 35 l18 32 19 -31 c10 -17 32 -40 48 -52 33
-23 51 -76 33 -94 -16 -16 -13 -38 7 -53 24 -19 32 -17 33 9 l0 22 9 -21 c5
-12 19 -29 32 -38 21 -15 23 -15 31 6 4 12 6 27 3 34 -3 7 10 19 27 28 18 8
26 16 20 16 -20 0 -15 17 7 23 13 3 21 -1 25 -14 7 -20 25 -26 25 -9 0 6 -4
10 -10 10 -12 0 -13 27 -1 34 4 3 25 8 46 10 21 3 41 9 44 13 3 4 21 17 40 27
38 21 37 24 14 -32 -3 -8 0 -10 10 -6 16 6 41 59 38 80 -1 6 12 17 29 24 16 7
35 18 41 26 17 21 29 17 29 -11 0 -32 28 -23 36 11 4 13 13 28 21 32 16 9 27
72 13 72 -6 0 -10 -7 -10 -15 0 -8 -4 -15 -10 -15 -14 0 -13 7 7 37 12 18 14
28 6 30 -7 3 -9 14 -3 32 6 22 4 32 -11 45 -18 15 -19 14 -19 -3 0 -11 6 -22
13 -24 7 -3 5 -6 -6 -6 -20 -1 -37 36 -42 87 -2 31 -19 61 -29 51 -2 -2 5 -35
15 -74 27 -99 17 -178 -30 -225 -24 -24 -109 -76 -175 -106 -136 -62 -280 -11
-363 131 -26 44 -60 122 -72 167 -13 45 -12 48 15 85 32 43 73 84 130 128 83
65 94 69 179 70 108 0 175 -30 229 -104 21 -28 39 -51 42 -51 9 0 -38 68 -65
94 -16 16 -27 34 -24 41 3 8 -9 21 -29 31 -18 9 -41 23 -50 31 -10 9 -26 13
-37 10 -12 -3 -29 3 -42 14 -27 23 -28 23 -35 4z"/>
<path d="M3370 3990 c-43 -43 -14 -120 45 -120 41 0 65 29 65 77 0 56 -69 84
-110 43z"/>
<path d="M4296 3488 c-8 -12 -13 -25 -10 -30 3 -5 2 -7 -3 -6 -4 2 -10 -1 -13
-7 -2 -5 -11 -18 -19 -27 -8 -9 -25 -43 -39 -75 -13 -32 -34 -71 -45 -87 -14
-20 -17 -31 -9 -34 7 -2 3 -13 -13 -30 -51 -55 -158 -193 -153 -198 3 -2 16 7
29 22 13 14 36 39 52 55 15 16 27 32 27 36 0 9 55 59 71 66 11 4 11 6 1 6 -9
1 -7 10 8 31 12 17 25 43 30 58 4 15 13 26 20 24 7 -2 10 3 7 12 -3 8 1 20 9
27 8 7 13 18 10 24 -2 7 1 18 7 24 6 6 8 11 4 11 -4 0 4 12 18 27 14 15 25 32
25 38 0 5 4 4 8 -3 5 -8 8 1 8 23 -1 40 -9 44 -30 13z"/>
<path d="M2930 3399 c0 -5 -6 -9 -13 -9 -7 0 -27 -12 -45 -27 -40 -35 -77
-158 -61 -202 37 -96 72 -152 120 -190 29 -23 57 -41 64 -41 8 0 15 -4 17 -9
2 -5 57 -17 122 -26 114 -15 182 -37 172 -54 -3 -4 9 -16 27 -26 38 -23 148
-28 154 -7 3 6 15 12 28 12 13 0 27 5 31 12 5 8 0 9 -14 6 -25 -7 -41 10 -22
22 19 12 2 30 -28 31 -21 1 -23 2 -7 6 30 8 47 25 36 36 -11 11 -64 0 -57 -11
3 -4 1 -13 -3 -20 -4 -8 -11 -5 -19 9 -10 16 -10 20 3 25 19 8 20 34 0 34 -8
0 -15 -6 -15 -12 0 -9 -3 -9 -8 -3 -13 20 -109 53 -136 48 -20 -4 -39 5 -81
36 -30 23 -55 46 -55 52 0 6 -6 9 -13 6 -8 -3 -14 0 -15 6 -1 7 -4 26 -8 42
-4 23 -1 35 14 48 20 18 20 18 26 -10 6 -24 43 -62 50 -51 41 57 44 66 34 76
-16 16 -28 15 -28 -3 0 -8 -6 -15 -12 -15 -14 0 -18 63 -5 76 4 4 7 14 7 21 0
17 -84 109 -102 112 -52 8 -158 8 -158 0z"/>
<path d="M2398 3225 c-4 -4 0 -18 9 -31 9 -14 11 -24 4 -24 -5 0 -8 -7 -4 -16
5 -13 8 -13 15 -2 7 9 8 8 4 -6 -4 -10 -1 -25 6 -33 7 -9 8 -17 2 -21 -14 -11
-16 -49 -3 -57 6 -4 15 -1 20 6 5 9 9 -10 9 -51 1 -36 3 -102 6 -147 4 -52 1
-97 -6 -120 -11 -34 -83 -133 -102 -141 -5 -2 -8 -10 -8 -18 0 -8 -4 -14 -10
-14 -5 0 -10 -6 -10 -12 0 -17 -46 -107 -64 -127 -8 -9 -17 -28 -21 -43 -4
-15 -15 -30 -24 -33 -20 -6 -45 -49 -47 -81 -1 -19 -36 -72 -127 -191 -52 -67
-87 -129 -87 -152 0 -11 -9 -44 -20 -73 -11 -29 -20 -71 -20 -93 0 -22 -9 -76
-19 -120 -28 -119 -32 -147 -21 -140 5 3 1 -19 -10 -50 -19 -54 -110 -205
-154 -254 -11 -13 -15 -21 -8 -17 6 4 12 5 12 1 0 -15 -57 -108 -115 -190 -35
-49 -62 -92 -59 -94 3 -3 8 -1 12 5 4 6 28 14 55 18 28 4 45 11 41 18 -4 6 6
9 27 7 74 -5 109 14 182 102 11 12 23 34 29 49 12 34 43 44 75 23 36 -24 40
-7 4 26 -17 16 -31 34 -31 41 0 6 -8 10 -17 9 -34 -3 -43 1 -43 20 0 27 48 63
73 55 12 -4 23 -1 28 7 5 8 6 -3 3 -29 -6 -56 15 -66 51 -24 14 17 35 34 45
37 25 8 26 25 2 25 -19 0 -62 31 -62 45 0 4 14 27 30 52 17 24 30 49 30 56 0
7 11 24 24 39 14 14 22 29 19 32 -9 9 1 7 43 -7 22 -8 59 -17 84 -20 l45 -6
-35 13 c-19 7 -38 12 -41 10 -10 -5 -57 49 -61 70 -5 29 -25 30 -32 1 -5 -21
-9 -23 -25 -13 -23 14 -55 66 -58 93 -4 34 6 62 21 62 11 0 12 -7 4 -35 -5
-18 -7 -36 -4 -39 3 -3 22 7 42 23 57 46 77 54 107 48 26 -5 28 -4 22 15 -4
12 -3 27 2 34 6 7 16 28 23 47 21 52 34 62 65 50 30 -11 76 -10 68 3 -3 4 -8
6 -11 3 -9 -10 -52 36 -52 55 0 49 -35 68 -46 24 -10 -41 -29 -49 -58 -24 -14
13 -26 27 -26 32 0 4 -6 15 -14 22 -20 21 -14 87 12 119 25 32 29 24 7 -14
-16 -29 -20 -80 -5 -80 5 0 19 14 32 30 35 48 82 71 129 64 35 -6 39 -5 39 15
0 27 62 162 82 178 11 9 23 9 53 -2 22 -8 56 -14 75 -13 l35 0 -27 11 c-20 8
-34 27 -54 74 -15 35 -30 63 -34 63 -11 0 -30 -48 -31 -78 0 -15 -3 -22 -5
-15 -3 7 -12 9 -20 6 -8 -3 -14 0 -14 6 0 6 -6 11 -13 11 -24 0 -46 34 -59 90
-6 30 -16 58 -22 62 -22 15 64 148 96 148 5 0 -1 -10 -12 -22 -18 -19 -21 -32
-17 -71 2 -26 7 -50 10 -54 9 -9 36 16 54 51 9 17 26 39 39 49 14 10 22 23 19
28 -8 11 35 12 54 0 8 -5 9 -11 3 -15 -10 -6 -9 -27 4 -113 3 -18 9 -33 13
-33 9 0 77 111 86 141 6 17 1 19 -39 19 -25 0 -46 4 -46 9 0 5 10 34 21 65 12
30 19 62 16 71 -7 17 -37 21 -37 5 0 -5 -15 -10 -34 -10 -19 0 -37 -6 -39 -12
-3 -8 -6 -5 -6 6 -1 15 -4 16 -16 6 -8 -7 -15 -9 -15 -4 0 5 -7 0 -15 -10 -21
-27 -20 -10 6 110 12 55 24 118 26 142 5 45 13 51 37 26 9 -8 16 -11 16 -5 0
6 -9 15 -21 21 -11 6 -35 35 -53 63 -43 67 -109 141 -118 132z"/>
<path d="M3162 2615 c-36 -26 -82 -99 -71 -116 5 -8 6 -35 3 -61 -6 -45 -5
-47 26 -63 49 -25 143 -54 154 -48 5 3 6 1 3 -4 -7 -12 39 -24 87 -22 29 1 30
1 6 8 -20 5 -22 8 -9 13 38 15 26 107 -15 109 -17 1 -18 2 -3 6 24 6 21 20 -4
19 -16 -1 -25 8 -32 29 -13 38 -30 55 -56 55 -53 0 -95 46 -69 77 14 17 7 16
-20 -2z"/>
<path d="M2403 2039 c-23 -23 -15 -57 16 -73 34 -18 42 -36 34 -76 -5 -26 -2
-30 15 -30 26 0 78 43 97 81 20 38 19 76 -2 87 -32 17 -147 24 -160 11z"/>
<path d="M2878 1862 c-20 -28 -59 -49 -103 -57 -24 -3 -45 -13 -50 -24 -6 -10
-23 -42 -38 -70 -30 -56 -53 -110 -41 -99 13 14 44 -13 63 -57 28 -63 24 -81
-24 -105 l-40 -20 -5 36 -5 35 -34 -35 c-19 -20 -41 -36 -49 -36 -7 0 -11 -4
-8 -9 7 -10 -83 -91 -101 -91 -6 0 -23 -15 -38 -32 -31 -37 -67 -50 -137 -52
-68 -2 -75 -13 -44 -77 14 -30 22 -57 18 -61 -4 -4 -22 -11 -40 -14 -28 -6
-34 -3 -49 25 -23 40 -41 36 -58 -12 -15 -44 -8 -50 66 -61 38 -6 45 -10 44
-27 -1 -11 -6 -24 -11 -27 -15 -11 -49 -81 -42 -87 4 -4 21 0 40 8 48 22 114
21 128 -1 7 -10 9 -11 6 -2 -35 106 -37 121 -26 173 6 28 18 62 26 75 13 20
13 26 0 53 l-15 30 34 -7 c29 -5 42 -1 82 28 69 49 164 99 176 91 5 -3 7 -1 4
4 -4 7 10 13 37 17 24 4 52 15 63 25 10 10 35 23 55 30 54 18 71 41 57 77 -7
16 -13 31 -14 34 -1 3 -5 13 -9 22 -4 9 -4 23 0 30 6 11 5 11 -8 0 -13 -10
-18 -10 -24 -1 -4 8 -3 9 4 5 11 -7 17 18 13 52 -1 8 3 20 9 27 7 8 9 19 6 24
-4 5 -2 12 3 15 15 10 84 109 69 100 -7 -4 -4 4 8 17 12 13 24 30 28 37 11 19
-11 14 -26 -6z"/>
<path d="M144 843 c-10 -21 -19 -51 -19 -68 0 -24 -4 -30 -20 -28 -11 1 -14 0
-7 -3 17 -8 15 -24 -3 -24 -8 0 -15 -9 -15 -20 0 -11 -4 -20 -8 -20 -5 0 -20
-21 -33 -47 -13 -27 -27 -49 -31 -51 -13 -6 -9 -132 3 -132 8 0 8 -4 2 -12
-12 -17 -16 -198 -4 -198 5 0 18 11 29 25 11 14 24 25 28 25 4 0 3 -5 -4 -12
-15 -15 -16 -48 -2 -48 6 0 10 9 10 20 0 11 5 20 10 20 6 0 10 -4 10 -8 0 -17
-32 -72 -41 -72 -6 0 -7 -4 -4 -10 3 -5 -1 -10 -9 -10 -9 0 -16 5 -16 11 0 5
-5 7 -10 4 -7 -4 -6 -14 1 -28 9 -16 9 -22 0 -25 -12 -4 -16 -102 -3 -102 4 0
27 27 52 61 24 33 54 73 67 87 13 15 23 34 23 42 0 19 37 52 45 40 3 -5 -4
-25 -15 -45 -13 -24 -16 -35 -8 -33 7 3 19 17 27 32 9 20 16 25 24 17 7 -7 3
-18 -16 -37 -15 -15 -27 -32 -27 -38 0 -6 -14 -24 -30 -40 -17 -16 -30 -35
-30 -42 0 -6 -7 -14 -15 -18 -8 -3 -15 -11 -15 -17 0 -7 -8 -18 -17 -25 -16
-12 -13 -13 25 -14 36 0 44 4 52 25 5 14 17 25 25 25 10 0 13 -5 9 -12 -4 -7
-3 -8 4 -4 7 4 12 14 12 22 0 10 -5 12 -12 8 -7 -5 -1 7 13 26 24 31 61 57 45
31 -9 -13 3 -14 23 -2 12 8 9 11 -14 17 -29 7 -29 7 -5 16 16 6 26 5 31 -3 4
-8 9 -4 14 10 3 11 10 21 14 21 3 0 15 14 24 30 17 28 17 31 2 36 -14 6 -13
10 9 31 24 22 28 23 42 9 20 -21 23 -20 17 4 -3 12 1 22 11 26 9 3 16 11 16
16 0 6 -7 8 -15 5 -8 -4 -17 -2 -20 3 -7 12 34 54 43 44 4 -3 1 -9 -6 -11 -6
-3 -10 -9 -6 -14 12 -19 23 -7 31 33 5 23 13 43 19 45 7 2 10 -6 7 -22 -7 -33
2 -32 20 4 13 27 13 30 -4 34 -32 9 -23 29 10 22 17 -3 32 -2 36 4 10 17 22
13 27 -7 4 -13 -3 -22 -23 -31 -16 -7 -29 -18 -29 -25 0 -16 -34 -48 -43 -40
-3 3 -3 -3 0 -15 3 -12 1 -21 -6 -21 -6 0 -11 -7 -11 -15 0 -16 -57 -75 -73
-75 -6 0 -7 -3 -4 -6 6 -7 -89 -136 -105 -142 -4 -2 -8 -9 -8 -16 0 -6 -8 -19
-18 -28 -23 -22 -42 -46 -42 -53 0 -3 13 -5 28 -5 31 0 51 13 75 49 l16 25 11
-25 c9 -22 10 -21 5 10 -5 33 7 61 27 61 5 0 6 -9 3 -20 -4 -11 -2 -20 4 -20
6 0 11 5 11 11 0 16 36 59 44 52 12 -12 6 -34 -14 -56 -12 -12 -29 -36 -40
-54 l-19 -33 29 0 c19 0 34 8 45 23 17 25 83 100 133 153 18 19 42 34 53 34
11 0 18 3 15 8 -2 4 2 18 10 32 l15 25 -6 -28 c-5 -25 -3 -28 13 -23 14 5 21
1 25 -14 4 -15 0 -20 -15 -20 -14 0 -18 -5 -14 -16 5 -12 2 -15 -13 -11 -10 2
-25 1 -32 -4 -11 -7 -10 -9 4 -9 9 0 17 -4 17 -10 0 -5 -9 -10 -21 -10 -11 0
-18 -4 -15 -9 3 -5 -1 -11 -9 -15 -8 -3 -15 -16 -15 -28 0 -19 -2 -20 -10 -8
-8 12 -11 11 -16 -8 -5 -18 -9 -20 -15 -10 -6 9 -9 5 -9 -14 0 -17 -6 -28 -17
-31 -10 -3 -1 -5 19 -6 32 -1 43 5 77 41 42 46 65 49 30 5 -11 -15 -16 -27
-10 -27 16 0 42 45 36 62 -6 16 34 68 53 68 7 0 12 4 12 9 0 5 23 26 50 47 28
21 50 42 50 48 0 5 7 18 17 28 9 10 18 30 19 44 3 23 0 25 -22 20 -28 -7 -31
8 -9 38 18 23 19 36 4 36 -5 0 -8 -4 -4 -9 3 -6 -4 -15 -15 -21 -12 -6 -20
-19 -18 -28 1 -9 -4 -28 -11 -41 -7 -12 -11 -32 -8 -42 6 -24 -8 -25 -17 -2
-6 15 -8 15 -16 3 -8 -12 -10 -12 -16 3 -4 12 -10 15 -19 7 -6 -5 -15 -7 -18
-3 -4 3 -7 1 -7 -5 0 -7 -4 -12 -10 -12 -20 0 -9 20 19 35 22 11 30 12 33 3 3
-8 15 -2 34 15 l29 28 -27 -10 c-30 -11 -37 -1 -15 21 8 7 16 26 19 42 5 24 3
27 -15 22 -26 -6 -48 10 -40 30 3 9 0 14 -7 12 -17 -4 -73 -58 -67 -64 3 -3
17 7 31 23 20 21 26 24 26 11 0 -9 -5 -20 -11 -24 -7 -4 -9 -21 -6 -41 5 -28
3 -32 -7 -24 -16 14 -27 4 -19 -17 4 -10 2 -13 -5 -8 -22 14 -52 -4 -52 -30 0
-14 -4 -23 -9 -19 -13 8 -64 -42 -56 -55 3 -5 -1 -13 -10 -17 -10 -3 -21 0
-25 7 -6 10 -12 10 -30 -3 -12 -8 -17 -18 -11 -21 5 -4 14 1 19 10 13 24 24 1
13 -28 -6 -13 -10 -17 -11 -8 -1 9 -5 6 -11 -8 -10 -27 -33 -19 -26 9 7 25 -9
24 -23 -1 -11 -20 -30 -27 -30 -11 0 12 80 91 92 91 5 0 6 5 3 10 -9 14 13 40
33 40 13 0 13 -2 -1 -18 -19 -21 -22 -32 -7 -32 6 0 10 5 10 11 0 6 18 29 40
50 42 41 48 54 28 62 -7 3 -3 4 9 4 12 -1 20 -4 17 -8 -2 -4 -1 -10 4 -13 9
-5 11 0 15 45 1 15 10 36 20 46 9 11 17 35 17 56 0 35 -1 35 -30 27 -26 -7
-30 -6 -30 11 0 10 5 19 11 19 5 0 8 4 5 9 -10 15 -46 0 -63 -26 -22 -33 -51
-48 -49 -25 0 9 5 20 10 23 9 7 27 91 20 98 -2 3 -14 -5 -27 -17 -13 -12 -26
-22 -30 -22 -10 0 -47 -33 -47 -43 0 -15 -38 -49 -44 -39 -3 6 1 17 9 25 16
16 17 67 2 67 -5 0 -4 7 3 15 16 19 30 19 30 0 0 -17 31 -9 43 12 4 7 14 13
22 13 8 0 11 7 8 20 -7 25 -23 26 -24 3 0 -11 -3 -13 -6 -5 -7 17 -23 15 -23
-3 0 -8 -9 -15 -20 -15 -17 0 -19 5 -14 24 8 33 -3 51 -22 35 -8 -6 -14 -8
-14 -4 0 4 -10 -5 -22 -21 -13 -16 -26 -30 -30 -32 -5 -2 -8 -8 -8 -14 0 -5
-6 -16 -14 -24 -8 -7 -16 -19 -19 -26 -2 -7 -7 -10 -11 -7 -18 17 80 159 110
159 17 0 19 26 3 36 -6 3 -14 2 -18 -3 -3 -5 -14 -12 -23 -16 -9 -3 -18 -16
-20 -29 -2 -12 -10 -23 -18 -24 -10 -1 -11 0 -2 3 8 3 11 11 7 21 -4 10 -8 26
-9 37 -1 14 -7 19 -20 17 -15 -3 -18 1 -13 17 4 17 1 21 -20 21 -18 0 -24 -4
-20 -14 4 -10 1 -13 -9 -9 -8 3 -14 -1 -14 -9 0 -19 -27 -55 -35 -46 -4 3 0
17 8 30 20 32 29 76 17 83 -5 3 -10 1 -10 -6 0 -7 -3 -9 -6 -6 -7 7 -44 -30
-44 -45 0 -4 -4 -8 -10 -8 -18 0 -10 21 16 44 21 18 25 26 17 40 -9 16 -12 13
-29 -21z"/>
<path d="M1415 753 c-33 -37 -63 -69 -67 -71 -4 -2 -4 -10 -1 -18 4 -12 7 -12
18 3 8 10 27 18 47 19 18 0 46 4 62 9 20 5 27 5 22 -3 -4 -6 1 -8 13 -5 18 5
20 1 16 -42 -2 -25 -9 -53 -16 -61 -9 -11 -8 -14 4 -14 9 0 18 8 21 18 7 21
70 47 88 36 11 -6 -68 83 -98 111 -7 5 -21 27 -31 48 l-19 38 -59 -68z"/>
<path d="M950 259 c0 -6 -8 -9 -18 -7 -18 5 -42 -13 -42 -32 0 -5 -4 -10 -10
-10 -5 0 -10 -7 -10 -15 0 -8 -5 -15 -11 -15 -7 0 -21 -10 -33 -23 -11 -12
-25 -23 -31 -24 -5 -1 -12 -12 -15 -25 -4 -16 -13 -23 -30 -23 -17 -1 -25 -6
-24 -18 1 -11 -4 -16 -15 -15 -10 2 -15 -3 -15 -15 1 -11 -4 -16 -14 -15 -8 2
-17 -3 -19 -9 -3 -9 6 -13 26 -13 17 0 31 5 31 10 0 6 7 10 15 10 9 0 18 7 21
15 4 8 9 15 13 15 12 0 91 78 91 90 0 6 4 9 9 6 14 -9 101 81 101 104 0 11 -4
20 -10 20 -5 0 -10 -5 -10 -11z"/>
</g>
</svg>
