<?xml version="1.0" standalone="no"?>
<!DOCTYPE svg PUBLIC "-//W3C//DTD SVG 20010904//EN"
 "http://www.w3.org/TR/2001/REC-SVG-20010904/DTD/svg10.dtd">
<svg version="1.0" xmlns="http://www.w3.org/2000/svg"
 width="474.000000pt" height="474.000000pt" viewBox="0 0 474.000000 474.000000"
 preserveAspectRatio="xMidYMid meet">
<metadata>
Created by potrace 1.16, written by Peter Selinger 2001-2019
</metadata>
<g transform="translate(0.000000,474.000000) scale(0.100000,-0.100000)"
fill="#000000" stroke="none">
<path d="M0 2370 l0 -2370 2370 0 2370 0 0 2370 0 2370 -2370 0 -2370 0 0
-2370z m2308 1415 c-3 -25 -1 -32 8 -24 9 7 12 3 13 -13 1 -46 5 -58 15 -55 6
2 10 20 8 40 -4 44 1 46 34 10 l24 -26 -6 32 c-5 26 -4 30 9 25 9 -3 19 -19
22 -36 5 -20 11 -28 21 -24 8 3 14 0 14 -6 0 -6 8 -2 18 10 13 14 22 18 33 11
11 -7 11 -9 -3 -9 -10 0 -18 -7 -18 -15 0 -10 10 -15 28 -15 19 0 29 5 29 15
0 8 -3 15 -7 15 -4 0 -7 13 -7 30 0 24 3 27 14 19 7 -6 13 -17 13 -24 0 -16
18 -30 49 -40 15 -5 21 -3 17 3 -3 6 2 8 13 5 14 -3 22 4 32 26 15 33 29 41
29 16 0 -14 34 -55 45 -55 3 0 5 7 5 15 0 8 8 19 18 24 14 8 22 5 33 -11 8
-11 19 -27 25 -35 8 -12 3 -28 -23 -71 -29 -49 -44 -86 -27 -69 3 3 19 1 35
-5 23 -8 28 -15 24 -29 -7 -23 2 -59 16 -59 5 0 9 11 9 25 0 14 5 25 11 25 6
0 9 7 5 15 -3 9 0 15 8 15 15 0 50 37 60 65 7 17 9 15 20 -17 15 -41 38 -68
59 -68 8 0 20 -7 27 -15 7 -8 21 -15 32 -15 21 0 51 -24 41 -34 -4 -3 1 -6 10
-6 9 0 20 0 25 -1 16 -1 18 46 3 64 -13 16 -13 19 -1 27 8 5 15 24 15 42 0 27
4 34 23 36 27 4 29 22 2 22 -25 0 -26 16 -1 30 11 5 27 30 37 55 20 53 35 47
36 -14 0 -22 3 -41 7 -41 30 0 69 -204 76 -400 4 -111 12 -155 86 -450 22 -88
82 -311 105 -390 9 -30 23 -84 31 -120 8 -36 23 -101 34 -145 11 -44 19 -96
19 -116 0 -22 9 -48 25 -69 14 -19 25 -39 25 -46 0 -20 38 -98 68 -140 43 -59
162 -301 162 -329 0 -14 -13 -53 -29 -88 -22 -48 -47 -80 -100 -128 -57 -52
-81 -84 -126 -169 -31 -58 -66 -113 -77 -122 -16 -14 -38 -18 -100 -18 -70 0
-79 -2 -74 -16 5 -14 1 -16 -25 -10 -17 3 -47 6 -65 6 -19 0 -33 3 -33 8 4 21
-3 23 -26 8 -15 -10 -34 -14 -46 -11 -17 6 -79 -7 -229 -46 -19 -5 -84 -13
-145 -19 -194 -18 -273 -36 -337 -75 -32 -20 -62 -34 -67 -31 -5 3 -14 -1 -21
-9 -6 -7 -18 -11 -27 -8 -8 3 -18 2 -22 -4 -6 -9 -95 -53 -107 -53 -4 0 -1 7
6 15 7 8 18 15 25 15 7 0 23 9 36 20 20 16 21 19 7 20 -9 0 -20 -4 -23 -10 -3
-5 -24 -10 -45 -10 -31 0 -46 -7 -80 -40 -23 -22 -46 -40 -51 -40 -5 0 -9 -5
-9 -11 0 -7 7 -8 18 -4 9 4 26 10 37 12 35 10 -56 -67 -116 -98 -54 -27 -61
-28 -160 -23 -129 7 -173 26 -183 79 -5 26 -12 35 -27 35 -11 0 -45 11 -77 24
-134 55 -241 86 -325 92 -88 7 -160 33 -181 66 -13 22 9 64 38 72 11 3 32 15
46 27 21 17 22 19 5 15 -50 -13 -98 77 -125 234 -7 36 -27 106 -46 157 -57
153 -104 305 -104 338 0 17 5 58 11 91 7 34 12 192 13 374 1 262 4 323 18 365
9 28 19 61 22 75 3 14 47 69 99 123 l94 98 47 152 c27 84 53 168 58 187 21 71
60 119 141 174 230 157 323 221 325 228 2 4 10 8 18 8 8 0 24 9 36 20 12 11
29 20 37 20 8 0 24 9 35 19 12 10 62 40 111 65 50 25 97 52 105 59 37 33 114
78 136 79 13 1 24 6 24 10 0 4 12 8 26 8 24 0 26 -3 22 -35z"/>
<path d="M2062 3625 c2 -13 -6 -17 -42 -20 -25 -2 -49 -10 -56 -19 -6 -9 -18
-16 -27 -16 -8 0 -17 -7 -21 -15 -3 -8 -14 -15 -24 -15 -11 0 -25 -7 -32 -15
-7 -8 -16 -13 -20 -10 -18 11 -37 -7 -32 -31 3 -15 0 -24 -8 -24 -7 0 -10 -8
-7 -20 3 -11 0 -20 -6 -20 -6 0 -8 -2 -5 -5 12 -13 38 8 33 26 -4 11 -2 19 5
19 16 0 53 -21 62 -34 13 -20 8 -29 -8 -15 -14 11 -18 10 -30 -6 -7 -11 -17
-25 -22 -30 -12 -15 -33 -77 -27 -83 2 -3 13 1 23 9 11 8 47 33 81 57 37 26
59 48 55 54 -5 7 -2 9 9 5 11 -4 18 1 23 15 4 13 9 16 13 9 5 -7 22 -1 54 19
26 17 51 30 56 30 12 0 32 26 25 33 -7 7 -71 -21 -96 -41 -15 -13 -17 -10 -23
21 -9 47 -1 70 13 37 6 -14 11 -19 11 -12 1 7 11 17 24 23 17 8 22 18 21 46
-1 21 -7 39 -13 41 -7 2 -11 -3 -9 -13z"/>
<path d="M1349 1443 c-15 -13 -13 -20 12 -71 16 -32 29 -61 29 -67 0 -5 22
-32 49 -60 34 -35 46 -54 39 -62 -6 -8 -1 -17 19 -30 15 -9 32 -23 36 -30 5
-8 13 -11 18 -8 5 4 7 11 4 16 -6 8 11 13 42 12 7 -1 10 3 7 8 -3 5 0 9 6 9 6
0 8 5 5 10 -4 6 -1 17 5 25 10 12 9 15 -3 15 -9 0 -51 43 -93 96 -79 100 -132
154 -149 153 -5 0 -17 -7 -26 -16z"/>
</g>
</svg>
