<?xml version="1.0" standalone="no"?>
<!DOCTYPE svg PUBLIC "-//W3C//DTD SVG 20010904//EN"
 "http://www.w3.org/TR/2001/REC-SVG-20010904/DTD/svg10.dtd">
<svg version="1.0" xmlns="http://www.w3.org/2000/svg"
 width="563.000000pt" height="695.000000pt" viewBox="0 0 563.000000 695.000000"
 preserveAspectRatio="xMidYMid meet">
<metadata>
Created by potrace 1.16, written by Peter Selinger 2001-2019
</metadata>
<g transform="translate(0.000000,695.000000) scale(0.100000,-0.100000)"
fill="#000000" stroke="none">
<path d="M385 6930 c11 -13 15 -25 10 -37 -18 -41 -14 -82 8 -99 15 -11 18
-18 9 -21 -23 -9 -1 -22 28 -17 23 5 35 0 62 -25 19 -18 45 -32 63 -33 17 -1
41 -3 55 -4 14 -1 35 -3 48 -3 14 -1 26 -10 32 -25 5 -13 14 -27 20 -31 7 -4
10 -28 9 -59 l-3 -51 77 -9 c47 -6 96 -6 124 0 l47 9 2 50 c3 42 8 54 34 76
16 14 30 31 30 37 0 7 8 12 18 12 22 0 77 36 77 51 0 18 173 76 258 86 46 5
60 16 35 26 -8 3 -6 6 5 6 9 1 17 -6 17 -15 0 -11 6 -15 19 -11 19 5 91 -11
145 -32 24 -10 36 -8 82 14 52 24 144 35 144 16 0 -4 21 -11 46 -15 49 -6 104
-39 104 -61 0 -19 29 -24 195 -36 123 -9 163 -8 219 3 63 13 77 13 143 -3 124
-30 142 -38 169 -79 32 -48 27 -100 -17 -159 -23 -33 -40 -44 -86 -57 -32 -9
-65 -20 -73 -25 -22 -12 -198 -79 -208 -79 -4 0 -13 -9 -19 -20 -20 -31 -1
-67 42 -79 20 -5 45 -21 56 -35 10 -13 34 -28 52 -32 17 -3 48 -15 67 -25 47
-26 74 -24 96 7 22 29 74 54 113 54 14 0 42 9 61 19 80 45 80 45 153 20 55
-19 70 -21 76 -10 7 10 9 9 14 -3 9 -23 26 -20 36 7 17 43 45 59 103 56 30 -1
60 1 66 5 7 4 19 0 28 -9 15 -15 15 -17 -2 -33 -11 -9 -30 -18 -44 -20 -27 -2
-70 -44 -70 -67 0 -7 9 -17 20 -20 27 -9 25 -15 -15 -54 -19 -19 -35 -38 -35
-42 0 -5 -5 -9 -10 -9 -6 0 -24 -10 -40 -22 -23 -16 -32 -19 -43 -10 -8 7 -38
11 -68 9 -53 -2 -54 -3 -54 -32 0 -19 5 -29 13 -27 7 1 12 -10 12 -30 l0 -32
-20 22 c-12 12 -24 22 -28 22 -11 0 -52 -68 -52 -85 0 -8 -6 -15 -12 -15 -9 0
-8 -4 2 -10 13 -8 12 -10 -2 -10 -10 0 -18 -8 -18 -17 0 -14 -2 -15 -9 -5 -6
10 -15 4 -35 -22 -21 -28 -23 -36 -12 -36 23 0 15 -79 -10 -97 -20 -14 -41
-70 -36 -93 1 -9 17 -22 35 -28 l32 -13 -30 -14 c-16 -8 -38 -20 -47 -27 -14
-10 -22 -10 -35 -2 -14 9 -24 8 -46 -4 -36 -22 -62 -6 -62 37 0 27 -4 32 -34
37 -20 4 -42 2 -53 -5 -10 -6 -18 -7 -18 -2 0 4 -34 11 -75 15 -61 6 -79 4
-91 -8 -8 -8 -21 -13 -28 -10 -9 3 -15 -6 -20 -26 -8 -41 -5 -44 52 -70 138
-63 182 -95 182 -136 0 -19 -4 -25 -15 -20 -9 3 -97 13 -198 22 -152 14 -189
21 -224 40 -24 13 -45 19 -48 14 -4 -6 1 -10 11 -10 14 0 15 -7 10 -45 -6 -35
-4 -49 9 -61 10 -11 15 -29 13 -53 -2 -29 -9 -39 -33 -50 -16 -8 -45 -15 -63
-15 -35 -1 -36 -3 -17 -63 7 -21 5 -22 -29 -16 -31 5 -36 3 -36 -13 0 -17 -3
-16 -19 5 -14 18 -20 20 -23 10 -4 -11 -10 -10 -28 6 l-23 20 8 -25 c10 -34
24 -50 44 -50 11 -1 8 -7 -12 -21 -22 -17 -25 -24 -16 -35 16 -20 36 -17 52 6
13 19 47 19 47 1 0 -3 18 -17 40 -31 22 -14 40 -27 40 -30 0 -3 -16 -18 -35
-33 -19 -15 -35 -31 -35 -35 0 -10 100 -67 113 -65 7 2 17 -9 24 -23 l12 -25
-47 7 c-63 9 -70 13 -101 70 -25 46 -29 49 -64 48 -36 -1 -37 -1 -43 45 -5 41
-11 50 -44 68 l-37 22 -38 -26 c-24 -16 -33 -28 -26 -33 9 -5 8 -10 -2 -19 -8
-6 -13 -20 -10 -30 5 -19 22 -20 71 -6 14 5 22 3 22 -4 0 -6 -8 -11 -17 -12
-14 0 -14 -2 3 -9 12 -5 25 -14 30 -21 5 -8 3 -10 -6 -4 -10 6 -11 2 -6 -19 6
-23 1 -33 -29 -61 -19 -19 -35 -42 -35 -52 1 -24 27 -58 32 -42 3 10 20 7 64
-11 71 -28 84 -38 65 -49 -11 -7 -11 -10 0 -14 11 -5 11 -6 -1 -6 -8 1 -40 1
-70 0 l-55 -1 30 -25 c17 -13 24 -24 16 -25 -7 0 -11 -6 -7 -15 7 -19 -4 -19
-32 1 -25 17 -92 12 -92 -8 0 -6 10 -8 26 -4 20 5 32 2 46 -13 15 -17 16 -21
3 -21 -8 0 -15 -4 -15 -10 0 -10 17 -13 80 -11 19 0 29 -2 23 -5 -7 -3 -13
-12 -13 -19 0 -21 -54 -55 -94 -57 -20 -2 -36 -6 -36 -9 0 -3 16 -13 35 -22
21 -10 37 -26 41 -42 3 -14 11 -25 17 -25 6 0 7 -3 4 -7 -4 -3 3 -18 15 -31
13 -14 17 -22 11 -18 -7 4 -13 2 -13 -4 0 -6 6 -13 14 -16 13 -5 24 -26 39
-75 7 -22 -23 -20 -44 3 -9 10 -19 15 -23 11 -3 -3 -6 2 -6 12 0 14 -4 13 -21
-9 -11 -14 -24 -24 -29 -21 -5 3 -11 1 -15 -5 -4 -6 5 -10 19 -10 14 0 26 -4
26 -10 0 -11 -28 -9 -47 3 -7 5 -13 17 -13 28 0 10 -4 19 -8 19 -4 0 -9 14
-10 31 -2 24 2 32 18 36 24 6 23 31 -1 46 -23 15 -49 1 -49 -25 0 -13 -4 -18
-8 -13 -9 13 -67 45 -81 45 -8 0 -8 -6 1 -19 7 -11 16 -17 21 -14 5 3 4 -5 -3
-17 -11 -20 -10 -22 4 -17 9 4 16 2 16 -2 0 -5 3 -16 6 -25 5 -13 -1 -16 -26
-16 -50 0 -73 -17 -66 -48 6 -26 6 -26 -9 -8 -11 15 -18 17 -27 8 -8 -8 -7
-17 5 -36 13 -18 14 -27 5 -32 -7 -4 -14 -2 -16 4 -2 7 -16 0 -33 -18 -35 -35
-33 -45 13 -48 18 -2 35 -7 36 -12 2 -6 10 -10 18 -10 8 0 14 -5 14 -11 0 -6
-6 -9 -13 -6 -7 3 -13 -3 -13 -14 0 -12 4 -15 12 -8 6 5 30 10 52 12 33 2 40
5 39 21 -3 33 19 28 33 -8 7 -19 18 -34 23 -33 6 1 18 -20 28 -46 14 -40 15
-48 3 -43 -21 8 -17 -11 7 -27 11 -8 16 -18 11 -21 -6 -3 -13 0 -16 6 -3 7 -3
2 0 -12 l5 -25 -19 24 c-11 14 -18 30 -15 37 5 15 -13 28 -27 19 -8 -5 -7 -11
1 -21 12 -14 10 -15 -23 -18 -7 -1 -13 8 -13 19 0 14 -6 19 -18 17 -27 -5 -50
17 -36 34 8 10 8 14 0 14 -6 0 -11 -4 -11 -10 0 -5 -9 -10 -20 -10 -13 0 -18
-5 -14 -15 4 -9 1 -15 -7 -15 -8 0 -15 -12 -16 -26 0 -15 -7 -31 -15 -35 -11
-8 -11 -11 1 -18 12 -8 12 -13 -3 -36 -14 -21 -20 -24 -32 -15 -7 7 -25 9 -38
6 -14 -3 -27 -2 -30 2 -7 11 -67 2 -81 -12 -5 -6 -11 -19 -11 -29 -2 -13 3
-16 20 -12 17 4 16 3 -4 -7 -14 -7 -28 -17 -31 -22 -4 -4 -12 -5 -19 -1 -9 6
-9 3 -1 -14 7 -12 21 -21 36 -21 26 0 53 -34 35 -45 -5 -3 -10 -4 -10 0 0 3
-9 1 -20 -5 -11 -6 -20 -18 -20 -26 0 -9 5 -12 11 -8 6 3 14 2 18 -3 3 -6 16
-13 28 -17 18 -6 22 -4 17 8 -3 9 -1 16 5 16 6 0 11 -6 11 -12 0 -7 5 -5 11 5
8 14 14 16 25 6 20 -17 17 -27 -8 -31 -15 -2 -22 -9 -20 -19 3 -24 -25 -46
-40 -31 -9 9 -8 12 5 12 21 0 22 16 2 24 -9 3 -15 0 -15 -9 0 -8 -20 -26 -45
-41 -50 -29 -55 -35 -24 -31 12 1 24 -4 26 -11 3 -8 -1 -10 -14 -6 -17 7 -17
6 0 -12 12 -13 32 -19 70 -19 52 0 52 0 52 -32 0 -18 -3 -33 -7 -33 -5 0 -8 5
-8 11 0 6 -6 9 -14 6 -8 -3 -30 -2 -48 3 l-33 10 30 -25 c17 -13 36 -24 43
-25 6 0 12 -4 12 -10 0 -21 63 -80 86 -80 13 0 24 -5 24 -11 0 -7 -12 -8 -32
-4 -24 4 -29 3 -18 -4 21 -14 8 -22 -41 -24 -26 -1 -44 -7 -47 -16 -3 -10 0
-12 12 -8 9 4 15 2 13 -5 -1 -6 4 -13 11 -15 7 -3 12 3 13 14 0 16 1 16 9 -2
13 -31 13 -32 -30 -28 -28 2 -42 -1 -46 -11 -3 -8 -12 -12 -20 -9 -8 3 -14 -1
-14 -11 0 -15 13 -21 35 -16 114 25 124 24 135 -6 7 -19 8 -30 0 -38 -5 -5
-10 -16 -10 -23 0 -8 -16 -28 -35 -45 -35 -30 -35 -31 -18 -50 17 -19 17 -20
-17 -16 -19 1 -38 8 -42 13 -9 12 -30 -14 -22 -27 3 -5 -2 -11 -10 -14 -9 -3
-13 -10 -10 -15 3 -5 0 -9 -5 -9 -6 0 -11 -7 -11 -16 0 -13 3 -14 13 -5 17 14
69 -8 62 -26 -2 -7 6 -15 20 -19 14 -3 25 -10 25 -15 0 -5 5 -9 11 -9 6 0 25
-11 43 -25 18 -14 40 -25 49 -25 10 0 17 -4 17 -10 0 -5 -9 -10 -19 -10 -11 0
-26 -3 -35 -6 -11 -4 -16 0 -16 14 0 18 -3 20 -32 11 -17 -5 -36 -13 -42 -19
-14 -14 -18 -48 -6 -55 6 -3 10 0 10 8 0 19 42 30 52 14 4 -6 19 -13 33 -14
22 -2 25 1 19 20 -6 19 -5 20 9 8 9 -7 24 -11 32 -7 8 3 15 0 15 -6 0 -9 3 -9
12 0 16 16 29 15 23 0 -3 -8 5 -14 23 -15 22 -1 31 4 40 25 8 19 10 21 6 4 -5
-18 0 -23 24 -28 24 -5 28 -10 24 -30 -5 -29 -24 -30 -60 -5 -15 11 -36 21
-47 22 -36 3 -65 -1 -64 -8 3 -21 -2 -26 -12 -13 -7 11 -12 12 -15 3 -3 -7
-12 -9 -21 -6 -11 4 -14 2 -9 -5 4 -7 2 -12 -3 -12 -6 0 -11 -4 -11 -10 0 -5
7 -10 15 -10 21 0 19 -17 -4 -30 -22 -11 -18 -50 5 -50 8 0 14 -10 14 -25 0
-14 -5 -25 -11 -25 -5 0 -8 -4 -5 -9 3 -5 -1 -14 -9 -21 -9 -7 -12 -22 -9 -40
4 -20 0 -34 -14 -48 -22 -22 -18 -39 5 -21 10 9 17 8 28 -1 12 -10 15 -9 15 4
0 10 5 14 11 10 6 -3 15 0 20 7 7 12 9 11 9 -1 0 -8 -9 -29 -19 -47 -15 -23
-17 -33 -8 -37 9 -5 9 -7 1 -11 -19 -9 -5 -41 24 -56 15 -8 31 -20 35 -26 8
-14 39 -17 50 -6 4 3 2 12 -4 19 -7 8 -6 14 2 19 6 4 15 2 19 -5 5 -8 13 -4
28 14 11 14 22 26 25 26 11 0 -7 -50 -24 -69 -11 -12 -15 -22 -9 -26 12 -7 12
-16 2 -33 -7 -10 -14 -10 -37 2 -22 11 -32 12 -46 3 -27 -16 -24 -24 11 -32
17 -4 27 -11 24 -17 -4 -7 0 -7 12 0 11 5 37 17 59 27 22 10 45 21 50 23 6 3
2 -4 -9 -16 -18 -20 -18 -22 -1 -28 10 -4 20 -1 25 6 6 10 9 9 12 -1 4 -11 8
-12 20 -2 8 7 18 10 21 6 4 -3 -1 -12 -11 -20 -16 -14 -16 -14 1 -9 18 6 21
-7 7 -39 -5 -11 -9 -14 -9 -7 -1 10 -6 9 -23 -2 -13 -8 -35 -16 -51 -18 -37
-5 -38 -21 -1 -33 16 -5 33 -15 37 -22 4 -7 26 -13 47 -13 22 0 40 -4 40 -10
0 -5 5 -10 10 -10 6 0 10 7 10 15 0 9 9 15 25 15 14 0 29 8 35 20 6 11 15 20
20 20 11 0 -14 -50 -31 -61 -7 -4 -13 -19 -15 -34 -2 -15 -12 -37 -23 -49 -12
-12 -21 -25 -21 -28 0 -6 40 -21 53 -19 4 1 2 -9 -5 -21 -13 -24 -41 -48 -68
-60 -12 -5 -12 -7 3 -7 16 -1 16 -3 2 -32 -9 -16 -23 -33 -31 -36 -7 -3 -14
-13 -15 -22 0 -11 -3 -9 -9 7 -5 12 -14 22 -20 22 -6 0 -9 -4 -6 -8 3 -5 -6
-19 -20 -31 -14 -12 -24 -24 -22 -27 11 -10 74 19 93 42 27 34 41 26 40 -20
-1 -20 0 -36 2 -36 7 0 58 34 64 43 8 11 71 -2 64 -13 -3 -4 5 -6 17 -3 23 5
23 5 3 -10 -11 -8 -17 -19 -13 -23 4 -4 14 -1 23 6 8 7 15 8 15 3 0 -5 -11
-16 -25 -23 -29 -15 -78 -86 -70 -100 3 -5 -1 -20 -9 -32 -12 -20 -14 -37 -7
-83 1 -5 5 -3 10 5 6 8 7 18 5 22 -3 4 -1 8 5 8 5 0 16 6 23 13 22 19 55 36
61 30 3 -3 2 -16 -3 -29 l-9 -23 37 19 c71 35 131 60 148 60 9 0 31 8 48 19
17 10 49 24 71 31 22 7 44 16 49 21 6 5 21 9 35 9 19 0 22 -3 12 -9 -8 -5 -21
-7 -29 -3 -11 4 -14 1 -9 -11 4 -12 2 -14 -10 -10 -11 4 -14 2 -9 -5 4 -7 15
-12 24 -12 9 0 -10 -17 -43 -38 -71 -46 -91 -67 -74 -78 7 -4 18 1 26 12 27
37 43 54 53 54 19 0 10 -22 -11 -27 -14 -4 -18 -10 -13 -22 4 -9 6 -26 6 -38
-2 -19 1 -21 28 -13 40 11 50 19 50 36 0 8 5 14 10 14 6 0 10 -6 10 -14 0 -20
-39 -66 -57 -66 -12 0 -10 -6 9 -22 52 -49 55 -50 61 -29 3 15 1 18 -11 14
-10 -4 -13 -2 -8 5 4 7 14 12 22 12 10 0 12 5 8 13 -5 8 -2 8 9 -2 14 -11 17
-11 17 1 0 8 12 19 28 25 l27 11 -25 2 c-14 1 -29 2 -33 1 -5 -1 -6 3 -3 8 3
5 19 8 36 7 22 -2 27 1 19 10 -13 15 9 86 24 77 5 -3 5 -9 -1 -15 -5 -5 -7
-25 -5 -45 4 -29 0 -40 -27 -68 l-32 -33 20 -20 c11 -11 18 -23 15 -26 -10
-10 53 -61 72 -57 10 1 22 -4 27 -13 8 -14 17 -6 51 41 41 56 77 153 77 207 0
30 9 56 21 56 4 0 5 -7 2 -17 -4 -11 -3 -14 5 -9 7 4 12 2 12 -3 0 -6 -8 -11
-17 -11 -12 0 -14 -3 -6 -11 7 -7 8 -21 3 -40 -6 -21 -5 -27 2 -23 8 5 9 1 4
-12 -5 -10 -13 -32 -19 -49 -5 -16 -15 -34 -21 -38 -8 -6 -7 -10 2 -14 6 -2 9
-9 6 -15 -4 -6 1 -6 13 1 22 11 33 6 33 -16 0 -8 -5 -11 -12 -7 -7 4 -8 3 -4
-5 12 -19 -13 -41 -48 -42 l-31 -2 28 -4 c19 -3 27 -9 23 -18 -3 -8 2 -19 11
-23 21 -12 10 -42 -16 -42 -35 0 -53 -11 -41 -26 7 -7 19 -10 27 -7 11 4 14 2
9 -5 -9 -16 9 -15 59 3 34 12 41 12 55 0 21 -19 30 -19 30 -1 0 8 7 16 15 20
8 3 15 1 15 -5 0 -7 10 -9 28 -5 l27 7 -28 -25 c-21 -18 -30 -38 -37 -83 -13
-81 -10 -133 7 -126 7 3 13 1 13 -4 0 -16 72 -45 83 -34 14 14 27 14 27 0 0
-5 -4 -7 -10 -4 -5 3 -10 0 -10 -8 0 -8 -7 -18 -16 -21 -8 -3 -12 -10 -9 -16
3 -5 1 -10 -4 -10 -6 0 -11 8 -11 18 0 14 -2 15 -10 2 -5 -9 -5 -19 0 -25 6
-7 5 -16 -3 -24 -7 -7 1 -5 18 3 17 9 37 16 45 16 8 0 31 17 52 37 28 27 41
34 49 26 15 -15 -4 -49 -31 -58 -11 -3 -20 -10 -20 -15 0 -12 32 -22 40 -13 9
11 52 121 50 129 -2 9 33 33 48 34 8 0 10 -5 6 -12 -6 -10 -4 -10 8 0 14 11
18 11 25 -2 15 -27 34 -3 24 31 -8 26 -6 35 14 53 13 12 28 20 33 16 5 -3 16
10 25 29 19 39 40 44 88 19 28 -14 34 -14 70 0 21 9 53 18 71 21 18 4 40 13
49 21 8 7 19 14 23 14 12 0 75 -68 69 -74 -3 -3 7 -8 22 -12 17 -4 30 -2 34 5
4 6 14 9 22 6 12 -4 14 2 11 32 -4 33 -6 35 -17 19 -12 -16 -14 -16 -20 5 -6
17 -9 19 -17 8 -6 -10 -7 -7 -3 9 5 17 1 29 -14 43 -19 18 -23 19 -37 4 -9 -8
-20 -13 -24 -10 -13 8 0 35 16 35 8 0 14 9 14 20 0 53 84 19 87 -35 1 -29 52
-181 53 -158 0 14 40 13 40 -1 0 -5 3 -6 6 -3 4 4 2 12 -3 19 -21 27 -21 46
-2 67 23 24 72 30 63 7 -4 -10 2 -14 20 -12 14 0 26 7 26 14 0 8 -5 10 -12 6
-9 -5 -9 -2 1 9 7 9 10 17 5 17 -5 0 -2 5 6 10 11 7 5 8 -20 4 -19 -4 -40 -11
-47 -16 -7 -6 -25 -3 -47 6 -20 8 -43 13 -50 10 -8 -3 -15 4 -18 20 -4 18 0
26 15 30 24 6 13 26 -15 26 -24 0 -15 14 10 16 60 4 58 2 36 20 -10 8 -13 12
-5 8 11 -5 13 -3 8 10 -4 10 -7 20 -7 22 0 3 -10 -4 -22 -16 -12 -11 -25 -20
-29 -20 -11 0 -49 51 -49 64 0 6 10 -1 21 -16 11 -16 27 -28 35 -28 19 0 18
10 -2 25 -9 6 -15 19 -13 29 4 16 6 16 25 -3 l21 -19 1 55 c0 30 5 60 11 66
16 16 13 25 -9 32 -25 8 -26 25 -1 18 22 -6 39 16 21 27 -8 5 -7 9 6 14 9 4
22 2 28 -4 13 -13 59 -13 73 1 6 6 26 12 45 14 21 1 34 8 36 19 3 11 -2 14
-15 10 -17 -5 -17 -5 0 9 16 13 14 15 -25 25 -34 9 -49 8 -72 -4 -16 -8 -31
-12 -33 -10 -7 7 9 36 17 31 14 -9 21 31 11 59 -11 27 -25 33 -36 16 -11 -17
-25 -11 -18 8 12 29 32 44 53 37 14 -4 20 -2 20 9 0 8 9 18 20 21 11 3 20 11
20 16 0 15 69 107 85 113 8 3 14 9 13 13 -4 17 14 53 26 53 8 0 19 7 26 15 18
21 -9 20 -49 -2 -34 -20 -43 -15 -45 26 -1 23 -7 31 -24 36 -14 3 -31 0 -40
-7 -13 -11 -14 -10 -4 8 6 12 7 26 2 35 -5 7 -7 22 -4 32 3 9 1 17 -5 17 -6 0
-11 -4 -11 -10 0 -5 -4 -10 -9 -10 -11 0 -41 28 -41 38 0 10 76 42 98 42 10 0
24 9 32 20 8 11 20 20 27 20 7 0 17 9 23 20 7 14 7 20 0 20 -5 0 -10 7 -10 15
0 8 -7 15 -15 15 -8 0 -15 -4 -15 -10 0 -5 -6 -10 -13 -10 -7 0 -23 -9 -35
-20 -28 -26 -35 -25 -26 2 6 20 5 21 -9 10 -9 -8 -13 -20 -10 -28 8 -22 -14
-17 -31 8 -19 27 -14 35 27 43 44 10 50 15 36 31 -9 11 -3 18 37 35 72 32 84
61 29 67 -16 2 -37 9 -45 16 -8 8 -20 11 -27 9 -17 -6 -26 16 -13 32 7 8 10
15 6 15 -4 0 2 12 11 27 10 15 12 24 6 20 -7 -5 -13 -4 -13 2 0 5 9 12 19 16
19 6 19 7 3 35 -13 22 -22 28 -37 24 -19 -6 -19 -6 -2 13 9 11 17 27 17 35 0
9 6 18 12 21 7 2 9 8 5 13 -5 5 -20 -4 -34 -21 -14 -16 -22 -24 -17 -16 5 10
3 13 -8 9 -8 -4 -21 -2 -29 2 -10 7 -2 14 31 29 24 11 47 18 51 15 4 -2 12 3
19 11 7 8 23 15 36 15 12 0 25 4 28 9 9 13 -19 32 -38 25 -11 -4 -16 -1 -16
10 0 9 3 16 8 16 4 0 18 9 31 19 23 18 24 20 7 36 -9 10 -20 14 -24 11 -3 -4
0 -11 8 -16 29 -18 0 -21 -32 -3 -39 22 -48 32 -41 50 3 7 -3 16 -12 19 -13 5
-15 14 -11 35 3 17 1 29 -5 29 -6 0 -7 5 -3 11 5 8 1 8 -13 0 -15 -8 -25 -7
-39 4 -18 13 -17 14 14 16 52 2 57 4 54 19 -8 32 -42 39 -49 10 -5 -17 -11
-19 -47 -14 -49 8 -49 8 -52 37 -2 12 0 16 2 9 7 -15 24 -6 24 13 0 11 -6 12
-26 5 -18 -7 -31 -7 -40 0 -9 8 -18 8 -33 0 -12 -6 -21 -8 -21 -6 0 3 14 13
32 22 40 21 61 41 54 53 -9 14 5 41 21 41 10 0 12 6 8 22 -6 15 -4 20 6 16 8
-3 23 6 33 19 18 25 18 25 -2 14 -11 -6 -31 -11 -44 -10 -22 1 -22 1 -2 7 42
14 104 82 74 82 -6 0 -10 5 -10 11 0 6 21 -1 46 -15 41 -23 49 -24 72 -12 15
7 39 16 53 19 15 4 34 18 43 32 16 24 16 25 -4 25 -11 0 -20 4 -20 9 0 16 38
23 59 12 25 -14 31 -14 31 -1 0 5 -5 9 -12 7 -6 -1 -14 6 -16 16 -4 21 14 22
61 2 39 -16 53 -30 38 -39 -6 -4 -6 -19 0 -39 5 -17 9 -33 9 -34 0 -2 -9 -3
-20 -3 -11 0 -20 -5 -20 -11 0 -5 5 -7 11 -3 9 5 10 -1 5 -20 -5 -19 -2 -28 8
-32 9 -3 18 -14 21 -24 4 -12 12 -17 22 -13 23 9 35 -19 16 -39 -15 -17 -14
-19 15 -30 25 -10 32 -18 32 -39 0 -15 3 -34 6 -42 3 -8 -2 -17 -12 -21 -13
-5 -15 -2 -11 13 5 22 -20 38 -36 22 -9 -9 18 -60 40 -74 7 -4 13 -19 13 -32
0 -20 -4 -23 -26 -19 -18 3 -25 1 -22 -8 3 -7 -1 -24 -8 -37 -8 -15 -10 -29
-5 -35 5 -6 7 -26 5 -43 -2 -18 1 -33 6 -33 6 0 9 6 7 13 -1 8 8 11 26 9 17
-2 29 3 33 13 3 8 16 15 29 15 30 0 59 32 43 48 -9 9 -9 12 0 12 7 0 12 8 13
18 0 12 3 10 10 -8 6 -14 8 -33 5 -42 -7 -28 57 -23 110 8 45 27 47 39 9 66
-6 5 -6 8 1 8 7 0 10 29 8 88 -2 48 -4 87 -4 87 -1 0 -3 15 -6 34 -2 18 -10
47 -18 65 -7 17 -14 44 -15 60 0 17 -5 32 -10 35 -4 3 -11 22 -15 43 -4 20
-13 39 -22 42 -9 4 -13 14 -10 31 3 15 -1 28 -10 33 -8 4 -17 19 -20 33 -3 13
-7 35 -10 49 -3 14 -6 85 -7 157 -2 99 -5 133 -14 133 -7 0 -13 5 -13 10 0 6
6 10 14 10 8 0 17 7 20 16 12 32 5 56 -23 82 -16 15 -32 37 -35 49 -11 36 4
94 27 102 13 5 16 10 9 15 -6 3 -13 2 -17 -4 -11 -17 -23 -11 -18 9 2 10 15
24 27 31 20 10 22 17 18 65 -4 53 -4 55 32 76 34 20 47 39 26 39 -5 0 -7 7 -3
16 3 8 11 13 19 10 9 -3 14 6 16 27 3 28 7 32 31 31 18 -1 20 0 6 3 -16 4 -19
10 -15 29 5 17 2 24 -9 24 -8 0 -15 -4 -15 -9 0 -13 -63 -26 -67 -14 -4 10
-73 5 -73 -6 1 -3 10 -17 21 -30 17 -21 22 -22 29 -11 7 11 12 12 21 3 8 -8 6
-14 -9 -22 -24 -13 -77 3 -67 19 3 5 -1 10 -9 10 -18 0 -22 -25 -6 -35 14 -9
12 -23 -2 -21 -14 1 -18 -6 -18 -27 0 -9 11 -13 30 -12 31 2 41 -11 15 -21 -8
-4 -15 -12 -15 -19 0 -7 -9 -15 -20 -18 -11 -3 -20 -1 -20 4 0 5 -11 9 -25 9
-30 0 -31 -10 -6 -39 11 -13 25 -19 35 -15 24 9 21 -41 -3 -65 -16 -16 -22
-17 -31 -6 -9 10 -6 15 9 20 25 8 27 23 5 32 -9 3 -24 -3 -37 -18 -12 -13 -14
-17 -4 -10 20 15 21 12 7 -23 -7 -20 -6 -26 5 -26 19 0 25 -12 19 -37 -6 -23
-39 -21 -48 4 -3 8 -11 11 -17 8 -6 -5 -4 -11 7 -19 20 -15 11 -38 -11 -29
-24 9 -17 -17 10 -39 28 -22 32 -38 10 -38 -8 0 -15 -4 -15 -10 0 -5 5 -10 10
-10 6 0 10 -5 10 -11 0 -5 -4 -8 -9 -5 -5 3 -11 -3 -14 -14 -3 -11 -1 -20 4
-20 5 0 9 -5 9 -11 0 -6 -9 -8 -20 -4 -13 4 -20 2 -18 -5 2 -7 -11 -13 -29
-15 -20 -2 -33 2 -35 11 -2 10 -7 9 -23 -3 -18 -14 -18 -15 -1 -9 13 4 17 2
13 -8 -4 -9 0 -12 13 -9 10 3 21 0 24 -6 4 -6 1 -11 -6 -11 -7 0 -20 -5 -28
-10 -13 -9 -13 -11 -1 -19 12 -8 10 -12 -12 -22 -15 -7 -27 -16 -27 -20 0 -4
14 -1 30 7 17 9 30 20 30 25 0 5 5 9 10 9 15 0 12 -30 -4 -36 -10 -4 -13 -16
-10 -42 5 -34 4 -35 -9 -19 -14 16 -15 16 -19 -7 -3 -17 1 -31 13 -42 22 -19
25 -44 7 -44 -8 0 -9 -3 -3 -8 31 -22 69 -132 46 -132 -5 0 -25 -14 -43 -30
-29 -27 -38 -30 -75 -24 -37 5 -50 2 -93 -26 -54 -35 -100 -36 -100 -2 0 14
-4 12 -19 -7 -20 -26 -58 -23 -48 3 3 7 0 19 -6 25 -6 6 -8 12 -4 12 4 1 12 3
17 4 6 1 15 3 20 4 6 0 10 6 10 12 0 8 -5 8 -15 -1 -12 -10 -15 -10 -16 1 -2
26 3 44 14 51 8 5 7 8 -3 8 -12 1 -12 3 2 14 16 12 16 14 -6 24 -13 6 -27 20
-31 31 -3 12 -11 21 -17 21 -6 0 -8 9 -5 20 3 12 -1 24 -11 30 -26 15 4 12 43
-4 25 -11 34 -11 32 -3 -1 7 7 11 18 9 l20 -4 -20 16 c-26 20 -35 20 -35 -1 0
-13 -5 -11 -18 10 -9 15 -24 29 -33 32 -20 7 -73 65 -65 72 3 3 11 1 18 -5 7
-5 36 -13 63 -16 49 -6 50 -6 20 9 -28 13 -29 15 -9 21 12 3 27 17 33 30 6 13
15 24 20 24 18 0 21 33 4 46 -11 8 -13 13 -5 14 6 0 12 4 12 9 0 13 -54 21
-61 9 -3 -5 -13 2 -22 16 -17 25 -8 44 13 31 21 -13 32 7 14 26 -16 18 -18 18
-46 1 -27 -15 -31 -16 -41 -1 -7 9 -18 14 -24 12 -7 -3 -18 8 -24 24 -7 16
-13 23 -16 15 -4 -10 -8 -10 -19 -2 -17 15 3 51 24 43 8 -3 17 -1 21 4 9 15
51 26 51 14 0 -5 -10 -11 -22 -13 -23 -3 -39 -38 -19 -38 6 0 11 8 11 18 0 13
2 14 9 3 11 -18 31 -5 31 20 0 14 7 19 30 19 19 0 33 7 40 20 6 11 21 20 34
20 13 0 29 7 36 15 8 9 8 15 2 15 -6 0 -12 -4 -14 -9 -1 -5 -28 -11 -58 -12
-52 -4 -55 -3 -52 19 2 12 -2 22 -7 22 -6 0 -11 7 -11 15 0 8 3 14 8 14 21 -4
30 3 25 20 -3 10 0 22 6 25 6 4 11 15 11 24 0 14 -3 13 -18 -5 -15 -19 -48
-28 -89 -24 -6 1 -13 11 -15 23 -2 14 -12 24 -28 28 -22 5 -19 8 24 24 26 10
49 16 52 13 3 -2 27 4 53 14 27 10 52 15 55 11 4 -3 4 1 0 11 -3 9 -10 15 -14
12 -4 -3 -10 1 -13 9 -3 7 9 25 26 40 26 23 36 26 69 21 65 -11 126 27 97 61
-6 7 -18 10 -26 7 -11 -4 -14 -2 -9 5 4 7 2 12 -4 12 -6 0 -8 5 -5 11 4 5 -2
18 -13 27 -11 10 -20 29 -20 42 -1 38 -19 122 -33 153 -14 31 -29 36 -29 9 0
-12 -17 -22 -59 -36 -46 -15 -61 -24 -65 -42 -4 -13 -10 -24 -15 -24 -22 0 24
63 55 76 40 17 51 33 33 46 -10 7 -8 8 8 3 26 -7 33 2 26 38 -4 20 -8 25 -14
16 -6 -11 -13 -10 -35 1 l-28 15 37 3 c41 4 46 14 18 39 -20 16 -20 17 7 40
15 13 33 21 40 18 8 -3 20 -5 29 -5 9 0 13 -6 10 -14 -8 -19 18 -40 39 -32 12
4 14 13 10 32 -4 14 -2 32 4 39 8 9 4 17 -14 29 -14 9 -29 16 -33 16 -5 0 -14
13 -21 30 -12 26 -11 37 7 85 12 31 21 64 21 74 0 10 7 24 15 31 12 10 18 9
31 -4 14 -15 14 -19 1 -40 -9 -13 -22 -29 -30 -37 -7 -8 -16 -28 -20 -44 -3
-17 -4 -24 -1 -17 9 21 24 13 24 -13 0 -14 8 -29 20 -35 18 -10 24 -7 21 13 0
4 3 7 8 7 14 0 20 54 8 68 -8 11 -6 18 12 32 16 11 20 20 12 24 -6 4 -11 13
-10 19 0 7 7 2 16 -10 10 -15 26 -23 45 -23 26 0 28 2 18 20 -7 13 -7 20 -1
20 6 0 8 7 5 15 -9 23 29 19 51 -5 10 -11 26 -20 37 -20 10 0 18 -5 18 -11 0
-6 7 -9 15 -5 8 3 15 1 15 -5 0 -6 8 -8 18 -5 9 3 29 0 43 -8 29 -15 59 -5 59
19 0 8 5 15 10 15 6 0 10 5 10 10 0 13 -37 50 -50 50 -5 0 -10 5 -10 11 0 7
11 8 33 3 17 -3 45 -8 60 -9 16 -1 37 -9 47 -18 10 -8 21 -13 23 -10 12 12
134 8 160 -5 21 -11 35 -11 61 -2 33 10 42 28 51 95 1 6 5 27 9 47 10 46 1 77
-16 60 -14 -14 -28 -16 -28 -3 0 12 29 41 40 41 5 0 7 -7 4 -15 -4 -9 0 -15
10 -15 18 0 22 25 5 35 -18 11 52 72 89 77 18 3 35 1 38 -4 3 -4 10 -8 16 -8
7 0 9 20 6 55 -3 31 -1 50 3 43 4 -7 11 -9 16 -5 7 8 -44 56 -60 57 -5 0 -35
18 -66 40 -40 28 -63 38 -76 34 -14 -6 -17 -4 -12 9 8 20 -11 33 -26 18 -16
-16 -47 -14 -47 4 0 8 -5 15 -11 15 -7 0 -9 11 -6 26 6 33 -19 84 -42 84 -10
0 -38 -7 -62 -16 -24 -8 -63 -19 -86 -23 l-43 -8 -30 48 c-16 27 -30 54 -30
59 0 6 -7 10 -15 10 -9 0 -12 -6 -8 -17 6 -15 5 -16 -9 -3 -18 17 -13 32 29
88 l24 33 -29 10 c-20 7 -34 22 -44 48 -24 59 -12 68 64 47 34 -10 69 -23 76
-28 14 -12 17 -32 3 -24 -11 7 -25 -49 -16 -64 3 -5 14 -10 24 -10 10 0 30
-18 45 -40 28 -42 32 -60 16 -60 -19 0 -5 -25 20 -36 33 -14 87 -7 95 14 3 8
2 18 -2 21 -10 7 -10 37 0 47 4 4 7 15 7 25 0 13 14 4 51 -32 27 -27 47 -53
44 -59 -3 -6 5 -14 19 -20 32 -12 38 -55 6 -45 -26 8 -42 -43 -16 -57 9 -5 16
-16 16 -23 0 -8 5 -16 10 -16 6 -1 15 -3 20 -4 6 -1 20 -3 33 -4 16 -1 19 -3
8 -10 -10 -6 -5 -11 18 -16 18 -4 35 -13 37 -20 7 -16 54 4 54 23 0 6 5 12 10
12 6 0 10 -6 10 -13 0 -8 15 -12 45 -12 33 0 45 -4 45 -14 0 -12 3 -12 12 -3
20 20 28 14 21 -18 -3 -19 -1 -30 5 -30 22 0 24 66 4 111 -19 40 -19 45 -4 51
20 8 17 10 -18 12 -14 0 -44 16 -67 35 -33 27 -40 37 -32 47 6 8 15 12 19 9 5
-3 12 0 16 6 3 6 1 15 -6 19 -8 5 -4 9 11 13 28 7 39 1 39 -21 0 -10 7 -28 16
-41 13 -18 18 -20 25 -10 6 10 9 8 9 -7 0 -12 8 -28 17 -35 15 -13 16 -12 11
9 -7 25 4 29 22 7 9 -11 16 -12 25 -5 9 8 14 3 18 -17 6 -30 -17 -58 -39 -49
-7 3 -18 -2 -24 -10 -10 -11 -10 -14 0 -14 7 0 10 -7 6 -15 -3 -8 -1 -15 4
-15 6 0 10 4 10 8 0 15 34 9 47 -7 11 -14 12 -11 13 16 0 17 7 44 15 60 37 71
47 103 40 133 -8 38 -62 90 -93 90 -13 0 -20 4 -17 10 6 10 -9 15 -30 10 -5
-1 -7 2 -3 6 8 8 -22 64 -34 64 -4 0 -8 7 -8 16 0 9 -5 12 -12 8 -7 -5 -8 -3
-3 6 5 9 2 10 -14 5 -17 -5 -21 -2 -21 15 0 20 1 20 30 5 17 -9 30 -22 30 -30
0 -18 12 -19 29 -2 10 8 12 8 7 0 -8 -15 -1 -19 49 -27 37 -7 38 -6 20 7 -11
9 -23 13 -27 11 -5 -3 -8 2 -8 10 0 8 -6 19 -14 23 -12 7 -12 11 -1 27 13 18
14 17 20 -7 9 -34 35 -24 35 13 0 29 -21 53 -27 33 -2 -6 -13 -9 -23 -6 -14 4
-22 -1 -28 -16 -7 -20 -9 -20 -27 -7 -20 15 -20 15 3 16 18 0 22 5 22 35 0 24
5 35 15 35 8 0 15 -9 15 -19 0 -11 5 -23 10 -26 6 -3 10 -1 10 4 0 6 6 11 13
11 6 0 13 14 14 31 1 17 12 47 23 66 21 37 19 76 -4 67 -8 -3 -28 8 -45 24
-26 23 -31 34 -26 55 4 14 13 28 21 31 37 14 -5 63 -59 69 -40 5 -84 32 -68
42 6 3 20 3 31 0 25 -8 26 10 3 24 -15 9 -15 10 -2 11 8 0 24 -8 35 -17 10
-10 32 -24 47 -32 15 -8 26 -20 24 -25 -5 -15 31 -48 38 -36 4 6 2 10 -4 10
-5 0 -8 18 -6 40 3 38 -6 52 -20 30 -4 -6 -12 -7 -18 -3 -7 4 -16 8 -22 8 -34
3 -62 35 -30 35 8 0 15 -5 15 -12 0 -9 3 -9 12 0 8 8 17 8 30 1 18 -10 19 -8
13 13 -4 12 -14 34 -22 48 -12 23 -13 23 -8 3 4 -13 3 -23 -2 -23 -13 0 -63
67 -63 85 0 13 -7 15 -37 10 -62 -11 -72 -15 -78 -36 -5 -16 -16 -19 -60 -19
-34 0 -59 -5 -69 -15 -8 -8 -18 -15 -23 -15 -5 0 -21 -6 -36 -12 -21 -10 -27
-20 -27 -46 0 -25 -6 -35 -25 -44 -14 -6 -25 -16 -25 -21 0 -6 -3 -7 -7 -3 -4
3 -9 28 -11 54 -2 26 -10 57 -17 68 -16 25 -8 39 12 23 9 -9 13 -8 13 0 0 6
-4 11 -10 11 -5 0 -10 7 -10 16 0 10 -6 14 -14 11 -8 -3 -13 1 -12 10 0 9 -5
18 -12 20 -8 3 -10 -1 -5 -14 3 -10 3 -15 -2 -11 -4 4 -21 -4 -37 -17 -31 -26
-53 -31 -63 -15 -8 14 -45 13 -45 -1 0 -6 7 -8 17 -5 15 6 15 5 -1 -13 -13
-14 -16 -28 -12 -46 6 -22 9 -24 27 -14 34 18 119 37 125 28 3 -5 -2 -12 -10
-15 -9 -3 -16 -13 -16 -20 0 -8 -12 -19 -27 -25 -14 -5 -32 -17 -39 -27 -12
-15 -17 -12 -56 33 -75 86 -85 95 -108 95 -12 0 -33 -14 -48 -32 -15 -17 -45
-49 -66 -70 -41 -39 -42 -48 -3 -24 12 7 40 13 62 12 51 -3 125 -24 125 -36 0
-12 -14 -13 -24 -3 -3 4 -27 8 -52 9 -46 2 -88 -20 -90 -48 0 -7 -2 -20 -2
-29 -1 -9 -13 -22 -27 -29 -14 -7 -25 -19 -25 -25 0 -17 -99 -117 -133 -134
-24 -13 -29 -13 -43 1 -21 20 -21 94 0 117 18 20 12 31 -17 31 -10 0 -21 8
-24 18 -4 17 -43 42 -87 56 -11 4 -16 12 -12 21 7 20 -38 31 -70 16 -14 -6
-44 -11 -67 -10 -40 0 -41 1 -21 15 31 21 21 54 -17 54 -15 0 -31 5 -34 10 -3
6 -12 10 -20 10 -17 0 -13 -52 5 -58 8 -3 10 0 5 8 -5 8 -3 11 6 8 18 -6 19
-70 2 -76 -8 -2 -13 5 -13 20 0 17 -3 19 -9 9 -6 -9 -11 -10 -15 -2 -9 13 -53
15 -60 2 -4 -5 7 -12 24 -16 37 -8 31 -21 -13 -30 -39 -9 -56 -22 -68 -53 -9
-23 -13 -24 -66 -19 -63 7 -71 12 -75 47 -2 14 -5 27 -8 30 -3 3 -16 19 -28
37 -24 34 -27 63 -13 109 5 16 12 46 16 66 4 24 14 42 28 49 27 15 326 14 341
-1 5 -5 24 -10 40 -11 17 0 40 -4 50 -8 14 -6 27 1 51 27 25 27 36 33 54 27
16 -5 20 -12 16 -26 -4 -11 -2 -19 5 -19 8 0 10 11 6 33 -8 44 14 77 41 61 20
-12 30 -54 13 -54 -6 0 -8 -5 -5 -10 4 -6 10 -8 14 -6 4 3 21 -8 37 -25 l28
-30 -29 -24 c-25 -21 -28 -26 -15 -35 23 -15 29 -12 36 15 3 14 9 25 13 25 10
0 71 -39 71 -45 0 -4 -5 -3 -11 1 -8 4 -8 0 0 -15 7 -11 14 -21 16 -21 16 0
55 21 55 30 0 7 -6 8 -19 1 -14 -8 -19 -7 -18 2 2 67 -4 86 -25 85 -44 -2 -59
2 -52 13 3 6 -6 38 -21 70 -16 32 -25 62 -21 66 4 4 25 -2 46 -15 48 -27 60
-28 29 -3 -23 18 -23 20 -6 39 12 14 35 21 74 24 32 3 59 10 61 16 6 19 30 14
46 -10 9 -12 16 -17 16 -10 0 14 25 12 113 -9 49 -12 92 -40 80 -52 -7 -7 27
-43 47 -49 8 -3 23 -1 32 3 12 7 18 4 23 -11 8 -24 14 -25 60 -3 29 14 43 15
76 6 53 -14 147 10 242 61 37 20 73 36 80 36 20 0 65 -52 78 -90 7 -19 22 -48
33 -63 18 -25 21 -26 28 -10 6 14 7 13 6 -7 -2 -34 21 -85 45 -100 19 -11 19
-10 -1 15 -12 15 -22 31 -22 35 0 9 82 -5 107 -19 10 -5 41 -19 68 -31 69 -30
87 -52 117 -145 25 -77 28 -138 7 -151 -17 -10 -9 -24 15 -24 13 0 47 -8 76
-17 43 -14 55 -23 66 -49 8 -18 21 -37 31 -42 18 -11 25 -60 10 -79 -16 -21
-62 -15 -93 12 -16 14 -40 28 -54 32 -14 3 -36 14 -49 25 -13 10 -29 18 -36
18 -7 0 -18 7 -25 15 -10 12 -10 15 0 15 10 0 10 3 0 15 -10 12 -10 18 0 30
10 12 9 15 -7 15 -11 0 -31 8 -44 19 -13 10 -34 21 -46 25 -20 7 -23 4 -23
-22 0 -16 6 -35 14 -41 7 -6 21 -44 31 -84 15 -62 18 -127 19 -487 1 -307 4
-420 13 -435 9 -14 13 -16 13 -5 0 12 3 11 11 -2 12 -22 39 -23 39 -2 0 8 -5
12 -10 9 -9 -5 9 31 37 78 3 5 6 31 8 60 2 44 7 55 36 80 19 16 50 36 69 44
19 8 54 24 78 35 l42 20 0 729 0 729 -2594 0 -2595 0 -9 -42 -10 -43 -1 43
c-1 39 -3 42 -28 42 -25 0 -26 -1 -8 -20z m3335 -675 c25 -7 58 -18 74 -24 28
-11 28 -12 11 -31 -10 -12 -15 -28 -12 -40 4 -16 2 -20 -9 -16 -9 3 -14 -1
-14 -12 0 -10 -9 -26 -21 -36 -14 -12 -20 -25 -16 -42 2 -13 2 -24 -1 -24 -13
0 -42 34 -42 49 0 11 -3 12 -8 4 -5 -8 -13 -9 -22 -3 -12 8 -12 10 1 15 14 5
15 11 3 43 -7 20 -13 45 -14 54 0 9 -8 22 -17 27 -11 6 -13 11 -5 11 7 0 10 5
7 10 -12 19 4 43 23 35 9 -4 37 -13 62 -20z m-388 -259 c6 -14 8 -31 5 -39
-11 -30 -304 -223 -327 -215 -10 3 54 77 181 209 55 57 72 69 98 69 24 0 34
-6 43 -24z m976 -2316 c3 -9 -1 -11 -13 -6 -15 5 -16 4 -6 -8 10 -11 9 -16 -5
-24 -11 -6 -18 -22 -19 -38 0 -27 -4 -29 -51 -37 -28 -4 -61 -17 -72 -28 -23
-21 -42 -25 -42 -8 0 6 14 16 30 22 17 6 30 15 30 20 0 5 -7 6 -15 3 -8 -3
-22 -9 -30 -12 -11 -4 -15 0 -15 16 0 11 -4 18 -10 15 -6 -3 -7 1 -4 9 3 9 10
13 15 10 5 -3 9 -1 9 4 0 5 14 12 30 16 17 3 30 12 30 20 0 16 27 29 41 20 5
-3 9 -13 9 -23 0 -9 6 -24 13 -32 6 -8 11 -13 10 -11 -4 9 21 78 31 84 15 10
29 5 34 -12z m-2739 -276 c25 -15 69 -48 96 -74 28 -27 69 -66 93 -88 23 -22
42 -44 42 -48 0 -16 -36 -32 -86 -38 -27 -3 -41 -3 -32 0 15 5 12 11 -19 44
l-37 38 -44 -34 c-42 -32 -80 -46 -67 -24 4 6 -1 7 -11 3 -14 -5 -16 -2 -10
23 4 16 11 31 14 34 4 3 7 29 7 58 0 30 3 56 7 58 13 8 -5 44 -23 44 -24 0
-25 17 -1 23 9 3 19 5 21 6 2 0 25 -11 50 -25z"/>
<path d="M475 6430 c-22 -5 -74 -10 -115 -11 -41 0 -88 -5 -105 -9 -16 -5 -58
-17 -93 -26 -67 -19 -102 -49 -102 -89 0 -25 34 -59 70 -70 14 -4 29 -13 35
-20 5 -7 33 -18 60 -25 61 -16 101 -35 138 -66 39 -33 80 -31 119 6 17 17 34
30 39 30 4 0 13 17 19 38 19 62 61 136 91 160 16 13 29 30 29 37 0 38 -104 63
-185 45z"/>
<path d="M1670 6106 c-57 -11 -71 -11 -145 -2 -58 8 -61 7 -97 -24 -37 -31
-55 -80 -60 -158 -1 -18 -8 -38 -15 -44 -7 -6 -13 -27 -13 -47 0 -20 -9 -50
-19 -67 -21 -34 -18 -45 16 -63 36 -18 93 -13 139 14 49 29 189 65 251 65 23
0 64 9 90 19 27 10 84 22 128 26 79 6 155 29 155 47 0 27 -25 48 -73 62 -52
15 -87 45 -140 121 -34 48 -125 70 -217 51z"/>
<path d="M850 6090 c-43 -8 -119 -46 -126 -64 -3 -7 -27 -23 -54 -36 -68 -32
-74 -62 -23 -116 25 -27 50 -43 73 -48 19 -3 58 -13 86 -22 40 -12 59 -13 91
-5 60 16 68 31 64 120 -5 115 -5 115 -23 143 -20 30 -40 36 -88 28z"/>
<path d="M738 5540 c-14 -9 -18 -25 -18 -80 0 -58 5 -78 30 -124 39 -71 46
-125 25 -206 -9 -36 -16 -69 -16 -75 0 -5 4 -48 8 -95 7 -71 11 -85 27 -88 24
-5 90 59 123 120 22 40 34 50 87 72 55 23 77 26 219 28 86 2 157 -1 157 -6 0
-4 7 -5 16 -2 9 3 12 2 9 -4 -9 -14 72 -1 107 16 15 8 39 14 53 14 18 0 42 15
73 45 25 25 54 45 63 45 23 0 31 25 17 56 -23 49 -183 113 -214 85 -5 -5 -25
-14 -45 -20 -32 -10 -41 -9 -73 10 -35 21 -45 21 -185 15 -177 -9 -195 -4
-276 79 -30 31 -55 60 -55 64 0 4 -11 17 -24 30 -27 25 -83 36 -108 21z"/>
<path d="M1107 4103 c-19 -3 -27 -9 -24 -18 3 -7 -3 -22 -13 -33 -18 -19 -18
-20 12 -18 18 1 33 7 36 14 5 17 31 15 39 -3 3 -9 -2 -22 -13 -29 -17 -13 -16
-14 12 -29 l29 -15 -26 -7 c-17 -4 -28 -16 -35 -38 -5 -18 -15 -31 -22 -29 -6
1 -12 -2 -12 -8 0 -16 18 -12 32 8 7 10 22 21 32 25 15 6 17 5 7 -7 -6 -7 -9
-21 -5 -30 3 -9 1 -16 -5 -16 -6 0 -8 -7 -5 -15 5 -11 11 -12 27 -4 20 9 20 9
5 -4 -21 -17 -24 -57 -4 -57 8 0 17 6 19 13 4 10 6 10 6 0 1 -7 8 -13 16 -13
9 0 15 -9 15 -25 0 -43 34 -31 69 23 17 27 31 55 31 63 1 10 5 8 15 -5 11 -14
15 -16 15 -5 0 8 3 25 6 39 6 21 4 23 -7 13 -17 -17 -29 -16 -29 0 0 8 -10 19
-22 25 -13 6 -17 11 -10 11 6 1 12 8 12 16 0 8 6 15 14 15 8 0 17 7 20 16 9
25 7 64 -4 64 -5 0 -10 -5 -10 -11 0 -8 -5 -7 -15 1 -9 7 -13 20 -10 29 3 9
-6 3 -18 -12 l-24 -28 -18 28 c-11 16 -20 23 -23 15 -7 -22 -37 -12 -54 18 -9
17 -21 29 -25 29 -4 -1 -21 -4 -36 -6z"/>
<path d="M563 3092 c-10 -17 -8 -18 13 -14 13 2 24 1 24 -2 0 -15 -31 -66 -40
-66 -13 0 -1 -62 16 -79 11 -12 17 -13 38 -1 14 7 23 17 20 22 -9 13 3 9 20
-8 9 -8 16 -23 16 -32 -1 -16 -2 -16 -14 0 -12 17 -14 17 -31 -2 -10 -11 -13
-20 -7 -20 7 0 12 -6 12 -13 0 -7 9 -13 19 -14 14 -1 18 3 14 15 -4 15 -3 15
6 2 15 -21 14 -30 -5 -30 -18 0 -11 -35 14 -62 8 -10 10 -18 4 -18 -6 0 -12 5
-14 12 -3 8 -7 8 -11 2 -3 -6 7 -25 23 -42 19 -21 27 -38 23 -52 -4 -15 -2
-19 10 -15 10 4 16 -2 19 -19 3 -14 1 -26 -3 -26 -5 0 -9 7 -9 15 0 8 -6 15
-14 15 -8 0 -16 7 -20 15 -9 25 -44 18 -48 -10 -3 -24 -3 -24 -28 -5 -14 10
-21 22 -16 27 5 4 11 2 13 -4 8 -22 25 -14 21 10 -4 26 -48 38 -48 13 0 -21
-20 -31 -32 -15 -7 10 -8 8 -5 -9 3 -12 -1 -53 -9 -90 -16 -75 -16 -86 -4 -57
7 17 9 16 9 -10 0 -16 -6 -41 -14 -55 -17 -30 -19 -60 -4 -60 6 0 8 7 5 16 -4
12 -2 15 9 10 9 -3 15 0 15 9 0 18 17 20 22 3 4 -12 -12 -68 -22 -78 -3 -3
-14 -22 -25 -44 -11 -21 -28 -41 -37 -44 -20 -5 -22 -13 -9 -27 5 -6 14 -27
21 -48 9 -29 15 -35 25 -27 10 8 14 4 17 -14 3 -16 1 -23 -5 -19 -10 6 -2 -55
9 -66 7 -7 24 21 18 30 -2 4 3 12 11 19 13 11 15 8 15 -14 0 -17 4 -25 11 -21
6 4 8 13 5 21 -3 8 1 14 9 14 7 0 15 -9 17 -20 2 -14 7 -17 18 -10 12 7 12 12
2 22 -14 14 -16 42 -2 33 6 -3 7 1 4 9 -4 9 -1 16 6 16 7 0 10 7 6 15 -7 19
21 20 40 1 19 -20 18 -26 -6 -26 -28 0 -35 -23 -17 -59 13 -26 13 -31 -1 -45
-15 -14 -14 -17 3 -31 11 -8 15 -15 9 -15 -5 0 -19 8 -30 18 -10 9 -34 23 -53
29 -33 12 -36 11 -66 -20 -23 -24 -34 -48 -44 -97 -25 -134 -28 -138 -64 -136
l-32 1 -12 -165 c-13 -178 -11 -289 5 -299 14 -8 43 -136 36 -156 -4 -9 2 -25
12 -36 13 -14 19 -38 20 -82 1 -42 9 -76 23 -102 11 -22 21 -47 21 -57 0 -9
12 -26 26 -37 27 -21 27 -21 11 -63 -18 -45 -18 -46 45 -111 13 -13 16 -27 12
-55 -3 -20 -5 -58 -4 -84 0 -26 -4 -57 -10 -68 -8 -16 -8 -18 4 -14 8 3 17 1
21 -5 3 -6 -1 -11 -9 -11 -13 0 -14 -4 -4 -27 16 -37 18 -39 26 -26 13 21 85
-21 164 -94 9 -8 23 -13 30 -11 7 3 21 -4 32 -14 13 -11 22 -14 26 -8 4 7 12
5 20 -5 9 -11 22 -14 42 -10 15 4 28 3 28 -2 0 -8 8 -10 65 -14 14 -1 25 -5
25 -10 0 -5 9 -9 21 -9 12 0 17 4 14 11 -5 7 5 8 31 3 47 -9 224 -11 224 -3 0
3 53 4 117 2 82 -2 123 -7 139 -18 16 -10 22 -11 19 -3 -4 10 14 13 70 14 44
1 75 -3 75 -9 0 -5 6 -4 14 2 9 8 31 10 63 5 26 -3 56 -6 66 -6 9 1 15 -3 13
-7 -3 -4 8 -8 25 -8 19 0 25 3 17 9 -8 4 7 8 38 8 29 0 58 -6 70 -15 25 -19
40 -19 24 0 -10 13 -9 15 11 15 13 0 42 -5 64 -11 22 -5 68 -11 103 -12 39 -2
66 -8 71 -16 6 -10 10 -9 15 4 3 9 11 13 16 10 26 -16 582 -25 587 -9 2 5 -7
10 -19 10 -13 1 -49 3 -80 5 -31 1 -55 6 -52 11 3 4 1 8 -5 8 -5 0 -13 -4 -16
-10 -11 -17 -86 -12 -101 7 -7 10 -14 13 -14 8 0 -6 -31 -12 -71 -14 -68 -2
-71 -1 -64 18 5 15 2 21 -9 21 -9 0 -24 9 -33 20 -10 11 -22 20 -28 20 -5 0
-3 -5 5 -10 8 -5 11 -10 6 -10 -5 0 -1 -9 8 -19 10 -11 15 -25 11 -30 -9 -16
-48 -13 -71 4 -18 14 -18 14 6 16 21 1 22 2 5 6 -31 8 -45 23 -45 49 0 29 -16
39 -37 22 -15 -12 -16 -10 -9 15 3 15 2 27 -3 27 -4 0 -19 15 -32 34 -22 33
-24 34 -37 15 -16 -23 -9 -49 13 -49 13 0 13 -3 -2 -19 -19 -23 -33 -19 -33
10 0 10 -6 19 -13 19 -19 0 -41 40 -28 53 18 18 13 26 -11 20 -23 -6 -22 -6 2
16 18 16 20 21 7 17 -14 -5 -16 -2 -8 13 12 21 5 31 -20 31 -23 0 -52 -29 -45
-46 3 -9 -2 -14 -14 -14 -11 0 -20 4 -20 10 0 5 -6 7 -14 4 -7 -3 -21 7 -30
21 -9 14 -23 24 -31 23 -15 -3 -16 1 -8 31 4 17 8 18 24 8 10 -6 19 -17 19
-24 0 -7 6 -13 14 -13 8 0 16 -5 18 -12 3 -7 11 -9 24 -4 15 7 16 9 4 14 -20
7 -35 32 -35 61 0 13 -6 26 -13 29 -7 2 -12 0 -11 -5 3 -19 -2 -33 -12 -33 -7
0 -9 10 -7 25 3 14 1 28 -3 31 -17 10 -9 34 11 34 22 0 27 15 8 26 -6 4 -14 2
-16 -4 -6 -18 -19 -14 -25 8 -4 14 0 20 11 21 12 0 10 3 -5 9 -13 5 -23 16
-23 25 0 8 -7 15 -16 15 -10 0 -14 6 -11 14 3 8 9 31 13 51 6 33 4 37 -12 33
-11 -2 -18 -11 -18 -21 2 -20 -22 -23 -29 -4 -3 6 -3 -3 0 -20 5 -30 3 -33
-20 -33 -14 0 -29 4 -32 10 -3 6 1 7 9 4 9 -3 16 -2 16 4 0 6 3 19 6 29 6 15
4 16 -7 6 -18 -17 -34 -17 -20 0 12 15 5 27 -15 27 -8 0 -11 -6 -8 -15 4 -9 0
-15 -9 -15 -20 0 -26 20 -14 47 7 16 6 27 -3 38 -12 14 -11 18 1 26 12 8 12
10 -1 19 -11 7 -12 10 -2 10 8 0 2 12 -15 30 -29 31 -53 39 -53 18 0 -7 -5 -5
-12 5 -11 14 -16 14 -31 3 -16 -13 -16 -14 9 -20 21 -6 24 -10 15 -19 -8 -8
-14 -8 -19 -2 -4 6 -13 10 -19 11 -34 3 -35 5 -17 26 17 19 17 21 2 15 -13 -5
-18 -1 -18 13 0 11 -7 20 -15 20 -8 0 -15 -7 -15 -15 0 -22 -14 -18 -25 6 -15
32 -30 28 -33 -8 -2 -17 -10 -34 -19 -37 -13 -5 -14 -4 -3 9 10 12 10 21 1 42
-6 14 -9 28 -6 31 3 3 5 0 5 -6 0 -7 5 -12 10 -12 6 0 5 14 -4 34 -8 19 -13
49 -12 68 4 47 -13 91 -31 83 -9 -3 -22 3 -29 12 -20 27 -17 36 12 29 21 -6
14 4 -32 45 -68 59 -92 71 -116 55 -20 -12 -23 -10 -33 23 -6 19 -4 23 8 18
26 -10 36 12 20 44 -8 16 -18 31 -24 34 -5 4 -9 25 -9 48 -1 62 -32 96 -59 63
-12 -14 -57 -10 -67 6 -3 5 5 6 19 3 33 -9 41 8 22 44 -11 23 -21 29 -43 29
-16 -1 -35 3 -43 8 -8 5 -23 9 -34 9 -11 0 -20 5 -20 12 0 6 -3 15 -7 19 -5 4
-8 20 -8 36 0 24 -4 29 -22 28 -39 -3 -44 -1 -56 25 -11 24 -52 36 -52 16 0
-5 -11 -8 -25 -7 -20 1 -25 8 -30 39 -4 20 -11 37 -16 37 -5 0 -21 18 -36 41
-17 26 -36 42 -55 46 -16 3 -31 9 -34 14 -5 9 15 50 31 61 6 4 3 12 -7 20 -10
7 -22 31 -27 53 -5 22 -13 50 -17 63 -6 21 -4 22 21 16 23 -6 26 -4 22 12 -25
84 -28 106 -16 120 6 8 15 14 20 14 14 0 11 -28 -3 -34 -7 -4 -3 -4 9 -2 16 3
20 0 15 -13 -3 -9 -10 -19 -15 -22 -5 -4 -5 -9 1 -13 6 -3 17 7 25 23 13 26
13 32 1 42 -12 10 -12 14 3 25 17 11 16 13 -9 19 -29 7 -29 29 0 53 14 10 26
42 17 42 -2 0 -15 -4 -29 -10 -14 -5 -26 -6 -26 -1 0 19 23 71 31 71 5 0 7 11
3 25 -4 15 -2 25 5 25 6 0 8 -7 5 -15 -4 -9 0 -15 9 -15 8 0 18 -6 20 -12 3
-7 3 1 2 17 -2 17 -4 34 -4 39 -1 4 -8 5 -17 2 -17 -7 -54 27 -54 49 0 7 -7
16 -16 19 -10 4 -13 13 -9 26 4 12 2 20 -5 20 -6 0 -9 4 -6 9 3 5 -1 28 -10
52 -10 28 -13 60 -10 86 5 35 1 47 -20 73 -29 34 -29 34 15 19 25 -9 30 -15
25 -31 -4 -14 -2 -18 5 -14 15 10 14 35 -4 52 -8 8 -12 20 -9 27 2 7 -5 13
-18 14 -53 5 -71 10 -83 26 -16 23 -57 22 -72 -1z m19 -1135 c5 -10 14 -14 20
-11 6 4 8 3 5 -3 -4 -6 0 -14 9 -17 8 -3 12 -10 9 -16 -3 -5 3 -10 14 -10 24
0 25 -4 10 -32 -9 -16 -8 -19 2 -13 9 6 11 3 6 -9 -4 -9 -3 -15 1 -12 11 6 24
-4 38 -29 14 -24 38 -164 31 -172 -11 -10 -29 10 -24 27 3 12 0 17 -8 13 -10
-3 -12 2 -8 19 4 13 10 26 15 29 5 3 2 12 -7 19 -13 10 -15 9 -15 -6 0 -15 -2
-16 -9 -5 -5 8 -7 20 -4 28 3 7 -2 13 -11 13 -9 0 -16 -6 -16 -12 0 -7 -7 -2
-16 10 -8 12 -13 32 -11 45 4 19 4 18 6 -5 0 -15 5 -29 10 -32 5 -3 8 9 7 27
-1 21 -7 33 -19 35 -23 5 -22 19 3 27 11 3 20 11 20 16 0 6 -4 8 -9 5 -4 -3
-16 3 -26 14 -10 11 -22 17 -26 14 -5 -3 -9 -1 -9 4 0 6 -8 8 -19 5 -22 -6
-36 23 -21 42 14 17 40 13 52 -8z"/>
<path d="M350 2610 c-25 -10 -56 -19 -70 -20 -14 0 -34 -7 -44 -15 -11 -8 -31
-15 -44 -15 -28 0 -62 -17 -62 -30 0 -6 12 -10 28 -10 15 0 78 -12 139 -27 72
-17 116 -24 122 -18 5 6 11 42 12 80 3 82 -5 87 -81 55z"/>
<path d="M4298 2582 c-16 -7 -28 -20 -28 -28 0 -7 -7 -14 -15 -14 -8 0 -15 7
-15 15 0 19 -9 19 -31 -1 -10 -9 -15 -23 -13 -32 4 -13 2 -13 -10 2 -15 19
-16 19 -16 -8 0 -16 10 -36 26 -51 29 -27 40 -30 49 -15 3 6 -4 10 -17 10
l-23 0 25 20 c22 16 27 17 39 5 13 -12 12 -17 -2 -33 -19 -20 -23 -52 -7 -52
6 0 10 -13 10 -28 0 -16 6 -37 14 -47 8 -11 12 -24 9 -31 -2 -6 3 -14 12 -18
10 -4 19 2 24 17 9 22 9 22 19 -5 6 -14 16 -29 21 -33 14 -8 14 -62 1 -70 -5
-3 -7 -12 -3 -20 3 -10 -1 -15 -12 -15 -17 0 -17 -1 -2 -18 22 -24 24 -50 2
-32 -8 7 -25 10 -40 6 -19 -5 -23 -3 -19 9 8 19 -3 19 -22 1 -12 -12 -10 -16
16 -28 17 -7 33 -21 36 -30 3 -11 15 -18 30 -18 13 0 24 -4 24 -10 0 -5 -4
-10 -10 -10 -5 0 -10 -5 -10 -11 0 -6 7 -8 16 -5 10 4 13 2 7 -7 -4 -6 -9 -20
-10 -31 -3 -15 1 -17 21 -12 28 7 37 -12 25 -56 -4 -15 -3 -28 2 -30 5 -2 13
-28 19 -58 9 -46 8 -57 -5 -66 -8 -6 -12 -14 -8 -18 4 -3 -2 -12 -12 -20 -12
-9 -16 -20 -12 -35 3 -14 0 -24 -9 -28 -16 -6 -13 -24 13 -80 18 -39 38 -44
29 -8 -8 30 4 33 21 6 7 -11 23 -21 35 -24 l23 -4 -22 -2 c-25 -1 -24 3 -26
-113 -2 -56 1 -68 16 -72 18 -4 25 -56 7 -56 -5 0 -10 -11 -10 -24 0 -14 -5
-28 -10 -31 -13 -8 -2 -47 16 -58 21 -12 17 -26 -6 -20 -10 3 -22 14 -25 24
-4 10 -11 19 -16 19 -13 0 -11 -34 2 -47 12 -12 -4 -52 -27 -66 -17 -10 -18
-34 -2 -39 6 -2 12 -15 13 -29 1 -13 5 -34 9 -46 6 -19 4 -23 -13 -23 -12 0
-21 -4 -21 -10 0 -5 11 -10 25 -10 38 0 32 -33 -16 -85 -49 -53 -48 -75 3 -90
l37 -10 -41 -60 c-23 -33 -45 -61 -49 -63 -4 -2 -26 -21 -47 -43 -35 -35 -62
-49 -62 -33 0 9 28 34 37 34 15 0 44 41 37 52 -5 7 0 9 14 6 15 -4 22 -2 22 7
0 8 7 18 16 23 28 16 27 66 -1 92 -21 20 -25 21 -25 7 0 -25 -18 -20 -22 5 -4
28 -58 40 -58 14 0 -8 -8 -20 -19 -25 -19 -11 -34 -48 -22 -55 4 -3 13 0 21 5
13 8 13 10 0 20 -13 9 -12 10 3 5 10 -3 20 -6 23 -6 2 0 1 -7 -2 -15 -5 -11 1
-15 22 -15 18 0 25 -3 18 -10 -6 -6 -21 -6 -41 -1 -24 7 -35 6 -43 -4 -16 -20
-3 -40 16 -24 8 6 14 7 14 2 0 -5 -38 -48 -85 -97 -47 -48 -85 -92 -85 -98 0
-7 -5 -6 -14 2 -20 16 -10 37 20 44 31 8 27 30 -6 34 -17 3 -20 6 -9 12 7 5
10 12 6 16 -9 10 -38 -16 -31 -28 4 -6 -9 -8 -32 -6 -23 2 -39 -2 -42 -10 -2
-6 -10 -12 -18 -12 -13 0 -13 3 0 22 9 12 16 31 16 42 0 19 -1 19 -23 -2 -26
-25 -38 -28 -35 -9 2 6 -3 11 -10 9 -9 -1 -11 7 -7 29 4 19 2 28 -5 24 -5 -3
-10 -11 -10 -17 0 -6 -8 -17 -17 -24 -17 -12 -17 -13 3 -14 28 0 48 -25 40
-47 -6 -15 -9 -15 -17 -3 -8 11 -9 8 -4 -13 4 -21 2 -28 -7 -24 -14 5 -14 9
-3 45 5 18 2 22 -14 22 -11 0 -25 8 -30 18 -6 9 -11 12 -11 5 0 -6 -9 -9 -20
-6 -15 4 -20 0 -20 -13 0 -10 -10 -29 -22 -42 -13 -14 -17 -22 -10 -18 6 4 12
2 12 -3 0 -6 5 -11 11 -11 6 0 8 7 5 16 -3 8 -2 12 4 9 22 -13 9 -55 -30 -95
-22 -23 -40 -36 -40 -30 0 22 -25 3 -27 -21 -7 -76 -4 -102 12 -117 10 -10 15
-11 11 -4 -4 6 -4 18 1 24 4 8 10 0 14 -22 10 -49 -10 -62 -86 -56 -33 2 -80
11 -105 21 -25 9 -52 17 -60 17 -8 0 -20 5 -27 10 -7 5 -20 7 -31 4 -11 -4
-33 5 -58 23 -31 23 -42 27 -53 18 -9 -8 -44 -11 -100 -8 -170 7 -193 6 -207
-14 -21 -28 -17 -55 9 -64 17 -7 24 -4 31 13 5 11 8 24 8 29 -3 12 8 8 26 -9
14 -14 17 -15 27 -1 9 13 13 13 30 1 10 -8 24 -14 29 -14 6 0 4 4 -4 10 -25
16 -5 21 41 11 28 -6 45 -7 47 -1 6 15 22 12 22 -4 0 -8 5 -18 12 -22 7 -4 8
-3 4 4 -11 19 3 35 19 22 8 -7 19 -9 25 -5 6 3 10 -3 10 -14 0 -12 5 -21 11
-21 5 0 8 4 5 9 -11 17 18 18 64 3 25 -8 50 -19 57 -24 7 -5 18 -6 25 -2 17
11 38 14 38 5 0 -4 8 -7 18 -8 30 -2 46 -8 75 -28 23 -15 33 -16 48 -7 20 13
33 1 34 -28 0 -9 7 -14 19 -12 10 2 36 -4 57 -12 22 -9 39 -12 39 -6 0 6 5 10
11 10 6 0 9 -7 5 -15 -4 -12 3 -15 36 -15 23 0 49 -6 57 -14 9 -8 29 -17 44
-20 16 -3 43 -9 60 -15 46 -14 167 -22 167 -11 0 6 11 10 25 10 28 0 63 17 81
39 6 8 22 16 35 18 13 2 26 8 29 13 9 15 61 31 80 25 14 -4 17 -1 14 12 -3 13
9 24 46 42 27 13 50 28 50 32 0 4 10 11 23 15 61 18 210 135 260 204 26 36 0
39 -30 4 -15 -17 -22 -22 -19 -12 3 10 1 18 -5 18 -6 0 -7 5 -4 10 3 6 -1 10
-9 10 -9 0 -16 4 -16 9 0 5 -6 11 -13 14 -10 4 -13 -2 -9 -19 2 -14 0 -24 -7
-24 -7 0 -5 -11 6 -27 10 -15 12 -24 6 -20 -8 5 -13 3 -13 -4 0 -7 -3 -9 -7
-5 -9 8 -10 14 -12 48 -1 21 -1 21 -16 2 -19 -26 -19 -35 3 -27 15 6 15 5 3
-10 -9 -12 -21 -15 -34 -11 -20 6 -20 6 -4 -10 23 -23 21 -29 -4 -16 -26 14
-34 8 -20 -18 6 -11 7 -22 4 -26 -3 -3 -1 -6 6 -6 8 0 11 6 7 16 -4 12 -1 14
14 9 15 -5 23 0 29 17 6 13 10 17 10 10 1 -9 8 -8 26 4 14 9 25 14 25 11 0 -6
-146 -107 -154 -107 -3 0 -3 6 0 14 3 7 -1 16 -9 19 -10 4 -13 0 -10 -11 6
-23 -62 -77 -96 -78 -14 0 -37 -4 -50 -8 -22 -8 -23 -6 -19 18 3 14 2 26 -2
26 -12 0 -19 36 -10 50 4 7 12 10 17 7 5 -3 9 7 8 21 0 15 -6 31 -12 35 -25
15 -14 30 17 23 l31 -6 -7 53 c-4 28 -8 53 -9 55 -2 2 -13 -1 -24 -8 -12 -6
-21 -7 -21 -2 0 6 9 12 19 15 10 2 25 15 31 28 13 24 13 24 -7 6 -19 -17 -21
-17 -27 -1 -4 9 -4 19 -1 22 3 3 5 0 5 -7 0 -7 5 -9 10 -6 6 4 8 11 4 16 -3 5
5 18 18 29 35 29 45 24 12 -6 -25 -23 -26 -26 -8 -21 21 4 21 3 9 -27 -8 -20
-10 -39 -4 -55 l9 -23 34 26 c19 14 41 26 50 26 8 0 17 4 21 10 3 5 13 7 23 4
16 -5 16 -5 0 6 -23 14 -23 33 1 54 11 10 17 25 14 34 -4 10 -2 13 5 8 6 -3
16 3 22 15 7 11 14 18 17 15 3 -3 -2 -17 -11 -30 -19 -29 -20 -36 -6 -36 5 0
12 11 16 25 3 14 11 22 17 18 6 -4 7 4 3 23 -11 43 -23 51 -37 21 -7 -15 -17
-23 -25 -20 -8 3 -11 9 -8 15 3 5 8 7 11 4 5 -5 43 36 43 47 0 3 -9 7 -20 10
-11 3 -20 11 -20 17 0 10 3 10 15 0 11 -9 11 -4 -3 29 -18 43 -44 52 -50 17
-2 -10 -11 -26 -20 -35 -10 -10 -22 -26 -29 -37 -11 -17 -11 -17 -7 6 2 14 8
26 13 28 5 2 15 25 22 52 7 28 19 51 28 53 13 4 13 5 -1 6 -20 1 -22 10 -19
89 1 29 -2 58 -6 65 -7 11 -12 33 -15 70 -2 18 -18 24 -18 7 0 -5 -4 -10 -10
-10 -16 0 -12 60 5 66 12 5 13 9 4 21 -16 19 -17 73 -2 73 7 0 10 7 7 15 -4 8
-1 22 6 30 11 13 10 14 -4 9 -15 -6 -17 -2 -15 27 2 19 0 40 -4 46 -4 6 -3 14
2 17 6 4 6 18 1 35 -4 16 -6 32 -3 34 2 3 -1 14 -8 25 -10 16 -10 26 -1 46 9
20 8 28 -2 39 -7 7 -17 23 -20 35 -6 19 -4 22 21 22 27 -1 27 -1 9 -15 -23
-17 -21 -20 19 -28 17 -4 24 -4 18 -1 -15 6 -18 44 -4 44 5 0 12 -6 14 -12 4
-8 6 -7 6 4 1 9 -5 19 -11 21 -10 4 -10 6 -1 6 6 1 15 -3 18 -9 3 -5 16 -10
28 -9 12 0 17 3 11 5 -7 3 -10 14 -7 24 4 14 0 20 -12 20 -17 0 -17 1 -2 18
16 17 16 20 -1 38 -31 35 -41 61 -30 72 6 6 6 12 -1 16 -6 4 -11 17 -11 29 0
13 -6 31 -14 42 -7 11 -12 37 -12 58 1 20 -2 37 -6 37 -5 0 -4 9 1 19 10 18 7
38 -16 101 -3 8 -7 33 -9 55 -2 22 -5 55 -7 73 -2 18 0 35 4 38 10 6 -9 60
-27 75 -7 6 -11 16 -7 23 10 14 13 66 4 66 -4 0 -6 16 -6 35 1 19 -2 35 -7 35
-4 0 -8 9 -8 21 0 12 -4 17 -11 14 -6 -4 -8 -14 -5 -22 4 -9 2 -11 -6 -7 -8 5
-9 2 -5 -9 4 -11 -1 -20 -14 -28 -26 -14 -22 -55 5 -51 26 5 36 -15 22 -44
-12 -27 -26 -30 -45 -11 -10 10 -12 9 -9 -2 2 -7 -2 -15 -8 -18 -6 -2 -17 14
-24 36 -11 33 -11 43 0 56 10 13 8 19 -14 41 -14 15 -23 30 -20 35 7 13 24 1
24 -17 0 -8 7 -14 15 -14 23 0 18 34 -7 45 -16 7 -25 21 -28 45 -5 35 -5 35
-32 22z m107 -2142 c-4 -6 -1 -18 7 -27 9 -11 10 -17 2 -20 -9 -3 -9 -15 -1
-45 10 -39 9 -42 -24 -72 -46 -42 -47 -74 -1 -82 24 -5 30 -9 20 -15 -7 -5
-22 -6 -33 -3 -15 4 -16 3 -6 -4 20 -14 6 -29 -34 -34 -25 -3 -35 0 -35 10 0
7 -4 11 -9 8 -16 -10 0 -48 17 -41 12 5 12 1 -3 -15 -13 -14 -22 -17 -30 -10
-9 8 -14 6 -19 -5 -3 -8 -10 -15 -16 -15 -6 0 -9 4 -6 9 4 5 0 12 -6 15 -9 3
-8 8 5 16 9 6 17 18 17 25 0 8 5 15 10 15 6 0 10 6 10 14 0 8 7 13 16 12 9 0
20 9 24 20 7 18 5 21 -10 17 -15 -4 -18 0 -16 19 2 13 9 34 16 48 8 14 15 30
16 35 0 6 2 16 2 23 2 13 32 17 32 3 0 -4 -9 -20 -21 -35 -11 -14 -16 -26 -10
-26 5 0 13 5 16 10 3 6 17 7 31 4 14 -4 24 -2 24 5 0 6 -3 10 -7 10 -22 -4
-24 3 -8 21 18 19 17 20 -3 20 -32 0 -26 44 12 86 13 16 30 18 21 4z"/>
<path d="M5217 1258 c-15 -60 -19 -166 -7 -173 14 -9 64 -23 253 -71 77 -19
145 -38 153 -41 11 -4 14 14 14 101 l0 106 -42 -1 c-82 0 -99 2 -93 10 7 12
-26 27 -67 30 -10 0 -27 11 -38 24 -17 18 -32 22 -78 22 -31 0 -64 4 -73 8
-12 6 -18 2 -22 -15z"/>
</g>
</svg>
