<?xml version="1.0" standalone="no"?>
<!DOCTYPE svg PUBLIC "-//W3C//DTD SVG 20010904//EN"
 "http://www.w3.org/TR/2001/REC-SVG-20010904/DTD/svg10.dtd">
<svg version="1.0" xmlns="http://www.w3.org/2000/svg"
 width="564.000000pt" height="564.000000pt" viewBox="0 0 564.000000 564.000000"
 preserveAspectRatio="xMidYMid meet">
<metadata>
Created by potrace 1.16, written by Peter Selinger 2001-2019
</metadata>
<g transform="translate(0.000000,564.000000) scale(0.100000,-0.100000)"
fill="#000000" stroke="none">
<path d="M1635 5170 c-27 -4 -61 -12 -75 -18 -33 -14 -92 -73 -129 -129 -41
-61 -40 -108 3 -243 18 -58 36 -130 40 -160 4 -30 15 -84 26 -120 33 -117 40
-147 40 -173 0 -14 6 -52 14 -84 9 -36 16 -126 18 -234 l3 -177 -89 -27 c-140
-41 -216 -88 -241 -148 l-12 -29 -5 25 c-3 15 -2 24 2 22 8 -5 22 20 24 40 1
5 10 11 21 14 11 2 32 12 46 22 15 10 37 24 50 29 23 10 22 10 -4 5 -20 -4
-27 -2 -22 6 4 6 19 9 33 6 31 -6 76 9 67 23 -3 6 1 7 10 4 23 -9 65 4 65 21
0 8 -7 15 -15 15 -8 0 -15 5 -15 10 0 14 13 13 28 -2 7 -7 12 -8 12 -2 0 16
-41 37 -52 26 -6 -6 -17 -8 -24 -5 -10 4 -12 0 -8 -10 3 -9 18 -20 32 -26 24
-8 25 -10 5 -10 -12 -1 -28 6 -37 14 -8 8 -27 15 -43 16 -15 0 -22 3 -15 6 10
4 10 8 1 19 -16 20 -29 17 -29 -5 0 -21 -39 -36 -54 -21 -7 7 -4 10 6 10 15 0
33 28 24 37 -10 11 -55 -34 -56 -54 0 -19 5 -23 30 -23 37 0 39 -16 4 -32 -25
-12 -25 -12 -4 -23 l22 -12 -26 -17 c-29 -19 -36 -11 -8 11 15 12 15 13 -8 10
-14 -2 -20 -2 -13 0 17 6 4 33 -16 33 -21 0 -54 -37 -41 -45 16 -10 11 -35 -6
-35 -11 0 -15 -6 -11 -20 4 -16 -3 -21 -52 -31 -69 -15 -88 -29 -39 -29 40 0
60 -16 33 -27 -10 -3 -20 -1 -24 6 -5 7 -16 -4 -29 -28 -17 -30 -19 -41 -10
-45 7 -3 1 -4 -14 -1 -28 5 -40 -9 -15 -18 9 -4 9 -7 -1 -18 -17 -18 -15 -107
3 -125 9 -10 12 -25 8 -44 -4 -25 -2 -30 13 -31 11 0 14 -3 7 -6 -18 -7 -16
-48 2 -63 10 -9 12 -17 6 -23 -6 -6 -3 -21 9 -42 13 -23 15 -36 8 -43 -8 -8
-8 -15 1 -26 7 -8 10 -25 7 -38 -3 -13 -3 -17 0 -10 11 24 19 11 21 -35 1 -32
7 -51 20 -60 15 -11 15 -17 5 -33 -16 -26 -15 -30 6 -30 14 0 19 -8 20 -35 1
-19 6 -44 12 -54 5 -11 10 -31 10 -45 0 -14 5 -28 10 -31 6 -3 10 -15 10 -26
0 -10 4 -27 9 -37 19 -35 35 -88 33 -103 -2 -9 4 -19 13 -22 8 -4 15 -17 15
-31 0 -13 7 -27 16 -30 11 -4 15 -16 12 -38 -2 -27 0 -32 15 -30 15 3 17 -1
12 -19 -4 -12 -3 -24 2 -28 19 -13 64 -101 52 -101 -7 0 0 -13 15 -29 19 -20
27 -37 23 -50 -3 -14 1 -22 12 -26 10 -3 24 -17 31 -30 7 -14 17 -25 22 -25 5
0 7 -4 4 -8 -2 -4 9 -27 25 -51 16 -24 29 -50 29 -57 0 -8 11 -21 25 -30 14
-9 25 -25 25 -37 0 -21 49 -73 64 -69 4 2 6 -8 2 -22 -6 -24 13 -42 41 -37 7
1 9 -7 6 -20 -5 -18 -3 -21 10 -16 10 4 18 0 22 -12 3 -9 23 -36 45 -59 22
-23 40 -45 40 -49 0 -4 -5 -1 -10 7 -5 8 -10 10 -10 5 0 -11 36 -45 48 -45 4
0 12 -10 17 -22 6 -12 18 -23 28 -24 11 -1 22 -6 25 -10 4 -4 -1 -4 -10 -1
-10 4 -18 2 -18 -3 0 -6 5 -10 11 -10 6 0 27 -14 46 -30 18 -17 38 -30 44 -30
6 0 8 -4 5 -9 -3 -5 10 -18 29 -30 19 -11 35 -25 35 -32 0 -6 7 -9 15 -5 8 3
15 1 15 -5 0 -19 55 -58 75 -54 11 3 14 2 8 -1 -23 -10 -14 -22 21 -28 19 -4
36 -10 38 -14 6 -15 100 -73 121 -75 12 -1 28 -8 35 -14 28 -26 134 -83 200
-107 146 -52 293 -54 487 -5 131 33 311 127 382 198 36 35 163 211 187 259 37
71 50 177 48 391 -2 211 6 274 36 290 9 5 40 11 67 15 61 7 249 50 288 65 52
20 143 89 194 146 65 74 126 190 148 283 34 141 4 434 -59 576 -45 101 -186
257 -326 360 -202 149 -513 245 -890 276 -74 6 -141 13 -149 16 -8 2 -136 5
-285 5 -180 1 -261 4 -241 10 17 5 40 7 52 4 16 -4 21 -1 18 7 -3 8 -26 14
-53 16 -34 1 -43 -1 -32 -8 13 -8 12 -10 -2 -10 -10 0 -18 7 -18 15 0 16 -15
21 -23 8 -2 -5 -2 -3 -1 4 2 6 -4 17 -12 23 -8 7 -14 26 -14 42 0 32 -27 136
-40 153 -4 6 -10 34 -14 64 -4 29 -25 106 -46 170 -61 181 -78 233 -91 278
-13 44 -68 128 -116 176 -37 38 -126 97 -145 97 -9 0 -21 7 -28 15 -7 8 -16
13 -20 10 -4 -3 -23 6 -41 20 -38 28 -143 81 -174 88 -11 2 -42 1 -70 -3z
m781 -1120 c8 0 14 -9 14 -20 0 -11 7 -20 15 -20 8 0 15 -5 15 -11 0 -5 -5 -7
-11 -3 -8 5 -10 -3 -5 -27 9 -50 10 -54 27 -80 9 -13 19 -53 23 -89 4 -36 17
-105 28 -155 16 -71 46 -241 48 -276 0 -3 -12 -19 -26 -35 -14 -16 -33 -40
-42 -52 -8 -13 -26 -28 -39 -33 -13 -5 -23 -12 -22 -16 4 -23 -3 -35 -17 -29
-9 3 -12 2 -8 -5 3 -6 -13 -30 -37 -53 -24 -24 -60 -61 -80 -84 -20 -23 -40
-42 -44 -42 -9 0 -44 42 -45 54 0 5 8 2 18 -7 30 -27 35 -19 12 18 -12 19 -18
39 -15 45 4 6 1 17 -5 25 -9 10 -13 82 -14 239 -2 192 -5 227 -19 250 -17 25
-17 26 3 26 21 0 29 33 10 45 -6 4 -8 11 -5 16 4 5 2 9 -4 9 -6 0 -8 12 -4 32
4 22 3 29 -5 24 -7 -4 -12 -14 -12 -22 0 -22 -20 -17 -21 6 -1 11 -2 26 -3 33
-1 6 4 12 9 12 19 0 34 16 29 29 -3 8 4 16 19 20 19 4 23 11 20 30 -6 30 -27
40 -52 24 -15 -9 -17 -17 -10 -34 6 -17 4 -28 -9 -41 -16 -16 -17 -14 -22 28
-7 51 -4 59 16 59 8 0 14 5 14 10 0 6 -7 10 -15 10 -20 0 -19 26 1 34 12 4 15
2 11 -9 -8 -18 6 -27 28 -19 13 5 16 15 12 41 -5 26 -3 34 7 30 8 -3 19 0 25
6 8 8 11 4 11 -16 0 -15 5 -27 11 -27 8 0 9 11 5 33 -4 23 -3 28 4 17 5 -8 10
-24 11 -35 0 -20 1 -20 8 0 7 17 8 16 15 -9 4 -15 7 -72 7 -127 0 -54 4 -99 8
-99 4 0 8 21 8 48 0 26 2 70 4 98 1 27 -1 56 -6 64 -6 10 -4 12 8 7 11 -4 18
4 25 31 7 27 10 31 11 14 1 -31 25 -23 30 9 2 13 6 18 8 12 3 -7 11 -13 19
-13z m-436 -61 c5 -19 16 -58 24 -88 9 -29 17 -89 19 -132 3 -68 1 -86 -21
-129 -13 -27 -30 -50 -38 -50 -8 0 -12 -12 -11 -35 2 -35 11 -45 20 -22 3 6 5
-4 6 -23 0 -28 -2 -31 -9 -15 -5 11 -9 17 -11 13 -5 -23 -7 -30 -8 -45 -2 -16
-3 -16 -10 1 -7 19 -8 19 -15 0 -4 -11 -3 -20 3 -22 6 -2 11 -11 12 -20 0 -14
2 -13 9 3 6 16 8 14 7 -12 0 -18 -4 -33 -10 -33 -5 0 -7 -9 -4 -20 3 -12 1
-18 -5 -14 -5 4 -8 17 -5 29 3 17 0 22 -12 20 -10 -2 -17 5 -18 19 -7 66 -21
158 -26 163 -11 11 23 34 42 28 13 -4 20 0 24 15 3 11 1 20 -5 20 -6 0 -7 8
-3 18 4 9 7 24 8 32 0 8 3 20 7 25 4 6 6 46 4 90 -2 44 -6 118 -8 164 -3 73
-2 81 11 69 8 -9 18 -30 23 -49z m1710 -248 c-16 -32 -12 -69 10 -81 11 -6 20
-18 20 -26 0 -8 5 -12 10 -9 16 10 32 -46 26 -87 -9 -59 20 -49 84 28 30 36
63 70 74 76 17 9 18 7 12 -18 -4 -16 -23 -65 -42 -108 -19 -44 -34 -86 -34
-94 0 -14 14 -14 104 2 28 4 61 26 40 26 -6 0 -15 -5 -22 -12 -9 -9 -12 -9
-12 1 0 7 13 26 29 42 29 29 58 35 94 20 15 -6 12 -10 -18 -24 -26 -12 -42
-30 -56 -61 -20 -45 -53 -66 -105 -66 -15 0 -24 -6 -24 -15 0 -8 6 -15 13 -15
21 0 187 -64 187 -73 0 -4 -59 -7 -131 -6 -71 0 -133 -2 -136 -5 -4 -3 1 -6 9
-6 9 0 18 -7 21 -15 4 -8 22 -21 42 -29 41 -17 60 -53 51 -92 l-7 -27 -17 34
c-15 30 -22 34 -55 34 -28 0 -43 6 -56 24 -17 22 -20 23 -47 10 -26 -13 -28
-17 -25 -66 3 -63 -8 -165 -18 -158 -4 2 -20 47 -36 100 -28 97 -43 117 -69
96 -11 -9 -15 -9 -19 1 -3 7 -3 -15 0 -49 6 -92 -20 -135 -89 -148 -49 -9 -50
7 -3 37 38 25 56 77 35 102 -8 11 -8 20 -1 35 15 28 14 36 -4 21 -22 -18 -18
3 5 33 27 35 8 50 -40 32 -19 -7 -66 -25 -105 -40 -38 -14 -78 -29 -87 -32
-54 -17 24 62 125 128 37 24 67 46 67 50 0 12 -47 37 -82 44 -24 5 -46 2 -68
-10 -29 -15 -34 -15 -55 -1 -16 11 -22 22 -19 34 5 14 4 15 -5 2 -10 -13 -14
-12 -31 9 -23 26 -25 46 -8 57 7 4 8 3 4 -4 -4 -7 -4 -17 0 -23 4 -8 8 -8 13
0 4 5 17 8 29 4 12 -3 19 -9 16 -14 -3 -5 4 -9 15 -9 10 0 21 5 23 12 3 7 38
13 99 16 52 2 98 8 103 13 6 5 2 20 -11 37 -22 29 -93 174 -93 188 0 4 22 -15
49 -42 107 -107 127 -124 144 -124 21 0 49 25 66 58 10 20 9 27 -13 53 -40 47
-43 74 -12 114 29 38 54 49 36 16z m-621 -857 c28 -77 25 -143 -9 -222 -27
-62 -115 -149 -188 -186 -110 -56 -147 -26 -147 119 l0 90 47 72 c60 93 117
155 135 149 8 -3 11 -2 8 3 -3 6 16 16 42 24 84 26 87 25 112 -49z m-1125
-243 c15 -17 15 -19 1 -25 -9 -3 -13 -2 -10 3 3 5 0 13 -6 16 -7 5 -10 0 -7
-11 2 -11 8 -19 13 -19 6 0 20 -10 31 -21 25 -25 40 -106 18 -97 -8 3 -12 -3
-11 -16 1 -12 4 -21 8 -21 4 0 6 -7 5 -17 -4 -24 -58 -75 -73 -68 -8 2 -11 1
-8 -5 3 -5 -3 -14 -14 -19 -28 -15 -71 -14 -71 2 0 20 57 74 99 94 35 16 38
22 37 55 0 20 -3 34 -5 32 -7 -7 -41 88 -41 114 0 27 11 28 34 3z m179 -48
c-20 -8 -15 -22 6 -16 25 6 52 -33 45 -64 -5 -17 -2 -23 7 -21 10 2 15 -9 17
-37 2 -30 0 -36 -8 -25 -8 12 -10 11 -10 -6 0 -11 6 -21 13 -21 6 -1 39 -8 72
-17 59 -16 39 -16 -57 0 -26 5 -38 3 -38 -5 0 -7 -7 -19 -15 -28 -19 -19 -11
-31 9 -14 13 11 13 9 3 -12 -6 -14 -15 -23 -18 -21 -4 2 -9 -3 -13 -11 -5 -15
-64 -55 -80 -55 -5 0 -2 8 7 18 10 10 14 22 11 25 -4 4 -13 -1 -21 -11 -11
-13 -10 -10 1 14 8 17 36 48 61 69 42 36 45 41 41 77 -3 20 -14 48 -25 60 -24
25 -26 34 -9 44 6 4 8 3 5 -3 -4 -6 0 -14 9 -17 8 -3 12 -10 9 -16 -3 -5 -1
-10 4 -10 6 0 11 7 11 15 0 8 -4 15 -10 15 -5 0 -9 3 -9 8 3 20 -2 32 -15 32
-8 0 -18 5 -21 10 -8 13 3 30 18 29 9 0 9 -2 0 -6z m924 -527 c94 -37 203 -50
225 -28 7 7 20 12 29 12 10 0 27 12 38 26 12 15 21 22 21 16 0 -6 -4 -14 -10
-17 -5 -3 -10 -19 -10 -34 0 -15 -4 -31 -9 -36 -4 -6 -11 -28 -14 -50 -3 -22
-3 -35 -1 -30 2 6 23 -6 47 -26 23 -21 60 -53 82 -73 22 -19 37 -37 34 -40 -3
-4 -18 5 -33 19 -24 22 -142 65 -180 65 -25 0 -78 -25 -103 -49 -12 -11 -25
-21 -28 -21 -12 0 -4 29 15 52 17 22 18 30 8 64 -6 21 -19 47 -27 58 -14 16
-111 83 -166 114 -35 20 -9 13 82 -22z m-1028 -17 c54 -36 67 -41 102 -36 22
3 50 14 61 24 21 18 21 18 9 -4 -6 -12 -17 -26 -25 -30 -8 -4 -16 -19 -18 -32
-2 -19 7 -32 42 -59 25 -19 47 -39 49 -45 2 -6 14 -19 25 -29 12 -9 17 -17 12
-18 -8 0 -79 31 -139 62 -32 16 -72 30 -64 22 6 -6 -53 -54 -66 -54 -3 0 -1
19 5 43 11 49 4 100 -17 117 -20 16 -56 80 -46 80 5 0 37 -19 70 -41z m527
-225 c25 -51 82 -86 142 -86 65 0 117 28 171 93 43 50 45 51 55 30 6 -14 5
-43 -2 -85 -7 -35 -10 -70 -7 -78 7 -18 -97 -143 -135 -163 -41 -21 -152 -30
-182 -14 -44 22 -108 81 -125 112 -35 68 -56 198 -34 211 4 3 11 25 13 50 6
46 33 93 58 98 12 3 17 -12 22 -65 4 -37 15 -84 24 -103z"/>
<path d="M3583 3470 c-18 -10 -40 -34 -49 -52 -18 -33 -36 -141 -23 -132 4 2
10 -7 13 -20 10 -42 64 -66 144 -66 85 0 110 10 140 55 16 26 22 49 22 94 0
65 -19 100 -70 126 -42 22 -138 19 -177 -5z"/>
<path d="M2936 2900 c-26 -17 -44 -25 -40 -18 4 7 -3 4 -15 -7 l-23 -20 29 -6
c58 -12 103 -63 103 -118 0 -33 -31 -89 -54 -95 -54 -15 -115 2 -146 40 -8 9
3 5 24 -10 43 -29 58 -31 105 -15 39 14 51 35 51 89 0 57 -38 92 -95 89 -42
-3 -66 -24 -70 -63 -4 -35 -5 -36 -16 -33 -6 1 -14 -4 -17 -12 -3 -9 0 -11 7
-6 10 5 10 2 2 -14 -6 -12 -16 -30 -21 -41 -6 -11 -8 -33 -4 -48 4 -18 3 -23
-4 -14 -7 11 -11 8 -14 -12 -4 -22 -3 -24 9 -14 13 10 14 5 12 -36 -4 -68 11
-73 97 -31 57 28 77 44 115 97 65 87 94 206 74 297 -5 25 -12 31 -34 31 -15 0
-49 -14 -75 -30z"/>
<path d="M2475 1910 c-4 -11 -10 -18 -14 -15 -5 2 -6 -15 -4 -39 3 -24 0 -53
-7 -65 -9 -17 -9 -26 0 -37 7 -7 10 -23 7 -34 -3 -11 -1 -20 5 -20 6 0 7 -7 4
-16 -3 -8 -2 -12 4 -9 6 3 10 -1 10 -9 0 -8 17 -33 38 -54 30 -32 46 -40 87
-45 49 -6 122 3 158 18 10 4 17 3 17 -5 0 -6 5 -8 11 -4 8 4 7 9 -2 15 -11 6
-10 9 3 14 9 4 35 30 57 59 34 44 41 61 43 104 2 55 -8 77 -23 49 -6 -9 -26
-32 -45 -51 -28 -28 -47 -36 -89 -41 -75 -10 -138 7 -177 45 -15 15 -42 84
-52 133 -7 32 -22 35 -31 7z"/>
</g>
</svg>
