<?xml version="1.0" standalone="no"?>
<!DOCTYPE svg PUBLIC "-//W3C//DTD SVG 20010904//EN"
 "http://www.w3.org/TR/2001/REC-SVG-20010904/DTD/svg10.dtd">
<svg version="1.0" xmlns="http://www.w3.org/2000/svg"
 width="564.000000pt" height="751.000000pt" viewBox="0 0 564.000000 751.000000"
 preserveAspectRatio="xMidYMid meet">
<metadata>
Created by potrace 1.16, written by Peter Selinger 2001-2019
</metadata>
<g transform="translate(0.000000,751.000000) scale(0.100000,-0.100000)"
fill="#000000" stroke="none">
<path d="M5635 3755 c0 -2068 1 -2913 2 -1877 2 1036 2 2728 0 3760 -1 1032
-2 185 -2 -1883z"/>
<path d="M4790 6775 c-5 -6 -10 -42 -12 -80 -2 -40 -7 -69 -13 -68 -5 2 -11
12 -11 23 -2 26 -22 50 -44 50 -9 0 -29 9 -42 20 -22 16 -31 18 -64 9 -21 -6
-45 -16 -53 -22 -22 -18 -147 -14 -169 6 -18 16 -20 16 -34 0 -8 -10 -18 -29
-21 -43 -3 -14 -13 -50 -22 -80 -9 -30 -20 -76 -24 -102 -13 -85 -18 -80 -46
42 -10 41 -21 80 -27 87 -6 7 -5 14 2 18 15 9 12 37 -5 62 -20 29 -42 20 -50
-20 -3 -18 -10 -41 -15 -52 -41 -92 -71 -169 -84 -214 -20 -69 -23 -271 -3
-271 6 -1 32 -25 56 -55 25 -32 51 -55 62 -55 25 0 27 -48 2 -56 -56 -16 -66
-29 -79 -90 -8 -41 -10 -96 -5 -164 7 -115 5 -120 -66 -112 -33 4 -35 6 -30
36 8 53 -5 64 -84 72 -78 7 -89 18 -89 87 0 37 -18 70 -27 50 -2 -7 -11 -13
-19 -13 -10 0 -14 12 -14 39 0 22 -3 42 -8 45 -14 8 -102 -13 -126 -31 l-23
-17 58 -43 c58 -42 91 -83 68 -83 -6 0 -39 17 -72 37 -84 51 -147 49 -261 -6
-93 -45 -118 -55 -129 -52 -5 1 -21 -8 -36 -18 -16 -11 -30 -18 -33 -16 -2 3
-23 -4 -46 -15 -22 -11 -45 -20 -51 -20 -5 0 -11 -3 -13 -7 -4 -10 -70 -45
-74 -40 -8 7 124 84 216 126 151 69 161 73 158 76 -2 2 -25 -1 -53 -6 -63 -11
-285 -39 -305 -38 -35 0 61 39 125 50 38 6 87 18 109 25 21 8 67 14 101 14 74
0 95 6 95 29 0 9 7 24 14 34 10 13 11 28 5 55 -5 20 -9 63 -9 95 0 31 -5 57
-10 57 -6 0 -26 -23 -46 -50 -32 -45 -74 -81 -74 -64 0 3 21 29 46 57 52 58
104 131 104 145 0 5 7 15 15 22 8 7 12 16 9 21 -3 5 1 9 9 9 8 0 20 7 27 15
10 11 15 13 20 5 5 -7 12 0 18 18 7 21 24 38 51 52 23 11 41 25 41 31 0 6 5 7
10 4 11 -7 12 2 2 28 -7 16 -13 14 -66 -18 -32 -19 -62 -35 -67 -35 -4 0 -13
-9 -19 -20 -6 -11 -16 -20 -22 -20 -16 0 -1 110 19 132 21 23 8 37 -14 15 -21
-21 -47 -117 -35 -129 16 -16 0 -59 -24 -70 -13 -6 -27 -9 -30 -6 -3 3 -7 31
-9 62 -2 45 2 66 20 99 34 60 77 189 62 184 -7 -2 -11 -12 -11 -21 2 -19 -9
-20 -38 -5 -17 9 -25 6 -49 -17 l-29 -28 30 -20 c16 -12 30 -25 30 -29 0 -4
-15 3 -32 16 -18 13 -41 27 -50 30 -21 8 -34 -9 -13 -17 8 -3 15 -14 15 -24 0
-10 6 -24 13 -31 19 -21 -33 7 -60 31 -28 26 -39 18 -41 -28 -1 -20 -3 -39 -5
-41 -9 -8 -37 10 -43 29 -3 11 -8 17 -11 14 -4 -3 -12 -1 -20 5 -18 16 -16 -2
4 -30 9 -14 11 -21 5 -17 -6 3 -13 2 -16 -3 -4 -5 3 -12 14 -16 13 -4 19 -13
16 -28 -2 -12 -8 -21 -14 -20 -6 1 -14 -12 -17 -29 l-7 -32 -13 25 c-9 17 -11
38 -5 67 9 52 -11 102 -41 102 -14 0 -19 -7 -19 -28 0 -25 -7 -32 -42 -47 -24
-10 -48 -17 -55 -16 -6 1 -15 -4 -19 -10 -4 -8 -3 -9 4 -5 7 4 20 2 29 -3 10
-6 14 -11 9 -11 -17 0 37 -40 56 -40 29 0 21 -20 -9 -21 -16 -1 -32 -1 -38 0
-5 1 -1 -6 9 -14 16 -12 17 -18 8 -27 -7 -7 -12 -20 -12 -30 0 -13 -8 -18 -26
-18 l-26 0 19 -32 c21 -37 20 -83 -2 -74 -22 8 -29 -14 -11 -32 11 -11 19 -13
24 -7 4 6 16 2 31 -12 18 -17 20 -23 8 -23 -19 0 -77 32 -77 43 0 4 -6 7 -12
7 -14 0 -38 44 -38 68 0 8 -8 36 -17 63 -17 46 -17 50 1 79 10 19 16 41 12 54
-5 20 1 26 38 41 28 12 46 26 49 39 3 12 8 31 12 42 5 17 2 22 -18 26 -21 4
-34 -5 -75 -51 -27 -31 -57 -71 -66 -89 -11 -22 -26 -35 -47 -39 -16 -3 -38
-17 -49 -30 -24 -31 -95 -79 -87 -60 3 8 3 18 -1 22 -4 4 -7 11 -7 15 0 5 -17
29 -37 54 -21 25 -38 52 -38 60 0 9 -4 16 -9 16 -5 0 -7 9 -4 20 4 13 14 20
30 20 21 0 23 3 17 23 -3 12 -11 24 -15 25 -5 2 -9 14 -9 27 0 31 -5 33 -71
26 -31 -4 -69 -3 -85 1 -34 9 -54 -7 -91 -69 -24 -41 -50 -50 -38 -14 13 42
-27 69 -54 37 -8 -10 -24 -12 -51 -9 -25 4 -46 1 -55 -7 -23 -19 -9 -29 33
-24 29 4 33 3 20 -6 -9 -6 -15 -17 -11 -25 3 -9 -18 1 -47 20 -29 19 -63 38
-76 41 -24 6 -32 28 -14 39 12 7 14 55 2 55 -5 0 -13 -17 -18 -37 -9 -36 -11
-38 -45 -35 -65 6 -115 -15 -172 -71 -52 -51 -55 -52 -105 -49 -52 4 -72 -10
-32 -23 11 -3 20 -12 20 -18 0 -7 11 -24 24 -39 14 -14 22 -29 18 -32 -3 -4
-1 -10 6 -15 6 -4 14 -23 18 -41 5 -32 3 -30 -33 26 -21 33 -49 77 -61 97 -13
20 -31 37 -40 37 -12 0 -10 -6 8 -25 13 -14 18 -25 12 -25 -22 0 -52 -63 -52
-110 0 -41 -3 -46 -33 -60 -26 -12 -31 -20 -29 -42 2 -19 -3 -30 -20 -39 -13
-7 -29 -12 -35 -11 -20 4 -16 -11 13 -49 20 -26 24 -42 20 -68 -3 -19 -11 -38
-18 -43 -10 -6 -10 -8 0 -8 6 0 12 -8 11 -17 0 -11 -3 -13 -6 -5 -3 7 -23 12
-49 12 -28 0 -43 4 -39 10 3 6 -4 10 -17 10 -46 0 -50 11 -56 134 -3 76 -1
116 5 116 17 0 23 42 9 62 -16 23 -106 73 -106 59 0 -5 4 -12 9 -15 5 -3 12
-23 16 -43 4 -21 11 -43 15 -48 5 -6 6 -24 4 -40 -3 -17 -7 -86 -9 -154 -4
-130 -7 -137 -60 -169 -18 -11 -17 -12 10 -10 23 2 29 -1 26 -12 -2 -8 -3 -26
-2 -40 2 -14 3 -29 3 -35 1 -5 -2 -20 -6 -31 -6 -19 -1 -23 38 -33 24 -6 46
-18 50 -26 6 -16 -13 -19 -114 -17 -25 0 -36 -2 -26 -5 11 -3 26 -11 34 -19
11 -12 11 -14 -2 -14 -9 0 -16 -4 -16 -10 0 -5 5 -10 12 -10 6 0 8 -3 5 -6 -9
-9 -38 16 -31 27 9 16 -5 10 -25 -10 -18 -18 -19 -20 -2 -35 10 -9 27 -16 38
-16 11 0 29 -10 41 -23 23 -24 29 -47 13 -47 -5 0 -12 -10 -14 -22 l-4 -23 -2
23 c0 12 -8 25 -16 29 -25 9 -30 -5 -10 -27 32 -35 -33 -18 -72 19 -19 18 -23
19 -23 5 0 -11 -5 -14 -16 -10 -10 4 -14 1 -11 -6 2 -7 11 -13 20 -13 8 0 19
-4 23 -8 11 -11 -25 -8 -47 4 -15 8 -19 17 -15 37 4 21 -1 32 -24 50 l-30 24
0 -22 c0 -43 30 -87 73 -107 122 -58 150 -65 161 -37 3 8 10 13 15 9 9 -5 11
4 12 68 0 17 5 27 14 27 8 0 15 -4 15 -10 0 -5 13 -7 29 -4 20 4 30 2 34 -11
4 -9 3 -14 -3 -10 -6 3 -10 2 -10 -4 0 -5 6 -12 13 -14 6 -3 3 -6 -8 -6 -18
-1 -17 -3 5 -18 45 -31 47 -36 28 -55 -21 -21 -24 -54 -5 -61 9 -4 9 -7 0 -17
-10 -11 -14 -8 -22 12 -12 32 -42 44 -57 24 -14 -20 -24 -20 -24 0 0 13 -7 15
-34 10 -24 -5 -37 -2 -46 9 -21 25 -34 17 -16 -10 9 -14 13 -25 9 -25 -18 0
25 -21 65 -31 47 -13 54 -19 42 -38 -6 -11 -16 -11 -59 0 -39 10 -54 10 -63 1
-6 -6 -8 -15 -4 -19 4 -4 12 -1 17 7 9 12 10 12 5 -3 -7 -21 26 -61 46 -55 16
6 40 -46 32 -67 -4 -8 -12 -15 -19 -15 -7 0 -16 -6 -18 -12 -4 -10 -8 -10 -15
0 -7 11 -10 10 -16 -3 -3 -9 -6 -26 -6 -38 0 -12 -14 -36 -32 -54 -18 -18 -27
-33 -21 -33 6 0 14 6 16 13 4 7 6 6 6 -5 1 -25 -10 -48 -23 -48 -7 0 -13 -16
-14 -37 -2 -20 -5 -40 -8 -45 -3 -4 2 -8 10 -8 8 0 18 -5 22 -12 5 -8 2 -9
-10 -5 -9 4 -15 3 -12 -2 6 -10 -32 -26 -84 -37 -19 -3 -42 -10 -50 -16 -25
-15 70 2 120 22 53 21 111 37 162 45 29 5 37 3 32 -8 -5 -13 -85 -57 -105 -57
-19 0 -79 -32 -79 -42 0 -6 7 -8 14 -5 10 4 13 1 10 -7 -3 -7 3 -21 12 -30 12
-13 13 -17 3 -15 -19 3 -69 -18 -69 -29 0 -5 34 -31 75 -57 41 -26 78 -51 81
-56 10 -18 -57 1 -113 31 -60 32 -77 32 -49 1 10 -11 18 -40 20 -72 2 -30 20
-103 41 -164 l37 -110 -22 -85 c-13 -47 -27 -91 -32 -97 -6 -7 -7 -28 -4 -47
6 -29 -1 -51 -39 -128 -25 -51 -54 -104 -66 -118 -11 -14 -4 5 16 44 20 37 34
70 32 72 -9 9 -85 -94 -91 -124 -4 -17 -12 -34 -17 -37 -17 -11 -9 -23 12 -18
34 9 19 -19 -19 -36 -19 -9 -32 -22 -32 -33 0 -10 -11 -23 -24 -28 -33 -12
-40 -27 -16 -35 16 -5 19 -10 10 -20 -16 -19 -71 7 -88 43 -10 22 -9 29 7 46
10 12 16 27 14 34 -3 7 7 22 21 33 14 11 26 27 26 35 0 8 10 14 23 14 26 0 54
16 45 26 -4 4 -3 15 2 25 7 12 6 19 -2 21 -6 2 3 19 21 40 17 20 28 39 23 42
-5 3 -7 17 -4 31 3 20 0 25 -16 25 -11 0 -22 -5 -24 -11 -5 -15 -38 1 -38 19
0 8 8 24 17 34 11 13 14 22 7 26 -6 4 -17 22 -25 40 -11 26 -19 32 -35 28 -11
-3 -30 1 -41 9 -12 8 -28 12 -36 9 -8 -3 -17 1 -20 8 -3 10 7 13 39 13 33 0
44 4 48 18 2 9 0 15 -5 11 -5 -3 -9 -1 -9 5 0 5 5 13 11 16 6 4 8 13 5 21 -3
9 0 11 11 7 11 -4 14 -3 9 6 -4 6 -3 18 3 25 6 7 9 21 5 30 -4 11 2 23 19 36
18 15 25 29 25 55 0 20 5 41 10 48 6 7 18 54 27 105 8 50 18 98 21 105 2 7 -6
22 -19 33 -26 23 -64 36 -69 24 -4 -9 -116 -100 -123 -100 -14 0 30 78 57 101
l32 26 -37 12 c-20 7 -52 13 -71 14 -19 1 -32 5 -30 9 3 4 -5 24 -16 45 -17
33 -25 38 -55 38 -19 0 -35 -3 -35 -7 0 -5 4 -8 10 -8 6 0 6 -9 1 -22 -4 -13
-6 -28 -4 -35 2 -6 0 -14 -6 -17 -16 -10 -41 5 -41 25 0 10 -7 19 -15 19 -20
0 -19 9 2 33 17 18 17 19 -2 33 -17 13 -16 14 19 14 24 0 35 4 31 11 -11 16
27 40 43 27 7 -6 15 -8 19 -4 3 3 1 6 -5 6 -7 0 -12 5 -12 10 0 6 9 10 21 10
27 0 19 23 -9 25 -12 1 -24 4 -26 6 -9 10 -13 90 -5 95 15 9 10 29 -11 52 -12
12 -16 23 -10 27 6 4 8 9 6 13 -2 4 2 13 10 19 9 9 15 9 19 2 5 -6 15 -5 31 6
24 15 44 13 44 -5 0 -5 -10 -12 -22 -16 -21 -6 -21 -7 -3 -20 14 -10 15 -14 4
-14 -12 0 -12 -2 0 -9 11 -7 12 -13 3 -23 -16 -20 -27 -114 -13 -122 6 -4 11
-2 11 4 0 6 5 8 10 5 8 -5 7 -12 -2 -22 -11 -14 -10 -15 12 -8 14 4 29 11 35
16 5 5 11 9 15 9 10 0 -2 -105 -14 -112 -8 -6 -8 -8 2 -8 6 0 12 -11 12 -25 0
-14 -5 -25 -11 -25 -5 0 -7 -4 -4 -10 3 -5 17 -10 30 -10 14 0 44 -5 68 -12
24 -6 52 -8 62 -5 14 6 7 18 -47 73 l-65 67 9 43 c9 39 7 46 -16 71 -14 15
-26 36 -26 46 0 10 -6 20 -14 23 -8 3 -11 15 -8 31 3 16 1 24 -5 20 -6 -4 -8
3 -5 18 4 24 22 36 22 15 0 -6 9 -20 20 -32 15 -17 17 -25 8 -41 -8 -16 -8
-22 1 -25 6 -2 9 -7 6 -12 -3 -5 7 -7 21 -5 15 1 38 -1 53 -5 26 -8 26 -9 4
-15 -38 -12 -26 -23 15 -14 49 11 115 11 107 0 -3 -5 -1 -12 4 -15 14 -9 35
23 36 58 1 18 6 39 10 47 5 8 -8 -1 -28 -18 -43 -38 -58 -40 -87 -15 -11 9
-30 19 -42 22 -11 3 -28 16 -37 30 -9 14 -11 21 -3 16 7 -4 12 -2 12 4 0 6 5
8 10 5 6 -4 18 -1 26 6 12 10 12 14 2 20 -11 7 -11 9 0 9 7 0 11 4 8 9 -3 5
-16 7 -27 4 -29 -8 -21 18 9 32 12 5 22 13 22 17 0 5 12 8 26 8 14 0 23 3 21
8 -3 4 2 14 11 22 14 13 15 12 9 -3 -3 -9 -2 -17 3 -17 13 0 25 22 25 46 1 19
-6 22 -65 28 -36 3 -76 8 -90 11 -14 3 -73 12 -131 20 -59 8 -119 19 -133 25
-15 5 -68 14 -119 20 -51 5 -109 13 -130 16 l-38 6 2 -56 c2 -57 13 -71 46
-59 17 7 17 6 1 -19 -18 -28 -40 -199 -42 -333 -1 -38 -5 -75 -9 -82 -4 -7 -1
-26 8 -42 17 -34 23 -61 24 -111 1 -23 4 -31 10 -22 11 17 24 -48 15 -72 -7
-19 7 -21 24 -4 7 7 12 8 12 4 0 -5 -7 -14 -16 -21 -15 -11 -15 -14 1 -38 21
-32 44 -34 75 -7 27 24 31 25 24 6 -3 -7 2 -16 11 -20 10 -4 14 -2 9 5 -4 6 0
15 7 20 19 12 32 11 24 -1 -3 -5 -3 -15 1 -21 3 -6 14 2 25 21 14 23 24 30 38
25 14 -4 20 0 25 17 3 13 16 28 30 34 20 9 23 9 19 -2 -3 -8 -9 -14 -14 -14
-5 0 -13 -8 -17 -18 -14 -34 -95 -133 -101 -123 -4 6 -8 -11 -9 -36 -1 -25 3
-52 9 -59 17 -20 -28 -74 -62 -74 -15 0 -30 -6 -33 -12 -3 -7 -3 3 0 22 4 29
0 41 -20 63 -14 16 -26 39 -26 53 0 13 -4 24 -10 24 -5 0 -10 7 -10 15 0 8 -4
15 -9 15 -5 0 -12 12 -16 27 -3 15 -18 37 -31 50 -21 19 -24 29 -19 53 4 19 2
30 -4 31 -6 1 -17 2 -23 3 -8 1 -12 14 -10 34 1 19 -2 31 -7 28 -11 -7 -25 25
-14 33 12 9 12 55 -1 64 -8 5 -6 10 4 17 12 8 13 13 3 30 -15 24 -17 84 -3 75
6 -3 10 3 10 14 0 23 -15 28 -23 9 -4 -8 -6 -7 -6 3 -1 9 6 22 14 29 12 10 12
15 -1 35 -13 21 -13 23 6 28 11 3 20 10 20 15 0 6 -10 8 -22 4 -17 -4 -20 -2
-15 11 3 9 2 19 -4 23 -6 3 -9 -20 -9 -63 1 -37 -3 -92 -8 -122 -5 -30 -6 -69
-1 -90 13 -56 11 -99 -7 -126 -9 -14 -13 -25 -9 -25 4 0 2 -7 -5 -15 -7 -8 -9
-15 -4 -15 4 0 3 -5 -4 -12 -7 -7 -12 -20 -12 -30 0 -9 -8 -21 -17 -27 -17 -9
-16 -12 6 -42 l24 -32 -30 6 c-17 3 -33 3 -37 0 -9 -9 14 -33 33 -33 22 0 48
-62 56 -131 6 -51 4 -58 -19 -80 -14 -13 -26 -30 -26 -36 0 -7 -4 -13 -9 -13
-13 0 -21 27 -14 47 4 11 3 14 -5 9 -15 -9 -15 -28 0 -61 8 -18 19 -25 40 -25
23 0 28 -4 28 -23 0 -13 -5 -28 -12 -35 -15 -15 4 -82 32 -107 14 -13 20 -31
20 -61 0 -24 5 -55 12 -69 13 -28 4 -45 -14 -27 -7 7 -15 12 -19 12 -11 0 -50
-100 -44 -110 3 -6 1 -10 -5 -10 -7 0 -10 -6 -7 -13 2 -7 -13 -26 -34 -42 -22
-16 -36 -32 -32 -36 5 -5 40 -13 78 -19 88 -14 102 -18 108 -33 8 -20 -13
-131 -26 -139 -22 -14 -30 -8 -14 10 21 23 21 24 -4 53 -20 23 -21 24 -35 5
-8 -11 -14 -24 -14 -29 0 -5 -11 -2 -25 7 -28 18 -29 17 -39 -41 -4 -23 3 -51
25 -100 17 -37 35 -77 40 -88 5 -11 14 -72 19 -135 16 -172 45 -258 105 -312
51 -46 136 -83 225 -97 190 -30 322 -33 348 -6 4 4 7 32 7 63 1 40 10 80 32
132 20 48 27 76 19 78 -6 2 -20 8 -31 13 -11 4 -29 8 -39 6 -10 -1 -21 3 -23
9 -5 14 43 24 55 12 6 -6 12 -6 16 1 4 5 13 8 21 4 11 -4 15 2 15 22 0 17 4
25 13 22 6 -2 11 -8 11 -13 -1 -5 -4 -29 -7 -54 -3 -25 -20 -78 -37 -118 -31
-73 -35 -112 -14 -119 6 -2 21 20 33 49 44 109 103 179 107 127 0 -8 4 -22 7
-31 15 -39 19 -54 23 -90 7 -54 -2 -47 -20 17 -12 40 -20 53 -31 49 -8 -4 -15
-13 -15 -21 0 -8 -7 -28 -16 -44 -15 -29 -15 -31 4 -25 24 8 49 -1 56 -20 3
-7 2 -13 -2 -12 -4 1 -14 -2 -22 -5 -8 -4 -26 -8 -40 -10 -14 -1 -34 -8 -45
-15 -17 -11 -14 -12 25 -7 25 4 59 10 75 15 56 17 163 35 154 26 -19 -18 -114
-66 -138 -69 -16 -3 -45 -10 -63 -15 -18 -6 -50 -13 -70 -16 -30 -6 -38 -12
-43 -36 -4 -16 -11 -33 -17 -36 -11 -7 -102 -196 -123 -257 -7 -20 -10 -39 -6
-41 13 -8 147 -39 179 -42 17 -1 60 -9 95 -18 34 -8 92 -18 129 -22 78 -7 80
-20 5 -31 -43 -5 -48 -8 -27 -14 16 -4 19 -7 7 -8 -9 -1 -25 3 -35 8 -9 6 -51
15 -92 21 -142 22 -175 28 -254 49 -95 25 -100 25 -92 6 3 -8 2 -15 -3 -15 -5
0 -11 9 -14 20 -5 21 -51 29 -62 10 -3 -5 -12 -10 -18 -9 -8 0 -8 2 1 6 18 7
-7 19 -148 72 -112 41 -158 70 -192 120 l-16 23 -16 -30 c-43 -83 -59 -172
-31 -172 19 0 20 -26 1 -37 -8 -4 -16 -21 -18 -38 -3 -30 -2 -30 39 -27 36 3
47 -1 78 -30 60 -55 125 -88 175 -89 25 0 83 -8 130 -18 47 -10 89 -14 94 -9
6 4 22 8 37 8 15 0 34 3 43 6 14 5 14 8 0 21 -13 14 -13 17 3 35 13 14 19 16
23 6 3 -7 19 -14 35 -16 68 -5 95 -13 90 -25 -4 -7 0 -4 8 6 19 23 30 22 17
-3 -6 -11 -18 -19 -28 -18 -9 1 -36 0 -59 0 -39 -2 -43 -5 -43 -27 0 -20 -7
-26 -41 -35 -44 -12 -190 -6 -231 9 -21 8 -107 24 -135 26 -6 0 -19 7 -30 16
-10 9 -31 23 -48 30 -16 8 -34 23 -40 35 -11 22 -40 54 -49 54 -2 0 -19 -13
-37 -30 -30 -27 -32 -32 -23 -67 8 -35 7 -40 -21 -66 -26 -24 -27 -28 -10 -26
45 3 64 -2 67 -18 5 -28 -15 -63 -40 -69 -12 -4 -34 -21 -47 -38 -21 -27 -23
-37 -15 -70 5 -22 17 -51 28 -65 44 -60 44 -65 8 -113 -41 -53 -96 -160 -96
-186 0 -11 14 -38 31 -62 28 -38 34 -42 64 -37 18 3 38 0 44 -6 8 -8 15 -6 27
9 14 18 15 16 10 -26 -8 -72 2 -100 35 -100 17 0 34 -8 43 -22 l16 -22 25 24
c30 28 38 24 26 -16 -4 -16 -6 -35 -4 -41 5 -15 36 -17 61 -4 43 23 92 41 111
41 12 0 21 6 21 13 0 8 12 20 26 27 35 19 59 3 57 -39 -1 -26 1 -30 13 -20 8
6 23 9 35 6 15 -4 19 -2 15 9 -3 8 -2 23 2 35 8 20 8 20 21 -5 12 -21 18 -24
48 -19 33 6 35 4 28 -16 -5 -16 -2 -21 12 -21 10 0 14 4 8 8 -5 4 -11 20 -12
36 -2 28 -1 28 36 22 33 -5 39 -3 44 14 3 11 1 23 -4 26 -5 3 -9 19 -9 36 0
30 -1 31 -40 25 -32 -4 -40 -2 -40 10 0 13 -3 13 -15 3 -18 -15 -20 -4 -2 14
7 7 18 11 25 8 6 -2 12 3 12 12 0 9 4 16 9 16 5 0 12 8 15 18 5 13 15 18 36
17 19 -1 30 3 30 12 0 7 -4 13 -10 13 -5 0 -10 9 -10 20 0 11 5 20 10 20 6 0
10 -7 10 -15 0 -10 8 -7 26 10 15 14 34 25 43 25 14 0 14 -2 1 -10 -12 -7 -11
-9 5 -8 17 2 20 8 17 34 -4 35 -9 36 -67 4 -30 -17 -75 -31 -75 -24 0 2 34 19
76 39 78 36 191 107 210 133 8 12 11 7 12 -22 1 -33 0 -35 -19 -23 -13 8 -22
9 -27 2 -4 -6 -19 -16 -33 -23 -14 -8 -26 -20 -26 -28 0 -20 7 -18 39 13 24
23 31 25 51 14 22 -12 36 -53 70 -216 7 -33 14 -63 15 -67 1 -5 2 -13 2 -19 0
-5 4 -8 8 -5 5 3 8 28 7 56 -1 28 2 53 7 56 14 9 28 -44 19 -69 -7 -18 -6 -23
9 -23 10 0 18 3 18 6 -2 18 4 23 11 11 7 -12 13 -12 24 -3 13 11 136 29 147
22 10 -8 16 57 8 98 -4 24 -4 51 1 60 5 10 9 33 9 53 0 20 5 46 12 58 10 20 7
27 -22 57 -18 18 -39 34 -45 34 -17 0 -16 11 0 35 23 34 56 125 46 125 -17 0
-9 50 11 70 34 34 55 23 23 -12 -9 -10 -14 -21 -10 -24 9 -9 47 6 47 19 0 7
11 12 25 12 16 0 25 -6 25 -15 0 -9 8 -16 19 -16 10 0 17 5 14 12 -2 6 3 16
11 23 20 17 30 -2 21 -45 -5 -30 -2 -39 27 -67 l33 -32 0 -110 c0 -71 -5 -122
-14 -143 -7 -18 -11 -35 -8 -38 3 -3 32 -7 64 -9 230 -10 324 -18 314 -28 -12
-12 -134 -20 -127 -9 2 4 -44 7 -103 7 l-106 0 -3 -50 c-3 -72 -20 -207 -27
-226 -8 -22 51 -35 73 -17 13 11 14 9 8 -17 -4 -16 -9 -38 -12 -48 -3 -11 6
-29 26 -49 l32 -31 11 23 c16 32 35 36 39 8 3 -21 7 -23 63 -21 110 3 163 8
170 15 4 4 17 1 29 -7 33 -24 56 -19 62 14 5 22 10 27 25 24 17 -5 19 0 19 42
0 50 -2 48 48 28 11 -5 13 0 16 37 2 22 64 16 85 -9 l18 -21 27 25 c18 17 25
31 22 43 -4 10 -12 40 -20 68 -7 27 -16 58 -20 69 -8 20 -7 20 8 1 9 -11 16
-26 16 -33 0 -7 10 -14 23 -14 16 -1 18 -2 5 -6 -10 -2 -18 -6 -18 -8 0 -9 29
-68 30 -60 0 6 5 3 11 -5 8 -11 9 -1 6 39 -2 30 -11 59 -18 65 -18 14 -42 64
-74 159 -15 42 -33 77 -40 77 -7 0 -34 -10 -61 -22 -27 -11 -67 -23 -88 -26
-22 -2 -48 -13 -60 -23 -11 -11 -34 -19 -53 -19 -32 0 -33 1 -19 23 14 20 15
71 4 116 -6 26 19 21 31 -6 12 -25 14 -26 20 -10 6 17 8 17 20 3 7 -9 26 -16
41 -16 16 0 30 -6 32 -12 3 -9 12 -8 31 5 14 9 32 17 40 17 13 0 87 65 87 76
0 3 -7 4 -15 0 -16 -6 -18 5 -9 42 5 18 9 20 20 11 11 -9 14 -8 14 2 1 10 4 9
14 -3 11 -15 15 -12 35 29 14 30 25 42 30 35 5 -9 13 -7 27 9 16 17 19 37 20
113 1 139 3 158 14 151 6 -3 10 2 11 12 0 10 3 13 6 6 2 -7 11 -13 18 -13 8 0
17 -9 20 -21 4 -12 12 -18 21 -15 8 3 24 0 36 -7 32 -19 98 -83 98 -95 0 -6
12 -19 28 -29 15 -10 34 -25 43 -35 12 -14 18 -15 29 -5 14 14 10 -34 -17
-168 -17 -87 -14 -211 9 -349 14 -83 26 -101 44 -63 25 50 49 92 57 95 4 2 7
10 7 17 0 8 6 18 13 22 6 4 18 20 26 36 8 15 21 27 28 27 10 0 11 5 4 17 -7
13 -3 23 15 40 14 13 22 28 18 35 -4 7 -3 8 5 4 13 -8 41 16 41 36 0 7 -7 22
-15 32 -19 25 -19 40 0 32 10 -4 15 1 15 14 0 22 53 37 89 25 17 -5 21 -2 21
15 0 17 -4 20 -22 15 -16 -6 -20 -4 -15 8 4 12 1 15 -11 11 -9 -2 -4 2 11 9
25 12 27 15 12 27 -15 12 -15 14 0 23 22 12 61 -8 71 -37 11 -32 10 -96 -1
-96 -9 -1 -54 -60 -153 -201 -36 -50 -51 -119 -27 -119 7 0 15 7 19 15 3 8 12
15 20 15 16 0 26 -21 26 -58 0 -37 10 -48 48 -57 32 -7 39 3 33 39 -9 44 -8
233 1 243 6 7 8 19 5 28 -10 24 14 30 32 8 9 -11 32 -28 51 -38 19 -10 43 -22
54 -27 30 -16 36 10 15 60 -20 46 -18 65 3 44 7 -7 16 -12 20 -12 16 0 7 27
-16 49 -39 37 -63 107 -70 206 -5 70 -3 84 5 65 11 -24 11 -24 25 22 8 26 19
50 25 54 8 4 9 -1 4 -17 -6 -21 -6 -22 6 -7 12 14 16 15 26 3 10 -11 9 -17 -8
-28 -13 -10 -17 -17 -9 -22 6 -4 17 -2 24 4 7 6 16 8 19 4 4 -3 7 -2 7 2 0 12
-43 75 -51 75 -3 0 -4 12 -1 27 4 23 2 25 -14 19 -10 -5 -27 -10 -36 -13 -9
-3 -19 -12 -21 -22 -4 -14 -5 -14 -6 2 -1 21 -18 22 -63 3 -19 -8 -70 -18
-114 -22 -111 -9 -87 11 52 43 80 19 103 28 90 35 -9 5 -24 8 -34 7 -9 -1 -28
3 -42 9 -14 6 -51 16 -82 22 -32 6 -58 15 -58 19 0 4 -15 8 -32 9 -67 4 -107
14 -112 28 -7 17 -17 18 106 -7 57 -11 130 -24 163 -29 33 -5 87 -14 119 -20
50 -9 65 -8 93 5 40 19 39 32 -5 51 -18 7 -30 9 -27 4 6 -9 -17 -40 -29 -40
-2 0 -6 17 -8 38 -3 32 -7 37 -30 40 -15 2 -28 -2 -31 -10 -2 -7 -2 -2 0 12 3
20 -3 28 -25 38 -16 7 -72 56 -123 108 -52 53 -117 120 -146 149 -50 51 -110
141 -100 151 7 8 47 -52 47 -70 0 -9 4 -15 9 -13 11 2 86 -74 83 -85 -1 -5 4
-8 11 -8 6 0 37 -25 67 -56 52 -53 169 -144 185 -144 4 0 4 7 1 16 -3 9 -2 12
5 9 7 -5 8 6 5 32 -5 28 -4 33 3 18 5 -11 10 -14 10 -7 1 6 8 12 16 12 7 0 19
8 24 17 6 10 11 12 11 6 0 -7 7 -13 17 -13 14 0 15 2 1 18 -15 16 -24 39 -33
79 -2 10 -10 47 -19 83 -8 35 -13 66 -11 69 3 2 5 -2 5 -10 0 -11 2 -11 10 1
9 13 10 13 11 0 1 -8 5 3 9 25 l7 40 2 -36 c1 -45 27 -60 34 -21 5 25 4 25 -9
7 -13 -17 -14 -16 -14 16 0 25 3 30 10 19 8 -12 10 -10 11 10 1 18 4 13 14
-20 7 -25 13 -37 14 -27 2 29 21 19 21 -12 0 -32 29 -108 30 -78 0 11 9 21 19
24 13 3 18 11 14 21 -4 12 2 10 20 -7 15 -13 24 -28 20 -34 -3 -5 -9 -3 -14 4
-7 11 -9 9 -9 -6 0 -12 6 -27 12 -33 10 -10 10 -15 -2 -22 -23 -15 2 -11 30 5
19 10 28 11 40 2 8 -7 -15 26 -51 73 -66 86 -94 135 -81 143 4 2 2 3 -4 1 -6
-1 -16 2 -22 8 -8 8 -16 7 -28 -3 -16 -13 -16 -12 -6 6 8 17 18 20 50 17 22
-2 50 -13 62 -24 12 -11 28 -17 37 -14 9 4 19 2 23 -4 4 -6 25 -18 46 -25 21
-8 33 -14 26 -15 -10 0 -10 -3 0 -14 14 -15 32 -11 22 6 -4 6 -1 9 7 6 8 -3
13 -14 11 -25 -2 -13 6 -24 25 -33 78 -37 93 -45 93 -52 0 -5 29 -8 65 -8 37
0 65 -4 65 -10 0 -15 16 -12 33 5 26 25 2 69 -50 90 -47 20 -63 40 -67 86 -1
15 -12 37 -24 47 -12 11 -19 22 -16 25 4 3 20 -7 38 -23 17 -17 37 -30 44 -30
6 0 12 -5 12 -11 0 -23 25 -1 31 28 5 24 0 38 -23 68 -32 44 -36 65 -10 65 17
1 52 22 52 32 0 7 -41 21 -53 19 -5 -1 -7 4 -4 11 2 7 10 12 17 10 8 -2 10 3
6 14 -6 16 29 52 47 46 4 -1 7 9 7 22 0 13 5 26 11 28 7 2 13 17 15 32 4 40
17 50 44 34 21 -13 22 -17 16 -138 -7 -160 -10 -175 -27 -175 -17 0 -25 -43
-11 -57 7 -7 7 -20 0 -40 -12 -35 -5 -96 23 -204 11 -43 18 -88 14 -101 -4
-16 1 -33 14 -49 11 -14 17 -32 14 -41 -4 -9 1 -21 12 -29 10 -8 19 -24 20
-36 1 -13 10 -65 20 -115 14 -73 16 -98 7 -118 -10 -22 -9 -24 8 -22 11 2 23
7 27 12 5 4 2 5 -4 1 -8 -4 -13 -2 -13 7 0 10 29 19 98 31 53 10 129 27 168
37 38 10 89 19 112 19 45 0 65 14 24 17 -15 1 -45 10 -67 19 -22 10 -51 16
-64 15 -13 -2 -21 1 -18 6 3 4 -9 9 -26 10 -35 3 -64 23 -31 23 20 -1 103 -20
164 -39 43 -14 110 -14 110 -1 0 18 -77 90 -96 90 -11 0 -24 11 -31 28 -7 15
-26 35 -42 45 -43 25 -59 121 -24 141 13 7 13 10 2 17 -11 6 -10 11 4 27 9 10
17 26 17 35 0 9 4 17 9 17 5 0 15 16 21 35 11 32 30 48 30 25 0 -23 29 -8 34
18 4 15 19 41 34 57 25 28 52 86 52 114 0 8 -11 10 -36 6 -35 -5 -36 -4 -31
22 3 15 -1 37 -10 50 -16 24 -13 26 23 24 30 -3 67 34 100 99 15 30 33 62 40
70 18 23 23 89 11 158 -10 60 -11 62 -41 62 -17 0 -67 -9 -111 -19 -45 -11
-105 -22 -135 -25 -30 -3 -77 -13 -104 -21 -69 -21 -102 -18 -41 4 52 19 233
75 295 91 19 5 67 15 107 21 40 7 70 15 68 19 -3 4 2 22 11 39 18 37 13 61
-14 61 -10 0 -47 20 -83 45 -35 25 -67 45 -71 45 -12 0 -82 50 -72 51 5 1 -2
4 -15 8 -14 4 -26 12 -28 18 -3 7 13 4 37 -8 58 -28 94 -42 102 -41 4 1 19 -9
34 -23 14 -13 46 -32 71 -41 44 -17 46 -17 59 1 8 10 14 31 14 45 0 14 7 35
15 46 8 10 15 29 15 41 0 24 -31 86 -56 110 -8 8 -14 33 -14 59 0 25 -7 61
-15 81 -14 34 -14 37 5 55 11 10 20 23 20 28 0 5 10 15 22 21 17 9 23 9 26 0
3 -9 11 -6 26 8 22 20 132 55 147 46 4 -3 10 -1 14 5 3 5 15 10 26 10 11 0 17
4 14 10 -6 9 18 4 40 -9 6 -3 19 -6 30 -6 16 0 20 -6 19 -32 -2 -26 2 -33 16
-33 12 0 19 -10 23 -32 6 -41 -1 -49 -19 -23 -33 50 -42 58 -53 51 -8 -6 -9
-12 -2 -20 6 -7 10 -37 9 -67 0 -30 7 -83 16 -118 14 -52 15 -76 7 -127 -5
-35 -6 -76 -1 -91 l8 -28 16 37 c9 21 16 60 16 88 0 27 4 50 9 50 5 0 11 10
13 23 4 21 5 21 18 -6 11 -23 15 -25 22 -13 9 17 0 66 -12 66 -9 0 -22 43 -25
81 -3 31 29 51 64 42 28 -7 28 18 -3 103 -21 58 -102 193 -116 194 -3 0 -14
-15 -24 -34 -18 -34 -76 -85 -76 -67 0 5 12 19 28 31 34 27 51 57 52 92 0 29
-14 45 -25 28 -12 -19 -25 -10 -25 18 0 21 2 24 10 12 8 -12 10 -11 10 8 0 23
-14 30 -25 12 -15 -24 -23 -7 -13 28 10 34 13 51 17 90 0 7 4 11 9 9 4 -3 13
1 20 9 7 8 10 14 7 14 -4 0 1 7 9 16 9 8 16 20 16 25 0 18 -19 8 -46 -23 -15
-18 -34 -34 -43 -34 -9 -1 -28 -6 -42 -12 -21 -8 -26 -16 -22 -35 3 -13 -4
-44 -15 -68 -25 -57 -39 -105 -47 -154 -4 -22 -10 -49 -15 -60 -4 -11 -12 -31
-17 -45 -10 -23 -11 -22 -14 17 -3 23 0 41 5 40 4 -1 11 4 14 12 2 8 0 11 -6
8 -5 -4 -12 2 -15 13 -3 11 -2 20 2 20 3 0 14 22 24 50 13 37 15 55 7 69 -7
14 -7 22 2 27 7 5 8 3 3 -6 -6 -9 -4 -11 4 -6 7 5 10 10 7 13 -3 3 0 15 6 27
7 11 11 36 9 54 -2 22 2 34 13 38 9 3 13 10 10 15 -3 5 -8 26 -10 46 -3 21 -6
39 -9 41 -7 7 -117 -22 -130 -35 -26 -25 -29 57 -10 299 2 37 1 70 -5 73 -5 3
-24 -7 -42 -23 -34 -30 -71 -52 -85 -52 -4 0 1 7 11 15 19 14 18 15 -10 16
-28 0 -28 1 -6 11 25 13 29 28 6 28 -8 0 -13 4 -9 10 3 5 12 7 19 4 8 -3 17
-1 20 4 3 6 20 8 36 5 21 -3 30 0 28 8 -2 7 6 15 16 17 14 3 17 0 13 -12 -4
-9 -2 -16 3 -16 11 0 13 19 12 120 -1 36 1 58 4 49 3 -11 13 -15 29 -11 26 5
35 22 12 22 -10 0 -11 15 -6 68 5 37 8 86 8 110 1 41 0 42 -26 35 -16 -3 -46
-14 -68 -24 -51 -21 -119 -34 -111 -20 7 10 171 91 186 91 5 0 18 12 30 27
l22 28 -21 14 c-22 14 -29 51 -10 51 5 0 8 4 5 9 -3 5 1 14 9 21 8 7 15 23 15
35 0 17 7 24 32 29 21 4 35 2 40 -6 6 -10 11 -9 22 5 7 9 21 17 30 17 11 0 14
4 9 12 -4 7 -6 25 -4 40 4 42 -7 52 -36 32 l-26 -16 7 43 c4 24 11 48 17 55 7
8 6 14 -3 17 -8 4 -7 6 5 6 9 1 17 6 17 12 0 5 -4 8 -9 4 -14 -8 -41 23 -41
46 0 11 -4 17 -10 14 -5 -3 -10 -1 -10 5 0 10 -19 8 -72 -7 -10 -2 -18 -9 -18
-16 0 -8 3 -8 12 1 20 20 33 13 45 -25 11 -35 10 -39 -10 -55 -12 -10 -28 -18
-34 -18 -8 0 -13 -15 -13 -40 0 -64 -29 -44 -38 27 -1 6 -11 9 -21 6 -13 -3
-18 -10 -14 -21 5 -11 2 -14 -10 -9 -10 4 -37 4 -62 0 -39 -5 -43 -8 -34 -24
5 -10 16 -16 24 -13 8 4 15 1 15 -5 0 -6 -4 -11 -10 -11 -5 0 -10 -4 -10 -10
0 -5 10 -10 22 -10 21 0 17 -15 -5 -15 -14 -1 -57 54 -57 72 0 7 -6 10 -16 6
-13 -5 -13 -7 -2 -14 10 -7 9 -9 -4 -9 -10 0 -18 -4 -18 -10 0 -5 -9 -10 -20
-10 -11 0 -20 5 -20 11 0 5 -5 7 -10 4 -15 -9 -43 23 -36 42 4 10 -2 26 -16
41 -20 22 -20 24 -4 18 15 -5 17 -2 13 14 -3 12 -1 20 6 19 7 -1 25 1 41 6 18
5 36 4 48 -4 14 -9 18 -8 19 1 0 7 5 2 10 -11 7 -17 15 -22 29 -18 11 3 18 1
14 -4 -3 -5 1 -9 10 -9 8 0 22 -3 32 -7 13 -5 16 -3 11 10 -3 9 -2 17 3 17 17
0 11 28 -7 39 -16 9 -16 10 5 11 12 0 22 -5 22 -10 0 -6 11 -8 28 -4 22 5 25
4 15 -7 -7 -7 -13 -22 -13 -32 0 -14 -5 -18 -20 -14 -13 3 -20 0 -20 -10 0
-11 5 -13 18 -8 9 5 24 8 33 9 10 0 21 14 27 33 10 31 9 33 -16 39 -15 3 -31
7 -37 9 -5 1 4 9 20 16 30 14 61 38 54 42 -2 2 -12 9 -21 16 -16 12 -19 10
-27 -10 -9 -23 -10 -23 -10 7 -1 17 -8 38 -17 45 -15 12 -16 11 -10 -9 4 -12
5 -22 2 -22 -15 0 -56 25 -56 34 0 5 -6 1 -14 -9 -13 -18 -14 -18 -25 3 -14
26 -14 45 -1 37 5 -3 20 1 32 9 33 23 47 20 86 -21 30 -33 34 -34 27 -13 -9
31 -35 61 -49 58 -6 -2 -12 2 -14 7 -1 5 11 10 28 11 16 1 30 -2 30 -7 0 -5
-5 -9 -12 -9 -6 0 1 -13 16 -29 20 -20 27 -37 23 -50 -7 -26 4 -27 26 -1 9 11
23 20 30 20 10 0 47 57 47 73 0 1 -12 3 -27 3 -16 1 -37 5 -47 9 -14 6 -17 5
-12 -3 17 -29 -28 -9 -67 29 -23 22 -61 54 -85 71 -37 25 -43 34 -37 55 3 14
2 22 -3 19 -5 -3 -17 3 -26 13 -16 17 -15 19 11 37 52 34 178 87 220 91 38 5
43 2 58 -26 8 -17 20 -31 26 -31 5 0 26 -15 46 -32 19 -18 39 -32 44 -30 5 1
9 -6 9 -16 0 -10 12 -22 30 -29 31 -12 39 -6 19 14 -8 8 -7 20 5 43 14 29 14
35 -1 64 -25 49 -64 96 -75 90 -12 -8 -39 16 -32 28 9 13 -26 48 -48 48 -19 0
-26 34 -8 45 6 3 10 14 10 24 0 10 9 26 20 36 19 17 19 18 -8 56 -30 41 -58
55 -66 32 -3 -8 -6 -48 -6 -89 0 -41 -4 -74 -8 -74 -4 0 -23 15 -41 34 -28 29
-36 48 -53 136 -18 87 -19 103 -7 111 8 5 10 9 4 10 -5 0 -20 2 -33 3 -12 2
-27 -2 -32 -9z m-2481 -687 c38 -41 40 -42 112 -44 178 -7 172 -6 191 -44 28
-57 31 -92 13 -140 -9 -25 -17 -53 -16 -63 0 -14 -5 -16 -22 -11 -12 4 -29 15
-38 25 -29 34 -29 20 0 -23 l29 -42 -24 -38 c-13 -21 -21 -38 -18 -38 4 0 2
-6 -4 -13 -11 -12 -16 -47 -14 -79 1 -12 18 -22 49 -31 74 -22 66 -37 -19 -37
-109 0 -115 3 -122 61 -6 47 -8 49 -34 47 -26 -3 -27 -1 -40 77 -7 44 -15 106
-17 138 -3 32 -12 72 -22 90 -9 18 -18 44 -20 60 -1 15 -10 44 -18 63 -15 36
-20 84 -10 84 3 0 23 -19 44 -42z m-263 -132 c3 -17 13 -44 21 -60 15 -28 15
-28 36 -9 12 11 30 23 39 26 25 9 12 -16 -15 -28 -17 -8 -22 -18 -20 -45 1
-19 -1 -29 -3 -22 -10 21 -22 13 -29 -20 l-7 -32 -25 28 c-19 23 -26 26 -38
16 -8 -7 -15 -25 -15 -40 0 -15 -7 -33 -15 -40 -8 -7 -15 -23 -15 -36 0 -12
-5 -26 -10 -29 -7 -4 -8 -26 -4 -56 5 -39 4 -49 -7 -47 -8 2 -13 -7 -13 -22
-1 -17 5 -26 19 -28 11 -2 29 -7 40 -11 58 -24 184 -71 191 -71 3 0 5 28 4 63
-2 83 -2 87 11 87 6 0 9 -10 8 -22 -3 -29 10 -70 21 -63 13 8 20 -22 13 -55
-3 -19 -1 -30 5 -30 6 0 9 7 6 15 -4 8 -1 15 5 15 6 0 11 -7 11 -15 0 -23 36
-76 46 -68 5 4 4 2 -3 -6 -7 -8 -16 -10 -25 -5 -7 5 -17 9 -23 10 -5 1 -59 18
-118 38 -98 32 -162 43 -151 25 2 -4 6 -24 9 -45 5 -39 21 -57 43 -49 6 3 20
8 29 12 17 7 17 6 0 -20 -16 -24 -16 -27 -1 -27 9 0 18 -9 21 -20 11 -40 74
-33 88 10 4 11 11 18 16 14 5 -3 7 -9 4 -14 -8 -12 31 -50 51 -50 10 0 14 -6
11 -14 -8 -20 22 -29 41 -14 12 11 16 10 20 0 6 -18 62 35 62 59 0 21 26 43
40 34 8 -5 8 -11 -1 -21 -6 -8 -9 -17 -5 -21 3 -4 12 0 19 9 6 9 19 18 27 21
12 4 11 6 -2 6 -10 1 -18 6 -18 12 0 6 7 8 16 5 9 -3 19 -6 24 -6 4 0 7 -10 6
-23 -1 -25 -25 -32 -39 -13 -6 7 -7 4 -3 -7 3 -10 6 -33 7 -50 l1 -32 11 26
c10 22 14 24 25 13 7 -8 10 -19 6 -26 -8 -13 11 -3 37 18 13 12 21 6 57 -46
23 -32 42 -66 42 -74 0 -8 9 -38 20 -66 23 -57 24 -70 10 -70 -5 0 -10 9 -10
19 0 11 -5 23 -11 27 -8 4 -9 -3 -4 -25 6 -26 4 -30 -10 -24 -14 5 -16 15 -12
50 8 72 -14 116 -29 58 -4 -16 -16 -28 -32 -32 -21 -5 -23 -8 -10 -17 8 -6 13
-17 10 -25 -3 -9 0 -11 9 -6 10 5 11 5 4 -3 -5 -5 -19 -12 -30 -15 -18 -4 -18
-5 5 -14 15 -7 29 -7 34 -2 16 15 24 10 19 -11 -5 -20 -33 -29 -33 -11 0 5 -9
7 -20 4 -11 -3 -17 -9 -14 -15 3 -5 11 -7 17 -5 7 2 19 -5 29 -15 18 -21 68
-16 68 6 0 8 31 17 41 11 0 0 3 -21 5 -46 4 -34 2 -49 -10 -58 -14 -12 -16
-10 -16 8 0 23 -14 28 -26 9 -4 -7 -3 -8 4 -4 8 4 12 0 12 -11 0 -29 -12 -63
-21 -63 -5 0 -5 7 -2 17 11 27 -15 5 -32 -28 l-16 -29 46 4 c44 3 45 3 28 -16
-9 -10 -32 -26 -50 -35 -42 -19 -38 -27 6 -12 39 14 47 8 29 -21 -12 -19 -10
-23 15 -41 47 -35 26 -50 -35 -24 -13 5 -20 0 -28 -21 -7 -19 -8 -30 0 -38 5
-5 10 -19 9 -31 0 -19 -1 -19 -8 -1 -7 18 -10 16 -25 -15 -9 -18 -11 -28 -4
-21 21 21 31 13 14 -13 -13 -20 -14 -28 -4 -45 16 -25 38 -26 38 -1 0 24 36
35 45 13 3 -8 1 -20 -5 -26 -16 -16 -12 -53 6 -60 9 -4 14 -9 11 -13 -4 -3 1
-12 10 -18 14 -11 9 -14 -36 -20 -58 -8 -53 -25 7 -25 29 0 77 -31 66 -43 -3
-3 -1 -28 4 -56 7 -36 6 -51 -2 -51 -6 0 -3 -7 7 -15 17 -12 15 -14 -30 -22
-56 -9 -221 -10 -278 -1 -22 3 -55 12 -72 19 -29 12 -37 11 -63 -4 -22 -13
-34 -15 -49 -8 -14 8 -22 7 -31 -4 -21 -25 -40 -18 -40 15 0 17 -5 30 -11 30
-5 0 -8 4 -5 9 4 5 0 12 -6 14 -10 4 -10 7 0 15 11 7 9 11 -8 15 -12 3 -19 10
-16 16 4 5 2 12 -4 16 -6 4 -8 11 -5 16 4 5 -1 9 -9 9 -8 0 -20 8 -25 18 -6 9
-11 11 -11 5 0 -7 -7 -13 -15 -13 -8 0 -14 3 -14 8 4 26 -1 34 -16 22 -9 -7
-13 -21 -10 -31 3 -9 1 -20 -5 -24 -13 -8 -13 40 0 66 6 11 7 19 1 19 -5 0 -8
6 -7 13 0 6 -3 13 -7 14 -20 6 -38 35 -35 60 2 18 -1 27 -9 25 -7 -1 -13 2
-13 8 0 21 39 10 42 -12 2 -12 9 -23 17 -26 8 -3 11 0 7 6 -4 6 -1 21 6 32 11
18 10 23 -6 36 -11 8 -26 14 -33 14 -7 0 -13 9 -13 19 0 21 4 20 -115 19 -27
0 -62 -1 -77 -1 -32 0 -59 19 -52 37 3 7 15 11 27 9 12 -2 47 0 77 4 46 7 56
12 58 31 2 12 8 22 13 22 15 0 10 38 -5 47 -8 4 -15 13 -14 18 0 6 -3 28 -6
49 -5 28 -10 36 -17 29 -8 -8 -7 -18 1 -33 7 -13 8 -20 2 -16 -6 3 -13 2 -16
-3 -4 -5 3 -13 15 -16 19 -6 20 -8 3 -26 -19 -22 -34 -25 -34 -7 0 7 -12 24
-27 40 -20 21 -23 30 -15 41 15 18 4 58 -16 55 -9 -2 -16 5 -17 20 -1 12 2 22
7 22 4 0 8 14 8 31 0 23 -4 30 -14 26 -9 -4 -16 3 -18 18 -3 14 0 26 8 29 19
7 18 26 -1 26 -20 0 -19 17 1 28 14 8 14 10 0 25 -18 17 -22 32 -6 22 6 -3 10
-2 10 4 0 5 -6 12 -12 14 -10 4 -9 8 2 17 11 9 12 13 2 17 -6 2 -9 9 -6 15 3
5 -2 16 -12 23 -18 13 -18 14 -1 15 16 0 26 20 9 20 -9 0 -8 92 1 107 4 6 2
15 -4 19 -8 4 -7 9 2 15 12 8 11 11 -1 19 -11 7 -12 10 -2 10 10 0 12 8 7 29
-5 24 -3 29 12 27 14 -1 17 5 15 32 -1 17 2 32 7 32 9 0 26 38 22 50 -2 8 -23
7 -78 -6 -49 -10 -53 -10 -53 7 0 22 16 33 52 35 53 3 73 14 91 50 9 19 15 40
12 45 -4 5 1 12 9 15 10 4 16 18 16 36 0 16 4 27 9 23 5 -3 12 5 16 17 20 77
30 105 42 119 7 9 10 19 6 23 -4 4 0 12 10 17 9 6 17 21 17 34 0 14 9 29 21
35 11 7 18 18 15 26 -3 7 1 17 8 21 19 12 27 53 14 77 -7 14 1 10 25 -13 20
-19 39 -48 43 -65z m2549 -392 c19 -10 64 -17 124 -19 95 -4 125 -15 104 -36
-8 -8 -17 -7 -34 5 -32 22 -49 20 -49 -5 0 -16 5 -20 20 -16 12 3 18 1 14 -5
-3 -5 -14 -8 -24 -5 -21 5 -37 -22 -19 -33 11 -7 -19 -34 -83 -75 -16 -9 -28
-23 -28 -30 0 -7 -5 -15 -11 -17 -7 -2 -2 -15 13 -31 14 -15 31 -41 38 -57 11
-26 26 -35 53 -31 4 1 20 3 35 4 15 2 38 9 50 16 13 7 26 10 30 6 7 -7 -34
-47 -66 -64 -26 -14 -27 -24 -6 -45 8 -9 11 -16 5 -16 -6 0 -16 9 -23 19 -6
10 -18 17 -25 14 -9 -4 -16 3 -20 16 -6 24 -4 24 -38 11 -23 -9 -26 -8 -21 5
3 9 0 15 -9 15 -8 0 -15 -7 -15 -15 0 -13 -3 -13 -20 -3 -28 18 -40 1 -42 -55
0 -26 -7 -52 -14 -58 -10 -8 -11 -16 -3 -30 5 -10 7 -19 3 -19 -3 0 -1 -7 6
-15 11 -13 10 -14 -4 -9 -9 3 -16 11 -16 16 0 6 -7 8 -15 4 -8 -3 -15 -1 -15
4 0 6 -15 10 -34 10 -38 0 -80 -29 -101 -70 -8 -15 -42 -54 -75 -86 -33 -31
-60 -63 -60 -71 0 -16 -16 -17 -26 -1 -7 12 -6 79 1 86 2 2 13 -1 24 -8 17 -9
21 -8 21 4 0 9 -6 13 -14 10 -17 -6 -30 26 -16 40 5 5 10 18 10 27 0 9 10 19
21 22 17 5 21 11 16 33 -6 32 12 54 43 54 17 0 20 4 15 21 -10 31 40 125 73
140 28 12 62 66 62 98 0 10 9 25 21 32 22 15 18 49 -7 49 -8 0 -14 10 -14 26
0 16 5 24 13 21 6 -2 12 -11 11 -19 -1 -11 9 -13 55 -7 72 10 101 19 101 31 0
11 -38 48 -49 48 -3 0 -14 7 -24 14 -13 10 -16 21 -11 40 7 30 9 31 49 10z
m-723 -70 c11 -21 20 -54 20 -73 0 -20 6 -43 14 -52 13 -14 13 -18 0 -28 -13
-11 -19 -79 -17 -193 0 -20 -12 -23 -40 -8 -15 9 -21 7 -26 -7 -4 -10 -13 -24
-20 -31 -20 -20 -16 -60 6 -67 16 -5 20 -18 23 -83 4 -58 1 -80 -9 -89 -25
-20 4 -23 30 -3 14 11 30 20 36 20 15 0 14 20 -1 21 -10 0 -10 2 0 6 6 2 12
16 12 29 0 13 5 24 10 24 12 0 12 -7 1 -35 -5 -11 -4 -25 0 -31 6 -7 6 -21 0
-35 -10 -27 -77 -92 -103 -102 -10 -3 -18 -11 -18 -17 0 -11 -44 -60 -54 -60
-3 0 -3 7 0 15 4 8 1 15 -5 15 -6 0 -12 -6 -12 -12 -1 -7 -3 -24 -4 -38 -4
-35 2 -41 32 -29 l26 10 -28 -38 c-16 -21 -29 -39 -30 -41 -5 -6 -35 11 -35
20 0 5 5 6 12 2 8 -5 9 -2 5 9 -4 10 -2 17 5 17 7 0 6 5 -2 15 -7 8 -10 22 -6
30 3 8 0 15 -6 15 -6 0 -3 10 8 21 l19 22 -31 -16 c-33 -17 -51 -56 -32 -68 6
-4 7 -12 3 -18 -3 -7 -9 -35 -11 -64 -3 -29 -10 -65 -15 -81 -10 -32 -4 -50 7
-20 4 10 13 26 21 35 8 9 13 23 11 30 -2 10 5 13 25 11 18 -2 27 1 27 10 0 15
50 68 64 68 4 0 4 -9 1 -21 -6 -19 -5 -19 17 -8 12 7 30 15 38 19 8 4 21 25
27 46 23 69 25 73 39 67 8 -3 14 -1 14 3 0 5 11 9 24 9 13 0 22 -3 20 -7 -2
-3 7 -15 21 -26 32 -25 53 -81 35 -92 -16 -10 3 -22 23 -14 10 3 20 -3 27 -15
7 -15 7 -21 0 -21 -7 0 -6 -5 2 -14 9 -9 20 -11 35 -5 17 6 23 4 28 -12 5 -14
1 -25 -11 -33 -12 -9 -14 -15 -6 -20 7 -4 12 -3 12 2 0 6 6 12 14 15 12 5 12
-3 1 -48 -7 -30 -10 -57 -7 -60 3 -3 0 -5 -6 -5 -7 0 -12 7 -12 16 0 10 -6 14
-15 10 -10 -4 -15 1 -15 15 0 14 -13 26 -42 39 -53 24 -90 26 -82 5 4 -8 16
-15 28 -15 15 0 28 -10 36 -27 16 -32 22 -73 12 -73 -4 0 -22 -14 -41 -31 -22
-19 -40 -27 -50 -23 -9 4 -24 6 -35 6 -14 -1 -17 4 -12 21 8 31 -4 67 -23 68
-12 0 -10 3 5 9 12 5 31 22 43 39 19 26 20 31 6 31 -8 0 -19 -10 -24 -22 l-8
-22 -5 22 c-7 26 -26 28 -54 4 -20 -17 -44 -53 -44 -68 0 -3 13 -4 30 -1 36 8
50 -8 15 -17 -14 -4 -25 -11 -25 -17 0 -6 7 -8 16 -5 32 12 52 -3 49 -37 -1
-18 2 -37 7 -44 5 -7 5 -14 -2 -18 -6 -4 2 -17 20 -32 21 -18 30 -34 30 -56
l0 -30 -32 36 c-18 20 -40 37 -48 38 -30 3 -40 -1 -40 -17 0 -8 -4 -12 -10 -9
-11 7 -53 -19 -45 -27 3 -2 -2 -5 -10 -5 -8 0 -15 4 -15 9 0 16 -36 7 -74 -18
l-39 -27 24 -18 c26 -20 19 -25 -11 -9 -27 15 -34 -16 -10 -47 11 -14 20 -33
20 -42 -1 -11 -5 -9 -14 8 -8 14 -15 19 -17 12 -6 -16 -36 -4 -43 16 -5 11 -1
14 13 10 16 -4 18 -2 10 12 -6 9 -21 17 -34 17 -35 2 -31 -42 6 -62 16 -8 29
-19 29 -25 0 -5 6 -9 13 -8 26 3 57 -1 56 -8 -4 -23 2 -43 11 -38 6 3 10 2 10
-3 0 -18 -13 -21 -27 -7 -16 16 -63 20 -63 6 0 -10 27 -24 52 -26 10 -1 25 -8
35 -16 9 -8 14 -9 10 -3 -4 7 0 14 8 18 9 3 15 0 15 -9 0 -8 5 -15 10 -15 6 0
10 -5 10 -11 0 -5 -6 -7 -12 -4 -7 4 0 -5 15 -19 16 -14 25 -31 22 -36 -3 -6
3 -10 14 -10 27 0 27 15 -1 34 -20 14 -18 21 5 17 16 -2 5 12 -39 55 -37 37
-76 98 -78 125 -1 4 -12 16 -26 28 -21 17 -22 20 -7 21 9 0 17 -4 17 -10 0 -5
7 -10 16 -10 8 0 13 -4 9 -10 -3 -5 9 -23 26 -40 22 -20 35 -27 40 -19 4 6 16
8 28 4 15 -4 21 -2 21 8 0 15 66 34 78 23 3 -3 -9 -9 -26 -12 -18 -4 -32 -11
-32 -16 0 -5 9 -7 19 -3 15 5 18 2 14 -13 -2 -11 3 -26 12 -35 9 -9 14 -21 10
-27 -4 -6 1 -7 11 -3 13 5 16 3 11 -10 -4 -11 -1 -17 9 -17 8 0 19 -12 24 -26
6 -14 20 -28 31 -31 14 -4 19 -12 16 -24 -3 -11 2 -19 14 -22 25 -7 24 -23 -1
-30 -21 -5 -29 -47 -8 -47 6 0 8 3 5 7 -10 9 31 35 43 28 6 -3 10 -29 10 -57
0 -47 -3 -53 -42 -88 -38 -34 -42 -41 -40 -80 2 -26 -3 -49 -12 -59 -19 -21
-6 -94 23 -125 22 -23 30 -96 11 -96 -5 0 -10 6 -10 13 0 13 -54 77 -66 77 -3
0 -4 -7 0 -15 3 -8 2 -15 -3 -15 -5 0 -11 9 -14 20 -3 11 -10 20 -17 20 -6 0
-9 -3 -7 -7 6 -10 34 -74 41 -93 3 -8 4 0 3 19 -1 19 3 36 9 38 23 8 34 -52
32 -170 -3 -104 -1 -120 15 -132 27 -20 1 -30 -28 -11 -15 10 -25 12 -25 6 0
-6 -4 -9 -9 -6 -8 5 -55 -86 -56 -109 -1 -25 -16 -35 -36 -25 -10 6 -19 15
-19 21 0 6 5 7 12 3 7 -5 9 -2 5 9 -3 8 1 21 9 28 10 8 11 15 4 24 -8 9 -8 15
0 20 16 10 12 28 -6 21 -8 -3 -12 -2 -9 4 7 12 3 12 -19 4 -13 -5 -14 -9 -5
-20 6 -8 8 -14 3 -14 -14 0 -74 63 -74 78 0 7 -5 10 -10 7 -13 -8 -51 28 -73
70 -9 17 -28 43 -41 60 -24 28 -26 28 -45 11 -15 -14 -24 -15 -40 -7 -40 22
-48 4 -24 -59 10 -27 11 -40 3 -40 -10 0 -23 28 -26 60 -2 14 -8 26 -14 28 -7
3 -6 10 1 24 6 12 17 17 26 14 14 -6 88 49 88 65 0 4 3 11 8 15 13 14 7 24
-20 35 -18 7 -28 6 -33 -1 -4 -7 -12 3 -20 22 -6 18 -16 42 -20 53 -5 11 -20
52 -35 90 -14 39 -30 78 -35 87 -5 10 -7 24 -4 33 3 8 1 15 -5 15 -6 0 -11 8
-11 18 0 10 3 13 8 6 5 -8 13 -5 26 7 19 19 19 19 -7 19 -30 0 -36 20 -11 41
13 11 15 26 9 89 -8 85 -12 97 -28 78 -7 -7 -11 -11 -10 -9 2 2 -2 10 -7 16
-7 8 -7 21 -1 36 5 13 10 18 10 10 1 -8 4 -11 7 -8 4 4 1 14 -7 24 -9 11 -10
14 -1 9 6 -4 12 -2 12 3 0 6 -5 11 -11 11 -5 0 -7 5 -3 12 5 8 13 4 25 -11 14
-17 16 -28 9 -47 -13 -34 2 -30 23 7 19 34 22 59 7 59 -5 0 -10 10 -10 22 l0
22 16 -22 c8 -12 20 -20 25 -16 6 3 19 -2 30 -12 10 -9 19 -12 19 -6 0 6 -12
20 -27 33 -23 18 -24 20 -7 15 33 -10 41 22 8 34 -43 17 -140 -2 -242 -46 -51
-22 -70 -18 -36 8 54 42 66 53 86 73 18 19 18 20 2 32 -17 12 -17 13 -1 13 9
0 17 5 17 10 0 6 -7 10 -15 10 -23 0 -18 17 8 25 21 7 21 8 -8 15 -16 4 -22 8
-12 9 19 1 23 16 6 27 -8 4 -7 9 2 15 12 7 11 9 0 9 -11 0 -9 4 5 15 16 13 17
16 4 26 -11 8 -12 12 -2 16 17 7 5 23 -19 23 -10 0 -19 7 -19 15 0 18 16 20
24 3 3 -7 3 2 0 19 -4 26 -3 32 9 27 8 -3 18 0 22 6 9 14 -4 28 -13 15 -9 -13
-42 -16 -42 -4 0 5 7 9 16 9 14 0 14 3 4 15 -7 8 -13 39 -14 67 l-1 53 -88 0
c-91 0 -113 8 -49 19 105 19 182 41 187 54 9 24 -4 27 -20 6 -33 -41 -4 42 65
193 17 37 36 75 41 83 5 8 14 26 19 40 6 14 15 34 22 45 14 24 33 61 47 95 25
58 79 142 119 185 40 44 78 103 70 110 -2 2 -21 0 -43 -5 -25 -6 -44 -5 -51 1
-14 11 -64 2 -64 -12 0 -5 -5 -9 -11 -9 -5 0 -8 4 -5 9 3 5 -4 9 -17 10 -64 3
-257 0 -289 -5 -34 -5 -36 -4 -31 17 6 21 4 22 -47 17 -81 -8 -39 17 52 30 70
11 108 4 108 -18 0 -11 69 -12 145 -2 42 6 49 10 47 26 -3 14 1 17 13 12 9 -3
21 -6 26 -6 6 0 7 -4 4 -10 -7 -12 31 -11 103 2 29 5 50 14 47 19 -4 5 -1 9 5
9 6 0 10 -8 8 -17 -5 -30 30 -26 71 8 26 21 46 48 57 80 16 44 19 47 36 34 11
-7 29 -30 40 -51z m-312 -195 c0 -23 -24 -52 -35 -41 -4 4 -6 -2 -5 -13 4 -38
0 -64 -12 -77 -7 -7 -15 -22 -16 -33 -2 -11 -12 -25 -22 -32 -9 -7 -20 -26
-23 -42 -9 -43 -78 -182 -87 -176 -5 3 -11 1 -15 -5 -4 -6 -10 -8 -14 -6 -4 3
-5 -8 -3 -24 5 -35 -12 -87 -39 -120 l-21 -25 7 25 c3 14 7 31 7 38 1 6 5 12
10 12 5 0 8 10 7 23 -5 47 16 104 61 168 37 51 47 72 43 93 -6 30 10 67 46
105 13 15 32 46 43 71 29 68 68 102 68 59z m1300 -514 c0 -7 -8 -16 -17 -19
-23 -7 -198 -34 -335 -51 -59 -8 -115 -18 -125 -23 -24 -12 -212 -36 -220 -28
-12 11 13 26 48 30 47 4 317 55 357 68 18 5 63 8 100 7 37 -2 73 1 81 5 8 5
28 11 44 13 17 1 35 7 41 13 11 11 26 3 26 -15z m-130 -555 c0 -5 -15 -16 -32
-24 -18 -8 -48 -26 -67 -40 -19 -14 -40 -26 -45 -26 -17 0 -157 -70 -173 -86
-8 -8 -21 -14 -29 -14 -8 0 -52 -18 -97 -40 -48 -24 -72 -32 -58 -20 13 11 18
20 11 20 -33 0 97 70 330 178 147 67 160 72 160 52z m-2452 -250 c20 -11 41
-20 47 -20 6 0 28 -12 49 -26 34 -23 41 -25 62 -13 13 7 24 16 24 20 0 5 7 6
15 3 13 -5 11 -10 -7 -26 l-23 -19 44 -37 c43 -36 89 -65 124 -78 9 -3 17 -13
17 -21 0 -7 6 -13 13 -12 17 3 47 -11 47 -22 0 -15 -40 -10 -79 10 -20 10 -47
24 -61 30 -14 6 -47 27 -75 46 -27 19 -55 35 -61 35 -15 0 -84 -63 -84 -77 0
-6 -7 -13 -15 -17 -11 -4 -14 -13 -10 -29 5 -19 2 -25 -15 -30 -15 -4 -20 -2
-16 8 8 22 -5 25 -30 8 -34 -22 -39 -12 -15 31 12 20 17 36 12 36 -5 0 -25 16
-45 36 -20 20 -29 34 -21 30 9 -3 14 -2 11 2 -2 4 2 16 10 26 13 18 14 18 23
-6 8 -21 14 -24 43 -20 18 2 39 9 46 14 6 6 12 7 12 2 0 -5 4 -15 9 -22 6 -11
14 -10 40 6 35 21 35 21 -24 53 -85 47 -117 61 -123 54 -4 -4 -1 -10 6 -12 7
-3 18 -10 25 -17 6 -7 20 -15 30 -19 21 -8 22 -23 2 -31 -8 -3 -19 3 -25 14
-5 10 -24 21 -41 25 -18 4 -28 10 -23 14 13 9 16 31 4 31 -5 0 -9 6 -7 13 1 7
-7 11 -20 9 -16 -2 -23 2 -23 12 0 22 78 13 128 -14z m-1768 -301 c59 -44 90
-62 98 -54 4 4 0 10 -9 15 -21 12 -19 66 3 62 12 -2 15 3 11 20 -4 18 -3 20 6
8 6 -8 11 -11 11 -7 0 5 6 5 13 0 6 -4 17 -8 22 -9 6 0 16 -2 23 -2 20 -3 14
-20 -9 -27 -15 -5 -25 -2 -31 9 -13 23 -28 10 -28 -25 0 -34 2 -35 36 -13 39
26 39 9 -1 -21 l-35 -28 32 -23 c17 -13 35 -24 39 -24 5 0 20 -11 35 -25 17
-16 22 -25 12 -25 -7 0 -18 4 -23 9 -22 20 -146 81 -155 76 -6 -3 -15 5 -21
19 -6 13 -17 22 -23 20 -17 -7 -95 70 -112 111 -21 52 -18 53 24 9 20 -22 57
-56 82 -75z m474 -245 c21 -8 20 -21 -1 -27 -14 -3 -10 -8 15 -18 17 -7 32
-17 32 -21 0 -4 5 -8 11 -8 6 0 9 6 6 14 -3 8 5 18 19 25 13 6 24 15 24 21 0
14 20 13 39 -3 19 -15 101 -43 153 -52 27 -4 45 -16 63 -39 14 -18 25 -36 25
-39 0 -6 -56 -1 -68 7 -17 10 -117 47 -110 41 8 -8 -34 -45 -51 -45 -6 0 -17
16 -25 35 -16 37 -33 45 -42 20 -4 -8 -13 -15 -21 -15 -8 0 -11 -5 -7 -11 3
-6 0 -15 -7 -20 -12 -7 -12 -9 0 -9 7 0 11 -6 8 -15 -4 -8 -1 -17 5 -21 7 -4
6 -9 -2 -14 -17 -11 -2 -33 18 -25 14 5 14 3 -1 -13 -9 -10 -14 -21 -11 -25 4
-3 7 -32 9 -64 2 -56 1 -57 -11 -28 -7 17 -13 36 -14 43 0 6 -5 12 -10 12 -6
0 -4 13 5 30 18 36 19 40 1 40 -12 0 -33 78 -28 103 3 11 -12 8 -32 -6 -16
-12 -16 -16 6 -77 19 -53 22 -69 12 -88 -6 -13 -15 -23 -20 -24 -5 0 -16 -4
-25 -9 -11 -6 -21 -4 -29 6 -17 21 5 87 28 83 20 -4 28 39 12 62 -9 13 -12 13
-23 -2 -8 -10 -18 -13 -26 -9 -9 6 -9 10 2 19 9 8 13 25 10 47 -3 30 0 35 17
35 26 0 26 20 0 27 -22 6 -23 8 -14 41 6 22 27 28 58 16z m1687 -89 l-19 -70
22 -7 c12 -3 15 -7 6 -7 -13 -1 -13 -2 0 -12 11 -8 12 -12 3 -16 -19 -7 -16
-23 5 -24 16 -1 16 -2 -1 -6 -12 -3 -15 -9 -9 -16 18 -24 20 -59 6 -100 -8
-23 -12 -47 -10 -54 4 -8 -3 -13 -17 -13 l-22 -1 23 -13 c45 -25 92 -70 92
-88 0 -23 -20 -23 -60 0 -29 16 -32 16 -41 0 -5 -9 -33 -21 -64 -28 -30 -6
-57 -16 -60 -21 -4 -5 -12 -9 -19 -9 -10 0 -11 9 -1 48 18 68 8 84 -61 104
-75 21 -94 22 -94 4 0 -8 -5 -18 -10 -21 -7 -4 -9 2 -4 19 5 21 2 26 -20 32
-44 11 -55 0 -46 -43 11 -47 6 -52 -19 -22 -11 13 -20 19 -21 13 0 -6 3 -14 7
-17 3 -4 7 -19 8 -34 8 -96 19 -162 28 -160 5 1 14 -12 18 -29 5 -17 21 -42
37 -56 28 -25 28 -25 53 -5 13 10 24 24 24 31 2 30 19 66 31 66 8 0 14 -4 14
-9 0 -14 48 -3 94 22 22 13 54 28 69 35 30 13 30 6 -1 -30 -7 -9 -12 -20 -9
-25 10 -16 -23 -46 -53 -47 -43 -1 -37 -13 10 -21 48 -8 54 -33 10 -41 -16 -4
-31 -12 -32 -18 -2 -12 -4 -39 -7 -69 0 -10 -5 -16 -10 -13 -5 3 -11 0 -14 -8
-3 -8 1 -17 10 -20 14 -6 14 -9 -2 -26 -10 -11 -15 -23 -11 -28 4 -4 16 3 26
16 10 12 23 22 29 22 17 0 13 -25 -9 -52 -13 -17 -18 -35 -14 -54 10 -56 26
-109 40 -131 19 -31 29 -126 15 -149 -8 -13 -11 -14 -10 -4 2 16 -40 114 -46
108 -7 -7 15 -189 25 -208 17 -31 11 -60 -17 -88 -15 -15 -28 -30 -28 -34 0
-3 -3 -10 -8 -14 -4 -4 -7 -17 -7 -29 0 -11 -6 -27 -12 -34 -11 -10 -10 -14 5
-22 37 -22 13 -64 -32 -54 -24 5 -31 12 -31 31 0 13 -4 24 -10 24 -5 0 -10 7
-10 16 0 12 6 15 21 11 16 -4 19 -2 14 10 -3 9 0 20 7 24 9 6 9 11 -1 23 -11
13 -11 16 -1 16 8 0 11 3 7 6 -3 4 -25 -5 -49 -18 -32 -19 -53 -24 -81 -20
-40 5 -41 8 -21 56 5 14 4 17 -4 12 -7 -4 -12 -14 -12 -23 0 -12 -7 -9 -25 11
-15 16 -22 33 -18 42 5 13 2 15 -14 10 -17 -5 -20 -2 -18 18 2 14 7 31 11 38
5 7 -7 0 -25 -15 -37 -31 -52 -24 -43 19 3 15 0 24 -8 24 -7 0 -57 -27 -112
-60 -54 -33 -101 -60 -104 -60 -7 0 -71 -27 -97 -42 -11 -5 -21 -7 -23 -5 -9
8 26 36 95 77 38 22 94 64 126 94 31 29 67 58 79 64 17 8 23 19 24 47 1 21 4
47 8 59 9 28 -4 15 -24 -26 -10 -18 -21 -31 -27 -28 -5 3 -9 8 -8 13 2 4 -2 7
-8 7 -5 0 -7 5 -4 10 4 6 11 8 16 5 5 -4 9 7 9 24 0 16 3 38 6 48 5 14 1 12
-18 -7 -14 -14 -23 -31 -20 -37 5 -15 -34 -18 -43 -3 -3 6 -18 7 -33 4 -20 -4
-23 -3 -12 5 8 5 32 13 52 16 45 8 51 25 9 25 -23 0 -30 5 -34 27 -6 31 5 42
43 44 22 1 21 2 -7 10 -36 10 -40 20 -20 41 26 26 27 46 1 52 -23 6 -35 36
-14 36 17 0 25 -5 23 -12 -4 -11 15 -10 37 2 13 7 19 6 24 -6 4 -12 1 -14 -14
-9 -11 4 -20 2 -20 -3 0 -9 36 -25 52 -23 4 0 5 -16 3 -37 l-4 -37 11 42 c8
30 17 43 33 47 23 6 54 66 35 66 -5 0 -7 7 -3 17 5 14 1 15 -25 10 -18 -4 -32
-3 -32 2 0 6 -67 33 -90 37 -5 0 -58 15 -155 44 -34 10 -92 37 -130 60 -82 50
-80 48 -72 56 3 4 39 -9 79 -29 84 -40 175 -68 233 -71 22 -1 47 -5 55 -8 58
-20 119 -38 129 -38 6 0 28 16 48 36 28 28 33 38 22 45 -18 11 -30 7 -43 -17
-6 -10 -15 -22 -21 -26 -15 -11 -25 2 -16 20 5 9 12 25 15 35 4 13 12 17 26
12 16 -5 19 -3 13 12 -3 10 -12 25 -18 33 -16 19 -25 69 -14 75 4 3 12 -3 18
-12 20 -37 18 -5 -5 77 -13 47 -28 93 -34 102 -16 28 -12 33 10 13 19 -17 20
-17 21 1 1 16 2 16 6 2 6 -22 43 -19 43 3 0 18 -49 33 -153 45 l-53 6 4 -41
c2 -23 1 -54 -3 -69 -6 -26 -7 -26 -21 -7 -13 17 -16 18 -24 5 -5 -8 -10 -19
-10 -23 0 -5 -5 -5 -10 -2 -6 4 -8 15 -5 26 5 15 3 18 -12 12 -16 -6 -16 -5
-4 10 10 13 10 17 1 17 -7 0 -10 7 -7 15 4 8 2 17 -3 20 -6 3 -1 16 10 27 19
20 21 21 39 4 13 -12 21 -14 26 -6 4 7 3 15 -1 20 -11 9 -132 40 -228 58 -22
4 -41 13 -44 20 -4 14 68 10 158 -10 57 -12 74 -15 190 -28 79 -10 129 -19
235 -44 6 -2 28 -6 50 -11 22 -4 55 -14 74 -22 18 -8 35 -13 37 -11 2 2 6 23
9 46 3 24 12 57 21 74 11 21 17 60 18 117 1 79 3 86 21 84 10 -1 37 14 58 34
33 29 41 33 53 22 11 -12 10 -26 -5 -84z m-764 28 c-3 -18 -1 -35 4 -39 5 -3
7 -10 4 -15 -3 -5 1 -6 9 -3 11 4 16 0 16 -15 0 -13 6 -21 18 -21 14 0 15 -2
2 -10 -11 -7 -6 -10 20 -10 31 1 33 2 18 14 -10 7 -18 18 -18 24 0 6 -7 15
-15 20 -14 7 -13 11 5 27 11 10 20 13 20 7 0 -12 75 -37 102 -33 28 4 29 -16
0 -23 -15 -3 -40 -17 -55 -31 -27 -24 -27 -26 -12 -54 25 -50 -3 -49 -49 0
-22 24 -40 47 -38 52 4 13 -26 7 -42 -9 -14 -14 -16 -14 -16 0 0 9 -11 18 -25
22 -24 6 -35 24 -15 24 6 0 10 11 10 25 0 14 -4 25 -10 25 -5 0 -10 5 -10 10
0 6 12 10 26 10 21 0 24 4 19 20 -9 28 3 44 22 28 10 -8 13 -23 10 -45z m-553
-289 c3 -9 -2 -35 -13 -58 -11 -22 -25 -62 -32 -88 -8 -27 -17 -48 -21 -48 -4
0 -8 -8 -8 -19 0 -20 -92 -120 -97 -105 -2 5 6 27 16 48 15 29 18 50 14 86 -7
59 2 100 22 100 15 0 45 49 45 74 0 26 65 34 74 10z m511 -54 c16 -13 16 -15
-2 -21 -11 -4 -23 -1 -31 9 -10 13 -15 13 -25 3 -9 -10 1 -24 51 -72 34 -34
62 -65 62 -70 0 -5 17 -17 38 -28 36 -20 36 -20 10 -21 -49 0 -30 -17 35 -30
34 -7 73 -19 87 -26 l25 -12 -26 -12 c-21 -9 -37 -8 -90 10 -35 12 -73 27 -84
34 -11 8 -38 16 -60 19 -22 3 -56 8 -75 13 -19 4 -45 8 -57 8 -13 1 -25 7 -28
15 -5 12 10 13 87 8 51 -4 107 -10 123 -13 l30 -5 -30 28 c-39 38 -108 122
-116 142 -4 10 2 20 15 27 26 13 39 12 61 -6z m-764 -1030 c-24 -22 -53 -40
-65 -40 -12 0 -27 -5 -34 -12 -7 -7 -12 -9 -12 -6 0 6 -84 -14 -142 -34 -21
-7 -38 -19 -38 -25 0 -7 -5 -13 -11 -13 -6 0 -8 7 -5 15 5 13 0 15 -32 9 -20
-4 -57 -13 -82 -20 -24 -7 -46 -12 -48 -10 -1 2 0 15 3 29 6 22 14 26 58 32
29 4 86 16 127 27 41 11 87 22 103 25 15 3 27 9 27 13 0 4 27 10 61 14 34 3
73 12 88 20 46 25 47 17 2 -24z"/>
<path d="M1891 5436 c-11 -12 -21 -29 -21 -38 0 -8 -10 -27 -21 -42 -24 -30
-26 -62 -10 -171 18 -126 16 -123 90 -132 60 -7 75 -18 23 -18 -28 0 -36 -4
-37 -20 -1 -11 -10 -42 -19 -70 -22 -62 -22 -117 -1 -162 9 -19 19 -51 22 -71
7 -55 24 -83 47 -81 12 1 29 -1 39 -5 9 -3 24 -8 33 -11 17 -5 94 65 94 86 0
7 18 34 40 60 22 26 40 55 40 64 0 9 5 25 10 35 8 14 6 30 -5 56 -8 20 -15 44
-15 54 0 9 -19 32 -42 51 -37 30 -50 34 -100 34 -32 0 -58 1 -58 2 0 2 20 8
45 14 25 6 50 19 55 29 16 30 -16 114 -68 177 -27 32 -56 78 -66 103 -10 25
-26 53 -36 62 -17 16 -19 15 -39 -6z"/>
<path d="M2253 4713 c-7 -2 -13 -11 -13 -19 0 -12 4 -12 20 -4 16 8 20 8 20
-3 0 -8 -7 -20 -15 -27 -8 -7 -15 -18 -15 -26 0 -7 -9 -16 -20 -19 -11 -3 -20
-11 -20 -16 0 -5 -5 -9 -11 -9 -6 0 1 20 15 44 22 38 23 46 12 62 -14 18 -15
18 -35 0 -30 -27 -64 -84 -57 -95 4 -5 2 -12 -4 -16 -24 -15 -6 -21 43 -13 81
12 110 19 197 45 10 3 -2 19 -40 53 -30 28 -57 49 -60 49 -3 0 -11 -3 -17 -6z"/>
<path d="M2440 4561 c0 -11 -4 -23 -10 -26 -5 -3 -10 3 -10 14 0 26 -16 27
-32 2 -10 -16 -15 -18 -27 -8 -12 10 -13 8 -8 -13 4 -14 7 -36 7 -50 1 -25 1
-25 16 -5 11 14 15 15 14 5 -4 -28 0 -41 11 -34 6 3 3 -8 -5 -25 -14 -27 -14
-30 -1 -25 8 4 15 1 15 -5 0 -7 -7 -14 -15 -17 -8 -4 -15 -13 -15 -21 0 -12 3
-13 14 -4 28 23 36 -47 10 -97 -13 -27 -20 -31 -40 -26 -18 5 -24 2 -24 -11 0
-9 5 -13 11 -9 8 4 9 -1 4 -17 -11 -35 -24 -47 -35 -30 -6 11 -13 8 -34 -15
-27 -30 -33 -58 -16 -69 6 -4 19 3 28 16 23 27 67 19 59 -12 -6 -23 18 -26 39
-5 20 20 18 26 -11 26 -16 0 -25 6 -25 15 0 8 5 15 10 15 6 0 10 8 10 19 0 10
11 35 25 56 14 20 43 72 64 114 31 62 38 88 40 143 2 59 -1 69 -24 92 -31 31
-45 33 -45 7z"/>
<path d="M656 6732 c-2 -1 -41 -10 -87 -20 -83 -17 -84 -18 -87 -49 -4 -38
-37 -58 -112 -66 -49 -6 -80 8 -80 37 0 9 -8 16 -20 16 -11 0 -20 -7 -20 -15
0 -18 -57 -55 -75 -48 -7 2 -19 18 -25 34 -19 45 -21 30 -9 -55 9 -63 9 -82
-2 -104 -22 -44 -18 -110 13 -237 22 -86 31 -149 32 -223 2 -73 7 -107 18
-120 26 -30 30 -52 44 -266 8 -115 16 -211 18 -214 3 -2 13 -1 24 2 23 8 35
69 20 99 -6 13 -4 19 7 24 9 3 15 13 12 23 -2 9 0 43 5 76 6 32 12 127 14 209
2 83 4 155 4 160 1 6 0 40 -1 78 -1 50 -5 67 -15 67 -8 0 -17 8 -20 18 -3 9
-11 27 -16 39 -8 16 -7 25 4 36 14 15 146 107 153 107 2 0 1 -9 -2 -20 -8 -31
-81 -98 -114 -105 -16 -4 -27 -11 -23 -16 9 -15 36 -10 58 10 61 57 106 20 80
-66 -8 -25 -14 -78 -14 -117 0 -59 -3 -73 -19 -83 -25 -16 -35 -88 -20 -147 9
-35 15 -46 27 -41 11 4 12 2 4 -8 -12 -14 1 -37 21 -37 5 0 20 -9 34 -20 14
-11 36 -20 48 -20 12 0 28 -6 34 -14 7 -8 24 -14 39 -12 15 1 32 -1 37 -5 6
-4 24 -9 40 -11 18 -2 30 -9 30 -18 0 -8 -7 -13 -15 -11 -8 2 -27 4 -42 5 -14
0 -24 4 -21 9 2 4 -6 8 -19 8 -13 1 -27 2 -33 3 -19 3 -100 49 -110 63 -16 21
-63 0 -76 -34 -6 -16 -15 -36 -20 -46 -12 -23 -10 -217 3 -217 5 0 72 -7 149
-15 122 -14 144 -14 167 -2 121 65 164 91 168 102 3 7 -2 24 -10 37 -9 14 -13
28 -9 32 4 4 0 4 -10 0 -12 -4 -17 -1 -17 10 0 9 -3 15 -7 14 -13 -4 -73 24
-73 33 0 11 3 11 33 0 35 -14 108 6 100 27 -4 9 -2 13 4 9 6 -4 13 0 17 8 3 8
14 15 24 15 19 0 42 18 42 32 0 5 -15 17 -32 28 -18 11 -29 20 -24 20 5 0 3 7
-4 15 -16 19 -7 19 33 -1 35 -18 48 -34 41 -46 -3 -4 2 -5 10 -2 9 3 31 -4 51
-16 31 -19 44 -21 96 -15 50 6 58 9 48 21 -14 18 -43 19 -33 2 6 -10 4 -10 -8
0 -11 9 -18 10 -23 2 -4 -6 -12 -5 -22 6 -24 23 -6 45 51 65 54 18 82 39 43
32 -14 -3 -28 0 -31 6 -10 15 -46 14 -46 -1 0 -29 -20 13 -46 96 -25 82 -26
93 -16 151 20 107 10 164 -39 219 -18 21 -33 52 -38 80 -5 26 -10 49 -12 51
-3 2 -28 5 -57 7 -50 3 -52 4 -52 31 0 28 1 28 43 22 l44 -7 -1 44 c-1 38 2
43 21 43 13 0 23 3 23 8 1 32 -1 35 -22 29 -11 -3 -29 -13 -40 -24 -10 -10
-22 -18 -27 -18 -14 0 -23 41 -22 100 1 30 -3 62 -8 70 -7 10 -37 16 -106 20
-53 3 -98 4 -99 2z"/>
<path d="M3605 6126 c-14 -15 -39 -69 -37 -78 1 -5 -2 -8 -8 -8 -5 0 -10 5
-10 12 0 6 -6 3 -14 -7 -11 -16 -11 -21 3 -35 9 -10 23 -20 31 -23 12 -4 11
-6 -2 -6 -10 -1 -18 -6 -18 -12 0 -5 4 -7 10 -4 6 3 7 -1 4 -9 -3 -9 -10 -16
-15 -16 -5 0 -9 -6 -9 -14 0 -20 -39 -46 -58 -39 -10 4 -13 2 -8 -5 10 -17 33
-10 96 26 85 48 115 81 90 97 -5 3 -10 24 -10 45 0 21 -5 42 -11 45 -6 4 -13
15 -17 25 -5 13 -10 15 -17 6z"/>
<path d="M250 5346 c0 -7 6 -19 14 -25 16 -13 15 -41 -3 -84 -8 -22 -8 -36 4
-64 8 -19 15 -50 15 -67 1 -26 2 -28 11 -13 6 10 8 25 5 33 -3 8 -1 14 4 14 6
0 10 -7 10 -15 0 -8 5 -15 11 -15 7 0 8 11 4 29 -3 17 -2 32 5 36 5 3 8 11 4
16 -3 5 -2 15 3 22 9 11 9 26 5 115 -2 31 -3 32 -47 32 -32 0 -45 -4 -45 -14z"/>
<path d="M5018 4975 c-21 -18 -38 -41 -38 -50 0 -9 -4 -14 -9 -11 -5 3 -12 -1
-15 -10 -9 -23 -7 -31 3 -15 8 12 12 12 26 -2 15 -16 15 -17 -3 -17 -28 0 -43
-45 -58 -175 -3 -22 -7 -51 -11 -65 -3 -14 -7 -40 -9 -59 l-3 -34 24 33 c19
26 22 37 14 57 -10 26 -5 43 12 43 6 0 8 -8 5 -18 -9 -27 23 -52 59 -48 17 2
36 4 43 5 6 0 12 12 12 25 0 27 49 69 72 61 18 -7 34 5 42 32 5 16 2 23 -15
28 -28 9 -59 37 -53 47 3 5 -9 7 -26 6 -24 -2 -34 3 -48 24 -16 26 -16 30 1
61 22 41 14 71 -17 61 -18 -6 -19 -5 -8 9 7 8 21 13 32 10 14 -4 19 0 17 16
-2 28 -6 27 -49 -14z"/>
<path d="M5158 3261 c14 -8 14 -11 12 -116 -1 -44 -8 -85 -20 -110 -13 -28
-15 -44 -8 -52 7 -9 4 -21 -10 -40 -11 -16 -22 -39 -23 -53 -3 -21 1 -26 23
-28 19 -2 30 3 38 18 14 27 47 60 58 59 4 -1 12 22 19 52 9 42 9 70 0 124 -6
39 -15 73 -20 76 -4 3 -9 13 -11 22 -2 18 -43 57 -60 57 -6 0 -6 -4 2 -9z"/>
<path d="M5025 2781 c-3 -12 -10 -19 -14 -16 -5 2 -14 -15 -20 -38 -7 -23 -21
-57 -32 -75 -10 -18 -19 -38 -19 -44 0 -6 -13 -26 -30 -45 -16 -18 -30 -40
-30 -48 0 -7 -14 -26 -31 -42 -16 -15 -39 -47 -50 -70 -29 -63 -24 -95 8 -55
8 9 12 12 9 5 -4 -6 -1 -15 5 -19 8 -5 9 -3 5 5 -5 8 -1 14 12 18 27 7 36 32
18 52 -12 13 -12 19 -2 33 7 10 16 14 20 10 4 -4 6 -2 5 3 -2 6 7 28 19 50 16
30 21 35 22 20 1 -13 4 -15 7 -6 5 11 7 11 14 0 7 -10 8 -5 6 15 -2 20 4 36
19 51 12 12 25 41 29 66 4 24 18 64 31 88 15 27 21 48 15 54 -5 5 -12 1 -16
-12z"/>
<path d="M292 2746 c-28 -41 -39 -88 -19 -80 10 3 14 -6 15 -33 2 -82 15 -159
30 -181 17 -26 91 -67 149 -81 131 -33 200 -52 213 -60 9 -5 34 -12 57 -15
l41 -7 5 38 c3 21 9 52 13 68 l7 30 -24 -21 c-36 -31 -80 -56 -87 -50 -3 4 3
13 14 21 10 8 15 15 9 15 -5 0 1 6 15 13 14 8 24 19 22 26 -1 7 1 10 6 7 16
-10 77 44 89 79 7 19 23 50 37 68 30 39 34 57 8 34 -10 -10 -22 -14 -27 -10
-4 5 -5 3 -2 -3 4 -7 0 -18 -9 -25 -9 -7 -20 -24 -25 -37 -5 -13 -13 -21 -18
-18 -12 8 -98 -41 -105 -59 -3 -8 -3 -23 0 -32 5 -17 5 -17 -6 0 -18 28 -2 56
51 88 27 17 58 43 68 58 l20 27 -32 12 c-18 6 -63 14 -102 18 -71 7 -215 48
-292 84 -24 11 -46 20 -50 20 -4 0 -16 9 -27 20 -21 19 -21 19 -44 -14z"/>
<path d="M5125 2448 c-16 -6 -38 -14 -47 -19 -11 -6 -18 -5 -18 1 0 5 -7 10
-15 10 -8 0 -15 -4 -15 -10 0 -6 -9 -6 -25 0 -19 7 -25 6 -25 -5 0 -7 12 -15
27 -17 14 -2 28 -9 31 -17 3 -10 -3 -11 -29 -6 -19 4 -35 11 -37 16 -2 5 -16
9 -31 9 -26 0 -32 -6 -69 -61 -45 -69 -58 -86 -86 -116 -16 -18 -27 -36 -23
-39 6 -6 29 7 117 66 14 9 36 20 50 23 14 3 50 28 80 54 30 26 75 59 100 72
55 29 82 52 60 50 -8 -1 -28 -6 -45 -11z"/>
<path d="M3900 2320 c0 -5 7 -10 15 -10 17 0 21 -35 5 -45 -5 -3 -17 -31 -26
-61 -8 -29 -20 -54 -25 -54 -6 0 -7 -4 -4 -10 3 -5 -1 -10 -9 -10 -9 0 -16 -3
-17 -7 0 -5 -2 -19 -5 -32 -4 -23 -3 -23 13 -9 11 10 28 14 43 12 35 -7 96 46
109 93 6 20 8 40 5 45 -3 4 -7 18 -9 30 -8 40 -95 93 -95 58z"/>
<path d="M3760 2303 c-65 -6 -169 -35 -181 -49 -6 -8 -16 -14 -21 -14 -6 0 -4
7 3 16 12 15 11 16 -11 9 -14 -4 -29 -11 -35 -16 -5 -5 -20 -9 -34 -9 -23 0
-24 -1 -6 -20 10 -11 24 -20 30 -20 7 0 15 -7 19 -15 10 -26 46 -17 150 39 99
54 151 87 131 84 -5 -1 -26 -3 -45 -5z"/>
<path d="M4971 2245 c-1 -5 -12 -11 -25 -11 -29 -2 -87 -29 -114 -54 -11 -10
-37 -28 -58 -39 l-39 -21 41 0 c23 0 57 -6 76 -14 47 -20 158 -32 158 -17 0 6
-4 11 -9 11 -5 0 -8 11 -5 25 3 19 1 23 -11 19 -13 -5 -14 -3 -5 18 8 17 8 35
2 59 -6 19 -11 30 -11 24z"/>
<path d="M4640 2080 c-14 -5 -56 -15 -95 -24 -92 -19 -333 -84 -318 -85 19 -2
48 -172 31 -189 -14 -14 -1 -33 20 -30 14 2 18 -7 20 -51 2 -30 -2 -59 -7 -64
-14 -14 -14 -64 -1 -72 11 -7 13 -48 4 -82 -3 -12 -19 -26 -35 -32 -22 -7 -29
-16 -29 -35 0 -15 4 -26 8 -26 4 0 15 -13 25 -29 13 -22 14 -30 5 -34 -8 -4
-7 -6 4 -6 10 -1 18 -11 20 -28 3 -23 12 -30 71 -51 44 -17 67 -30 67 -41 0
-12 6 -9 20 9 24 30 38 71 44 127 3 23 14 61 26 85 11 24 19 36 16 28 -4 -16
18 -43 28 -33 3 4 6 -7 6 -23 0 -21 -9 -37 -32 -56 -18 -15 -28 -28 -23 -28 6
0 25 13 42 29 l31 28 5 -31 c4 -25 0 -35 -21 -53 -44 -37 -92 -83 -92 -88 0
-10 75 34 105 60 l30 27 5 -24 c6 -25 27 -33 48 -19 11 6 9 22 -11 82 -14 41
-23 76 -21 78 3 3 22 0 44 -6 27 -7 42 -7 50 1 7 7 10 5 10 -7 0 -9 -5 -17
-11 -17 -13 0 -3 -69 12 -84 5 -6 9 -43 9 -83 0 -42 4 -73 10 -73 6 0 10 28
10 63 0 59 2 65 30 85 16 13 43 25 60 28 29 6 30 6 30 -34 0 -23 4 -43 8 -46
9 -6 98 26 233 83 l95 40 50 -24 c69 -34 87 -33 82 5 -3 22 -1 30 11 30 11 0
10 3 -5 14 -18 14 -17 14 11 11 43 -4 51 5 24 26 l-24 18 23 30 c12 17 22 34
22 39 0 19 -48 52 -76 52 -30 0 -74 34 -74 57 0 6 -15 23 -33 39 -31 28 -97
126 -97 145 0 5 -9 14 -20 21 -11 7 -20 22 -20 34 0 12 -9 50 -20 84 -23 72
-23 73 -10 65 6 -3 10 -1 10 4 0 10 -20 14 -37 9 -5 -2 -7 -20 -6 -40 1 -37 1
-38 -24 -24 -27 13 -42 66 -20 66 32 0 -17 20 -88 35 -191 41 -233 46 -265 35z
m207 -290 c7 -18 5 -11 27 -83 10 -32 24 -61 32 -64 65 -25 -95 -62 -386 -89
-41 -4 -86 -11 -99 -16 -21 -7 -22 -7 -11 7 7 8 17 12 22 9 6 -4 8 3 4 17 -6
22 -6 23 7 7 15 -19 53 -26 42 -8 -3 6 -1 10 5 10 6 0 8 5 4 11 -4 8 0 8 15 0
25 -14 25 -13 6 26 -8 17 -13 37 -10 46 8 18 55 19 62 1 3 -8 10 -11 15 -8 6
4 5 10 -3 15 -10 6 -8 9 9 9 12 0 21 3 21 8 -8 47 20 85 60 81 14 -2 36 2 48
9 12 7 32 12 45 12 13 0 34 9 48 20 17 13 26 15 28 7 2 -7 6 -19 9 -27z"/>
<path d="M3788 1953 c6 -2 12 -14 12 -24 0 -11 -4 -18 -9 -14 -6 3 -6 -6 -1
-25 14 -48 1 -131 -26 -166 -24 -32 -28 -72 -9 -87 9 -8 -10 -3 -40 9 -15 6
-56 -52 -50 -68 3 -8 19 -22 36 -32 39 -23 64 -7 55 36 -3 15 -1 28 4 28 6 0
10 -11 10 -24 0 -14 4 -27 9 -31 15 -9 25 17 22 55 -5 64 35 -14 65 -125 l13
-50 -5 50 c-4 42 -28 144 -50 219 -4 12 -2 16 5 12 16 -10 14 43 -4 94 -8 23
-15 67 -15 96 0 45 -3 54 -17 53 -11 0 -13 -3 -5 -6z"/>
</g>
</svg>
