<?xml version="1.0" standalone="no"?>
<!DOCTYPE svg PUBLIC "-//W3C//DTD SVG 20010904//EN"
 "http://www.w3.org/TR/2001/REC-SVG-20010904/DTD/svg10.dtd">
<svg version="1.0" xmlns="http://www.w3.org/2000/svg"
 width="236.000000pt" height="314.000000pt" viewBox="0 0 236.000000 314.000000"
 preserveAspectRatio="xMidYMid meet">
<metadata>
Created by potrace 1.16, written by Peter Selinger 2001-2019
</metadata>
<g transform="translate(0.000000,314.000000) scale(0.100000,-0.100000)"
fill="#000000" stroke="none">
<path d="M626 2933 c-7 -24 -3 -80 7 -89 4 -4 7 -16 7 -26 0 -11 7 -26 16 -35
8 -9 13 -22 10 -29 -3 -7 2 -28 11 -45 12 -24 13 -34 5 -37 -7 -2 -12 -21 -12
-42 0 -21 -6 -43 -15 -50 -12 -10 -15 -10 -15 4 0 9 -7 16 -16 16 -10 0 -14
-6 -10 -15 3 -8 1 -15 -4 -15 -5 0 -11 9 -15 19 -3 10 -13 22 -23 25 -9 3 -22
8 -28 11 -6 3 -19 -10 -30 -30 -10 -19 -22 -35 -26 -35 -7 0 -12 33 -11 83 0
9 -4 17 -9 17 -4 0 -8 -5 -8 -12 0 -6 -3 -8 -7 -4 -5 4 0 14 11 21 12 9 17 21
13 35 -4 16 -2 20 9 16 16 -6 19 9 4 19 -13 8 -62 -44 -53 -58 3 -5 0 -8 -8
-5 -8 3 -15 14 -17 26 -2 13 -17 29 -34 38 -30 16 -32 15 -49 -7 -16 -22 -16
-25 8 -81 24 -54 25 -60 9 -76 -9 -10 -13 -22 -9 -25 3 -4 -1 -7 -10 -7 -9 0
-24 13 -33 30 -22 37 -44 47 -44 20 0 -23 -29 -27 -48 -8 -9 9 -15 9 -24 0
-16 -16 -51 -16 -45 1 2 6 12 11 22 10 22 -2 7 13 -22 22 -36 10 -31 -39 7
-77 33 -32 38 -48 16 -48 -24 0 -87 72 -80 92 3 10 1 18 -4 18 -5 0 -13 -15
-16 -32 l-7 -33 -16 23 c-8 12 -20 22 -25 22 -6 0 -6 -5 1 -14 11 -12 8 -98
-4 -153 -3 -14 3 -31 20 -49 24 -26 34 -51 16 -40 -5 3 -12 -10 -15 -29 -5
-27 0 -49 21 -95 15 -33 31 -60 35 -60 5 0 2 13 -7 30 -21 40 -19 59 4 53 17
-4 19 1 17 61 -1 36 -1 66 1 66 1 0 7 -18 13 -41 l11 -41 26 17 c16 11 29 13
35 7 5 -5 11 -50 13 -100 2 -50 6 -101 10 -114 8 -23 8 -23 -14 -4 -30 27 -26
8 7 -28 27 -29 27 -30 2 -15 -14 9 -29 26 -35 37 -5 12 -13 22 -17 22 -11 0
-10 -27 1 -48 4 -9 11 -30 15 -47 11 -46 -9 -17 -23 35 -8 25 -15 50 -16 55
-2 6 -4 -4 -4 -22 -1 -17 3 -34 8 -37 5 -3 7 -14 4 -24 -2 -11 3 -45 13 -78
10 -32 17 -68 15 -79 -1 -17 0 -17 8 -5 9 13 11 12 11 -5 0 -11 7 -30 15 -42
10 -14 12 -24 5 -28 -6 -4 -10 -3 -9 2 1 4 -1 16 -5 25 -7 15 -10 15 -40 -3
-41 -24 -74 -88 -54 -104 20 -16 49 -75 42 -86 -10 -16 39 -47 74 -47 18 0 36
-3 39 -6 4 -3 -1 -6 -11 -6 -24 0 -66 -30 -66 -46 0 -8 5 -14 11 -14 6 0 9 6
6 14 -4 10 5 10 41 -4 57 -22 139 -24 175 -5 28 15 37 5 13 -14 -10 -9 -12
-21 -5 -49 5 -20 8 -44 8 -52 -1 -25 -18 22 -18 52 -1 15 -5 29 -9 32 -14 8
-122 -6 -122 -16 0 -5 5 -6 10 -3 6 4 9 -3 7 -16 -2 -12 -14 -26 -26 -31 -14
-5 -20 -4 -16 2 9 15 -31 12 -44 -4 -13 -16 -2 -28 50 -50 l34 -15 -32 3 c-18
1 -41 10 -51 19 -24 22 -55 21 -75 -1 -26 -28 -21 -56 13 -75 16 -10 30 -15
30 -11 0 4 9 -2 19 -13 17 -17 19 -28 12 -62 -1 -2 -7 2 -15 8 -7 6 -21 8 -31
4 -16 -6 -15 -9 11 -30 16 -12 23 -23 17 -23 -15 0 -17 -36 -3 -45 6 -3 10
-23 10 -43 0 -44 23 -115 39 -120 6 -2 11 1 11 6 0 5 26 28 57 51 35 25 44 30
23 11 -103 -90 -104 -94 -74 -200 8 -30 16 -69 18 -86 2 -17 9 -41 15 -53 10
-18 9 -21 -9 -21 -32 0 -27 -58 9 -97 39 -43 51 -97 35 -159 -10 -39 -10 -60
0 -104 l13 -55 19 32 c10 18 22 33 27 33 11 0 9 -9 -10 -41 -15 -26 -16 -31
-3 -39 9 -5 19 -5 26 1 6 5 19 6 28 3 9 -4 16 -3 15 2 -4 23 3 34 21 34 14 0
18 -5 14 -17 -5 -17 -5 -17 6 0 14 21 49 22 64 1 7 -9 18 -12 29 -8 18 6 24
24 8 24 -5 0 -7 9 -4 20 3 11 10 20 17 19 27 -3 31 3 28 47 -2 25 -7 43 -10
40 -3 -3 -11 2 -18 12 -11 15 -12 13 -9 -15 4 -37 -13 -56 -22 -24 -3 11 -9
18 -14 15 -5 -3 -7 -10 -4 -15 8 -11 -6 -12 -23 0 -11 7 -11 9 2 14 9 4 13 13
10 21 -3 8 0 17 7 22 9 5 10 2 6 -10 -5 -12 -3 -16 5 -13 7 2 12 12 12 21 -1
9 6 16 15 16 9 0 12 3 6 8 -6 4 -12 18 -13 32 -1 16 2 20 7 12 9 -15 50 -3 70
22 22 27 3 31 -20 5 -11 -13 -18 -18 -14 -11 3 6 2 12 -3 12 -6 0 -13 15 -16
34 -7 34 -7 34 -43 24 -47 -13 -83 2 -83 35 0 13 -5 28 -12 35 -9 9 -9 12 1
12 20 0 40 31 41 63 0 33 40 77 69 77 13 0 21 8 23 22 2 17 10 23 29 24 15 1
26 -4 26 -12 0 -7 -4 -11 -8 -9 -3 3 -6 -17 -6 -45 0 -27 4 -47 9 -44 17 11 7
-16 -14 -37 -13 -12 -17 -19 -10 -15 7 4 12 2 12 -5 0 -7 8 -5 20 6 11 10 20
13 20 8 0 -6 -7 -16 -15 -23 -13 -11 -13 -15 -3 -21 7 -5 14 -13 14 -19 1 -5
2 -14 3 -19 2 -14 40 -20 44 -7 2 6 9 1 16 -12 6 -12 19 -22 27 -22 11 0 14
-5 9 -18 -8 -21 -8 -18 -6 -64 1 -29 4 -36 16 -32 8 4 15 12 15 18 0 19 55 7
80 -16 12 -11 24 -17 28 -13 10 10 8 39 -3 47 -6 4 -2 8 8 8 9 0 17 5 17 10 0
7 6 7 20 0 11 -6 20 -17 20 -25 0 -8 9 -24 19 -34 11 -11 19 -25 18 -33 -1
-38 4 -68 13 -68 6 0 10 11 10 24 0 14 5 28 10 31 6 3 10 12 10 18 0 7 -4 6
-10 -3 -6 -10 -10 0 -12 35 -2 35 -7 49 -16 47 -8 -1 -11 2 -8 7 4 5 -2 15
-11 21 -16 10 -16 11 2 5 42 -15 79 -25 81 -22 1 1 4 32 5 69 4 69 -5 93 -22
68 -8 -12 -10 -10 -6 8 3 12 0 22 -5 22 -13 0 -2 90 12 104 13 13 13 -18 1
-61 -7 -25 -6 -35 6 -44 12 -10 16 -10 24 2 7 10 9 7 7 -12 -3 -28 19 -79 35
-79 5 0 7 6 4 14 -12 30 -19 91 -9 77 8 -11 12 -10 21 5 6 11 11 14 11 7 0 -6
-5 -15 -11 -18 -15 -10 -2 -60 30 -114 15 -25 33 -61 41 -80 l14 -34 17 22 c9
11 19 21 22 21 4 0 28 -53 31 -70 4 -19 47 -48 65 -43 15 4 21 1 21 -12 0 -12
-5 -15 -21 -10 -19 6 -20 5 -8 -8 8 -8 17 -13 21 -11 4 3 10 -1 15 -8 4 -7 19
-19 32 -26 l24 -14 -22 30 c-22 31 -28 58 -11 47 6 -3 10 4 9 17 0 13 -3 17
-6 11 -8 -22 -20 -14 -28 20 -9 38 -8 32 -24 79 -8 24 -9 43 -3 54 7 13 13 7
32 -32 13 -27 30 -57 38 -66 8 -10 11 -18 6 -18 -5 0 -3 -4 4 -9 11 -7 11 -15
-2 -45 -8 -20 -11 -36 -6 -36 10 0 34 76 46 143 4 24 2 43 -6 52 -11 13 -10
14 5 9 15 -6 16 -14 10 -63 -17 -116 -2 -191 36 -191 4 0 7 6 6 12 -2 61 4
200 9 195 3 -3 9 -74 13 -159 l8 -153 3 160 c2 166 15 327 19 235 2 -60 11
-90 26 -90 7 0 16 -6 18 -12 4 -10 6 -10 6 0 1 6 6 12 12 12 7 0 5 -9 -4 -24
-17 -25 -13 -96 4 -96 5 0 9 -7 9 -16 0 -13 2 -13 14 -2 8 8 16 23 18 34 2 10
12 20 22 22 11 3 16 0 12 -7 -4 -6 -2 -11 3 -11 6 0 11 -7 11 -15 0 -14 21
-21 45 -15 9 2 35 7 57 9 4 1 9 27 11 59 3 51 3 49 5 -20 1 -43 5 -78 8 -78 8
0 33 32 34 42 0 4 -6 5 -14 2 -11 -4 -13 0 -9 15 3 12 11 17 19 14 10 -3 16 5
20 26 4 17 11 34 15 37 5 3 9 10 9 15 0 6 -5 7 -10 4 -6 -3 -10 1 -10 10 0 8
-8 19 -17 23 -27 11 -29 35 -2 27 17 -6 20 -3 17 16 -4 27 -28 38 -28 13 0
-17 -1 -17 -17 -1 -20 20 -13 30 21 30 14 0 23 4 20 9 -4 5 4 9 17 8 54 -5 69
0 69 20 0 11 -4 20 -10 20 -5 0 -10 7 -10 15 0 13 -3 13 -20 3 -15 -10 -22
-10 -32 0 -17 17 -28 15 -22 -5 3 -10 -2 -6 -11 10 -18 31 -30 36 -23 9 5 -16
-2 -18 -59 -17 -35 1 -66 5 -70 9 -12 11 19 26 55 26 33 0 46 19 15 21 -11 0
-13 3 -5 6 6 2 12 14 12 26 0 11 10 31 22 44 19 20 20 27 10 62 -15 49 -15 56
1 42 8 -6 16 -9 19 -6 2 3 3 -19 2 -48 -4 -60 10 -45 19 21 4 34 2 42 -11 43
-10 0 -35 7 -57 14 -31 11 -33 13 -10 9 69 -11 126 -7 145 11 11 10 19 23 18
29 -5 25 14 84 27 90 21 8 19 45 -2 53 -10 4 -31 17 -48 29 -16 12 -46 29 -65
38 -92 42 -190 106 -162 106 7 0 12 -4 12 -10 0 -5 17 -14 38 -19 21 -6 46
-17 57 -25 27 -21 35 -20 35 4 0 11 7 20 15 20 18 0 19 -12 3 -28 -9 -9 -8
-12 7 -12 10 0 15 -3 12 -7 -6 -6 21 -32 34 -33 4 0 10 12 14 27 l6 27 13 -25
c10 -20 10 -25 -2 -29 -12 -5 -12 -8 1 -18 20 -17 24 -7 25 51 0 38 -3 47 -14
43 -19 -7 -18 1 5 31 11 13 17 31 14 39 -3 8 0 14 7 14 9 0 10 10 4 38 -4 20
-7 46 -7 58 0 13 -10 28 -28 38 -16 10 -37 28 -45 42 -9 13 -21 24 -28 24 -6
0 -16 11 -23 25 -10 23 -9 25 13 25 13 0 24 -5 24 -11 0 -6 7 -9 15 -5 13 4
14 2 5 -14 -15 -29 -1 -48 17 -24 14 18 14 18 11 -6 -3 -26 33 -66 51 -56 10
7 8 102 -2 112 -4 4 -7 -1 -8 -12 0 -18 -1 -18 -8 0 -7 17 -8 17 -24 2 -28
-28 -19 -5 9 25 l26 27 -39 -1 c-32 -2 -38 -5 -35 -22 2 -16 1 -17 -7 -5 -6 8
-16 16 -23 16 -7 1 -29 3 -48 4 -25 2 -29 4 -12 7 24 5 28 13 11 30 -8 8 -6
15 4 24 13 12 13 16 1 30 -12 13 -12 18 0 34 19 26 37 10 33 -28 -2 -18 -2
-24 0 -14 2 9 9 17 14 17 5 0 9 16 9 36 0 23 -4 33 -11 28 -7 -4 -10 -1 -7 7
3 8 11 13 17 11 6 -1 11 2 11 8 0 5 7 10 16 10 8 0 13 -4 10 -9 -4 -5 0 -12 6
-14 7 -3 3 -6 -9 -6 -34 -1 -28 -25 9 -39 25 -9 35 -9 46 1 13 10 14 8 8 -9
-10 -32 27 -45 70 -25 33 16 44 31 23 31 -5 0 -7 5 -3 11 4 8 9 7 14 -2 6 -9
12 -9 24 4 15 14 12 15 -29 11 -55 -6 -63 6 -38 62 26 55 51 55 48 -2 -1 -35
1 -41 12 -33 7 6 11 14 8 18 -2 4 2 20 10 35 8 14 10 24 5 21 -6 -4 -10 -2
-10 3 0 14 31 75 48 95 17 19 17 19 -53 19 -32 0 -39 -3 -37 -16 2 -10 -2 -33
-8 -52 -9 -28 -16 -34 -38 -33 l-27 1 29 12 c20 9 25 15 15 19 -11 4 -12 7 -1
15 10 7 8 15 -12 39 -21 25 -24 36 -17 55 5 12 10 17 10 9 1 -8 4 -11 8 -8 3
4 12 -1 19 -11 7 -9 15 -14 19 -10 14 13 -39 48 -74 48 -27 0 -32 -3 -21 -10
8 -5 11 -10 5 -10 -5 0 -17 5 -25 10 -12 7 -8 12 20 21 l34 12 -34 13 c-44 16
-63 17 -55 4 3 -5 1 -10 -4 -10 -6 0 -11 5 -11 10 0 6 -7 10 -16 10 -8 0 -13
-4 -10 -8 7 -12 -10 -35 -29 -38 -15 -2 -16 3 -12 33 7 39 9 44 29 47 7 1 25
14 41 29 22 23 25 32 17 47 -9 17 -8 19 12 11 33 -12 33 -27 -2 -47 -40 -24
-35 -46 14 -62 33 -11 41 -10 56 3 9 8 22 15 28 15 6 0 16 9 22 19 12 24 13
34 1 26 -5 -3 -12 -1 -16 5 -3 5 0 10 7 10 18 0 39 36 32 54 -3 9 2 23 11 32
19 19 10 32 -26 40 -13 3 -35 8 -48 11 -14 4 -27 0 -32 -8 -6 -10 -9 -10 -9
-1 0 6 -6 12 -14 12 -8 0 -17 7 -20 16 -9 23 -7 31 3 15 5 -8 19 -15 30 -16
16 -1 20 3 15 17 -3 10 -1 18 5 18 6 0 8 7 4 16 -4 12 -2 15 8 12 9 -3 13 -16
11 -36 -2 -26 2 -32 18 -32 11 0 23 7 26 15 4 8 10 13 14 10 4 -3 11 5 15 18
7 20 8 18 14 -13 3 -19 12 -36 19 -38 11 -2 12 13 6 70 -3 40 -11 81 -16 92
-6 10 -7 33 -4 51 4 18 1 45 -5 61 l-11 29 -15 -40 c-8 -22 -15 -45 -15 -51
-1 -11 -58 -6 -58 5 0 4 -10 8 -22 8 -17 2 -19 0 -9 -7 12 -7 12 -11 2 -24 -7
-9 -17 -14 -21 -11 -5 3 -6 -3 -3 -14 3 -12 -2 -20 -15 -23 -11 -3 -34 -30
-51 -59 -41 -72 -39 -52 3 30 38 75 54 131 36 131 -6 0 -8 6 -4 13 4 6 -2 4
-13 -5 -27 -25 -33 -23 -29 12 2 18 14 39 30 51 28 22 35 42 11 33 -20 -8 -19
15 2 38 15 17 15 18 -10 16 -22 -2 -27 -8 -32 -40 -7 -40 -19 -55 -30 -38 -4
7 -26 8 -57 4 -45 -6 -51 -5 -45 9 4 12 1 17 -11 18 -9 1 -21 2 -27 4 -5 1
-14 3 -19 3 -5 1 -3 9 4 17 7 9 10 18 7 21 -9 9 -42 -26 -63 -66 l-18 -35 -10
69 c-5 45 -5 80 2 102 8 26 7 34 -2 34 -7 0 -16 -3 -20 -7 -3 -4 -16 -8 -28
-10 -18 -3 -19 -1 -7 13 13 16 12 16 -8 5 -13 -6 -23 -8 -23 -2 0 5 7 12 16
15 9 4 14 9 10 13 -3 3 -14 -1 -23 -9 -21 -18 -53 -20 -53 -2 0 6 7 14 15 18
8 3 15 13 14 23 0 14 -2 15 -6 3 -9 -23 -18 -26 -63 -22 -26 3 -40 9 -40 18 0
8 -4 14 -10 14 -5 0 -10 -21 -11 -47 -2 -77 -7 -122 -19 -159 -11 -32 -14 -34
-28 -21 -10 8 -23 12 -31 9 -10 -3 -12 0 -8 12 4 9 2 15 -4 13 -6 -1 -13 9
-15 23 -5 26 -39 59 -62 60 -7 0 -15 -7 -19 -16 -8 -21 23 -84 40 -84 16 0 18
-59 2 -61 -53 -4 -68 -3 -86 7 -19 10 -19 12 -5 26 24 25 29 62 12 103 -9 21
-16 46 -16 56 0 11 -4 19 -10 19 -5 0 -10 -5 -10 -11 0 -6 -6 -9 -14 -6 -8 3
-17 -1 -20 -9 -3 -9 -15 -14 -28 -12 -16 2 -23 -4 -29 -25 -6 -23 -5 -28 7
-23 23 9 16 -12 -8 -25 -13 -7 -28 -19 -35 -28 -18 -25 -24 -8 -8 22 21 40 24
97 4 97 -5 0 -8 -4 -4 -9 3 -5 1 -12 -4 -15 -23 -15 -20 17 3 39 31 29 32 45
7 76 -16 19 -23 22 -37 13 -10 -6 -20 -17 -22 -25 -4 -11 -2 -12 9 -1 20 19
29 15 29 -14 0 -22 -3 -24 -14 -15 -15 13 -32 -1 -22 -18 3 -5 -4 -21 -15 -35
-18 -23 -26 -26 -55 -20 -30 5 -34 4 -34 -15 0 -11 4 -21 9 -21 6 0 22 -11 37
-25 l27 -25 -47 0 c-39 0 -46 3 -46 20 0 13 -7 20 -20 20 -16 0 -20 7 -20 34
0 18 -7 39 -15 46 -9 7 -14 19 -11 26 3 7 -6 15 -20 18 -14 4 -23 10 -20 15 3
4 -6 19 -20 32 -21 20 -27 21 -34 9 -7 -10 -10 -11 -10 -2 0 18 -18 15 -24 -5z
m103 -394 c8 -18 14 -40 15 -51 1 -10 7 -22 14 -27 19 -12 17 -71 -6 -122 -20
-46 -21 -46 -70 -47 -35 -1 -57 4 -70 16 -24 20 -41 102 -22 102 7 0 10 6 7
14 -7 18 20 56 39 56 8 0 14 6 14 14 0 16 27 29 41 20 9 -5 13 8 10 39 -3 28
13 20 28 -14z m-536 -88 c-3 -13 -10 -18 -21 -14 -10 4 -13 2 -8 -5 4 -7 12
-12 17 -12 6 0 17 -7 25 -15 9 -8 13 -15 9 -15 -4 0 3 -12 14 -26 12 -15 21
-33 21 -40 0 -7 4 -15 9 -18 18 -12 4 65 -15 80 -18 14 -18 14 1 12 16 -2 21
4 26 37 3 22 7 34 8 28 0 -7 10 -13 21 -13 17 0 19 -4 14 -27 -9 -36 -13 -40
-23 -24 -6 8 -11 9 -15 3 -3 -6 -2 -13 4 -17 14 -9 57 -104 63 -140 3 -16 10
-46 15 -65 7 -27 6 -39 -4 -48 -11 -10 -13 -7 -10 20 2 18 -1 39 -7 46 -6 7
-14 30 -18 50 l-8 37 3 -35 c2 -19 6 -44 10 -55 6 -16 4 -15 -13 5 -12 14 -24
38 -28 53 -3 16 -12 31 -19 34 -6 2 -18 18 -24 34 -7 16 -16 29 -21 29 -5 0
-9 7 -9 15 0 8 -10 19 -21 26 -17 9 -20 8 -14 -2 6 -9 3 -11 -9 -6 -14 6 -14
2 5 -24 21 -29 21 -31 2 -21 -25 14 -48 41 -40 49 4 3 1 15 -5 26 -9 17 -8 19
6 14 10 -4 15 -3 11 3 -8 13 16 39 37 40 11 0 15 -6 11 -19z m1407 -60 c-16
-31 -8 -74 18 -99 28 -26 22 -44 -6 -19 -10 10 -22 17 -25 17 -13 0 -7 -29 7
-37 7 -4 19 -19 26 -33 l13 -25 -29 25 c-16 14 -30 28 -32 33 -7 15 -21 6 -15
-10 5 -11 3 -14 -6 -8 -11 6 -11 3 0 -16 10 -20 10 -22 -2 -13 -10 8 -18 6
-31 -7 -15 -16 -15 -18 -1 -24 9 -3 20 0 25 7 6 9 10 10 16 2 4 -6 17 -14 29
-18 27 -9 20 -36 -8 -29 -12 3 -19 0 -19 -8 -1 -10 -4 -8 -11 4 -11 19 -39 24
-39 6 0 -5 4 -8 9 -5 5 4 7 -2 4 -12 -3 -12 8 -31 32 -54 32 -31 34 -36 20
-48 -13 -11 -15 -10 -10 2 4 9 -4 22 -20 32 -34 22 -43 14 -16 -15 11 -12 18
-26 15 -31 -3 -4 -1 -8 3 -8 5 0 9 -9 9 -21 0 -19 -1 -19 -13 -3 -7 10 -13 12
-13 6 0 -7 -9 -12 -20 -12 -12 0 -20 -7 -20 -16 0 -13 7 -15 33 -10 21 4 40 1
52 -8 19 -14 19 -15 -8 -21 -32 -8 -33 -12 -9 -38 19 -22 1 -16 -29 10 -14 12
-18 10 -33 -12 -9 -14 -24 -25 -34 -24 -13 0 -12 3 6 11 12 6 22 15 22 20 0 5
-9 4 -19 -2 -11 -5 -28 -10 -38 -10 -17 1 -17 1 0 11 20 12 23 49 5 68 -11 11
-8 12 15 7 19 -4 26 -3 22 4 -3 5 -13 10 -21 10 -23 0 -12 33 17 51 36 23 40
49 12 79 -19 20 -23 22 -23 7 0 -9 -7 -17 -14 -17 -12 0 -13 6 -4 31 6 16 7
33 4 36 -4 4 -32 12 -64 20 l-57 12 53 -2 c48 -2 52 0 52 21 0 12 5 22 11 22
7 0 9 -9 5 -23 -4 -18 -1 -23 17 -24 15 -2 18 0 8 6 -8 5 -10 14 -6 21 6 9 9
9 15 0 6 -9 13 -2 25 21 10 19 26 44 37 55 20 22 21 53 3 66 -5 4 2 11 16 17
15 5 29 17 32 25 4 9 9 16 12 16 3 0 1 -9 -5 -19z m-704 -245 c-46 -42 -47
-44 -25 -50 13 -4 49 -16 79 -28 l55 -21 -1 -86 c-2 -111 -2 -111 -17 -111
-32 0 -68 112 -44 136 3 3 3 12 0 20 -3 8 0 20 6 28 9 10 -5 19 -66 42 -46 17
-69 30 -57 33 10 2 38 21 63 42 24 22 47 39 50 39 3 -1 -16 -20 -43 -44z m330
13 c4 -7 7 -25 6 -41 -1 -29 -1 -29 17 -9 18 20 18 19 24 -44 4 -36 4 -71 1
-79 -3 -7 -29 -21 -59 -31 -52 -18 -55 -18 -74 -1 -14 12 -18 24 -12 33 11 20
1 70 -10 51 -7 -10 -9 -10 -9 3 0 8 10 26 21 38 17 18 23 20 30 10 6 -10 9 -9
15 5 5 13 9 15 15 5 5 -8 7 -1 7 19 -1 31 -18 47 -18 17 0 -8 -9 -15 -20 -15
-28 0 -25 14 5 30 15 8 23 20 21 27 -4 10 -1 11 14 3 10 -5 22 -15 26 -21z
m-122 -331 c9 -34 7 -76 -3 -82 -5 -4 -25 13 -44 35 -22 27 -37 38 -41 30 -4
-6 -1 -11 6 -11 7 0 20 -11 29 -23 15 -21 15 -27 -2 -82 -13 -41 -15 -61 -7
-66 7 -4 3 -11 -11 -18 -23 -13 -29 -34 -7 -25 16 6 31 -29 20 -47 -3 -6 -1
-15 7 -20 10 -6 6 -11 -14 -18 -16 -6 -37 -11 -48 -11 -10 0 -19 -4 -19 -10 0
-5 -5 -10 -11 -10 -5 0 -7 5 -4 10 4 6 -14 10 -47 10 -38 0 -49 -3 -38 -10 8
-5 22 -10 31 -10 13 0 68 -88 58 -93 -2 -1 -14 -8 -26 -14 -26 -15 -57 -18
-35 -5 9 6 0 14 -28 27 -40 18 -41 19 -36 62 2 24 0 43 -6 43 -5 0 -6 5 -3 10
3 6 39 10 78 10 58 1 69 3 57 13 -21 16 -51 95 -38 99 6 2 -16 12 -47 22 -60
19 -73 33 -15 16 34 -10 53 -5 34 8 -16 12 -10 36 10 40 15 3 18 0 13 -19 -8
-29 8 -49 39 -49 24 0 24 1 8 25 -10 16 -12 25 -5 25 6 0 14 -7 17 -15 9 -22
24 -18 24 5 0 11 -6 19 -12 18 -16 -4 -23 41 -9 55 6 6 11 23 11 39 0 23 5 28
35 34 19 3 38 10 41 15 10 17 32 9 38 -13z m-123 -514 c17 -8 38 -13 47 -9 9
3 13 3 9 -1 -4 -4 10 -18 30 -32 29 -20 40 -23 55 -13 16 10 18 8 18 -14 0
-16 -6 -25 -16 -25 -11 0 -14 -6 -9 -20 4 -12 2 -20 -5 -20 -6 0 -8 -5 -5 -11
8 -13 -2 -59 -13 -59 -5 0 -7 13 -4 29 6 42 -15 48 -50 14 l-30 -30 21 -39
c25 -46 27 -77 6 -94 -13 -11 -15 -7 -15 29 0 22 -4 41 -10 41 -5 0 -10 11
-10 25 0 14 -3 25 -6 25 -3 0 -24 -15 -47 -34 -50 -39 -86 -60 -95 -52 -3 3
-1 6 4 6 26 0 234 180 234 203 0 4 -4 5 -10 2 -5 -3 -10 -1 -10 5 0 10 -57 50
-73 50 -4 0 -3 -9 3 -19 14 -28 13 -31 -12 -31 -12 0 -31 -8 -42 -19 -12 -10
-32 -22 -46 -26 -24 -7 -24 -7 -9 11 9 11 19 31 22 45 6 22 1 30 -31 53 l-37
26 53 0 c29 0 67 -7 83 -16z m473 -3 c15 -6 26 -6 28 -1 7 20 27 -7 32 -45 6
-35 5 -37 -5 -17 -7 12 -16 22 -20 22 -5 0 -5 -10 0 -22 6 -16 18 -24 38 -26
39 -4 60 -39 43 -72 -6 -12 -9 -33 -5 -47 10 -43 -3 -62 -57 -78 -68 -20 -75
-19 -81 7 -4 15 0 28 13 41 11 10 20 28 19 40 l0 22 -11 -22 c-15 -31 -41 -40
-32 -10 3 12 10 27 15 33 10 12 2 24 -15 24 -6 0 -4 -5 4 -10 10 -6 11 -10 3
-10 -16 0 -19 -1 -70 -16 -24 -7 -43 -9 -43 -4 0 4 19 14 43 22 30 9 43 19 45
35 2 13 13 24 30 28 l27 7 -27 14 c-16 8 -28 17 -28 20 0 2 9 0 21 -6 11 -7
22 -10 25 -8 6 7 -20 68 -29 68 -4 0 -5 5 -2 10 8 12 8 12 39 1z m-208 -287
c21 -22 21 -22 1 -28 -14 -3 -18 -10 -14 -27 3 -12 1 -30 -6 -40 -10 -17 -13
-17 -29 -2 -17 15 -18 14 -18 -30 l0 -46 -31 11 c-27 9 -29 13 -23 42 4 17 7
42 6 56 -4 53 8 89 31 93 33 6 59 -3 83 -29z m-329 -17 c4 -7 37 -27 73 -44
52 -26 60 -32 38 -33 -15 0 -29 4 -32 9 -3 5 -17 11 -30 13 l-25 5 20 -29 c17
-24 19 -34 10 -58 -9 -27 -8 -30 12 -31 20 -1 20 -2 2 -6 -31 -8 -47 -25 -42
-45 7 -24 -6 -23 -29 3 -27 30 -67 49 -91 43 -14 -4 -20 -1 -20 11 0 10 6 14
16 10 11 -4 13 -3 6 4 -13 13 -6 91 8 91 6 0 19 7 29 17 14 13 18 13 18 2 1
-10 4 -8 11 4 6 10 8 25 5 33 -7 17 10 19 21 1z"/>
</g>
</svg>
