<?xml version="1.0" standalone="no"?>
<!DOCTYPE svg PUBLIC "-//W3C//DTD SVG 20010904//EN"
 "http://www.w3.org/TR/2001/REC-SVG-20010904/DTD/svg10.dtd">
<svg version="1.0" xmlns="http://www.w3.org/2000/svg"
 width="564.000000pt" height="1058.000000pt" viewBox="0 0 564.000000 1058.000000"
 preserveAspectRatio="xMidYMid meet">
<metadata>
Created by potrace 1.16, written by Peter Selinger 2001-2019
</metadata>
<g transform="translate(0.000000,1058.000000) scale(0.100000,-0.100000)"
fill="#000000" stroke="none">
<path d="M2215 10561 c-22 -10 -46 -16 -53 -14 -6 3 -16 -6 -21 -19 -8 -19 -5
-27 14 -43 17 -14 25 -32 26 -64 3 -35 7 -45 27 -52 31 -12 32 -12 25 9 -7 16
-6 16 11 0 16 -16 20 -17 47 -2 16 8 27 19 24 24 -9 14 21 77 43 89 23 12 28
9 52 -46 10 -24 24 -43 29 -43 14 0 3 -52 -20 -98 -11 -20 -19 -54 -19 -75 0
-44 -12 -70 -47 -109 -35 -36 -47 -104 -23 -126 19 -19 33 -62 20 -62 -5 0
-12 5 -15 10 -3 6 -17 10 -31 10 -21 0 -24 -5 -24 -35 0 -37 -28 -75 -56 -75
-23 0 -53 40 -54 71 0 15 12 36 30 54 38 37 38 45 -3 45 -41 0 -81 40 -96 97
-18 63 -23 67 -87 64 -60 -3 -109 -21 -116 -43 -3 -8 -9 -5 -17 10 -10 18 -15
20 -31 12 -13 -7 -21 -7 -25 0 -5 8 -11 7 -21 -1 -11 -9 -17 -9 -29 1 -12 10
-18 10 -29 1 -10 -8 -16 -9 -21 -2 -10 17 -58 9 -77 -12 -12 -13 -15 -28 -11
-51 7 -35 13 -47 13 -24 0 9 13 18 32 22 36 7 47 1 30 -16 -7 -7 -12 -15 -12
-20 0 -11 109 -7 117 5 4 6 9 3 14 -9 7 -19 7 -19 14 1 10 25 35 55 47 55 4 0
8 -24 8 -53 0 -30 3 -56 6 -59 3 -4 24 2 47 13 23 10 61 19 85 19 36 0 44 -4
54 -25 14 -32 1 -48 -50 -63 -22 -7 -56 -24 -77 -38 -26 -18 -53 -26 -82 -27
l-43 0 1 -53 c2 -49 -1 -56 -47 -110 -39 -45 -49 -64 -49 -93 0 -33 -2 -36
-33 -39 -31 -3 -32 -2 -26 25 4 15 11 33 16 40 7 9 -1 14 -29 18 -21 4 -60 15
-88 26 -27 11 -51 16 -53 11 -4 -13 -104 23 -118 42 -19 27 -41 8 -48 -40 -5
-43 -4 -48 29 -78 19 -19 35 -38 35 -44 0 -7 11 -14 25 -18 26 -6 32 -18 15
-29 -5 -3 -10 -14 -10 -23 0 -9 -11 -30 -24 -45 -26 -30 -25 -44 6 -89 14 -20
16 -35 11 -62 l-8 -36 -58 45 c-60 48 -77 50 -77 10 0 -27 -6 -32 -42 -39 -31
-5 -68 -24 -68 -34 1 -20 19 -31 53 -29 33 2 37 5 37 30 0 38 39 36 86 -5 36
-32 36 -33 31 -92 -4 -49 -2 -64 14 -84 10 -14 19 -35 19 -48 0 -12 5 -26 10
-29 18 -11 38 14 32 41 -3 19 -9 24 -23 21 -23 -6 -23 -9 1 40 20 41 34 56 57
59 7 1 30 21 51 43 44 46 80 53 100 20 9 -14 21 -20 36 -17 19 4 22 1 18 -14
-2 -11 -13 -18 -28 -18 -13 0 -31 -8 -39 -17 -9 -10 -28 -32 -44 -50 -51 -56
-62 -125 -24 -150 30 -20 49 -12 57 24 4 15 18 45 31 65 14 21 20 38 14 40
-17 6 10 54 38 67 13 6 40 11 59 11 35 0 37 3 48 53 5 22 2 29 -16 36 -17 6
-26 3 -38 -12 -16 -19 -17 -19 -29 12 -8 17 -11 41 -8 53 8 28 -6 44 -59 67
-34 15 -51 18 -76 10 -55 -15 -91 8 -48 31 11 6 20 18 20 27 0 8 9 24 21 34
20 17 23 17 77 -3 32 -11 64 -26 72 -33 19 -16 65 -24 81 -14 10 6 10 16 -1
49 -13 41 -13 42 16 65 34 29 47 30 68 9 21 -21 20 -40 -4 -80 -20 -32 -21
-33 -2 -43 11 -6 22 -8 25 -4 4 3 20 7 37 9 44 5 50 11 50 48 0 42 27 68 60
59 14 -4 30 -12 35 -19 6 -6 26 -14 45 -18 19 -3 47 -9 63 -12 28 -7 28 -8 31
63 1 9 -8 17 -19 19 -24 3 -64 23 -88 43 -16 13 -18 13 -23 -6 -7 -25 -34 -39
-45 -22 -5 9 -15 9 -39 0 -42 -14 -40 -15 -40 13 0 13 9 35 20 49 11 14 20 31
20 39 0 50 154 116 191 82 15 -14 20 -14 47 0 17 9 39 27 50 41 11 14 26 25
34 25 8 0 20 6 26 12 10 10 14 8 19 -10 4 -17 10 -21 25 -16 10 3 25 0 33 -6
17 -14 51 -9 116 16 45 17 47 17 64 0 18 -17 18 -20 1 -50 -9 -18 -14 -39 -11
-48 6 -15 11 -15 44 -3 46 16 72 5 69 -30 -1 -14 -8 -25 -15 -25 -26 0 -12
-36 21 -54 44 -24 216 -201 216 -223 0 -13 -3 -14 -11 -6 -6 6 -17 9 -24 7 -7
-3 -16 -1 -20 5 -10 17 -33 13 -40 -8 -9 -28 -36 -35 -42 -11 -6 22 -18 26
-28 10 -4 -6 -15 -4 -29 6 -16 10 -43 14 -82 13 -33 -2 -86 1 -118 6 l-59 8 6
-54 c4 -30 10 -76 13 -104 l5 -50 -31 34 c-23 24 -29 36 -21 44 19 19 12 57
-16 83 l-28 25 30 -5 30 -6 -30 25 -30 25 -5 -23 c-5 -17 -12 -21 -32 -19 -16
2 -28 -3 -32 -13 -7 -19 -55 -10 -72 13 -17 23 -31 7 -44 -48 -11 -45 -10 -53
5 -70 26 -28 38 -14 32 37 -4 42 -3 44 17 39 11 -3 23 -6 26 -6 3 0 28 -29 55
-65 28 -35 56 -64 63 -65 6 0 12 -5 12 -11 0 -5 4 -7 10 -4 5 3 7 0 4 -8 -3
-8 2 -20 11 -27 11 -9 15 -9 15 -1 0 7 4 10 10 6 5 -3 6 -13 3 -22 -5 -12 -3
-14 7 -8 7 5 11 4 7 -1 -3 -5 8 -25 24 -44 24 -29 30 -32 39 -20 8 12 10 9 10
-14 0 -20 15 -46 48 -84 26 -30 55 -64 65 -76 10 -11 15 -15 11 -7 -5 9 -3 12
4 7 7 -4 12 -15 12 -25 0 -10 10 -29 23 -43 12 -13 28 -35 35 -49 23 -43 81
-106 82 -87 0 9 -4 20 -10 23 -15 9 -12 35 5 35 10 0 16 -18 22 -62 4 -35 7
-72 5 -83 -2 -16 0 -17 7 -5 8 12 12 9 20 -12 5 -14 15 -29 20 -33 6 -3 11
-18 11 -33 -1 -26 -1 -26 -16 -7 -8 11 -20 27 -27 35 -7 8 -25 38 -41 65 -16
28 -42 66 -58 86 -15 20 -28 41 -28 47 0 6 -3 12 -7 14 -10 4 -64 76 -79 104
-6 12 -57 76 -113 143 -56 68 -111 137 -123 154 -11 18 -38 43 -59 57 -22 13
-39 28 -39 32 0 12 -33 48 -55 60 -16 9 -18 8 -7 -3 6 -7 12 -20 12 -29 0 -9
9 -25 20 -35 11 -10 17 -22 14 -26 -3 -5 -1 -9 5 -9 5 0 20 -17 32 -37 12 -21
33 -50 45 -65 12 -15 25 -46 29 -68 4 -22 22 -73 42 -112 37 -76 88 -252 78
-268 -3 -6 -1 -10 4 -10 21 0 11 -18 -13 -24 -16 -4 -47 6 -101 34 -43 22 -79
40 -80 40 -2 0 -7 -13 -13 -28 -9 -26 -6 -32 34 -72 26 -26 44 -54 46 -71 3
-27 4 -28 28 -14 65 37 73 40 78 27 2 -6 13 -12 25 -12 20 0 21 0 1 -16 -10
-8 -13 -13 -6 -9 17 9 15 -10 -3 -25 -8 -7 -15 -18 -15 -25 0 -20 -24 -24 -45
-9 -30 22 -59 17 -83 -16 -26 -35 -28 -52 -5 -43 11 4 14 3 9 -5 -4 -7 5 -23
20 -37 28 -26 28 -26 6 -32 -12 -3 -22 -10 -22 -16 0 -15 -59 55 -60 70 0 6
-6 13 -12 16 -10 3 -10 9 0 26 16 28 15 31 -7 31 -26 0 -40 -21 -31 -45 5 -11
6 -38 3 -61 -4 -33 -2 -42 13 -48 10 -4 21 -1 25 6 6 9 13 8 28 -6 27 -25 28
-50 1 -43 -16 4 -22 -2 -30 -31 -15 -55 -47 -101 -77 -113 -34 -13 -84 -5 -99
16 -11 14 -15 10 -33 -30 -26 -58 -26 -62 -2 -74 16 -9 20 -5 31 34 7 25 16
45 20 45 9 0 -5 -71 -21 -112 -9 -21 -8 -32 5 -50 l16 -22 0 24 c0 49 24 140
37 140 29 0 4 -189 -38 -292 -11 -26 -15 -28 -70 -28 -33 0 -59 -4 -59 -8 0
-12 110 -31 116 -20 3 4 12 1 20 -7 19 -18 50 -20 57 -2 4 10 6 10 6 0 1 -19
21 -16 21 2 0 9 -7 18 -16 22 -8 3 -13 12 -10 19 3 7 -3 18 -12 23 -14 8 -10
10 17 11 19 0 50 5 68 12 45 16 61 -1 67 -72 2 -30 2 -47 -1 -37 -5 18 -30 18
-26 1 2 -15 -216 -7 -235 8 -12 10 -14 10 -8 1 5 -10 -11 -13 -71 -14 -44 0
-70 -4 -59 -8 15 -6 10 -10 -23 -21 -29 -9 -40 -18 -36 -28 5 -13 -22 -63 -28
-52 -2 3 -11 -3 -20 -12 -11 -10 -13 -19 -7 -23 6 -3 13 1 16 9 3 9 14 16 25
16 10 0 24 9 31 19 12 16 20 18 58 11 24 -4 50 -6 57 -3 8 3 11 0 8 -9 -6 -15
32 -41 56 -38 29 5 38 0 32 -17 -4 -11 -3 -14 5 -9 8 5 10 2 6 -8 -3 -9 -2
-16 4 -16 14 0 22 36 10 48 -5 5 -3 14 7 22 13 11 18 10 30 -6 14 -18 14 -18
15 5 0 17 4 22 16 17 9 -3 18 -6 20 -6 2 0 4 -5 4 -11 0 -6 -7 -8 -16 -5 -13
5 -15 2 -11 -14 5 -19 -27 -110 -38 -110 -3 0 -3 14 -1 30 2 17 -1 30 -5 30
-5 0 -9 -10 -9 -23 0 -16 -9 -27 -27 -35 -27 -11 -27 -11 -3 -7 14 3 20 2 14
-1 -7 -3 -10 -15 -7 -27 4 -18 3 -19 -6 -7 -11 17 -65 25 -55 9 3 -6 15 -9 25
-6 11 3 16 1 13 -5 -4 -6 -1 -13 5 -17 13 -9 4 -41 -11 -41 -6 0 -7 7 -4 16 4
11 2 15 -8 11 -16 -6 -50 26 -39 37 4 4 -1 4 -10 0 -13 -5 -20 -1 -24 15 -3
11 -9 21 -14 21 -5 0 -9 5 -9 10 0 6 12 10 28 10 18 0 23 -3 14 -9 -10 -6 -10
-10 2 -20 11 -10 17 -8 30 11 9 12 12 24 8 28 -4 3 -8 13 -9 23 -1 13 4 17 14
12 13 -5 14 -3 3 10 -7 9 -23 21 -34 27 -12 6 -18 7 -14 3 4 -5 2 -15 -5 -23
-10 -13 -9 -15 4 -10 10 4 16 0 16 -10 0 -23 -16 -32 -41 -22 -23 8 -76 -6
-76 -21 0 -13 14 -11 28 3 9 9 12 7 12 -10 0 -12 -5 -22 -11 -22 -22 0 -48 21
-43 34 8 20 -43 63 -83 71 -18 3 -33 10 -33 15 0 6 -9 10 -19 10 -11 0 -23 5
-26 10 -4 6 -10 8 -15 5 -5 -3 -11 4 -15 15 -8 24 -17 20 -78 -37 -25 -23 -58
-45 -73 -48 -19 -4 -24 -3 -16 2 7 6 10 17 6 27 -5 13 -2 17 12 14 11 -2 22 6
30 20 6 13 15 22 19 20 5 -2 9 5 11 15 3 24 21 45 45 52 15 5 17 10 8 26 -9
19 -8 19 35 14 35 -5 50 -3 62 9 11 12 20 13 33 6 28 -15 21 25 -17 98 -24 46
-36 61 -45 54 -14 -12 -20 40 -11 96 7 47 27 40 21 -8 -2 -22 -3 -40 -1 -40 2
0 11 12 19 28 9 15 14 19 11 10 -3 -10 1 -21 9 -25 7 -5 32 -44 55 -88 45 -86
63 -109 78 -104 8 4 -9 38 -102 202 -39 69 -26 69 17 0 19 -32 50 -71 67 -88
32 -30 32 -30 25 -5 -5 14 -14 47 -21 75 -8 27 -21 55 -29 61 -12 9 -13 13 -4
16 10 3 10 19 -2 73 -14 67 -15 69 -44 69 -28 0 -30 -3 -28 -34 1 -23 -1 -29
-8 -19 -6 10 -9 3 -9 -23 0 -37 -14 -59 -23 -36 -4 10 -6 10 -6 1 -1 -7 -8
-13 -16 -13 -19 0 -19 0 2 40 16 32 15 34 -6 51 -12 10 -20 23 -16 29 3 5 3
15 -1 22 -5 8 -9 7 -13 -6 -6 -15 -9 -15 -30 5 -23 22 -23 22 -17 1 4 -13 2
-24 -7 -29 -8 -4 -17 -15 -20 -23 -4 -11 -6 -9 -6 5 0 11 8 40 19 64 17 37 23
43 45 39 30 -6 35 18 5 27 -19 6 -19 7 -2 33 16 26 16 26 -1 13 -23 -18 -34
-7 -13 14 32 32 5 73 -30 44 -13 -11 -14 -9 -9 12 4 16 -8 69 -34 149 -23 72
-38 133 -35 146 5 19 3 22 -16 17 -24 -6 -40 10 -40 41 0 20 0 20 15 0 14 -17
15 -14 9 36 -8 68 -15 82 -34 70 -11 -7 -12 -11 0 -24 7 -9 10 -19 6 -23 -13
-13 -20 10 -18 57 2 42 -1 50 -15 50 -10 0 -30 7 -45 14 -16 8 -28 11 -28 7 0
-4 -16 -7 -35 -6 -30 1 -35 -3 -35 -21 0 -12 -6 -25 -12 -27 -10 -4 -9 -8 2
-16 12 -8 12 -13 2 -23 -9 -9 -15 -9 -24 0 -7 7 -22 12 -35 12 -13 0 -23 5
-23 10 0 7 -6 7 -20 0 -17 -9 -18 -8 -10 17 11 31 0 85 -17 90 -20 7 -43 -26
-37 -55 5 -24 2 -28 -20 -30 -31 -2 -30 -4 -10 38 16 30 16 33 0 42 -10 6 -15
20 -14 39 2 31 16 37 37 17 11 -11 12 -2 9 46 -4 52 -9 63 -36 86 -18 15 -32
34 -32 43 0 14 -10 17 -49 17 -27 0 -56 3 -65 6 -12 5 -16 0 -16 -17 0 -13 -7
-43 -17 -67 l-16 -43 -31 38 c-60 73 -86 91 -86 58 0 -8 6 -12 12 -10 9 4 13
-9 13 -45 0 -57 -19 -72 -61 -49 -29 15 -30 23 -4 49 24 24 26 34 5 26 -8 -3
-15 -1 -15 4 0 6 7 10 16 10 14 0 14 2 3 16 -9 11 -15 12 -17 4 -3 -8 -10 -6
-22 5 -18 16 -18 16 -13 -6 5 -18 3 -21 -10 -16 -9 3 -17 1 -19 -5 -7 -20 -28
2 -28 28 0 13 -4 24 -10 24 -5 0 -10 -11 -10 -24 0 -45 -33 -39 -41 8 -6 28
-25 30 -49 6 -22 -22 -23 -41 -1 -48 9 -3 11 2 6 17 -7 22 1 26 23 13 7 -5 10
-16 7 -24 -4 -9 -1 -19 4 -23 26 -16 -3 -22 -36 -8 -34 14 -36 14 -24 -1 18
-21 5 -34 -19 -19 -15 10 -19 9 -24 -3 -3 -9 -3 -21 1 -26 3 -7 1 -8 -6 -4 -7
5 -19 0 -29 -11 -29 -32 -53 -36 -78 -12 l-24 22 -9 -24 c-5 -13 -5 -28 0 -33
4 -5 5 -23 2 -40 -6 -36 -23 -59 -23 -33 0 9 -4 17 -10 17 -5 0 -10 -11 -10
-25 0 -21 -19 -38 -20 -17 0 4 -13 16 -28 26 -15 11 -24 16 -20 11 4 -4 0 -13
-9 -20 -21 -16 -26 -62 -7 -69 12 -5 14 -1 9 15 -5 14 -3 19 3 15 6 -3 12 1
14 10 2 13 8 11 32 -11 27 -25 27 -27 10 -41 -13 -9 -34 -12 -64 -10 -25 3
-48 5 -52 5 -5 1 -8 8 -8 16 0 8 -8 15 -17 15 -15 0 -16 2 -3 10 9 5 19 5 27
-2 9 -7 13 -7 13 0 0 14 -27 23 -47 15 -16 -6 -16 -5 -4 10 7 9 23 17 35 18
21 0 21 0 -1 9 -29 12 -29 36 -1 44 29 7 13 25 -34 37 -30 8 -28 8 14 5 36 -3
48 0 48 10 0 8 14 17 30 21 36 7 37 15 9 42 -22 21 -20 53 3 49 7 -2 12 3 10
10 -5 26 17 10 27 -20 8 -22 14 -29 22 -21 11 11 -7 63 -23 63 -4 0 -3 9 4 19
10 16 15 17 36 8 l25 -12 -24 -7 c-22 -6 -21 -7 5 -5 32 2 40 13 53 71 4 21
16 44 26 50 15 9 22 6 38 -16 12 -16 26 -28 32 -28 6 0 22 -12 35 -27 21 -25
25 -26 35 -12 7 9 31 26 54 37 23 12 44 26 48 31 3 6 -8 25 -25 44 -36 41 -37
51 -8 71 37 26 48 20 48 -25 l0 -41 35 6 c19 3 51 9 70 12 21 4 44 17 56 32
l20 26 27 -28 c18 -19 23 -30 15 -33 -9 -3 -7 -16 10 -46 l22 -42 3 30 c5 43
46 92 97 115 24 11 48 20 53 20 17 0 43 50 37 70 -6 19 -67 70 -84 70 -15 0
-51 41 -51 59 0 8 -7 22 -15 31 -9 10 -16 33 -17 53 -1 35 -2 35 -37 30 -20
-4 -38 -10 -39 -15 -2 -5 -10 -4 -18 2 -7 7 -18 9 -24 5 -14 -8 16 -45 37 -45
16 0 17 -39 0 -61 -7 -9 -26 -19 -44 -23 -39 -9 -104 2 -102 18 4 29 -2 47
-12 40 -7 -4 -9 -23 -6 -49 5 -30 2 -47 -7 -54 -15 -13 -27 -71 -15 -71 5 0 6
-7 2 -15 -4 -13 -18 -15 -77 -9 -64 5 -76 3 -119 -20 -26 -14 -55 -26 -63 -26
-13 0 -53 -19 -64 -30 -10 -11 -65 -33 -77 -31 -6 1 -35 23 -64 50 -49 45 -55
48 -111 50 -51 1 -61 -2 -82 -24 l-23 -25 -7 31 c-3 18 0 45 9 66 16 38 7 73
-20 73 -22 0 -69 -20 -77 -33 -4 -7 -8 -125 -8 -263 l0 -252 25 -6 c32 -8 34
-46 4 -87 -11 -16 -17 -29 -13 -29 5 0 3 -5 -3 -11 -9 -9 -7 -16 8 -28 18 -15
19 -20 8 -44 -7 -15 -16 -27 -21 -27 -5 0 -7 -75 -6 -167 l3 -168 28 -13 c15
-7 49 -19 75 -26 26 -7 54 -16 64 -20 11 -5 17 -2 20 10 3 17 5 16 25 -5 12
-13 32 -29 44 -35 33 -16 34 -34 5 -48 -23 -10 -29 -8 -49 10 -21 20 -27 21
-57 11 -25 -9 -41 -9 -67 1 -46 16 -59 4 -45 -42 17 -51 19 -103 5 -101 -14 3
-27 -32 -18 -47 11 -17 25 -11 25 11 0 16 5 20 26 17 39 -4 53 -32 30 -57 -17
-19 -44 -18 -57 2 -9 13 -29 -1 -29 -20 0 -9 -6 -13 -15 -9 -12 4 -14 -15 -14
-131 0 -103 3 -133 11 -125 16 16 28 15 28 -3 0 -8 -4 -15 -10 -15 -18 0 -10
-29 10 -35 21 -7 27 -39 10 -50 -6 -4 -8 -11 -4 -17 4 -6 -3 -8 -17 -6 l-24 3
-3 -255 c-2 -217 0 -252 11 -236 13 18 14 18 19 -7 4 -21 1 -27 -13 -27 -17 0
-18 -9 -18 -89 l0 -90 35 -11 c27 -9 34 -17 32 -33 -4 -28 -28 -35 -28 -8 0
12 -5 21 -11 21 -6 0 -9 -9 -6 -20 3 -13 0 -20 -9 -20 -8 0 -14 -7 -14 -16 0
-14 7 -15 45 -10 31 5 45 4 45 -4 0 -6 -5 -8 -10 -5 -7 4 -8 -3 -4 -22 9 -38
13 -43 31 -43 11 0 14 -6 9 -22 -3 -13 -6 -27 -6 -31 0 -4 -23 -5 -52 -1 -37
5 -49 4 -44 -5 4 -6 14 -11 22 -11 23 0 11 -25 -14 -28 -22 -3 -22 -6 -22
-193 0 -130 3 -189 11 -189 6 0 22 -9 36 -20 14 -11 29 -17 34 -14 5 3 9 1 9
-4 0 -6 -15 -10 -34 -10 -19 0 -39 -3 -45 -7 -8 -4 -11 -186 -11 -585 l0 -580
25 12 c13 6 23 14 22 17 -3 10 11 12 38 5 27 -7 33 -31 15 -65 -8 -14 -21 -19
-55 -19 -46 0 -62 -17 -25 -27 11 -3 20 -10 20 -15 0 -6 -9 -8 -20 -5 -25 6
-27 -8 -2 -18 16 -6 16 -7 0 -19 -23 -17 -25 -121 -3 -150 13 -17 13 -22 0
-42 -10 -16 -15 -50 -15 -111 l0 -88 29 50 c15 28 32 61 36 75 4 14 14 33 23
43 8 9 12 20 9 24 -4 3 0 11 9 17 21 16 83 193 105 301 10 50 31 131 47 180
36 109 42 141 25 138 -14 -3 -17 15 -7 41 3 8 12 12 20 9 21 -8 18 37 -3 53
-10 7 -26 14 -35 14 -19 0 -26 20 -8 20 6 0 10 7 10 15 0 16 43 31 59 20 6 -3
11 -3 12 2 7 78 11 106 21 148 7 28 11 56 10 62 -2 7 8 61 22 120 32 139 40
194 26 171 -10 -17 -13 -17 -36 -1 l-25 16 25 24 c14 13 31 22 38 21 8 -2 20
28 34 82 34 127 37 149 35 224 -1 42 2 72 9 76 14 9 -20 132 -35 127 -5 -2
-11 -36 -13 -75 -2 -41 -7 -72 -13 -72 -26 0 -48 23 -60 63 l-12 44 -29 -16
c-28 -15 -30 -15 -49 8 -18 22 -18 26 -4 45 26 36 29 48 13 60 -47 34 -14 106
48 106 21 0 33 4 29 10 -10 17 23 11 57 -10 18 -11 29 -20 23 -20 -5 0 -4 -4
4 -9 9 -6 11 -18 6 -40 -8 -37 -18 -44 -61 -43 -29 1 -32 -1 -25 -16 5 -9 12
-24 14 -33 4 -11 13 -15 30 -12 18 4 30 18 47 56 27 60 53 92 92 112 32 16
173 39 187 31 11 -7 33 18 29 35 -2 8 9 14 30 16 l34 3 -7 -40 c-7 -43 -4 -46
25 -30 23 12 65 -2 74 -25 5 -14 2 -16 -19 -13 -32 7 -32 -5 0 -20 14 -6 25
-16 25 -22 0 -5 6 -10 14 -10 8 0 17 -8 21 -19 3 -10 23 -38 45 -62 22 -24 40
-52 40 -61 0 -10 5 -18 10 -18 6 0 10 -6 10 -12 0 -7 7 -26 16 -43 13 -23 17
-66 20 -190 2 -88 4 -166 5 -172 4 -26 25 -12 49 34 21 39 83 129 133 193 7 8
27 39 46 67 18 29 37 51 41 48 4 -3 14 3 21 13 13 15 12 16 -3 3 -11 -8 -18
-9 -18 -3 0 6 4 14 10 17 15 9 12 38 -3 32 -16 -6 -65 29 -55 38 4 4 17 0 30
-9 31 -22 46 -20 20 2 l-21 19 35 34 c19 18 33 38 31 44 -3 5 6 11 19 11 17 1
21 -2 17 -15 -9 -25 9 -4 53 64 22 33 48 86 58 118 20 60 35 79 105 135 29 23
41 41 41 59 0 23 3 25 34 19 23 -5 37 -2 45 8 12 14 27 14 98 0 12 -2 24 -13
28 -24 8 -25 52 -21 47 4 -2 9 2 16 8 16 5 0 10 -5 10 -11 0 -7 10 -5 25 5 31
20 58 10 30 -11 -11 -7 -15 -13 -10 -13 4 0 23 11 41 25 18 14 37 25 42 25 5
0 21 11 35 24 14 13 28 21 31 19 3 -3 12 -1 20 6 8 6 22 13 32 16 11 2 57 12
104 23 112 26 216 37 225 23 3 -6 3 -11 -2 -12 -24 -2 -62 -11 -101 -25 -25
-8 -51 -13 -59 -10 -7 3 -13 2 -13 -3 0 -4 -26 -14 -57 -21 -48 -11 -54 -15
-33 -20 14 -3 41 -13 60 -22 19 -8 42 -18 50 -21 11 -4 10 -6 -4 -6 -20 -1
-20 -1 0 -16 10 -8 14 -15 9 -15 -6 0 -11 -10 -12 -21 -3 -29 -23 -50 -23 -24
0 11 4 27 9 35 13 19 -44 39 -125 43 -51 3 -61 1 -56 -11 4 -12 -2 -14 -32 -9
-31 5 -45 0 -96 -33 -57 -39 -80 -60 -63 -60 5 0 15 6 22 13 11 10 13 10 7 0
-4 -7 -2 -13 3 -13 6 0 11 -5 11 -11 0 -5 -6 -7 -12 -3 -19 12 -52 13 -65 2
-19 -15 -16 -28 6 -28 28 0 42 -23 46 -81 4 -43 1 -55 -14 -65 -18 -13 -18
-15 -1 -78 28 -101 53 -134 63 -83 l4 22 8 -22 c4 -13 11 -23 15 -23 5 0 17
-3 27 -7 16 -6 16 -5 4 10 -9 12 -10 17 -2 17 6 0 14 -7 17 -15 7 -17 44 -21
44 -5 0 6 9 2 20 -8 12 -11 50 -24 93 -31 39 -7 78 -15 85 -17 15 -4 16 12 2
21 -6 4 -8 14 -5 24 3 9 -1 25 -9 36 -13 18 -14 18 -26 -6 -7 -13 -18 -27 -23
-31 -13 -8 -39 1 -32 12 3 4 -3 18 -14 31 -22 27 -17 57 12 61 11 2 22 9 25
16 3 10 -2 10 -23 0 -23 -10 -29 -10 -40 5 -26 36 -30 14 -9 -50 6 -16 5 -16
-9 2 -8 11 -15 25 -17 30 -1 6 -8 17 -16 26 -8 9 -16 27 -16 40 -1 13 -6 30
-11 37 -6 8 -5 12 4 12 8 0 26 11 39 23 22 21 26 22 37 8 8 -11 12 -12 13 -3
0 6 -11 22 -24 33 -20 17 -22 25 -14 39 8 12 8 22 -1 36 -10 17 -11 15 -6 -11
3 -19 -1 -13 -10 14 -8 24 -12 47 -10 51 3 5 -1 10 -7 13 -10 4 -11 7 0 18 9
9 12 10 12 1 0 -7 9 -12 20 -12 20 0 24 -14 24 -82 0 -9 3 -15 8 -12 5 3 7 -8
6 -25 -1 -18 5 -38 16 -50 11 -12 15 -21 9 -21 -5 0 -10 -6 -10 -14 0 -8 6
-12 15 -8 8 3 21 -3 28 -13 15 -20 54 -31 54 -15 0 6 7 10 15 10 8 0 15 -4 15
-10 0 -5 5 -10 10 -10 6 0 10 9 10 19 0 26 41 56 53 38 4 -7 6 25 2 73 -5 78
-5 83 10 66 11 -14 15 -16 15 -5 0 12 2 12 9 0 8 -12 13 -11 30 10 11 13 20
28 21 33 0 4 7 6 15 2 8 -3 15 -1 15 5 0 17 17 1 23 -21 4 -16 -1 -22 -26 -29
-32 -8 -34 -12 -22 -43 5 -12 2 -18 -6 -18 -7 0 -21 8 -32 18 -19 17 -19 16
-12 -38 4 -30 8 -55 9 -55 0 0 16 -10 34 -23 l33 -23 18 23 c16 19 21 20 35 9
26 -22 20 -51 -10 -51 -16 0 -24 -5 -21 -12 2 -7 16 -12 30 -10 14 1 29 -3 33
-9 4 -7 3 -9 -3 -6 -5 3 -17 -3 -26 -14 -10 -11 -22 -17 -27 -14 -6 3 -10 -1
-10 -9 0 -8 4 -17 10 -21 5 -3 7 -12 4 -19 -3 -9 3 -17 16 -21 32 -10 24 -58
-10 -60 -14 -1 -30 5 -37 14 -15 19 -16 15 -4 -26 12 -41 3 -48 -22 -17 -23
30 -43 19 -33 -18 4 -15 24 -31 58 -47 29 -14 82 -54 122 -94 l71 -69 -65 48
c-71 54 -122 84 -139 84 -8 0 -10 -12 -5 -37 6 -37 5 -37 -10 -16 -13 18 -23
20 -57 16 -25 -4 -40 -2 -36 3 3 6 -3 11 -14 11 -14 1 -21 -6 -26 -28 -3 -16
-10 -29 -15 -29 -6 0 -7 7 -4 16 3 8 2 12 -4 9 -17 -11 -11 -23 17 -37 30 -15
36 -27 24 -47 -7 -12 -13 -12 -24 -3 -7 7 -17 9 -20 5 -4 -3 -7 -1 -7 6 0 7
-4 9 -10 6 -6 -3 -10 -1 -10 5 0 6 -11 16 -25 22 -28 13 -33 39 -10 58 8 7 15
23 15 36 0 14 6 24 14 24 11 0 26 20 26 34 0 2 -25 6 -55 10 -30 3 -80 13
-112 21 -74 19 -73 20 -74 -12 -1 -23 -3 -24 -6 -6 -6 28 -40 50 -80 48 -17 0
-29 3 -27 7 3 4 0 8 -5 8 -6 0 -11 -4 -11 -9 0 -4 -12 -6 -26 -3 -19 3 -25 1
-20 -7 4 -6 12 -9 17 -6 15 10 10 -12 -6 -25 -8 -7 -12 -16 -9 -21 3 -5 -2 -6
-10 -3 -8 3 -24 1 -35 -6 -12 -6 -21 -7 -21 -2 0 5 12 15 28 22 l27 13 -30 7
c-29 7 -28 9 15 23 10 4 8 6 -6 6 -12 1 -57 -11 -100 -26 -44 -14 -92 -29
-109 -34 -16 -4 -109 -34 -205 -68 -96 -33 -185 -61 -198 -61 -25 0 -44 -20
-117 -119 -50 -68 -56 -84 -22 -55 l22 19 -19 -23 c-11 -12 -21 -20 -24 -18
-2 3 -16 -9 -30 -25 -19 -23 -27 -27 -33 -17 -14 22 -33 -7 -33 -51 -1 -22 0
-38 2 -36 2 1 20 25 41 54 21 28 41 48 45 44 9 -9 8 -23 -2 -20 -12 3 -60 -55
-76 -95 -8 -18 -49 -71 -91 -118 -42 -47 -84 -96 -93 -110 -9 -14 -28 -38 -43
-54 -15 -15 -33 -41 -39 -57 -7 -16 -16 -29 -21 -29 -5 0 -9 -21 -9 -46 0 -33
-3 -43 -12 -38 -7 4 7 -11 31 -32 24 -22 72 -49 105 -61 42 -15 53 -22 36 -23
l-25 -1 25 -15 c14 -8 17 -13 7 -10 -9 3 -17 1 -17 -4 0 -5 9 -11 19 -15 12
-4 18 -12 14 -21 -3 -9 1 -14 12 -14 11 0 15 -5 12 -14 -3 -8 1 -17 8 -20 8
-3 12 -12 9 -21 -4 -10 0 -15 12 -15 14 0 15 -3 6 -12 -10 -10 -7 -15 10 -25
21 -11 21 -12 4 -13 -20 0 -20 0 0 -15 19 -14 19 -14 0 -15 -20 0 -20 0 0 -15
14 -11 15 -14 4 -15 -10 0 -11 -3 -4 -8 6 -4 11 -14 12 -22 0 -8 3 -35 5 -60
2 -25 0 -53 -5 -62 -6 -13 -5 -18 4 -18 10 0 10 -2 -1 -9 -11 -7 -11 -9 0 -14
12 -4 11 -7 -1 -16 -13 -9 -12 -11 4 -11 19 0 19 -1 2 -13 -18 -13 -18 -14 0
-32 16 -16 16 -18 2 -13 -21 8 -31 -2 -18 -17 8 -9 5 -15 -7 -19 -15 -6 -15
-8 -3 -16 10 -7 11 -10 3 -10 -7 0 -13 -7 -13 -15 0 -8 6 -15 14 -15 13 0 26
-20 26 -42 0 -6 -6 -6 -15 2 -8 7 -15 8 -15 2 0 -5 6 -15 14 -21 10 -8 13 -37
12 -109 -2 -82 1 -102 18 -127 11 -16 23 -31 27 -33 4 -2 2 -16 -4 -32 -13
-35 -2 -51 16 -26 12 16 17 17 37 6 16 -9 25 -9 28 -2 1 5 12 20 22 32 11 12
22 30 25 40 5 16 17 20 63 20 27 0 69 -21 100 -50 12 -11 22 -16 22 -10 0 6 4
9 9 6 12 -8 53 -133 49 -154 -4 -25 53 -114 69 -108 7 3 13 -1 13 -8 0 -7 25
-29 55 -47 50 -30 72 -59 45 -59 -16 0 -90 52 -90 63 0 6 -3 7 -6 4 -4 -4 -15
3 -25 14 -24 28 -31 9 -11 -32 13 -26 34 -42 89 -69 75 -37 123 -74 123 -97 0
-19 -17 -16 -40 7 -11 11 -29 20 -40 20 -11 0 -28 4 -38 10 -9 5 -39 19 -67
32 -27 12 -54 24 -59 26 -5 3 -6 0 -3 -5 3 -5 0 -10 -8 -10 -13 0 -13 2 -1 16
11 12 12 21 4 35 -8 13 -7 20 2 26 10 6 9 12 -5 27 -17 16 -18 16 -12 0 3 -9
2 -17 -3 -17 -6 0 -10 8 -10 18 -1 15 -2 15 -16 -3 -16 -20 -16 -20 -10 1 4
13 1 26 -9 34 -14 12 -16 10 -10 -16 4 -16 9 -35 11 -42 2 -8 -2 -19 -9 -26
-13 -14 -28 -5 -40 24 -3 10 -6 7 -6 -7 -1 -13 3 -23 9 -23 6 0 6 -10 -1 -27
-5 -15 -7 -38 -4 -51 3 -14 0 -29 -10 -38 -14 -15 -20 -11 -15 11 1 6 -4 4
-12 -3 -10 -10 -10 -16 0 -32 17 -28 15 -49 -3 -26 -18 24 -19 10 -2 -27 6
-15 17 -27 24 -27 7 0 18 -19 24 -43 7 -23 18 -49 24 -57 18 -22 26 -50 15
-50 -5 0 -7 -13 -4 -28 4 -17 1 -35 -8 -43 -7 -8 -21 -29 -30 -47 l-17 -32 39
-6 c33 -5 39 -10 36 -28 -3 -23 9 -49 37 -78 9 -10 17 -25 17 -33 0 -8 6 -24
13 -35 10 -17 9 -22 -2 -29 -7 -5 -10 -14 -6 -20 4 -8 11 -9 19 -2 9 7 15 -5
25 -47 7 -31 18 -63 23 -69 6 -7 8 -22 5 -33 -3 -11 -1 -18 4 -14 5 3 9 0 9
-6 0 -7 6 -10 13 -7 7 2 26 -16 44 -42 29 -42 31 -50 23 -90 -4 -25 -4 -55 1
-68 5 -14 4 -25 -2 -29 -6 -3 -9 -14 -6 -24 2 -9 -2 -28 -9 -41 -7 -13 -13
-32 -14 -41 0 -20 44 -71 53 -61 4 3 7 -4 7 -16 0 -12 3 -20 8 -18 4 3 7 -5 7
-18 0 -13 -5 -21 -11 -18 -8 3 -10 -7 -7 -31 3 -27 1 -38 -11 -42 -9 -3 -16
-15 -16 -26 0 -19 -1 -19 -20 3 l-19 24 -1 -30 c0 -16 -7 -43 -15 -59 -9 -16
-13 -36 -11 -43 3 -8 0 -23 -7 -35 -9 -16 -9 -22 1 -25 6 -3 12 -18 12 -34 0
-23 -3 -27 -17 -22 -16 6 -16 5 -4 -10 17 -22 30 -21 47 1 13 16 13 16 14 0 0
-10 -5 -18 -11 -18 -6 0 -9 -6 -6 -12 2 -7 10 -12 17 -10 14 3 39 -26 40 -46
0 -23 34 -59 50 -54 12 4 13 3 2 -10 -10 -13 -10 -19 2 -31 18 -17 24 -66 11
-86 -5 -10 -4 -12 3 -7 17 10 15 -6 -5 -34 -15 -21 -15 -23 0 -17 14 5 15 2 6
-20 -5 -14 -7 -28 -4 -31 3 -3 5 0 5 6 0 7 5 12 11 12 6 0 8 -15 5 -38 -3 -20
-2 -31 0 -24 9 20 23 14 17 -8 -3 -11 -10 -17 -15 -14 -5 3 -8 0 -7 -7 4 -25
-13 -89 -22 -83 -5 3 -6 10 -3 16 11 18 13 59 3 52 -5 -3 -7 -9 -4 -13 2 -5
-7 -13 -20 -19 -14 -7 -25 -20 -25 -31 0 -11 -8 -28 -17 -37 -17 -17 -17 -18
-1 -11 39 15 53 19 42 10 -6 -4 -13 -25 -16 -47 l-4 -39 18 23 c10 12 18 19
18 14 0 -4 5 -3 12 4 13 13 35 -29 58 -111 l13 -48 27 26 c25 24 26 28 16 70
-12 49 -17 53 -40 29 -9 -8 -16 -12 -16 -7 0 5 6 15 12 22 11 10 10 11 -4 6
-12 -5 -20 -1 -24 10 -4 9 -15 20 -25 23 -17 7 -15 12 18 59 l36 52 -16 88
c-9 48 -16 95 -16 103 0 8 -7 42 -15 75 -23 87 -21 105 9 105 13 0 28 6 32 13
4 6 26 21 48 32 22 11 47 27 56 36 21 21 28 15 57 -41 31 -64 27 -72 -9 -17
-17 26 -34 47 -38 47 -11 0 -41 -34 -41 -46 1 -5 16 -31 35 -59 25 -36 31 -53
23 -62 -12 -15 -42 -18 -33 -3 3 6 1 10 -6 10 -7 0 -9 3 -6 6 3 4 -7 19 -23
34 -16 15 -26 30 -23 34 3 3 -1 6 -10 6 -23 0 -21 -10 8 -61 25 -44 31 -64 17
-56 -4 3 -23 -3 -42 -14 -19 -10 -30 -18 -23 -19 6 0 9 -9 6 -20 -9 -35 5 -67
35 -78 15 -5 34 -22 42 -38 7 -16 24 -42 36 -59 31 -43 58 -98 44 -90 -8 5
-10 2 -7 -11 12 -39 37 -174 37 -196 0 -17 -3 -19 -9 -9 -7 11 -10 9 -15 -7
-5 -14 9 -50 45 -117 28 -53 49 -98 47 -101 -6 -6 -94 119 -90 129 1 4 -2 7
-7 7 -5 0 -13 10 -17 23 -7 21 -7 21 -14 2 -6 -18 -9 -17 -23 12 -9 17 -15 38
-12 45 3 8 -2 22 -10 33 -16 19 -16 19 -6 -2 15 -31 14 -40 -3 -17 -25 34 -28
7 -3 -33 27 -44 41 -75 38 -86 -1 -5 4 -5 10 -1 9 5 10 2 6 -10 -5 -11 -3 -15
5 -10 8 5 9 2 5 -9 -3 -10 -3 -17 1 -17 4 0 13 -13 19 -30 11 -30 36 -71 111
-186 23 -36 42 -70 42 -75 0 -5 10 -7 23 -5 12 3 49 8 82 11 33 3 74 10 90 15
17 5 62 11 100 14 66 5 68 5 40 -9 -16 -8 -40 -14 -52 -15 -12 0 -48 -11 -78
-26 -31 -14 -72 -27 -91 -30 -55 -7 -74 -21 -74 -54 0 -17 -4 -30 -10 -30 -5
0 -7 6 -4 14 3 7 -1 16 -9 19 -9 3 -30 27 -48 54 -18 26 -40 55 -48 63 -24 25
-144 190 -193 266 -46 71 -84 113 -57 63 13 -25 107 -167 121 -184 23 -26 213
-306 238 -351 20 -35 34 -79 44 -144 9 -52 14 -95 12 -97 -1 -2 -17 0 -33 3
-28 5 -34 14 -58 81 -18 49 -30 70 -36 62 -4 -7 -5 -17 -3 -21 3 -4 -2 -5 -12
-1 -13 5 -15 2 -9 -17 11 -33 8 -99 -5 -114 -5 -8 -8 -20 -5 -28 5 -12 0 -15
-24 -12 -23 3 -31 -1 -36 -16 -7 -21 -25 -28 -25 -9 0 7 -9 9 -24 5 -31 -8
-88 16 -151 63 -57 42 -163 96 -172 87 -4 -3 -1 -6 5 -6 13 0 222 -210 222
-224 0 -5 7 -18 17 -28 15 -17 15 -18 0 -18 -10 0 -17 5 -17 10 0 6 -7 10 -15
10 -8 0 -15 -7 -15 -15 0 -8 5 -15 10 -15 6 0 10 -6 10 -14 0 -8 6 -16 13 -19
10 -4 10 -7 0 -18 -7 -7 -13 -32 -13 -56 l0 -44 -30 23 c-22 16 -33 19 -41 11
-7 -7 -22 -8 -46 -1 -44 12 -53 5 -14 -12 16 -6 32 -19 35 -27 5 -12 1 -14
-21 -8 -27 6 -27 6 -9 -14 17 -19 17 -21 3 -21 -21 0 -21 -9 -1 -31 13 -14 13
-24 4 -59 -6 -22 -8 -50 -5 -60 8 -25 -13 -26 -31 -2 -12 15 -13 14 -14 -15 0
-25 -3 -30 -18 -26 -16 4 -18 -1 -16 -37 1 -22 4 -44 8 -47 3 -4 6 -15 6 -26
0 -20 0 -20 -21 -1 -22 19 -22 19 -15 -8 6 -25 4 -28 -18 -28 -18 0 -24 -4
-20 -15 5 -13 35 -15 179 -15 l173 0 6 32 c9 48 56 92 56 53 0 -18 16 -20 24
-2 4 6 4 -4 1 -23 -7 -45 -25 -64 -25 -25 0 27 -1 28 -20 10 -11 -10 -17 -22
-13 -28 3 -6 1 -7 -5 -3 -7 4 -12 3 -12 -3 0 -6 75 -10 200 -11 l200 -1 0 38
c0 21 5 45 10 53 8 13 10 12 10 -2 0 -10 21 -33 47 -53 46 -33 52 -35 133 -34
69 0 82 2 69 12 -8 7 -23 24 -32 38 -16 24 -16 26 5 46 18 16 77 43 94 43 2 0
4 -12 4 -27 1 -27 2 -26 21 12 41 82 97 222 109 275 7 30 19 69 26 85 7 17 14
52 15 78 l3 48 -49 24 c-28 13 -56 25 -63 25 -7 0 -20 4 -30 9 -84 43 -93 46
-101 32 -6 -9 -11 -10 -15 -2 -13 20 -25 12 -47 -30 -18 -35 -19 -48 -10 -88
5 -25 15 -75 23 -109 7 -38 19 -67 29 -72 15 -8 34 -76 43 -150 2 -19 7 -47
10 -61 7 -25 5 -26 -61 -38 -37 -7 -87 -21 -110 -31 -23 -10 -44 -16 -47 -12
-3 3 -6 24 -6 46 -1 34 -2 38 -11 23 -11 -18 -11 -18 -24 0 -26 38 -35 116
-19 168 8 27 18 51 22 54 11 8 39 79 53 130 24 96 92 189 151 206 48 13 95 41
146 87 28 25 78 61 110 79 114 64 243 142 247 150 6 9 -49 -8 -88 -27 -16 -8
-36 -14 -44 -14 -21 0 -186 -90 -196 -107 -4 -7 -12 -13 -18 -13 -5 0 -15 -5
-22 -10 -7 -6 -37 -25 -67 -43 -30 -18 -55 -37 -55 -44 0 -6 -3 -15 -7 -19 -5
-4 -8 -2 -8 5 0 8 -5 9 -19 1 -49 -26 -71 4 -26 34 14 9 23 21 21 25 -3 4 5
17 17 28 41 37 87 104 87 126 0 17 67 50 75 36 4 -5 11 -7 16 -3 6 3 17 -2 25
-12 12 -16 13 -17 8 -2 -5 15 3 17 68 18 114 1 128 2 122 11 -3 5 2 9 10 9 22
0 20 20 -1 21 -10 1 -31 3 -48 5 -33 4 -141 14 -165 15 -29 2 -80 21 -75 28 5
9 130 4 155 -6 28 -11 131 -13 125 -3 -3 6 -23 10 -44 10 -20 0 -42 5 -49 12
-9 9 -12 9 -12 -1 0 -10 -4 -11 -13 -3 -12 11 -31 14 -162 27 -38 4 -73 9 -77
12 -6 3 15 72 27 90 3 5 146 32 200 38 33 4 67 11 76 15 9 5 24 9 35 9 35 1
69 6 74 12 8 8 108 29 140 29 16 0 31 6 33 13 4 9 6 9 6 -1 1 -7 6 -10 12 -6
8 5 10 -1 7 -20 -5 -26 -5 -26 15 -9 11 10 17 12 13 5 -4 -7 -2 -19 4 -27 7
-8 9 -23 4 -37 -4 -13 -7 -36 -6 -51 2 -15 -2 -35 -6 -45 -5 -9 -12 -29 -16
-44 l-6 -27 40 14 c37 13 40 13 40 -3 0 -11 -24 -30 -66 -52 l-65 -35 -5 -78
c-3 -62 -1 -81 12 -94 9 -10 13 -25 10 -38 -3 -13 3 -42 13 -66 13 -29 20 -71
22 -124 2 -92 -3 -118 -41 -200 -54 -114 -68 -153 -75 -206 -4 -30 -11 -58
-15 -64 -7 -8 -18 -66 -20 -98 0 -11 -47 -29 -105 -39 -27 -5 -70 -13 -95 -17
-31 -6 20 -9 163 -10 201 -1 207 0 207 19 0 11 5 20 10 20 6 0 10 9 10 21 0
11 -4 18 -9 14 -19 -11 -32 35 -26 93 3 31 10 129 15 217 5 88 12 175 16 192
l6 33 27 -19 c20 -14 38 -17 84 -13 58 5 66 9 46 29 -16 16 -49 166 -39 176 4
5 27 10 51 11 40 2 44 5 53 34 11 41 51 45 68 7 12 -26 41 -33 67 -16 10 6 12
20 8 46 -4 26 -2 38 8 42 8 3 12 10 8 16 -3 6 -1 7 5 3 7 -4 12 -2 12 3 0 6 7
11 15 11 8 0 15 -4 15 -10 0 -14 33 -13 48 2 9 9 12 5 12 -19 0 -38 -13 -49
-34 -28 -9 9 -25 18 -37 20 -18 4 -20 1 -14 -26 5 -23 3 -34 -11 -43 -17 -13
-17 -14 3 -27 12 -7 19 -18 16 -25 -3 -9 2 -12 17 -9 21 4 21 3 6 -14 -9 -9
-16 -25 -16 -34 0 -10 -10 -38 -22 -64 -16 -33 -18 -48 -10 -51 14 -4 16 -22
2 -22 -12 0 -106 -60 -97 -61 4 -1 13 -2 20 -3 6 -2 26 3 44 10 l32 12 -22
-59 c-20 -57 -28 -64 -69 -61 -13 1 -15 -5 -12 -25 3 -15 7 -30 10 -34 2 -4
-6 -16 -19 -26 -25 -20 -29 -55 -9 -75 18 -18 15 -33 -13 -66 -14 -17 -25 -39
-25 -50 0 -12 -7 -25 -17 -30 -10 -6 -14 -16 -10 -26 4 -10 11 -14 17 -11 5 3
10 -1 10 -9 0 -8 17 -28 37 -45 l38 -31 657 0 c522 0 658 3 658 13 0 7 10 18
21 25 20 13 21 12 15 -12 -6 -26 -6 -26 54 -26 47 0 64 4 80 20 23 23 25 31 7
25 -6 -2 -20 7 -30 21 -18 25 -18 25 17 64 19 22 46 57 60 78 22 36 52 61 101
87 11 6 19 18 19 27 -1 10 5 14 17 11 20 -6 44 -56 34 -72 -3 -6 0 -11 8 -11
14 0 57 -44 57 -58 0 -5 12 -15 27 -23 20 -11 27 -11 30 -1 7 18 26 15 63 -13
43 -31 62 -31 96 0 15 14 33 25 40 25 24 0 15 29 -11 36 -14 3 -25 10 -25 15
0 5 -8 9 -18 9 -20 0 -64 45 -54 55 4 3 -6 1 -22 -5 -16 -6 -29 -9 -30 -8 0 2
-7 13 -13 25 -11 19 -10 24 5 32 9 6 12 11 7 11 -6 0 -16 -5 -22 -11 -14 -14
-80 -16 -94 -2 -6 6 -11 17 -13 24 -1 8 -13 26 -26 40 -21 23 -27 25 -48 16
-26 -12 -30 -8 -91 80 -53 76 -54 74 63 138 57 31 114 67 125 79 25 27 19 56
-11 56 -25 0 -190 -65 -234 -91 -37 -22 -58 -25 -29 -3 56 41 136 128 130 141
-5 16 -40 14 -79 -2 -18 -8 -18 -6 3 24 15 20 21 41 18 57 -5 29 13 31 66 9
50 -21 72 -19 74 5 1 11 -3 20 -8 20 -5 0 -21 7 -35 16 -19 13 -22 20 -13 30
9 11 6 14 -15 14 -16 0 -31 9 -42 26 -14 20 -24 25 -50 22 -18 -1 -36 1 -40 5
-4 4 -13 2 -21 -4 -16 -14 -17 15 -4 76 5 22 12 65 16 95 9 72 19 80 38 32 17
-43 32 -58 42 -43 3 6 24 8 46 5 39 -6 40 -5 29 16 -7 13 -19 20 -33 18 -18
-2 -23 3 -25 30 -2 19 -9 32 -17 32 -22 0 -27 18 -12 41 8 11 13 29 10 40 -4
15 -14 19 -49 19 -38 0 -45 4 -59 30 -8 16 -15 39 -15 52 0 19 -3 18 -18 -12
-9 -19 -22 -42 -29 -50 -7 -8 -19 -24 -27 -34 -12 -17 -15 -18 -28 -5 -8 8
-18 26 -21 41 -5 19 -12 25 -22 22 -8 -4 -15 -10 -15 -15 0 -5 -11 -9 -25 -9
-14 0 -25 5 -25 11 0 7 -8 18 -17 25 -15 12 -16 15 -3 23 8 5 17 8 21 6 8 -5
3 44 -6 53 -3 4 -10 0 -15 -8 -5 -8 -12 -11 -16 -7 -4 4 -5 8 -3 10 2 2 21 15
42 30 20 16 42 25 49 21 7 -4 8 -3 4 4 -9 15 7 15 22 0 8 -8 15 -8 25 0 7 6
23 9 35 5 25 -6 31 12 7 21 -19 7 -19 23 -1 42 17 16 52 19 61 4 10 -16 25 -1
24 23 0 21 -1 21 -9 2 -8 -19 -9 -19 -9 3 -1 28 22 25 27 -4 8 -39 25 -40 19
-2 -3 21 -2 38 4 38 5 0 9 5 9 10 0 6 -7 10 -16 10 -11 0 -14 8 -12 33 2 24 8
32 22 32 27 0 31 22 6 30 -13 4 -19 12 -16 21 9 24 -5 15 -48 -30 -59 -63
-127 -73 -82 -11 15 21 52 14 40 -7 -4 -7 13 7 37 31 26 25 39 45 32 48 -7 2
-9 11 -6 19 3 7 9 12 13 9 4 -3 13 9 19 25 11 33 37 40 44 13 4 -14 5 -14 6 3
0 12 7 27 15 33 10 8 13 30 12 71 -2 33 1 60 6 60 4 0 8 6 8 13 0 7 9 30 20
52 11 22 20 51 20 66 0 15 5 40 11 56 15 39 13 273 -2 306 -7 15 -17 27 -22
27 -5 0 -4 7 3 15 7 9 9 22 4 32 -4 10 -8 52 -9 93 -2 57 -11 101 -39 182 -20
58 -36 113 -36 121 0 23 -40 67 -61 67 -11 0 -19 7 -19 18 0 9 -3 46 -5 81 -3
36 0 70 6 77 7 8 4 30 -10 70 -23 69 -18 85 40 114 22 12 42 27 46 35 9 25 42
18 49 -10 4 -16 12 -24 24 -22 11 1 27 -12 42 -33 42 -63 83 -49 94 31 6 40 4
46 -19 58 -15 8 -33 10 -44 6 -10 -5 -34 -9 -53 -11 l-35 -3 25 19 c14 11 33
20 43 20 11 0 21 9 24 21 5 18 11 20 54 14 44 -6 48 -5 51 16 2 14 12 25 26
29 24 5 26 14 12 40 -7 12 -13 13 -27 3 -10 -6 -17 -16 -16 -21 1 -5 -6 -8
-17 -5 -22 6 -77 -23 -103 -55 -11 -13 -22 -21 -24 -18 -3 3 -26 -7 -50 -21
-50 -29 -162 -43 -164 -20 0 7 -4 3 -8 -8 -11 -26 -31 61 -37 160 -9 135 -17
146 -116 151 -40 3 -81 6 -90 8 -10 3 -18 -2 -18 -10 0 -7 6 -11 14 -8 15 6
26 -23 26 -74 0 -20 4 -31 10 -27 6 3 10 14 10 24 0 10 7 24 15 31 21 17 30
-29 17 -82 -13 -49 -9 -60 9 -26 16 31 66 88 72 82 2 -2 -4 -35 -14 -72 -21
-72 -24 -122 -10 -122 11 0 67 -87 94 -145 11 -25 17 -53 14 -75 -8 -60 -37
-164 -48 -171 -8 -4 -8 -12 0 -25 31 -55 64 -154 64 -194 1 -64 -5 -127 -13
-140 -7 -11 -31 46 -44 100 -12 49 -23 56 -45 29 -14 -16 -19 -18 -15 -6 3 9
1 17 -5 17 -13 0 -13 2 -16 -87 -4 -109 18 -170 83 -228 29 -26 50 -51 46 -56
-3 -5 1 -6 9 -3 8 3 18 1 21 -4 3 -5 -4 -12 -15 -15 -19 -5 -21 -11 -15 -44
l6 -38 -16 30 c-52 93 -129 164 -180 165 -11 0 -35 -7 -52 -16 -18 -8 -36 -13
-42 -9 -5 3 -10 1 -10 -4 0 -6 -11 -11 -24 -11 -30 0 -51 -24 -41 -47 10 -22
10 -41 0 -123 -4 -36 -9 -77 -10 -92 -2 -16 -3 -34 -4 -42 -1 -18 -52 -74 -71
-78 -8 -2 -21 -12 -28 -23 -11 -18 -11 -17 -5 10 5 26 4 28 -9 18 -18 -16 -39
1 -37 31 1 17 2 18 6 4 5 -18 15 -23 26 -12 3 3 -3 15 -13 27 -20 20 -18 39 3
36 7 -1 21 0 32 1 14 1 10 5 -13 11 -27 8 -32 14 -27 29 5 15 3 18 -9 14 -9
-3 -16 -1 -16 5 0 6 -7 8 -15 5 -8 -4 -15 -2 -15 4 0 5 7 13 16 16 10 4 13 13
9 26 -5 17 -2 20 20 20 24 0 25 -1 11 -16 -9 -8 -13 -21 -9 -27 4 -7 8 -6 12
4 3 8 15 15 26 17 11 2 27 10 35 18 12 12 11 14 -8 14 -12 0 -22 5 -22 10 0 6
8 10 18 10 21 0 42 18 42 36 0 14 -32 13 -42 -1 -5 -6 -11 -5 -16 3 -6 9 -18
11 -35 6 -23 -5 -27 -3 -27 14 0 12 -14 36 -31 54 -40 43 -99 134 -99 153 0
24 15 18 69 -31 28 -25 57 -43 63 -41 8 3 6 6 -4 6 -18 1 -26 21 -8 21 5 0 7
7 4 15 -4 8 -15 15 -25 15 -10 0 -19 5 -19 10 0 6 -5 10 -10 10 -6 0 -28 11
-50 25 -39 24 -40 25 -52 6 -11 -18 -14 -18 -42 -4 -17 8 -38 22 -47 30 -9 8
-26 15 -38 16 -11 1 -23 7 -25 13 -3 7 2 10 14 7 10 -3 21 0 24 6 4 6 3 11 -3
11 -5 0 -9 9 -8 20 1 22 9 25 35 11 18 -10 90 -42 135 -60 43 -17 98 -14 113
7 8 10 13 12 14 5 0 -7 5 -13 11 -13 6 0 8 8 4 19 -7 22 27 35 44 18 8 -8 11
-8 11 1 0 7 10 12 23 13 23 1 138 76 144 95 3 8 -11 9 -44 3 -26 -4 -70 -8
-98 -9 -36 0 -46 -3 -35 -10 13 -8 12 -10 -3 -10 -31 0 -48 27 -54 85 -4 39
-13 62 -29 78 -31 31 -91 49 -116 36 -24 -13 -48 -67 -49 -111 -1 -22 -3 -26
-6 -13 -3 11 -10 23 -16 27 -7 4 -7 12 3 22 7 9 10 19 7 23 -4 3 -1 15 6 27
16 29 15 78 -3 94 -13 12 -13 13 3 8 13 -4 17 0 17 17 0 18 -2 19 -11 7 -8
-12 -9 -11 -5 6 4 11 -1 42 -9 70 -18 60 -18 57 -1 51 16 -7 9 34 -8 45 -8 5
-7 8 2 8 20 0 14 30 -10 51 -19 15 -20 18 -6 19 9 0 20 -5 24 -11 11 -18 22
10 17 43 -2 16 -13 38 -24 49 -10 10 -19 25 -19 33 0 7 -9 16 -20 19 -11 3
-18 11 -15 19 8 21 -11 42 -31 34 -15 -6 -16 -9 -4 -16 20 -12 -31 -24 -66
-16 -23 6 -26 4 -21 -14 5 -19 2 -20 -33 -16 -45 5 -60 12 -60 29 0 7 4 6 10
-3 8 -13 14 -8 12 11 -1 3 9 5 21 4 28 -2 40 15 24 34 -8 9 -2 8 16 -4 15 -10
27 -14 26 -9 -1 5 3 21 10 35 14 28 29 31 52 12 17 -14 47 -21 48 -10 1 4 -1
6 -4 5 -2 -2 -21 13 -42 34 -28 27 -45 35 -65 33 -22 -3 -28 2 -33 25 -3 15
-5 31 -4 36 1 5 1 11 0 14 -4 9 -11 75 -14 118 -3 46 5 54 20 20 l9 -22 22 22
c12 12 22 20 22 18 0 -2 12 -1 27 3 21 6 32 3 46 -13 l18 -21 -6 22 c-5 18 -2
22 17 21 13 -1 28 -5 34 -10 7 -5 14 -2 18 7 3 10 15 15 28 13 21 -3 23 -8 21
-68 -1 -36 -3 -83 -5 -105 l-3 -40 63 -5 c59 -5 63 -4 57 15 -14 48 -13 65 7
65 22 0 42 -44 33 -77 -6 -26 10 -37 43 -31 20 3 19 5 -7 83 -15 44 -36 96
-46 115 -16 31 -19 33 -25 15 -5 -15 -8 -10 -13 20 -8 46 -4 52 26 38 12 -6
35 -14 51 -19 31 -9 48 -44 136 -279 16 -41 39 -76 73 -110 l50 -49 -8 34 c-4
19 -13 47 -21 61 -7 15 -16 45 -20 68 -5 31 -11 41 -25 41 -22 0 -26 19 -4 21
35 3 39 5 42 15 2 6 -4 11 -14 11 -44 0 -50 3 -48 26 4 37 5 38 18 36 29 -4
42 2 22 11 -19 8 -19 9 3 9 12 1 22 4 22 9 0 12 -142 106 -180 119 -26 10 -95
11 -265 7 -126 -3 -234 -6 -240 -6 -5 0 -56 2 -112 6 -63 3 -103 2 -103 -4 0
-12 82 -108 93 -109 5 -1 5 4 2 9 -9 14 4 52 16 45 5 -4 9 -16 9 -28 0 -16 3
-18 9 -9 11 18 21 -33 14 -69 -3 -15 3 -41 12 -59 9 -17 15 -46 14 -63 -2 -18
0 -38 5 -45 4 -6 3 -12 -1 -12 -5 0 -36 34 -71 74 -34 41 -92 100 -129 131
-38 30 -91 74 -119 98 -28 23 -67 54 -85 69 -28 23 -32 29 -19 37 8 6 23 8 34
5 16 -5 15 -1 -8 29 l-26 35 22 7 c19 6 20 8 6 12 -20 5 -23 21 -7 43 9 12 10
11 6 -8 -6 -24 3 -28 20 -11 8 8 15 6 25 -10 7 -11 16 -21 21 -21 4 0 6 4 3 8
-6 10 30 72 43 72 5 0 14 -13 21 -29 14 -35 5 -91 -15 -91 -8 0 4 -17 26 -39
38 -36 42 -38 82 -30 23 4 45 8 50 9 4 0 7 7 7 15 0 8 5 15 10 15 6 0 10 -4
10 -8 0 -5 7 -9 15 -9 19 0 19 1 -51 180 -60 153 -77 237 -50 237 9 0 16 -7
16 -16 0 -8 4 -13 9 -10 5 3 14 -22 20 -57 15 -84 78 -263 118 -331 10 -19 11
-19 22 2 10 18 9 21 -4 16 -8 -4 -15 -1 -15 6 0 7 -11 34 -25 61 -24 50 -55
141 -55 166 0 11 5 11 20 3 11 -6 20 -21 20 -33 0 -12 7 -35 15 -51 8 -15 15
-38 15 -50 0 -11 5 -28 10 -36 13 -20 13 -17 -5 85 -9 48 -13 90 -10 93 3 3
13 -14 22 -38 l17 -43 8 29 c5 18 3 31 -5 36 -16 10 -4 20 16 12 9 -3 15 -17
15 -32 -1 -53 25 -222 35 -229 7 -4 8 30 4 103 -4 73 -3 96 3 69 5 -22 9 -59
9 -82 1 -24 5 -43 10 -43 11 0 4 101 -10 144 -5 16 -9 41 -10 55 l-1 26 -8
-25 c-7 -21 -8 -22 -9 -5 -2 34 -22 45 -85 46 -61 1 -61 1 -21 11 22 5 55 8
73 6 28 -4 32 -1 32 19 0 29 -26 40 -52 24 -11 -7 -23 -10 -26 -7 -3 3 1 7 9
8 8 0 -6 4 -30 7 -25 3 -46 12 -49 18 -2 9 5 11 27 7 51 -11 35 5 -41 41 -86
39 -87 40 -81 66 5 18 7 18 28 5 21 -14 25 -14 36 0 9 11 9 20 0 40 -15 33
-14 44 4 44 20 0 19 10 -2 27 -17 13 -16 14 7 8 47 -12 150 -15 150 -4 0 5 -5
7 -12 3 -8 -5 -9 -2 -5 10 6 14 3 16 -13 11 -25 -8 -45 12 -55 53 -3 18 -10
32 -13 32 -4 0 -8 12 -9 26 0 15 -5 29 -11 33 -5 3 -12 24 -15 46 -17 118 -39
220 -50 228 -9 6 -9 10 0 13 8 4 6 21 -7 62 -10 31 -24 78 -30 105 -7 26 -16
47 -21 47 -5 0 -24 14 -44 31 l-35 31 15 -36 c8 -19 14 -45 14 -58 -1 -13 8
-57 19 -98 11 -41 23 -102 27 -135 13 -113 17 -140 33 -210 8 -38 15 -82 15
-97 0 -16 4 -28 8 -28 5 0 9 -4 9 -10 0 -24 -30 6 -45 43 l-15 42 4 -37 c5
-36 3 -38 -24 -38 -23 0 -32 8 -49 41 -12 22 -23 57 -25 77 -1 20 -5 44 -8 52
-17 48 -54 193 -69 265 -11 57 -60 208 -65 203 -2 -3 9 -56 26 -118 16 -62 27
-117 25 -121 -3 -4 0 -20 5 -35 6 -15 9 -29 6 -31 -4 -5 -46 119 -46 138 0 6
-6 25 -14 42 -65 149 -152 564 -113 540 5 -3 7 0 5 8 -3 8 -11 13 -18 11 -8
-2 -10 3 -5 15 16 40 18 56 6 49 -8 -6 -10 0 -6 21 4 21 3 23 -3 9 -8 -19 -9
-18 -17 5 -10 30 -12 40 -14 58 0 7 -7 11 -15 8 -10 -4 -12 0 -9 14 6 22 19
25 27 7 3 -7 3 -3 1 9 -3 12 -1 24 5 28 5 3 10 -1 10 -9 0 -9 6 -16 14 -16 12
0 36 -43 43 -75 1 -5 13 -41 28 -80 14 -38 30 -86 35 -105 5 -19 21 -68 34
-108 14 -40 28 -95 32 -123 7 -56 24 -76 24 -30 0 27 4 31 26 31 17 0 28 -6
31 -19 10 -39 65 -33 78 9 7 22 21 27 27 9 4 -11 77 4 103 21 6 4 42 17 82 30
72 24 105 21 69 -6 -15 -11 -17 -17 -8 -26 8 -8 8 -17 1 -30 -6 -11 -8 -24 -6
-31 3 -7 10 0 16 15 6 15 8 34 5 41 -2 7 6 23 19 35 19 18 28 20 54 13 21 -6
35 -5 43 2 10 9 12 8 7 -5 -4 -10 -2 -18 3 -18 5 0 6 -16 3 -35 -4 -25 -1 -41
11 -54 11 -13 21 -51 28 -115 7 -53 15 -96 20 -96 4 0 8 7 8 15 0 27 28 28 55
3 16 -15 28 -41 33 -68 l8 -45 19 60 c18 60 44 154 64 230 5 22 15 71 21 109
9 58 9 71 -5 86 -12 13 -13 23 -6 41 9 21 10 22 11 4 1 -15 4 -12 15 13 8 17
20 32 26 32 7 0 10 3 6 6 -3 4 -78 -28 -166 -69 -181 -86 -196 -91 -196 -62 0
22 -13 15 305 170 108 52 201 95 208 95 38 0 -17 -62 -82 -91 -14 -7 -23 -16
-20 -21 3 -5 22 3 41 18 30 23 38 25 61 15 25 -11 26 -10 8 4 -11 8 -16 15
-10 15 24 -1 31 -18 28 -70 -2 -30 -5 -113 -5 -185 -1 -75 -5 -121 -10 -110
-7 19 -8 19 -8 -2 -1 -12 3 -24 7 -27 10 -6 8 -144 -2 -154 -4 -3 -11 0 -16 8
-9 14 -12 7 -9 -16 3 -23 -55 -23 -64 0 -8 19 21 138 35 147 10 7 9 9 -4 9
-17 0 -37 -52 -53 -140 -4 -19 -13 -53 -20 -75 -7 -22 -32 -107 -55 -190 -45
-163 -69 -235 -100 -295 -11 -22 -20 -53 -20 -69 0 -29 -2 -30 -32 -25 -18 3
-53 11 -78 19 -78 23 -113 28 -106 16 4 -6 24 -11 44 -12 31 -1 33 -2 13 -8
-20 -5 -3 -13 80 -35 57 -15 131 -38 165 -52 34 -13 85 -31 114 -40 103 -31
433 -167 437 -181 2 -6 -4 -18 -13 -27 -14 -15 -18 -15 -28 -2 -15 20 -76 52
-114 61 -17 3 -49 15 -71 26 -22 10 -46 19 -53 19 -8 0 -30 8 -50 18 -30 16
-47 17 -95 11 -32 -5 -93 -9 -135 -10 -77 -2 -78 -2 -78 -28 0 -22 9 -30 56
-50 31 -14 83 -42 115 -63 37 -23 59 -33 59 -24 0 24 -22 76 -30 71 -14 -8
-40 6 -40 22 0 10 7 14 20 10 11 -3 20 -1 20 5 0 21 44 2 51 -22 l7 -25 2 25
c2 22 3 22 10 -7 8 -36 2 -85 -10 -78 -4 3 -10 -2 -13 -10 -8 -19 54 -69 65
-52 5 8 8 5 8 -7 0 -28 80 -101 92 -84 23 36 40 125 36 187 -3 36 -3 58 -1 48
4 -14 8 -16 19 -6 12 10 14 4 15 -32 2 -36 3 -39 7 -14 4 26 7 22 17 -30 12
-58 12 -59 20 -27 4 17 12 32 17 32 6 0 8 -12 4 -27 -4 -16 -14 -99 -23 -186
-13 -125 -14 -160 -4 -170 18 -18 39 15 35 54 -2 16 0 28 4 25 5 -3 8 17 8 43
-1 71 18 87 292 237 26 15 58 34 72 44 14 10 53 33 85 51 33 17 89 51 125 74
36 23 77 49 93 58 l27 17 0 325 c0 210 -4 325 -10 325 -5 0 -19 -9 -30 -20
-11 -11 -26 -20 -32 -20 -7 0 -22 -14 -33 -31 -11 -17 -32 -33 -47 -36 -16 -3
-28 -9 -28 -13 0 -4 -14 -10 -30 -14 -22 -4 -34 -14 -41 -33 -6 -16 -35 -48
-65 -73 -30 -25 -60 -50 -67 -55 -41 -36 -154 -107 -172 -109 -11 -1 -26 -6
-33 -10 -7 -4 -12 -2 -12 4 0 6 -4 9 -9 6 -12 -8 -3 107 13 164 31 108 39 158
29 196 -13 56 -35 55 -94 -3 -27 -26 -65 -61 -85 -78 l-35 -30 6 -80 c4 -44 8
-93 10 -110 2 -16 7 -57 10 -90 4 -33 16 -82 26 -109 10 -28 17 -52 15 -54
-12 -12 -42 22 -57 64 -9 27 -24 67 -32 89 -8 22 -18 83 -21 135 -6 102 -5
104 19 20 l15 -55 -5 49 c-3 27 -5 86 -5 132 0 84 0 84 -26 84 -24 0 -26 -3
-20 -27 3 -16 9 -38 11 -50 3 -13 1 -23 -5 -23 -5 0 -11 -19 -11 -42 l-1 -43
-8 35 c-4 19 -11 53 -16 75 -11 47 -3 131 11 127 5 -2 13 5 17 15 5 11 7 5 4
-19 -5 -39 13 -53 31 -25 11 17 13 107 2 107 -5 0 -9 -7 -9 -17 0 -28 -15 -3
-16 28 -2 30 10 39 20 17 6 -12 2 28 -9 112 -5 35 3 26 20 -25 5 -13 9 -15 12
-7 3 6 45 40 94 73 49 34 89 65 89 70 0 17 19 9 25 -11 10 -32 28 -24 23 10
-3 23 -1 30 9 26 7 -3 13 0 13 8 0 16 103 115 200 191 41 33 100 82 130 110
66 60 187 159 201 163 5 2 9 116 9 278 l0 274 -29 0 c-16 0 -46 -6 -67 -13
-22 -8 -70 -14 -107 -16 -61 -2 -68 0 -65 16 2 10 14 21 28 25 14 4 50 14 80
23 30 9 79 19 108 22 l52 6 0 584 c0 384 -4 591 -10 604 -7 13 -7 19 0 19 6 0
10 41 10 110 0 96 -2 110 -17 110 -9 0 -27 10 -39 21 l-23 21 -31 -22 c-18
-13 -48 -23 -68 -24 -43 -1 -50 16 -42 102 5 52 7 57 28 55 12 -2 31 6 43 18
31 31 59 21 87 -32 18 -36 28 -46 43 -42 17 5 19 15 19 93 0 79 -2 88 -20 93
-10 3 -24 -1 -31 -9 -6 -8 -24 -14 -40 -14 -16 0 -29 -4 -29 -9 0 -11 -73 -41
-99 -41 -37 0 -42 55 -6 64 14 4 25 11 25 16 0 14 -35 30 -65 30 -31 0 -95 58
-95 86 0 10 14 32 30 49 l30 31 -37 20 c-30 16 -38 26 -38 48 -1 29 -27 56
-53 56 -8 0 -22 10 -32 22 -15 19 -20 20 -34 9 -9 -7 -16 -19 -16 -27 0 -25
-15 -22 -16 4 -1 26 -12 61 -41 129 -7 17 -13 47 -13 67 0 20 -4 35 -8 34 -8
-3 -48 41 -95 105 -30 40 -52 49 -44 17 6 -24 -18 -40 -60 -40 -52 0 -71 -11
-85 -48 l-14 -36 0 58 c-1 37 -6 62 -15 68 -10 7 -8 8 8 3 15 -4 29 1 42 14
20 20 20 20 0 26 -10 4 -19 11 -19 16 0 6 -6 7 -12 3 -10 -6 -10 -4 0 7 18 19
15 34 -5 18 -13 -11 -17 -11 -20 -1 -3 6 -14 12 -24 12 -11 0 -18 4 -15 8 3 5
22 8 42 7 31 -2 43 3 70 33 34 37 38 58 7 29 -10 -8 -31 -19 -47 -23 -26 -6
-28 -5 -21 17 10 32 9 31 55 33 22 0 40 4 40 7 0 4 9 9 19 12 11 3 22 17 26
35 4 21 18 38 41 51 51 31 84 27 116 -11 l27 -33 32 32 32 31 -28 28 c-23 23
-37 28 -99 32 -63 4 -73 2 -90 -17 -11 -11 -23 -21 -28 -21 -4 0 -31 -11 -58
-24 -28 -13 -50 -20 -50 -15 0 8 36 149 56 218 5 17 4 22 -4 17 -16 -9 -15 -3
3 41 8 19 16 50 16 67 1 17 3 23 6 14 2 -9 10 -15 18 -12 7 3 24 -6 38 -20 30
-29 42 -31 77 -11 34 19 64 18 100 -3 l30 -19 -23 -26 c-12 -15 -30 -27 -39
-27 -8 0 -21 -7 -28 -15 -10 -12 -9 -15 6 -15 11 -1 45 -2 77 -3 31 -1 57 1
57 5 0 17 -26 65 -49 91 -13 15 -20 27 -14 27 6 0 9 8 6 18 -2 10 5 26 16 36
15 14 24 15 40 7 13 -8 22 -8 26 -1 4 6 10 8 15 5 11 -7 120 71 120 85 0 6 11
20 25 32 14 12 25 25 25 28 0 4 -24 6 -52 4 -35 -2 -61 3 -76 12 -30 19 -146
24 -164 6 -6 -6 -22 -12 -33 -12 -12 0 -25 -3 -28 -6 -4 -4 -25 -8 -49 -11
-49 -4 -52 -6 -67 -55 -28 -88 -105 -38 -81 53 6 21 16 41 22 45 6 4 45 10 87
14 41 4 77 13 79 19 2 6 11 11 21 11 9 0 22 5 28 11 9 9 18 8 38 -5 25 -16 26
-16 35 9 11 28 35 33 44 9 3 -8 10 -13 15 -10 5 3 14 -1 21 -9 8 -10 30 -15
62 -15 l51 0 -7 32 c-9 47 -30 64 -96 78 -67 14 -91 38 -89 92 0 18 3 26 6 18
9 -23 24 -30 68 -30 67 0 85 9 85 41 0 15 -5 31 -10 34 -7 4 -7 12 0 25 5 10
10 30 10 43 0 20 10 29 45 46 53 25 81 27 101 6 9 -8 26 -15 39 -15 24 0 35
-17 35 -55 0 -29 42 -60 88 -67 l32 -5 0 158 0 157 -145 1 c-131 0 -145 -1
-158 -19 -34 -48 -111 -51 -123 -4 -6 23 -10 25 -43 20 -20 -4 -48 -6 -62 -6
-14 0 -34 -9 -44 -20 -10 -11 -29 -20 -42 -20 -13 0 -35 -12 -49 -27 -29 -31
-72 -40 -81 -17 -3 8 -10 14 -17 14 -6 0 -22 18 -36 40 l-25 40 -86 -1 -86 -1
-15 -53 c-14 -51 -14 -53 9 -75 17 -17 21 -26 13 -35 -16 -20 -44 -11 -50 15
-8 34 -22 34 -56 0 -26 -26 -73 -43 -60 -21 3 5 -1 11 -9 15 -23 8 -18 28 5
21 14 -4 20 -2 20 8 0 24 33 58 58 60 12 1 22 7 22 15 0 7 -5 10 -10 7 -6 -3
-14 5 -20 20 l-10 26 -147 -3 -148 -3 -6 -135 c-4 -74 -10 -184 -14 -244 -8
-119 -5 -126 48 -126 17 0 38 10 55 28 33 33 114 87 125 84 5 -1 26 17 48 40
51 56 40 17 -14 -47 -39 -46 -124 -97 -201 -119 -22 -6 -41 -16 -43 -22 -2 -6
15 -31 37 -57 22 -25 47 -60 56 -79 8 -18 23 -46 34 -63 20 -32 26 -60 10 -50
-5 3 -17 22 -27 42 -9 20 -41 70 -70 111 -62 85 -88 133 -98 180 -3 17 -11 32
-16 32 -5 0 -9 6 -9 14 0 20 -55 134 -76 157 -9 10 -22 16 -28 12 -8 -4 -8 -2
0 6 21 23 51 -9 96 -103 l43 -91 6 45 c4 25 10 123 14 218 l7 172 -105 0 -104
0 -10 -118 c-9 -101 -32 -207 -65 -291 -8 -22 -10 -22 -21 -6 -23 31 -37 -6
-49 -129 l-11 -116 30 -43 c40 -57 48 -72 35 -64 -21 13 -72 101 -72 124 0 13
-5 22 -12 20 -6 -1 -14 6 -16 17 -5 22 17 68 30 60 4 -3 8 12 9 33 1 63 7 90
24 117 20 29 7 35 -16 8 -26 -30 -34 -46 -19 -37 10 6 12 4 7 -9 -4 -10 -7
-36 -8 -59 -1 -34 -2 -37 -8 -17 l-7 24 -41 -40 -42 -41 -3 46 c-2 34 -9 5
-26 -109 -12 -85 -25 -185 -29 -221 l-6 -66 52 -53 c28 -29 51 -56 51 -61 0
-5 5 -9 10 -9 6 0 22 -25 36 -55 15 -31 29 -54 31 -51 6 6 -30 103 -62 166
-32 64 -32 72 4 67 23 -4 28 -2 24 9 -3 8 -8 14 -12 14 -11 0 -5 80 7 92 14
14 38 -24 58 -91 9 -31 23 -75 30 -99 8 -23 14 -54 14 -67 0 -13 5 -27 10 -30
6 -4 8 -10 5 -15 -6 -10 27 -100 37 -100 4 0 5 -6 2 -13 -3 -8 0 -34 6 -58 7
-24 12 -52 13 -61 2 -25 17 -23 17 2 0 10 6 34 14 52 7 18 20 53 27 78 8 25
19 43 24 40 6 -3 9 -8 8 -12 -2 -4 -5 -25 -8 -47 -4 -35 -10 -63 -31 -146 -2
-11 -9 -74 -14 -140 -6 -66 -15 -154 -21 -195 -6 -41 -12 -92 -12 -112 -1 -36
-20 -58 -32 -38 -4 6 2 10 11 10 16 0 16 1 -1 20 -15 17 -16 25 -5 70 8 33 9
55 2 63 -5 6 -12 28 -16 47 -5 31 -5 32 6 13 13 -26 28 -30 28 -8 0 24 -67
194 -81 205 -6 5 -18 51 -21 78 -1 6 -5 12 -9 12 -4 0 -11 9 -14 21 -4 11 -24
50 -45 87 -31 53 -36 70 -29 89 7 18 5 25 -6 29 -8 4 -15 13 -15 21 0 20 -32
73 -44 73 -5 0 -1 -9 8 -19 12 -13 14 -20 5 -23 -9 -3 -9 -9 0 -27 16 -30 22
-61 11 -61 -5 0 -22 11 -38 25 -48 41 -53 29 -16 -42 19 -38 28 -60 21 -50 -8
9 -19 17 -25 17 -6 0 -12 6 -15 13 -2 6 -10 -7 -16 -30 -6 -23 -16 -45 -21
-48 -6 -3 -10 -17 -10 -30 0 -22 -3 -23 -37 -18 -21 4 -43 12 -49 18 -11 11
-15 105 -4 102 3 -1 15 4 27 11 14 8 24 9 28 2 12 -19 31 14 32 55 l0 40 -11
-35 c-9 -29 -16 -35 -38 -35 -16 1 -28 -3 -28 -8 0 -5 -7 -4 -15 3 -8 6 -19 9
-25 5 -5 -3 -10 -1 -10 5 0 7 -6 10 -12 7 -7 -2 -12 -11 -10 -20 3 -18 -33
-59 -42 -49 -12 11 -6 -11 12 -41 9 -18 19 -34 22 -37 11 -11 30 -50 30 -62 0
-7 -9 2 -20 19 -11 18 -32 46 -48 62 l-28 30 -2 -37 c-1 -63 -3 -70 -17 -82
-8 -6 -39 -14 -70 -16 -49 -5 -55 -3 -55 14 0 14 -7 19 -31 19 -30 0 -53 19
-43 35 9 15 -7 30 -20 19 -15 -12 -174 87 -191 118 -11 22 -104 121 -138 148
-13 10 -30 29 -39 42 -16 23 -16 25 5 41 12 9 34 20 48 23 39 10 55 82 22 94
-34 12 -63 46 -57 65 3 11 1 24 -4 31 -13 16 -3 89 12 84 6 -2 11 -18 12 -36
1 -33 33 -65 64 -66 8 -1 14 -6 13 -13 -2 -7 2 -12 7 -12 6 0 10 7 10 15 0 14
11 19 36 16 6 -1 17 12 24 29 7 16 19 30 28 30 11 0 13 8 8 38 -3 20 -6 52 -6
70 0 34 -25 46 -36 17 -4 -9 -11 -14 -18 -13 -13 2 -65 -21 -86 -38 -8 -7 -26
-14 -40 -16 -21 -2 -27 3 -37 32 -12 33 -11 37 13 58 14 12 38 22 56 22 31 0
87 26 101 47 4 7 14 10 23 6 15 -6 43 22 44 45 0 23 -65 14 -90 -13 -36 -39
-108 -35 -203 10 -61 29 -83 46 -123 97 -78 98 -76 95 -64 118 15 28 41 25 96
-9 38 -25 49 -28 65 -18 28 18 23 36 -15 52 -18 8 -36 21 -39 30 -4 9 -19 15
-39 15 -57 0 -76 10 -91 48 -18 45 -12 62 22 63 14 0 35 4 46 9 14 6 4 9 -37
9 -32 1 -58 -3 -58 -8 0 -21 -34 -41 -69 -41 -45 0 -54 7 -40 31 9 18 5 19
-73 19 -58 0 -95 -6 -123 -19z m2482 -1430 c7 -9 12 -32 12 -51 -1 -33 7 -110
15 -155 2 -11 1 -29 -4 -40 -7 -19 -8 -18 -18 6 -6 15 -7 41 -3 60 9 44 4 66
-17 71 -14 4 -17 -4 -19 -49 -3 -66 -9 -76 -35 -67 -14 4 -18 2 -14 -5 4 -6 2
-20 -4 -32 -11 -20 -12 -20 -25 -2 -14 17 -14 17 -15 -4 0 -12 -4 -25 -10 -28
-5 -3 -10 2 -10 12 0 10 -7 28 -15 40 -14 20 -14 22 5 28 11 3 20 13 20 21 0
18 14 18 30 -1 17 -20 32 -8 20 16 -7 12 -21 19 -40 19 -23 0 -28 3 -23 17 4
11 3 14 -5 9 -7 -4 -12 -1 -12 8 0 10 9 16 23 16 28 0 41 9 57 39 11 21 10 26
-5 37 -10 7 -22 15 -28 17 -19 6 5 29 24 24 11 -3 19 -1 19 5 0 5 4 7 9 3 5
-3 12 -1 16 4 7 13 36 2 52 -18z m243 -257 c5 -49 17 -118 25 -154 18 -74 25
-170 13 -170 -4 0 -8 -8 -8 -17 0 -14 2 -15 13 -4 10 10 14 0 23 -46 13 -70
11 -190 -5 -206 -14 -14 -26 -3 -15 14 4 7 9 23 10 35 3 30 -24 21 -28 -9 -2
-18 -9 -21 -33 -19 -16 2 -35 8 -41 13 -8 6 -14 5 -17 -5 -4 -9 -14 -12 -25
-9 -11 2 -23 -1 -27 -7 -6 -9 2 -11 28 -8 20 2 34 1 31 -3 -2 -4 0 -10 5 -13
5 -4 12 -2 16 4 8 13 25 13 25 -1 0 -5 -4 -8 -9 -4 -5 3 -16 -3 -23 -12 -14
-20 -38 -28 -38 -14 0 5 8 12 18 14 9 3 0 4 -21 3 -21 -2 -47 -10 -57 -18 -23
-21 -60 -32 -60 -20 0 6 6 13 13 16 6 3 2 3 -10 0 -14 -3 -23 -1 -23 6 0 6
-10 10 -22 8 -14 -2 -23 2 -23 11 0 7 -10 21 -23 29 l-24 16 21 -37 c19 -34
19 -37 3 -37 -28 0 -46 -16 -38 -35 6 -17 8 -17 26 0 11 10 23 15 26 12 4 -4
-1 -9 -10 -13 -9 -3 -16 -11 -16 -16 0 -6 7 -8 15 -4 22 8 18 -7 -6 -22 -17
-11 -19 -16 -8 -30 11 -14 11 -15 -1 -4 -19 16 -45 15 -60 -3 -15 -18 -33 -20
-28 -3 5 14 -15 38 -31 38 -6 0 -11 5 -11 10 0 6 -6 10 -14 10 -7 0 -21 11
-29 23 -8 13 -33 41 -56 62 -22 21 -37 43 -34 48 3 6 2 7 -4 4 -6 -4 -18 9
-29 28 -10 18 -21 32 -25 29 -4 -2 -17 8 -28 22 -20 26 -20 44 1 44 5 0 31 18
56 40 32 29 53 40 71 38 15 -2 25 2 24 8 -1 7 4 11 13 10 8 0 24 15 37 34 l22
35 -47 -28 c-70 -41 -75 -15 -7 45 59 52 80 61 55 24 -10 -15 -12 -27 -6 -31
6 -3 10 -2 10 3 0 4 9 18 20 30 18 19 24 20 42 11 l22 -12 -22 -17 c-26 -21
-28 -30 -7 -30 8 0 15 7 15 15 0 9 12 18 28 21 16 3 43 19 60 35 17 16 38 29
46 29 9 0 16 4 16 9 0 5 14 24 30 41 22 23 28 36 20 44 -7 7 -10 6 -10 -3 0
-8 -6 -11 -15 -7 -8 3 -14 0 -12 -6 1 -6 -4 -13 -12 -16 -8 -2 -11 0 -8 6 4 5
0 15 -8 22 -12 10 -15 10 -15 0 0 -8 -2 -11 -5 -8 -3 2 3 22 14 43 12 24 21
34 26 26 4 -7 -1 -21 -11 -32 -9 -10 -12 -19 -6 -19 6 0 14 5 17 10 4 6 10 8
15 5 13 -8 92 44 85 55 -3 6 -11 10 -16 10 -5 0 -16 5 -23 12 -26 25 33 86 69
72 8 -3 22 -1 32 4 10 6 19 9 21 8 1 -2 7 -43 12 -92z m-1324 21 c4 -8 12 -15
20 -15 8 0 14 -4 14 -8 0 -5 9 -19 20 -32 21 -24 28 -56 10 -45 -6 3 -10 -5
-10 -19 0 -18 4 -24 14 -20 8 3 16 1 20 -4 3 -5 -1 -9 -8 -9 -7 0 -26 -10 -44
-23 -26 -19 -34 -21 -47 -10 -8 7 -15 9 -15 4 0 -5 -5 -1 -11 9 -5 9 -16 17
-23 17 -16 0 -40 76 -30 93 21 34 61 77 72 77 7 0 15 -7 18 -15z m-271 -98
c17 -10 22 -17 13 -13 -13 4 -23 -5 -38 -33 -10 -21 -27 -41 -36 -45 -9 -3
-14 -12 -10 -21 3 -8 3 -15 0 -15 -12 0 -64 35 -64 43 0 4 -4 6 -9 2 -13 -8
-24 31 -15 58 13 45 33 57 83 50 25 -4 60 -15 76 -26z m-2485 -2 c7 -8 21 -15
32 -15 10 0 17 -4 14 -9 -7 -10 17 -21 46 -21 31 0 18 -34 -15 -38 -21 -3 -27
-9 -27 -27 0 -32 11 -59 19 -46 5 7 19 6 46 -3 34 -12 41 -12 51 2 16 22 41 8
46 -27 3 -17 1 -31 -4 -31 -4 0 -8 -7 -8 -16 0 -8 4 -13 9 -10 5 3 11 -1 14
-9 4 -8 21 -18 39 -24 30 -8 30 -9 8 -10 -15 -1 -31 4 -38 11 -9 9 -12 9 -12
-2 -1 -11 -4 -9 -11 4 -8 13 -13 15 -19 6 -11 -17 0 -50 16 -50 8 0 14 -4 14
-9 0 -5 15 -14 33 -20 17 -7 44 -18 59 -26 25 -12 28 -11 43 11 19 30 31 25
38 -18 3 -18 8 -41 12 -50 5 -12 2 -16 -12 -14 -10 2 -19 13 -21 25 -3 17 -7
20 -16 11 -9 -6 -22 -7 -36 -2 -17 6 -28 4 -42 -10 -10 -10 -28 -18 -40 -18
-19 0 -23 -5 -22 -30 2 -48 3 -50 24 -50 11 0 20 -4 20 -10 0 -5 5 -10 11 -10
6 0 8 7 5 16 -4 12 -1 14 14 9 15 -5 18 -3 14 9 -8 20 19 21 35 2 13 -15 20
-40 28 -101 4 -34 9 -40 29 -41 13 -1 24 2 24 7 0 5 -4 9 -10 9 -5 0 -14 9
-20 21 -11 19 -9 20 23 14 21 -4 37 -3 41 4 5 7 13 8 25 1 15 -8 17 -6 14 14
-4 20 -2 22 25 18 24 -3 31 0 37 17 3 12 11 19 16 16 12 -8 12 -45 -1 -45 -21
0 -9 -21 25 -42 49 -32 43 -41 -10 -15 -30 15 -45 28 -45 42 0 14 -3 16 -12 7
-9 -9 -8 -21 2 -51 7 -22 10 -49 7 -60 -3 -12 -1 -19 4 -15 5 3 9 -2 9 -10 0
-9 -4 -16 -10 -16 -18 0 -10 -18 11 -23 15 -4 19 -2 15 9 -3 8 -1 14 4 14 5 0
16 7 24 16 15 14 19 13 46 -6 18 -13 33 -34 37 -52 6 -29 7 -30 20 -13 12 18
13 18 13 -2 0 -35 10 -51 30 -46 12 3 20 -2 24 -15 4 -10 18 -24 32 -31 31
-14 30 -16 -13 -24 -27 -5 -31 -4 -26 10 4 11 2 14 -8 11 -8 -3 -14 -13 -14
-23 0 -26 -43 -40 -65 -20 -9 8 -19 13 -22 9 -3 -3 -15 7 -26 21 l-21 26 -4
-23 -4 -23 -8 22 c-5 14 -12 20 -23 16 -12 -5 -14 -1 -10 15 4 12 2 25 -3 28
-5 3 -9 -4 -9 -15 0 -13 -7 -21 -16 -21 -13 0 -15 8 -12 38 4 29 -1 44 -21 71
-18 24 -22 36 -13 39 13 4 16 40 6 66 -5 13 -8 14 -28 1 -13 -8 -25 -13 -28
-10 -3 3 -17 1 -32 -5 -22 -8 -30 -6 -47 11 -17 17 -20 28 -15 64 4 24 3 46
-3 49 -14 9 -41 -4 -41 -19 0 -7 -6 -15 -12 -17 -15 -5 -38 15 -38 34 0 10 -2
10 -9 -1 -14 -22 -44 5 -35 31 7 24 -3 68 -16 68 -6 0 -15 -11 -20 -25 -5 -14
-17 -25 -25 -25 -9 0 -14 4 -10 9 3 5 1 12 -5 16 -5 3 -10 15 -10 25 0 17 6
19 40 16 40 -4 54 6 25 18 -13 4 -14 16 -9 56 7 55 -7 67 -39 32 -9 -10 -28
-19 -43 -20 -16 -1 -30 -5 -33 -10 -9 -11 -39 -8 -52 5 -19 19 -4 26 21 11 19
-12 24 -10 41 11 14 17 18 33 14 49 -4 17 -2 22 7 16 7 -4 22 -9 34 -10 18 -2
21 1 17 14 -3 9 -3 14 2 10 10 -9 45 9 45 23 0 6 -7 17 -15 26 -12 11 -19 12
-29 4 -7 -6 -16 -7 -20 -3 -4 4 -6 1 -4 -6 2 -8 -7 -18 -19 -23 -16 -6 -23 -5
-23 3 0 9 -3 9 -11 1 -6 -6 -11 -32 -11 -57 -1 -29 -5 -45 -12 -43 -15 5 -20
58 -7 67 8 4 7 12 -3 25 -13 18 -14 17 -36 -8 l-23 -27 -13 23 c-24 41 -27 48
-20 55 4 3 11 0 17 -8 7 -11 11 -12 17 -3 5 8 13 9 22 3 24 -15 26 -12 23 28
-3 36 -2 36 8 10 13 -34 34 -38 25 -5 -3 12 -6 30 -6 40 0 19 -44 25 -55 7 -7
-11 -49 -9 -61 3 -4 4 1 16 11 27 10 11 21 17 24 12 3 -5 22 -11 42 -15 34 -5
36 -4 31 19 -2 13 -17 35 -33 48 -16 14 -29 27 -29 30 0 11 18 6 30 -9z m-543
-46 c2 -37 33 -102 33 -68 0 26 24 51 43 43 10 -3 16 -12 15 -18 -2 -6 14 -35
35 -63 62 -85 45 -155 -34 -139 -27 5 -28 4 -19 -14 14 -26 -1 -33 -51 -25
-23 4 -45 15 -52 26 -7 12 -23 19 -42 19 -17 0 -40 6 -50 14 -18 13 -17 14 14
31 19 9 44 15 57 12 52 -10 8 83 -51 107 -80 34 -18 131 75 118 22 -3 26 -9
27 -43z m3605 -224 c40 -8 87 -17 103 -20 23 -5 26 -4 15 4 -11 8 -2 9 35 5
59 -8 148 -54 154 -80 3 -16 1 -17 -13 -5 -29 24 -17 -3 15 -33 34 -32 195
-214 303 -340 37 -45 82 -97 100 -116 121 -136 169 -194 213 -255 28 -39 69
-85 91 -102 36 -29 46 -52 30 -68 -3 -3 -21 9 -39 27 -19 19 -47 45 -64 59
-16 13 -68 72 -115 129 -148 184 -276 326 -266 297 4 -11 2 -16 -5 -12 -6 4
-8 13 -5 21 3 7 -8 27 -23 43 l-28 30 -11 -23 c-9 -21 -15 -23 -49 -17 -34 7
-41 5 -57 -18 -11 -14 -13 -20 -6 -13 17 14 74 17 65 2 -4 -6 7 -10 25 -10 19
0 30 5 29 13 -4 30 3 41 11 19 5 -12 7 -29 4 -37 -4 -9 2 -18 17 -24 13 -5 20
-10 16 -10 -4 -1 1 -10 11 -21 18 -19 18 -23 4 -55 -16 -34 -32 -46 -32 -24 0
8 -5 7 -16 -2 -12 -10 -17 -10 -23 0 -11 17 -74 -16 -88 -46 -9 -19 -8 -26 10
-38 12 -8 28 -15 37 -15 8 -1 3 -7 -12 -16 -41 -22 -34 -32 20 -28 41 4 44 3
22 -7 -14 -6 -45 -11 -70 -12 -34 -2 -51 -8 -72 -29 -15 -16 -32 -28 -38 -28
-5 0 -10 -4 -10 -10 0 -14 23 -12 39 3 11 10 13 9 8 -5 -8 -22 5 -23 44 -2 22
11 34 12 43 5 9 -8 18 -6 32 7 32 31 54 34 54 10 0 -12 -3 -18 -6 -15 -12 12
-43 -13 -37 -29 5 -14 8 -12 19 7 8 15 14 18 14 9 0 -11 6 -8 20 9 l20 23 0
-25 c0 -21 4 -24 28 -19 26 4 26 4 7 -12 -11 -8 -26 -16 -32 -16 -7 0 -13 -4
-13 -9 0 -6 12 -6 30 -1 18 5 30 5 30 -1 0 -5 -5 -9 -12 -9 -30 0 6 -9 94 -24
53 -9 110 -24 128 -32 17 -9 40 -14 51 -11 11 3 19 0 19 -7 0 -13 -73 -13
-160 0 -25 3 -63 8 -85 10 -22 2 -85 8 -140 13 -161 17 -225 20 -230 11 -3 -4
-13 -7 -23 -5 -62 13 -82 14 -77 5 7 -12 3 -12 -20 -4 -13 6 -14 9 -3 16 9 7
7 8 -7 4 -11 -3 -78 -8 -150 -10 -144 -5 -223 -14 -231 -27 -3 -5 -27 -11 -54
-15 -33 -4 -50 -11 -50 -20 0 -8 -4 -14 -9 -14 -21 0 -41 13 -41 27 0 8 -10
25 -22 38 -13 14 -23 39 -25 66 -3 24 -10 48 -16 52 -8 6 -6 7 6 3 10 -3 17 0
17 7 0 8 4 7 10 -3 5 -8 12 -11 16 -7 14 13 44 -26 50 -65 8 -44 17 -54 35
-35 7 7 23 12 36 9 12 -2 29 3 39 12 12 12 20 14 29 6 15 -13 45 -3 45 16 0 8
-6 11 -17 7 -11 -4 -14 -3 -9 5 4 7 2 12 -4 12 -6 0 -8 5 -4 12 5 8 9 9 11 1
2 -6 13 -9 23 -6 12 3 22 -1 25 -9 5 -12 30 -16 55 -8 3 1 40 1 83 0 42 -1 77
2 76 7 -4 18 14 62 27 67 8 3 14 11 14 19 0 7 6 19 13 26 6 6 12 17 12 24 0 7
10 11 21 9 12 -1 27 4 34 13 7 8 18 15 25 15 12 0 30 29 22 36 -2 2 -19 -10
-38 -26 -33 -28 -66 -43 -41 -18 7 7 12 16 12 22 0 5 -9 0 -20 -12 -19 -20
-40 -29 -40 -18 0 2 -3 11 -6 20 -5 12 0 16 20 16 17 0 26 5 26 16 0 11 -6 14
-20 9 -20 -6 -24 2 -23 42 0 7 -2 12 -6 11 -34 -4 -41 16 -13 39 12 10 14 16
5 19 -7 3 -13 9 -13 13 0 10 44 9 51 -2 3 -5 9 -2 12 7 4 9 2 16 -4 16 -13 0
-7 41 9 58 6 7 12 22 12 32 0 21 20 31 49 23 12 -3 42 5 68 18 27 13 63 28 82
34 43 13 54 35 14 29 -15 -3 -36 -6 -45 -7 -9 -1 -14 -5 -12 -9 3 -4 -5 -12
-17 -18 -15 -8 -19 -9 -15 -1 4 6 1 11 -8 11 -8 0 -16 6 -18 12 -3 9 -9 8 -22
-5 -32 -32 -58 -12 -32 25 9 12 16 19 16 15 0 -5 7 -2 15 7 21 20 19 25 -7 19
-19 -4 -20 -3 -8 6 8 6 11 11 7 11 -5 0 -5 5 -2 10 5 8 11 8 20 0 9 -7 16 -6
26 7 13 16 12 17 -3 5 -21 -16 -31 -2 -22 32 9 37 28 50 53 36 12 -6 21 -7 21
-3 0 16 -79 84 -103 89 -14 2 -44 13 -68 24 -44 20 -87 28 -61 12 9 -6 5 -12
-14 -21 -25 -11 -26 -10 -22 13 4 22 1 24 -40 30 -64 9 -72 8 -72 -8 0 -16
-77 -106 -91 -106 -6 0 -3 10 5 22 9 12 16 30 16 39 0 9 9 28 20 42 l20 26
-22 7 c-21 6 -48 27 -48 38 0 7 100 -3 182 -19z m158 -110 c0 -8 5 -15 11 -15
6 0 8 -21 4 -62 -8 -70 -19 -98 -40 -98 -8 0 -15 -7 -15 -16 0 -15 -2 -15 -23
-1 -13 8 -34 17 -48 19 -13 1 -23 8 -21 13 2 6 10 9 18 7 25 -5 15 6 -26 29
-48 27 -47 35 3 14 20 -8 41 -15 46 -15 16 0 0 40 -22 55 l-21 15 23 0 c18 0
21 3 12 13 -9 11 0 13 47 9 56 -5 57 -4 40 15 -22 24 -23 33 -3 33 8 0 15 -7
15 -15z m-1500 -402 c0 -9 16 -13 44 -13 50 0 65 -18 35 -44 -21 -18 -33 -21
-24 -6 3 5 -6 12 -21 16 -21 5 -31 2 -45 -15 -13 -16 -25 -21 -39 -16 -15 5
-20 2 -20 -13 0 -11 -7 -25 -15 -32 -8 -7 -15 -18 -15 -25 0 -7 -7 -18 -15
-25 -24 -20 -19 26 5 50 20 20 27 50 13 50 -10 0 -43 58 -43 73 0 7 7 20 15
31 13 17 14 17 36 -3 12 -11 30 -19 40 -18 21 4 38 17 21 17 -7 0 -12 8 -12
18 0 14 4 12 20 -8 11 -14 20 -31 20 -37z m194 -58 c-3 -8 4 -26 15 -41 12
-15 21 -39 21 -53 0 -32 -25 -71 -46 -71 -8 0 -13 -3 -11 -7 6 -10 -68 -15
-109 -8 -23 4 -35 14 -43 33 -14 34 -5 64 34 110 22 27 34 32 70 32 30 0 45 5
49 16 3 8 10 13 15 9 6 -3 8 -12 5 -20z m652 -37 c4 -7 3 -8 -4 -4 -7 4 -12 0
-13 -11 0 -10 -2 -27 -3 -38 -20 -143 -20 -141 0 -125 11 9 46 29 79 45 33 16
82 42 109 58 34 19 52 25 59 18 17 -17 -18 -47 -110 -93 -67 -34 -83 -47 -79
-61 3 -11 2 -16 -1 -13 -3 3 -17 -4 -31 -14 -13 -11 -36 -20 -49 -20 -17 0
-27 -7 -30 -21 -4 -16 -8 -17 -14 -7 -7 10 -9 9 -9 -3 0 -9 -8 -20 -17 -24
-16 -7 -15 -9 7 -15 21 -7 19 -8 -12 -7 -21 1 -38 5 -38 10 0 4 5 7 10 7 6 0
10 5 10 10 0 12 -51 -18 -63 -37 -4 -7 -15 -13 -22 -13 -8 0 -15 -6 -15 -13 0
-8 -10 -22 -22 -33 -21 -19 -21 -19 -16 3 4 13 2 26 -3 29 -6 3 -5 12 2 21 11
13 7 14 -32 8 -24 -4 -49 -11 -55 -16 -7 -6 -16 -4 -24 6 -7 8 -9 16 -4 16 5
1 22 3 39 5 46 5 64 45 56 127 -1 9 2 17 6 17 11 0 33 59 33 90 0 13 3 21 6
17 10 -10 5 -122 -6 -152 -14 -38 -6 -44 42 -33 52 11 110 48 99 63 -13 17 4
60 22 59 9 -1 14 2 12 7 -3 4 1 25 10 45 8 20 15 45 15 55 0 10 10 25 22 33
27 19 25 19 34 4z m-936 -188 c0 -10 5 -22 10 -25 6 -3 10 -19 10 -36 0 -30 9
-36 27 -18 6 6 26 9 44 7 26 -2 34 -8 34 -23 1 -11 4 -26 8 -33 5 -6 4 -12 -2
-12 -6 0 -11 4 -11 9 0 5 -11 9 -25 9 -28 0 -29 -2 -15 -28 9 -16 8 -18 -7
-13 -13 5 -15 3 -9 -13 14 -34 30 -134 23 -141 -14 -13 -28 15 -37 73 -11 72
-37 149 -56 165 -8 6 -14 18 -14 26 0 8 -5 11 -10 8 -10 -6 -7 21 6 63 6 19
24 5 24 -18z m-1810 -170 c11 -11 20 -30 20 -42 -1 -28 -32 -68 -54 -68 -12 0
-13 -5 -5 -29 6 -16 9 -42 7 -58 -2 -23 -8 -28 -33 -30 -37 -3 -62 15 -66 47
-4 35 10 70 27 70 21 0 17 11 -16 49 -32 36 -33 40 -24 65 10 25 118 22 144
-4z m2774 -2 c9 -12 16 -29 16 -36 0 -8 9 -26 21 -40 12 -15 19 -39 19 -57 -3
-46 -1 -49 18 -34 15 12 16 12 7 -1 -16 -24 -12 -55 8 -54 9 1 17 -4 17 -12 0
-26 19 -14 23 14 2 17 5 10 6 -20 1 -51 -7 -81 -19 -73 -5 3 -12 -15 -16 -40
-5 -36 -9 -43 -20 -34 -10 8 -16 3 -28 -26 -9 -21 -13 -42 -9 -48 3 -6 1 -7
-5 -3 -8 5 -12 -2 -12 -18 0 -15 -8 -30 -20 -36 -20 -11 -30 3 -10 15 6 3 10
11 10 17 0 6 -3 8 -7 5 -3 -4 -11 0 -17 8 -6 9 -21 17 -34 20 -48 9 -59 39
-17 49 30 8 45 1 45 -20 0 -18 14 -18 30 1 11 13 10 14 -4 9 -11 -4 -16 -1
-16 10 0 9 -8 16 -20 16 -11 0 -20 2 -20 4 0 2 -3 11 -6 20 -5 12 0 16 17 17
13 0 18 3 12 6 -7 2 -13 20 -13 38 l0 34 -42 -13 c-30 -8 -42 -17 -40 -28 1
-9 -4 -18 -11 -21 -11 -4 -13 3 -10 28 2 19 -1 36 -7 40 -9 5 -16 -31 -11 -58
1 -5 -2 -6 -7 -3 -17 10 -73 -64 -78 -102 -4 -30 -2 -33 6 -17 8 17 10 14 6
-15 -2 -20 4 -47 14 -65 9 -16 17 -37 17 -45 1 -8 6 -44 12 -80 7 -36 16 -88
20 -116 5 -27 17 -75 26 -106 11 -34 15 -63 10 -74 -6 -14 -12 -3 -23 46 -30
137 -130 460 -142 460 -4 0 -7 6 -7 13 2 27 -26 106 -40 111 -8 3 -11 10 -8
16 10 16 -55 200 -71 200 -3 0 -2 -5 2 -12 5 -7 3 -8 -5 -3 -8 4 -26 -6 -48
-26 -27 -26 -33 -29 -24 -11 6 12 15 22 19 22 4 0 23 15 42 33 39 38 117 84
126 75 3 -4 -11 -14 -30 -23 -20 -10 -39 -21 -42 -26 -6 -11 52 -148 73 -171
9 -10 12 -18 8 -18 -5 0 -4 -5 3 -12 7 -7 12 -22 12 -34 0 -14 8 -25 20 -29
11 -4 18 -11 15 -16 -8 -12 2 -12 24 1 11 5 27 36 37 69 13 46 21 58 30 50 8
-6 14 -7 18 0 4 5 2 12 -4 16 -5 3 -10 15 -10 26 0 11 -4 17 -10 14 -5 -3 -10
-1 -10 4 0 6 11 11 24 11 16 0 26 7 29 22 8 31 -4 45 -19 23 -8 -10 -16 -16
-19 -13 -3 3 2 13 11 23 17 16 17 18 1 30 -25 18 -21 28 8 22 18 -3 29 1 36
14 5 11 17 19 26 19 9 0 13 3 10 7 -12 11 14 33 39 33 12 0 30 -10 38 -22z
m606 -49 c0 -7 8 -9 23 -4 30 9 90 6 101 -5 6 -6 21 -10 35 -10 23 0 23 -1 8
-18 -25 -28 -20 -33 13 -14 30 16 32 16 45 -2 8 -11 18 -16 22 -11 5 4 2 10
-4 12 -18 6 -16 23 2 23 8 0 15 -9 15 -21 0 -11 5 -17 10 -14 6 4 8 9 6 13 -2
4 13 8 35 9 21 1 41 -2 44 -8 5 -6 11 -7 18 0 17 13 66 9 72 -7 2 -7 -4 -18
-15 -24 -11 -7 -20 -16 -20 -21 0 -4 5 -5 11 -1 12 7 11 0 -6 -81 -5 -23 -4
-26 4 -15 6 8 11 11 11 6 0 -5 8 -2 18 6 9 8 28 18 40 21 23 6 24 5 5 -16 -35
-41 -41 -46 -47 -40 -3 4 -15 -3 -26 -15 -12 -12 -24 -22 -28 -22 -4 0 -15
-12 -25 -25 l-18 -25 47 25 c26 14 52 25 59 25 6 0 18 11 25 25 7 13 17 22 22
19 5 -3 7 0 6 7 -2 6 2 13 9 16 8 3 9 -4 5 -19 -5 -21 -4 -22 11 -9 9 7 17 11
17 7 0 -16 -59 -133 -76 -151 -11 -11 -26 -29 -34 -40 -13 -16 -10 -16 18 4
17 12 32 25 32 29 1 4 15 23 32 42 17 19 28 29 24 23 -5 -9 0 -13 12 -13 13 0
19 6 18 17 -2 26 46 46 78 32 24 -11 25 -13 11 -45 -12 -30 -12 -34 1 -34 7 0
14 7 14 16 0 9 5 12 12 8 8 -5 9 0 6 14 -4 12 -3 22 2 22 4 0 10 -9 13 -20 3
-11 1 -20 -4 -20 -5 0 -9 -7 -9 -16 0 -8 -4 -13 -9 -10 -5 3 -9 -4 -8 -17 0
-12 -3 -42 -7 -66 -6 -32 -5 -42 4 -36 6 4 9 13 6 20 -3 8 2 19 10 25 8 7 14
21 14 30 0 26 11 50 22 50 5 0 6 -5 3 -10 -3 -6 0 -13 8 -16 14 -5 17 -60 4
-80 -3 -5 -2 -25 2 -44 l7 -35 12 48 c8 30 18 47 28 47 8 0 12 5 9 10 -3 6 -4
10 0 10 3 0 10 -11 15 -25 9 -23 25 -30 59 -25 20 2 31 -19 31 -64 0 -39 38
-136 54 -136 4 0 5 8 1 18 -13 35 -45 207 -41 219 3 7 15 13 26 13 12 0 20 7
21 18 0 9 3 26 5 37 2 11 5 29 6 40 1 11 7 24 13 28 6 5 3 7 -8 3 -11 -3 -20
0 -24 10 -3 8 -11 13 -19 10 -7 -3 -15 0 -17 7 -3 9 -8 9 -18 0 -15 -15 -59
-17 -59 -4 0 9 27 41 35 41 17 0 154 -79 185 -106 46 -42 100 -149 99 -197 -1
-39 -22 -102 -35 -102 -23 -1 -52 -27 -59 -52 -4 -19 -9 -23 -15 -14 -8 15
-30 7 -30 -11 0 -11 -29 -37 -41 -38 -4 0 -10 16 -13 36 -6 29 -10 33 -21 24
-11 -9 -20 -7 -42 9 -15 11 -62 33 -103 47 -72 26 -85 27 -300 30 -124 1 -276
5 -337 9 -92 5 -112 4 -108 -7 5 -14 -42 -41 -56 -32 -5 3 -9 0 -9 -7 0 -8 -6
-7 -18 4 -17 15 -24 14 -97 -13 -44 -17 -87 -30 -94 -30 -21 0 42 63 85 86 19
10 34 25 34 32 0 7 8 12 18 10 9 -1 22 1 28 4 6 4 35 8 65 10 30 1 57 6 60 10
3 5 25 5 50 0 52 -9 89 -5 89 10 0 6 -10 8 -22 5 -13 -4 -40 -2 -62 3 -24 5
-49 5 -65 -1 -17 -7 -27 -7 -29 0 -2 5 -10 7 -18 4 -11 -4 -12 -8 -4 -13 7 -4
-14 -7 -47 -7 -57 -1 -57 0 -28 13 23 10 25 13 10 14 -16 0 -13 4 13 20 l33
20 -24 33 c-24 31 -26 57 -6 57 6 0 7 -5 3 -12 -4 -6 -3 -8 4 -5 20 13 2 44
-24 41 -15 -1 -28 4 -31 12 -3 8 -9 14 -14 14 -5 0 -2 -11 6 -24 20 -31 26
-64 13 -72 -14 -9 -26 14 -21 40 4 21 4 21 -13 -1 -21 -30 -40 -30 -20 -1 9
12 16 32 16 43 0 12 4 25 9 31 4 5 14 30 20 55 12 43 11 51 -12 100 -41 87
-39 120 6 143 37 18 87 21 87 5z m-2174 -109 c3 -8 5 -16 4 -18 0 -1 5 -9 12
-16 11 -12 17 -9 38 14 l25 27 20 -20 c11 -11 14 -16 6 -12 -9 5 -12 4 -8 -2
4 -6 22 -9 41 -8 22 1 37 -4 41 -12 2 -8 10 -11 16 -8 7 5 10 -1 8 -17 -2 -14
3 -31 11 -39 16 -16 60 -20 60 -7 0 4 4 8 10 8 5 0 7 -6 4 -14 -3 -8 -1 -17 5
-21 6 -3 11 -12 11 -18 -1 -7 -5 -6 -13 4 -18 23 -47 31 -47 13 0 -8 4 -13 9
-9 6 3 15 -3 21 -14 7 -14 16 -18 28 -14 15 6 15 5 3 -10 -7 -9 -19 -17 -25
-17 -7 0 -21 -8 -32 -19 -30 -27 -55 -37 -97 -40 -25 -1 -36 2 -32 9 4 7 -2 7
-21 0 -31 -12 -84 -4 -84 12 0 6 12 8 28 4 27 -5 27 -5 -3 9 -16 8 -37 12 -45
10 -8 -3 -35 2 -60 10 l-45 14 40 1 c40 1 130 17 109 19 -5 0 -11 19 -11 42 0
22 -6 45 -12 50 -6 5 -9 6 -7 3 3 -3 -1 -12 -7 -19 -10 -10 -15 -9 -25 6 -7
11 -16 32 -18 46 -3 15 -10 33 -16 41 -9 10 -8 16 2 22 20 12 30 3 30 -26 0
-15 4 -23 10 -19 6 4 8 23 5 43 -5 34 -1 32 11 -8z m-1079 -162 c37 -36 42
-52 13 -43 -14 4 -20 2 -20 -8 0 -10 -7 -13 -18 -10 -10 2 -26 -5 -36 -16 -23
-25 -78 -28 -96 -6 -24 29 -4 59 57 87 32 14 60 26 63 27 2 1 19 -13 37 -31z
m333 2 c30 -6 62 -18 72 -27 17 -15 19 -15 38 2 21 19 60 22 118 10 21 -5 32
-3 32 4 0 17 42 13 73 -8 21 -13 25 -20 14 -24 -8 -3 -17 -26 -21 -56 -6 -47
-8 -50 -29 -42 -13 5 -43 5 -67 1 -24 -4 -59 -6 -77 -3 -30 5 -34 3 -44 -26
-13 -36 -43 -42 -59 -11 -18 34 -1 66 33 61 4 0 7 6 7 15 0 13 -7 15 -37 10
-54 -9 -153 30 -153 59 0 15 26 45 39 45 5 0 32 -5 61 -10z m2535 -315 c22
-14 34 -25 28 -25 -14 0 -18 -32 -6 -43 3 -4 12 -2 20 4 8 8 13 8 13 1 0 -6
-5 -12 -12 -14 -8 -3 -6 -13 6 -34 17 -29 18 -34 1 -89 -9 -32 -19 -77 -21
-99 -6 -50 -9 -53 -24 -26 -8 16 -8 25 0 35 9 11 7 12 -9 8 -14 -3 -30 3 -46
18 -26 25 -35 50 -11 29 12 -9 15 -8 13 9 0 11 -5 17 -9 15 -11 -7 -10 4 4 29
15 29 19 79 6 94 -5 7 -7 17 -4 22 4 5 2 12 -4 16 -14 8 -13 45 1 45 8 0 8 5
-1 15 -20 24 8 19 55 -10z m605 -38 c20 -10 158 -15 180 -7 6 3 2 3 80 -5 36
-4 73 -8 83 -10 10 -1 22 -7 27 -15 4 -7 15 -10 23 -7 21 8 97 -13 129 -35 14
-10 42 -18 61 -18 20 0 37 -5 39 -10 2 -6 20 -13 42 -15 21 -3 43 -8 48 -11 6
-4 13 -2 17 4 4 6 13 -32 20 -85 10 -79 10 -97 -1 -104 -10 -7 -9 -9 3 -9 10
0 20 -11 23 -27 4 -16 9 -36 12 -45 4 -14 0 -18 -18 -18 -19 0 -20 -2 -8 -10
13 -9 13 -11 0 -20 -11 -7 -17 -4 -22 9 -4 12 -21 21 -48 26 -36 6 -39 9 -28
23 10 12 10 14 1 8 -8 -4 -13 -1 -13 8 0 9 -4 16 -10 16 -5 0 -10 -6 -10 -14
0 -9 -7 -12 -20 -9 -11 3 -20 9 -20 14 0 5 -16 9 -35 9 -19 0 -44 4 -57 9 -13
5 -32 12 -43 16 -16 5 -17 8 -5 15 12 8 10 10 -8 10 -12 0 -21 -5 -20 -11 2
-6 -3 -14 -10 -16 -7 -3 -10 1 -6 10 4 11 -1 13 -20 10 -15 -3 -29 -15 -35
-32 -10 -25 -10 -24 -5 7 5 30 3 34 -30 47 -43 18 -85 20 -69 4 12 -12 7 -39
-7 -39 -5 0 -12 14 -15 32 -7 32 -39 67 -62 68 -13 0 -56 -66 -56 -86 0 -8 -4
-14 -9 -14 -14 0 -9 21 13 56 l20 33 -20 46 c-13 29 -30 49 -48 57 -51 22
-113 71 -113 90 0 10 -5 18 -11 18 -16 0 -69 -47 -61 -54 3 -4 -2 -4 -12 0
-17 7 -18 4 -13 -24 5 -26 2 -35 -20 -52 -14 -11 -31 -20 -37 -20 -6 0 -3 7 8
15 21 16 13 37 -12 29 -10 -4 -13 -3 -6 3 6 4 14 17 18 28 l8 20 8 -20 c7 -18
8 -18 15 7 4 15 22 37 39 48 18 10 41 28 51 40 21 23 40 25 75 7z m-4066 -294
c-1 -35 3 -43 18 -43 10 0 18 6 18 13 0 6 12 17 26 24 32 15 69 0 60 -24 -3
-8 -6 -21 -6 -29 0 -8 -10 -14 -26 -14 -21 0 -24 -3 -15 -13 8 -11 4 -13 -21
-9 -19 3 -32 12 -35 23 -7 25 -20 24 -28 0 -4 -13 -12 -18 -23 -15 -15 5 -15
4 -2 -5 13 -9 13 -12 1 -20 -11 -7 -11 -10 3 -18 14 -8 12 -12 -14 -31 -24
-18 -34 -21 -51 -12 -11 6 -25 9 -32 7 -17 -6 -67 21 -67 36 0 20 14 35 43 46
26 10 27 12 13 27 -27 26 -20 58 17 76 39 20 64 27 97 25 23 -2 25 -6 24 -44z
m1651 -193 c4 -6 10 -8 15 -5 5 3 22 -9 38 -26 30 -32 52 -32 52 -1 -1 15 -2
15 -14 -1 -13 -17 -15 -17 -30 5 -15 21 -15 23 3 30 12 4 33 1 52 -9 24 -12
33 -13 39 -3 4 7 13 9 19 6 6 -4 8 -12 5 -18 -4 -6 -8 -27 -9 -48 -3 -32 0
-38 13 -33 9 4 13 2 9 -4 -9 -15 35 -4 45 11 5 7 8 4 8 -7 0 -10 4 -16 9 -13
5 3 20 -3 32 -14 13 -11 19 -19 12 -20 -6 0 -13 5 -15 11 -3 8 -10 5 -21 -6
-16 -15 -16 -20 -3 -40 l15 -22 -65 5 c-73 5 -83 -2 -24 -18 28 -8 38 -15 33
-25 -3 -9 0 -22 7 -30 15 -18 7 -19 -21 -2 -17 10 -23 10 -26 0 -3 -7 -12 -13
-20 -13 -25 0 -81 -39 -88 -60 -4 -14 -15 -20 -35 -20 -23 0 -28 -3 -23 -17 5
-12 2 -15 -10 -10 -13 5 -17 1 -18 -16 -1 -19 -2 -18 -14 8 -7 17 -10 34 -7
40 3 5 5 24 4 42 -2 27 0 32 15 26 15 -5 15 -3 -2 10 -11 8 -17 19 -12 23 4 4
7 1 7 -7 0 -11 2 -11 10 1 13 21 12 30 -4 30 -8 0 -19 22 -27 58 -19 78 -15
98 22 106 23 4 29 11 29 31 0 18 -7 26 -25 31 -14 3 -22 10 -19 15 7 12 31 11
39 -1z m1411 -19 c8 -11 39 -14 125 -14 162 0 191 2 186 11 -3 4 65 7 151 6
159 0 252 -15 252 -40 0 -6 14 -17 30 -24 28 -11 30 -16 24 -46 -5 -26 -2 -35
9 -40 13 -5 14 -10 5 -24 -9 -14 -8 -24 5 -44 21 -31 21 -50 2 -66 -8 -7 -15
-20 -15 -29 0 -9 -9 -34 -20 -55 -10 -22 -17 -43 -14 -47 3 -5 0 -9 -5 -9 -6
0 -11 5 -11 10 0 6 -8 5 -19 -2 -11 -7 -17 -16 -15 -20 3 -4 0 -8 -5 -8 -6 0
-11 -17 -11 -39 0 -22 -6 -44 -15 -51 -14 -11 -12 -17 17 -42 l33 -29 -38 27
c-34 24 -36 28 -22 44 8 9 15 20 15 23 0 12 -28 8 -36 -5 -5 -7 -2 -8 7 -3 10
6 11 5 3 -4 -6 -6 -18 -9 -27 -5 -19 7 -23 29 -7 39 6 3 10 1 10 -5 0 -6 5 -8
12 -4 9 6 9 9 0 12 -7 2 -10 14 -6 30 6 26 6 26 -9 8 -13 -18 -14 -15 -11 35
2 30 1 48 -2 42 -8 -18 -24 -16 -24 2 0 8 9 15 20 15 11 0 20 4 20 10 0 5 -7
7 -15 3 -13 -4 -15 1 -10 27 3 18 2 29 -4 26 -5 -4 -14 6 -20 21 -8 20 -10 21
-7 6 5 -26 -15 -46 -36 -38 -9 4 -22 -1 -31 -9 -13 -14 -16 -12 -21 19 -4 19
-12 38 -19 42 -7 5 -17 22 -23 38 -6 17 -16 29 -22 27 -7 -1 -12 10 -12 28 0
22 5 30 18 30 10 0 22 4 28 8 17 15 98 35 139 34 32 -1 37 1 22 9 -26 15 -273
22 -393 11 -72 -6 -123 -5 -175 3 -78 13 -169 47 -169 64 0 16 123 8 136 -8z
m-645 -68 c15 -17 30 -44 34 -60 8 -34 75 -115 75 -90 0 28 22 19 72 -30 39
-38 48 -43 48 -28 1 16 4 15 16 -9 11 -20 13 -31 5 -39 -16 -16 -13 -27 7 -27
10 0 23 -5 30 -12 7 -7 12 -8 12 -2 1 5 7 -4 14 -21 10 -22 10 -34 2 -44 -8
-11 -8 -13 2 -7 14 8 17 -15 3 -30 -6 -5 -4 -14 4 -21 11 -10 15 -6 24 17 5
17 12 30 15 30 3 0 3 -7 0 -15 -4 -8 -1 -15 4 -15 6 0 24 -12 39 -26 26 -24
27 -27 10 -38 -9 -7 -17 -18 -17 -25 0 -19 -31 -12 -49 10 -16 20 -18 20 -33
5 -19 -19 -35 -21 -40 -4 -2 6 -10 8 -17 4 -7 -5 -9 -12 -3 -19 5 -7 9 -23 10
-37 l1 -25 -13 23 c-6 12 -16 19 -20 15 -4 -4 -6 -1 -4 7 1 8 -4 14 -12 15
-19 0 -42 47 -30 59 15 15 12 23 -10 29 -24 6 -24 6 -5 -58 13 -43 13 -47 0
-31 -12 16 -22 18 -61 12 -40 -5 -45 -4 -35 8 9 11 9 20 2 34 -6 11 -7 23 -3
27 4 5 1 5 -6 0 -9 -4 -12 -18 -9 -33 5 -24 4 -25 -8 -9 -7 10 -16 14 -19 8
-3 -5 1 -17 10 -25 14 -15 14 -16 -3 -17 -153 -7 -213 -11 -247 -19 -23 -5
-42 -5 -44 0 -2 4 -17 4 -35 -1 -41 -12 -57 -11 -57 1 0 14 63 28 198 41 67 6
122 15 122 19 0 10 -30 21 -40 15 -15 -9 -19 50 -4 61 18 14 18 21 -1 21 -8 0
-15 -4 -15 -8 0 -17 -33 -39 -59 -39 -24 0 -28 4 -29 30 -1 37 39 70 62 51 10
-8 20 -8 39 2 23 12 24 15 11 38 -7 13 -13 29 -13 34 -1 6 9 -8 22 -29 22 -40
56 -65 44 -32 -5 13 0 16 24 16 28 0 29 2 18 23 -7 12 -18 26 -26 30 -7 5 -11
12 -8 18 4 5 -1 9 -9 9 -9 0 -16 -5 -16 -11 0 -23 -28 12 -50 62 -30 70 -18
74 13 5 26 -57 44 -75 32 -33 -6 21 -6 21 9 3 9 -11 16 -15 16 -8 0 6 -11 22
-24 35 -22 22 -24 30 -19 87 5 50 3 61 -7 55 -9 -5 -11 -4 -6 3 4 7 14 12 22
12 19 0 18 7 -6 37 -11 14 -20 31 -20 37 0 6 8 -1 17 -14 9 -14 29 -39 44 -57z
m1677 -29 c176 -60 389 -171 368 -191 -2 -2 -48 18 -102 46 -222 111 -270 131
-362 149 -91 18 -93 18 -89 0 3 -10 2 -20 -3 -23 -4 -2 -10 8 -13 23 -3 15 -8
34 -12 44 -6 14 -2 15 37 7 24 -6 103 -30 176 -55z m-2858 16 c5 0 11 6 13 13
4 9 8 9 15 -1 7 -11 10 -9 15 7 6 25 15 26 42 5 16 -12 18 -18 7 -34 -14 -23
-16 -33 -3 -26 5 3 19 -2 31 -12 l22 -18 -28 -27 c-16 -16 -21 -27 -13 -27 18
0 -6 -24 -46 -44 -28 -15 -28 -16 -7 -16 34 0 17 -18 -23 -26 -20 -3 -38 -10
-41 -15 -8 -14 46 -22 69 -10 23 12 50 16 82 12 l20 -2 -20 -9 c-11 -4 -31 -6
-45 -3 l-25 5 22 -23 c14 -15 34 -23 57 -23 20 -1 36 -3 36 -6 -1 -19 -20 -28
-53 -25 -27 2 -37 -1 -37 -11 0 -8 9 -14 20 -14 11 0 20 -4 20 -10 0 -5 7 -7
15 -4 11 5 13 2 9 -10 -3 -8 -9 -15 -12 -14 -4 1 -14 -1 -22 -5 -8 -3 -28 -8
-45 -12 -27 -6 -28 -8 -12 -19 21 -16 21 -22 3 -29 -11 -4 -13 -1 -9 10 5 13
2 15 -13 9 -10 -5 -39 -14 -64 -21 -28 -8 -36 -14 -22 -14 18 -1 22 -6 18 -26
-3 -14 1 -28 8 -32 7 -5 16 -21 20 -38 4 -18 3 -25 -2 -17 -6 10 -13 8 -27 -8
-36 -40 -13 -126 32 -118 15 2 18 -4 18 -39 0 -36 -3 -43 -20 -43 -19 -1 -19
-1 -2 -11 13 -7 17 -18 13 -33 -17 -70 81 -52 169 31 39 37 90 71 112 75 10 2
20 6 23 9 3 3 19 14 35 23 17 10 22 15 13 12 -10 -3 -18 -4 -18 -2 0 4 104 68
140 86 l25 13 -19 -22 c-11 -11 -21 -19 -24 -16 -8 7 -62 -35 -61 -48 0 -9 2
-8 6 1 2 6 11 12 19 12 8 0 14 5 14 10 0 6 6 10 14 10 7 0 25 10 40 21 15 12
30 19 33 15 4 -3 17 1 30 9 13 9 23 13 23 10 0 -3 17 2 38 11 99 43 135 52
149 39 7 -8 13 -16 13 -19 0 -7 -70 -29 -100 -31 -50 -4 -51 -5 -45 -24 3 -11
1 -22 -5 -26 -5 -3 -10 -1 -10 5 0 8 -7 9 -17 5 -10 -4 -31 -9 -48 -10 -51 -3
-55 -5 -49 -18 5 -15 -21 -38 -107 -95 -181 -119 -329 -229 -329 -243 0 -5 7
-9 15 -9 19 0 55 -31 55 -47 0 -28 79 -47 112 -26 23 14 23 14 -1 -6 -13 -12
-35 -24 -50 -28 -37 -8 -49 -20 -71 -71 -24 -54 -24 -52 -1 -52 24 0 37 -18
23 -32 -16 -16 -82 58 -121 135 -24 46 -25 47 -34 25 -4 -13 -7 -38 -5 -55 2
-18 1 -33 -3 -33 -4 0 -14 -3 -23 -6 -12 -5 -14 3 -9 45 3 33 1 51 -5 51 -6 0
-2 19 9 45 11 25 17 50 14 55 -3 5 -1 18 5 27 11 17 11 17 6 -1 -6 -16 -4 -17
9 -6 9 7 13 20 10 28 -4 10 0 12 10 8 9 -3 13 -2 10 4 -3 5 18 22 46 37 95 51
101 55 95 60 -6 6 -103 -47 -163 -90 -24 -17 -43 -39 -43 -49 0 -10 -5 -18
-11 -18 -5 0 -8 4 -4 9 3 6 -9 24 -26 42 -20 20 -29 38 -26 50 4 14 0 19 -15
19 -10 0 -16 5 -13 10 4 6 11 7 17 4 6 -4 8 1 5 12 -4 11 -9 33 -13 49 -4 17
-10 35 -15 40 -26 35 -80 420 -64 467 2 7 6 45 9 83 6 73 10 94 29 160 14 49
21 55 72 55 22 0 47 5 55 10 11 7 16 5 18 -10 2 -11 7 -20 12 -20z m687 -785
c19 13 22 11 54 -35 28 -41 38 -48 56 -44 19 5 23 2 23 -16 0 -12 -9 -33 -20
-47 -11 -14 -20 -34 -20 -43 0 -10 -7 -21 -15 -24 -24 -9 -46 -68 -32 -84 9
-11 2 -21 -28 -48 -22 -19 -44 -34 -50 -34 -5 0 -28 -20 -52 -45 -23 -25 -46
-45 -52 -45 -14 0 -51 -37 -51 -51 0 -5 -4 -7 -10 -4 -5 3 -10 -1 -10 -9 0 -9
-9 -16 -20 -16 -14 0 -18 5 -14 18 5 16 5 16 -6 0 -7 -12 -23 -18 -48 -18
l-37 1 26 23 c19 16 24 27 18 37 -6 10 -9 10 -9 2 0 -7 -5 -13 -10 -13 -6 0
-10 8 -8 18 2 10 -3 17 -12 17 -9 0 -15 -11 -17 -29 -1 -16 -4 -35 -7 -41 -6
-16 -55 -25 -62 -13 -4 6 -10 5 -15 -3 -6 -11 -11 -11 -20 -2 -6 6 -18 9 -25
6 -16 -6 -39 39 -31 60 4 10 14 13 33 9 20 -4 31 1 45 19 22 29 25 69 5 69 -8
0 -26 4 -40 9 -18 7 -23 15 -19 30 5 19 64 64 88 67 6 1 14 2 19 3 6 0 2 7 -8
14 -17 13 -17 14 0 28 12 9 15 10 10 1 -4 -7 9 -3 29 8 19 11 38 20 40 20 11
0 4 -20 -12 -35 -13 -14 -14 -18 -3 -25 10 -6 7 -10 -12 -15 -15 -4 -29 -14
-33 -23 -5 -14 -7 -14 -15 -2 -11 18 -22 8 -14 -13 4 -12 11 -14 31 -6 37 14
41 11 13 -12 l-25 -21 30 6 30 5 -29 -13 c-21 -10 -25 -15 -15 -20 8 -3 4 -4
-8 -2 -20 3 -21 1 -12 -15 7 -13 6 -25 -1 -40 -6 -11 -9 -25 -6 -32 2 -7 5 -5
5 4 1 10 13 20 28 24 37 9 53 23 53 46 0 15 7 19 31 19 18 0 28 4 24 10 -3 6
1 13 9 16 9 3 14 9 11 14 -2 4 8 13 23 20 15 7 22 15 15 17 -10 4 -10 7 0 18
7 7 15 11 19 9 3 -2 4 5 1 15 -3 14 0 19 13 18 10 -1 19 4 20 11 1 6 2 17 3
24 0 6 4 9 7 5 11 -10 66 41 59 54 -4 5 -1 9 4 9 6 0 11 11 11 23 0 31 10 40
28 25 12 -10 14 -9 11 7 -2 11 -14 24 -27 30 -12 5 -22 18 -22 28 0 11 5 15
11 11 8 -4 9 1 5 17 l-7 24 13 -22 c12 -21 16 -22 35 -8z m2493 -240 c1 6 7
-3 14 -20 11 -23 13 -89 11 -290 -1 -159 2 -265 8 -272 12 -16 -6 -17 -33 -3
-15 8 -18 22 -18 74 0 98 -15 383 -20 361 -2 -11 -8 -25 -12 -30 -5 -6 -5 -30
0 -55 7 -39 7 -78 1 -218 -1 -14 -5 -20 -12 -17 -6 5 -10 40 -8 94 1 47 -3
126 -10 174 -6 49 -9 96 -7 105 3 10 7 38 7 65 2 44 3 46 20 31 16 -14 18 -14
24 6 6 20 7 21 21 3 7 -10 14 -13 14 -8z m-2141 3 c-7 -58 -1 -66 79 -104 196
-94 341 -196 328 -231 -3 -7 -1 -15 4 -18 6 -4 10 -11 10 -17 0 -11 -3 -9 -92
58 -30 23 -111 69 -180 102 -102 49 -129 67 -147 96 -12 20 -20 40 -17 44 3 5
-3 18 -14 30 -11 12 -17 28 -14 36 7 19 46 22 43 4z m-70 -61 c54 -28 90 -117
54 -135 -10 -5 -23 -7 -29 -5 -6 2 -22 -9 -35 -25 -14 -15 -30 -31 -36 -35
-21 -13 -87 12 -107 39 -28 39 -31 104 -7 132 34 39 113 53 160 29z m2350
-373 c-18 -164 -18 -194 2 -194 22 0 30 32 18 74 -5 20 -6 50 -1 72 l9 39 8
-30 c4 -16 16 -57 27 -91 l19 -61 59 -2 c33 -1 69 3 79 8 25 14 31 5 17 -24
-12 -27 -42 -35 -125 -35 -43 0 -68 7 -110 30 -30 17 -60 30 -68 30 -7 0 -13
5 -13 11 0 5 5 7 10 4 6 -4 11 14 11 47 2 52 2 52 8 13 l7 -40 5 48 c2 26 1
47 -3 47 -5 0 -8 15 -7 33 1 30 2 30 8 7 6 -20 9 -13 13 33 6 51 24 95 35 84
2 -2 -2 -49 -8 -103z m-1535 -590 c14 -25 28 -61 32 -79 7 -40 29 -73 40 -62
4 4 2 13 -4 19 -24 24 -12 29 48 19 3 -1 0 -5 -6 -9 -8 -5 -9 -20 -4 -47 4
-22 8 -32 9 -22 2 29 29 19 36 -13 4 -16 11 -30 16 -30 5 0 9 -10 9 -22 0 -15
-3 -19 -8 -11 -4 7 -13 9 -21 4 -10 -7 -9 -12 7 -23 20 -13 24 -39 9 -54 -12
-12 -8 -36 4 -28 8 5 10 -3 7 -25 -2 -17 -1 -31 4 -31 4 0 8 -5 8 -11 0 -6 -6
-9 -14 -6 -22 9 -28 -5 -8 -19 10 -8 12 -13 5 -14 -7 0 -13 -5 -13 -11 0 -5 5
-7 12 -3 6 4 4 -3 -5 -17 -27 -38 -22 -59 13 -59 17 0 30 5 30 11 0 6 7 9 15
6 8 -4 17 -2 20 3 10 16 23 11 20 -7 -13 -66 -16 -73 -33 -73 -10 0 -23 -5
-29 -11 -16 -16 -63 -17 -95 -2 -32 16 -52 17 -43 3 3 -5 -1 -10 -10 -10 -9 0
-13 5 -10 10 4 6 -7 13 -24 16 -17 4 -28 10 -25 15 8 13 -10 11 -24 -3 -6 -6
-15 -8 -19 -4 -4 4 -1 11 7 16 15 10 0 18 -135 71 -54 21 -97 31 -132 31 -29
0 -55 4 -59 9 -3 6 5 7 20 3 42 -10 30 5 -20 26 -49 21 -68 26 -44 10 13 -8
13 -10 -1 -10 -9 0 -20 7 -23 16 -4 10 -13 13 -27 9 -14 -5 -19 -3 -15 4 4 6
-5 13 -21 16 -15 4 -46 13 -68 21 -23 8 -56 14 -75 14 -24 0 -31 3 -21 9 18
12 -97 52 -174 60 -60 7 -60 7 -32 21 38 19 168 0 291 -41 48 -17 95 -28 103
-25 8 3 12 2 9 -3 -6 -9 7 -15 126 -56 43 -15 83 -23 89 -19 7 4 9 3 6 -3 -6
-10 163 -73 196 -73 13 0 17 9 19 38 4 86 -5 170 -23 210 -18 42 -18 43 1 75
35 57 19 165 -30 198 -20 13 -19 14 19 16 37 2 41 0 65 -43z m-1059 -244 c28
0 40 -26 17 -35 -44 -18 -328 9 -354 34 -13 12 151 16 251 6 33 -3 50 -1 46 5
-3 6 -3 16 2 23 6 8 9 5 11 -10 2 -16 10 -23 27 -23z m15 -440 c6 0 8 6 4 13
-4 6 5 1 20 -13 30 -27 61 -79 52 -87 -11 -11 -37 8 -57 42 -12 19 -25 35 -31
35 -5 0 0 -12 11 -26 26 -33 26 -44 2 -44 -13 0 -20 -9 -23 -30 -2 -16 0 -31
6 -34 8 -2 7 -7 -1 -16 -9 -10 -20 -5 -52 21 -47 37 -55 77 -21 106 11 10 20
23 20 30 0 6 5 15 12 19 7 5 9 2 4 -7 -4 -8 1 -3 10 10 18 23 18 23 26 2 4
-12 12 -21 18 -21z m1088 0 c18 -11 30 -25 27 -30 -3 -6 -3 -10 2 -10 4 0 15
-5 23 -10 13 -8 12 -11 -5 -25 -19 -16 -19 -16 -1 -10 21 6 37 -11 29 -32 -3
-7 -13 -13 -22 -14 -12 0 -12 -2 4 -9 18 -7 15 -10 -22 -27 -36 -15 -44 -24
-49 -53 -4 -19 -18 -55 -31 -79 -12 -24 -23 -50 -23 -57 0 -7 -5 -16 -11 -20
-7 -4 -9 0 -6 12 3 11 9 46 12 79 4 32 9 63 12 68 3 5 5 60 4 123 -2 126 0
128 57 94z m634 -196 c16 -20 23 -23 30 -12 6 9 7 5 3 -11 -5 -16 -4 -21 4
-17 7 5 19 -11 32 -41 12 -26 23 -43 26 -36 2 6 -5 30 -16 52 -22 42 -27 71
-13 71 8 0 44 -73 55 -110 3 -11 8 -8 15 10 10 23 11 21 12 -20 1 -59 9 -90
25 -90 17 0 76 -151 81 -205 4 -39 3 -39 -5 -7 -5 18 -18 43 -30 56 -11 12
-21 28 -21 34 0 7 -11 17 -23 23 -29 13 -72 95 -54 102 17 6 4 18 -22 20 -11
1 -20 6 -19 12 4 19 -15 60 -33 73 -11 7 -19 19 -19 26 0 22 -49 68 -66 62
-12 -4 -12 -2 -4 14 14 26 18 25 42 -6z m-734 -57 c14 -17 -1 -188 -19 -214
-8 -11 -21 -19 -29 -17 -75 15 -93 16 -87 7 4 -6 0 -16 -8 -23 -8 -7 -15 -20
-15 -30 0 -10 -10 -20 -22 -23 -22 -6 -158 18 -188 32 -8 4 -60 16 -115 25
-55 10 -107 21 -115 26 -8 4 -31 6 -50 4 -33 -3 -34 -3 -5 4 20 5 26 10 18 15
-7 5 -17 6 -22 3 -5 -4 -17 -3 -26 0 -13 5 -14 8 -3 15 9 6 9 9 1 9 -6 0 -15
-4 -18 -10 -3 -5 -14 -10 -23 -9 -15 0 -15 1 1 8 28 11 6 24 -93 56 -47 15
-93 34 -102 42 -15 13 -16 13 -11 -6 5 -20 3 -21 -21 -11 -15 5 -35 10 -44 10
-15 0 -15 -2 -2 -10 9 -6 10 -10 3 -10 -6 0 -15 5 -19 11 -3 6 -26 19 -50 29
-40 17 -60 48 -34 51 25 3 46 2 60 -4 8 -3 60 -18 115 -33 55 -15 103 -31 106
-37 4 -5 19 -7 33 -3 14 3 26 2 26 -3 0 -10 79 -33 114 -33 14 0 24 -5 23 -11
-1 -5 7 -11 18 -13 38 -6 140 -30 155 -36 8 -4 26 -9 40 -12 84 -17 150 -38
187 -57 47 -26 66 -20 38 11 -17 19 -17 21 0 40 12 13 22 17 29 11 8 -7 12 -4
12 9 0 10 -3 17 -6 15 -3 -2 -7 5 -7 16 -2 26 5 24 38 -10 15 -17 29 -25 32
-18 2 6 -8 21 -22 33 -27 23 -23 46 4 24 18 -15 21 0 3 18 -9 9 -5 17 16 37
15 14 22 25 16 25 -6 0 -8 5 -5 10 3 6 17 10 30 10 13 0 27 5 30 10 3 6 1 10
-4 10 -6 0 -11 5 -11 10 0 14 15 12 28 -3z m682 -154 c8 -4 18 -5 23 -5 4 1 7
-2 7 -6 0 -5 16 -14 35 -22 36 -14 47 -30 20 -30 -8 0 -15 -7 -15 -15 0 -8 9
-15 20 -15 11 0 20 7 20 15 0 12 4 13 25 3 30 -14 28 -34 -3 -30 -12 2 -22 -2
-22 -8 0 -6 4 -8 10 -5 6 3 7 -1 4 -9 -9 -22 22 -21 35 2 10 16 10 16 11 0 0
-10 6 -18 14 -18 8 0 17 8 19 18 2 9 2 -1 -1 -22 -2 -22 -11 -46 -18 -54 -19
-18 -18 -32 4 -32 12 0 14 -2 4 -8 -13 -9 -6 -42 9 -42 5 0 9 -4 9 -10 0 -5
-7 -7 -15 -4 -20 8 -19 -6 2 -21 14 -10 11 -12 -15 -10 -18 1 -32 -2 -32 -6 0
-17 13 -39 20 -34 5 3 11 1 15 -5 3 -5 -6 -12 -20 -16 -14 -3 -25 -12 -25 -19
0 -7 -5 -15 -12 -17 -9 -3 -9 -12 1 -36 13 -31 31 -43 31 -22 0 6 6 5 14 -2
13 -11 12 -15 -7 -30 -12 -10 -28 -16 -34 -13 -15 5 -17 -11 -3 -20 16 -10 12
-62 -5 -69 -8 -3 -15 -13 -15 -23 0 -14 2 -15 9 -4 5 7 15 11 22 9 8 -3 0 -10
-19 -19 -31 -13 -42 -41 -22 -54 6 -4 4 -16 -6 -31 -10 -15 -12 -24 -5 -24 7
0 9 -10 5 -26 -5 -18 -3 -25 4 -20 7 4 10 -5 8 -26 -2 -18 2 -36 8 -40 5 -4
10 -23 10 -42 0 -20 3 -36 7 -36 3 0 4 -11 2 -24 -4 -21 -2 -24 16 -19 16 4
21 1 21 -15 0 -11 -7 -22 -15 -26 -8 -3 -15 -10 -15 -17 0 -6 7 -9 15 -5 13 4
13 2 5 -14 -13 -23 -13 -43 -1 -35 6 3 7 -6 2 -22 -11 -38 -71 -149 -71 -132
0 8 8 26 17 39 10 14 16 25 14 25 -2 0 0 25 4 56 6 46 4 62 -11 85 -24 38 -47
55 -55 42 -4 -6 -21 -5 -49 3 -34 10 -45 10 -48 1 -3 -9 -8 -8 -19 3 -16 17
-37 10 -29 -10 5 -14 -32 -54 -42 -45 -3 3 -7 -5 -9 -18 -4 -29 -21 -62 -32
-62 -5 0 -11 21 -15 46 -3 26 -10 52 -14 58 -13 17 -35 116 -28 123 3 4 13 -2
20 -13 14 -18 15 -18 21 -1 4 9 4 24 1 33 -5 13 -1 15 18 10 37 -9 82 23 128
90 32 46 40 67 42 106 0 28 6 48 12 48 17 0 20 20 23 178 2 118 0 147 -13 167
-9 14 -13 25 -10 25 4 0 -3 8 -14 19 -12 10 -22 23 -22 30 0 6 -7 11 -16 11
-9 0 -23 8 -30 18 -7 9 -14 12 -14 5 0 -6 -6 -18 -13 -25 -8 -7 -19 -31 -25
-53 -9 -33 -10 -23 -6 65 2 58 1 110 -3 115 -5 6 -21 21 -37 33 -26 20 -27 22
-10 29 11 3 30 14 42 24 18 14 35 17 70 13 26 -3 54 -8 62 -11z m-1703 -59
c13 -13 14 -20 5 -35 -14 -21 -16 -53 -4 -45 4 2 8 -13 7 -34 0 -41 -17 -39
-20 2 -1 13 -8 23 -16 23 -8 0 -18 9 -23 20 -9 18 -10 17 -14 -9 -2 -16 1 -39
7 -50 6 -12 17 -42 25 -68 12 -41 12 -48 0 -48 -8 0 -14 9 -14 20 0 11 -3 20
-7 20 -5 0 -16 18 -27 40 -10 21 -25 41 -32 44 -9 3 -11 16 -7 40 5 31 3 36
-13 36 -15 0 -16 -2 -5 -9 21 -13 -5 -24 -29 -11 -17 9 -18 14 -9 31 8 17 13
18 25 8 12 -10 21 -9 46 5 24 15 52 26 86 35 2 1 11 -6 19 -15z m957 -134 c-5
-5 -51 -24 -102 -41 -72 -25 -92 -36 -92 -50 0 -11 -7 -19 -15 -19 -8 0 -15
-4 -15 -10 0 -13 -47 -13 -52 1 -2 7 -12 7 -31 0 -16 -6 -38 -11 -49 -11 -21
0 -21 0 -3 20 29 32 74 50 225 90 115 31 150 36 134 20z m367 -22 c5 1 9 -6 9
-15 0 -14 2 -15 9 -4 13 20 25 -23 13 -46 -5 -10 -10 -58 -11 -107 -3 -99 -13
-119 -68 -129 -25 -5 -31 -3 -27 7 3 8 1 17 -5 21 -6 3 -11 1 -11 -4 0 -21
-18 -10 -27 17 -14 39 -11 118 5 115 6 -2 12 6 12 17 0 11 -6 20 -12 20 -9 0
-8 4 2 10 11 7 12 14 4 27 -14 23 10 73 37 73 11 0 22 7 26 16 6 15 8 15 20
-2 8 -10 19 -18 24 -16z m-561 -117 c0 -5 -8 -12 -17 -16 -17 -6 -17 -7 0 -20
19 -14 41 -132 52 -285 3 -47 8 -97 11 -112 3 -17 1 -28 -5 -28 -6 0 -13 12
-17 28 -16 72 -38 148 -45 158 -15 20 -49 168 -49 216 0 42 3 47 28 56 35 13
42 14 42 3z m-285 -291 c10 -11 23 -20 29 -20 13 -1 96 -103 96 -119 0 -6 7
-11 15 -11 9 0 16 -10 17 -25 0 -14 1 -30 2 -37 4 -44 -90 34 -148 123 -37 58
-44 79 -25 79 5 0 7 5 4 10 -4 6 -11 8 -16 5 -5 -4 -9 -1 -9 4 0 17 15 13 35
-9z m933 -350 c8 0 12 -6 10 -12 -3 -8 -35 -16 -84 -21 -43 -4 -95 -10 -114
-12 -19 -3 -86 -7 -148 -9 -62 -3 -122 -8 -133 -11 -17 -6 -20 -3 -17 15 2 17
11 23 33 25 17 2 109 8 205 15 96 7 180 14 185 15 6 2 19 2 30 0 11 -3 26 -5
33 -5z m-325 -272 c-4 -7 -6 -21 -5 -30 2 -10 -1 -18 -6 -18 -5 0 -12 -9 -15
-21 -4 -13 -10 -18 -18 -13 -8 4 -10 3 -5 -4 4 -6 0 -22 -9 -36 -11 -16 -13
-26 -6 -31 7 -3 11 3 12 17 0 13 3 17 6 11 2 -7 9 -13 15 -13 7 0 6 5 -1 14
-8 9 -8 16 -2 20 5 4 14 -1 19 -10 6 -11 11 -13 16 -5 11 17 23 13 29 -8 3
-13 1 -18 -8 -14 -10 3 -12 -2 -8 -16 4 -17 8 -19 19 -10 17 14 19 -2 2 -19
-21 -21 -2 -22 20 -2 l22 21 0 -27 c0 -21 -4 -25 -17 -19 -14 5 -15 3 -6 -6
13 -13 2 -53 -24 -81 -15 -17 -15 -18 1 -18 9 0 15 -4 11 -9 -3 -6 3 -15 14
-21 12 -6 22 -6 26 -1 3 5 19 12 35 16 17 4 28 10 25 15 -3 4 3 6 13 3 26 -6
122 45 132 70 5 12 9 16 9 10 1 -18 25 -16 64 6 22 12 39 16 48 10 8 -5 10 -9
5 -9 -5 0 -3 -7 4 -15 16 -19 16 -19 -45 -40 -87 -29 -211 -84 -378 -167 -22
-10 -67 -28 -100 -39 -79 -26 -110 -41 -120 -57 -6 -9 -12 -10 -21 -3 -7 6
-17 6 -26 1 -8 -6 -27 -10 -42 -10 -15 0 -33 -7 -42 -15 -16 -17 -41 -21 -31
-5 3 5 -10 3 -29 -5 -20 -8 -46 -15 -60 -15 -14 0 -27 -4 -30 -9 -3 -5 -17
-11 -31 -13 -13 -3 -22 -1 -19 3 5 9 -31 14 -73 10 -30 -2 -29 7 2 19 33 12
32 30 -1 30 -22 0 -69 -30 -47 -30 4 0 1 -4 -7 -9 -8 -6 -18 -7 -22 -5 -13 8
-9 52 5 58 6 3 -5 4 -25 3 -21 0 -40 -7 -43 -15 -3 -7 -11 -12 -18 -9 -6 2
-22 0 -34 -4 -21 -8 -22 -7 -10 11 6 11 13 16 15 10 2 -6 10 -6 23 0 16 9 17
14 6 31 -8 14 -9 22 -1 27 6 4 14 16 18 27 6 16 5 18 -5 8 -22 -22 -26 -15
-25 47 0 45 3 59 13 56 7 -3 13 -1 13 3 0 5 -6 11 -12 14 -7 2 -10 7 -7 11 3
4 19 2 34 -4 22 -9 31 -7 46 6 11 10 19 12 19 6 0 -7 -4 -12 -10 -12 -5 0 -14
-8 -19 -18 -7 -14 -6 -18 9 -18 10 0 16 5 13 11 -3 5 20 -16 52 -47 32 -32 61
-58 66 -58 5 0 9 -23 9 -51 0 -43 3 -50 18 -47 11 2 18 14 20 38 5 58 10 65
30 46 10 -9 21 -16 25 -16 3 0 32 35 64 78 55 74 398 422 415 422 5 0 6 -6 1
-12z m1482 -118 c-4 -27 -20 -93 -36 -147 -16 -54 -31 -103 -32 -108 -1 -6
-10 -21 -20 -35 -20 -28 -22 -44 -5 -34 7 4 8 3 4 -5 -4 -6 -11 -9 -16 -6 -11
7 -32 -20 -22 -29 4 -4 2 -6 -4 -4 -6 2 -35 -23 -64 -55 -42 -46 -58 -57 -75
-53 -15 4 -28 -1 -40 -14 -10 -11 -29 -20 -43 -20 -21 0 -16 7 36 48 34 26 59
53 57 60 -3 7 -1 11 3 9 4 -3 15 6 25 19 10 13 13 24 7 24 -5 0 -10 -3 -10 -7
0 -10 -79 -48 -85 -41 -8 7 68 56 99 64 31 7 89 73 81 92 -3 7 -1 11 4 8 5 -3
21 22 36 57 41 95 41 95 18 75 -11 -10 -30 -18 -42 -18 -14 0 -25 -7 -28 -20
-5 -20 -33 -29 -33 -10 0 14 -47 13 -56 -2 -5 -7 0 -9 14 -6 14 4 27 -1 39
-15 18 -20 18 -20 -5 -8 -12 7 -26 9 -31 6 -5 -3 -17 2 -25 11 -17 16 -98 17
-124 0 -11 -7 -11 -4 -1 12 7 11 18 18 24 15 7 -2 15 3 19 13 5 12 14 15 39
10 20 -4 50 1 82 13 28 10 74 22 103 26 l53 7 26 59 c14 32 28 59 30 59 3 0 2
-22 -2 -50z m-905 -303 c19 -16 64 -43 100 -59 36 -17 90 -41 120 -55 74 -34
130 -59 160 -71 23 -10 22 -11 -17 -11 -25 -1 -97 18 -184 48 -101 35 -147 47
-156 40 -6 -6 -10 -16 -7 -23 3 -7 -3 -19 -13 -26 -15 -12 -16 -12 -5 0 6 8
12 18 12 23 0 4 -6 5 -12 1 -7 -4 -3 4 10 18 l23 25 -55 59 c-31 32 -56 62
-56 66 0 14 47 -7 80 -35z m1207 -111 c-4 -9 2 -18 15 -22 16 -5 18 -8 7 -15
-7 -4 -10 -11 -7 -14 12 -13 28 6 28 33 1 23 2 24 11 10 8 -14 1 -30 -30 -76
-31 -46 -52 -65 -98 -88 -32 -16 -61 -33 -64 -38 -4 -5 -12 -5 -19 -1 -9 5
-10 2 -6 -13 9 -28 -37 -38 -86 -18 -33 14 -55 42 -43 54 3 3 5 0 5 -6 0 -19
32 -14 57 10 13 12 23 30 23 40 0 10 5 18 11 18 5 0 8 -4 4 -9 -3 -5 -1 -12 5
-16 5 -3 10 0 10 8 0 8 10 22 23 31 14 10 16 14 5 10 -10 -4 -18 -1 -18 5 0 6
6 11 13 12 10 0 10 2 0 6 -19 7 -15 24 5 21 10 -2 16 2 14 10 -2 9 4 11 18 7
11 -4 20 -2 20 4 0 6 -5 11 -12 11 -6 0 -8 3 -5 7 4 3 16 -2 27 -12 13 -11 20
-14 20 -6 0 17 23 38 37 34 6 -2 14 1 18 6 9 16 18 13 12 -3z m-1529 -198 c3
-30 -1 -36 -35 -56 -61 -35 -80 -55 -87 -94 -5 -28 -11 -36 -22 -31 -13 5 -15
16 -9 59 4 34 2 61 -6 75 -9 18 -9 24 0 27 7 2 16 15 21 28 5 13 14 24 20 24
6 0 8 -4 5 -10 -3 -5 -1 -10 4 -10 6 0 11 4 11 9 0 12 26 18 65 15 26 -1 30
-5 33 -36z m1488 -233 c-4 -25 -5 -49 -1 -55 3 -5 27 4 54 20 51 31 67 35 90
21 10 -7 -3 -24 -54 -72 -37 -35 -71 -65 -76 -67 -5 -2 -14 7 -19 20 -6 13
-17 33 -24 46 -10 17 -11 33 -4 60 5 20 10 45 11 55 1 9 8 17 15 17 11 0 13
-10 8 -45z m-492 -874 c160 -19 196 -17 258 19 22 13 45 13 53 1 5 -10 -87
-56 -134 -68 -14 -3 -29 -11 -33 -17 -5 -8 -8 -7 -8 2 0 8 -16 12 -46 12 -72
0 -185 21 -232 42 -45 22 -69 45 -34 34 11 -4 90 -15 176 -25z"/>
<path d="M3081 10559 c6 -12 9 -30 6 -40 -3 -10 0 -22 5 -26 7 -3 8 -1 4 5
-20 32 63 -3 91 -38 7 -8 13 -11 13 -6 0 5 6 3 14 -3 10 -9 17 -6 30 13 9 14
16 30 16 35 0 5 8 16 18 23 9 7 26 23 36 36 l19 22 -132 0 c-131 0 -132 0
-120 -21z"/>
<path d="M1482 10448 c3 -39 1 -43 -22 -44 -14 -1 -53 5 -87 13 -68 17 -68 17
-111 -44 -24 -34 -28 -63 -11 -80 6 -6 9 -21 7 -34 -4 -34 -62 -39 -90 -9 -16
17 -26 19 -56 14 -20 -4 -38 -7 -38 -8 -1 0 -4 -45 -6 -99 -4 -95 -5 -98 -36
-127 -39 -35 -41 -57 -4 -72 15 -7 34 -17 42 -24 8 -6 38 -19 65 -29 28 -10
56 -23 64 -29 12 -9 13 -8 9 4 -20 49 -35 70 -50 70 -10 0 -22 9 -29 21 -9 18
-7 25 16 49 15 15 26 36 25 46 -6 51 -2 56 45 53 37 -3 48 1 69 24 30 33 54
35 65 5 6 -18 16 -23 52 -24 24 -1 52 -3 63 -5 10 -2 23 4 29 13 10 15 4 24
-33 58 -24 22 -52 40 -61 40 -9 0 -22 6 -28 14 -10 12 -8 17 11 29 13 7 35 21
50 30 15 10 30 28 34 41 3 14 12 27 20 30 17 6 20 116 4 116 -6 0 -9 -19 -8
-42z"/>
<path d="M3420 10440 c0 -11 4 -20 9 -20 5 0 19 -13 31 -30 18 -25 20 -36 12
-78 -6 -36 -5 -51 4 -60 20 -19 15 -101 -7 -120 -26 -23 -24 -33 15 -77 22
-24 39 -58 47 -89 16 -69 24 -77 72 -72 22 3 40 6 42 8 3 5 45 329 47 363 1
17 1 58 0 91 -2 52 -5 62 -22 67 -14 4 -29 -5 -51 -31 -28 -31 -32 -33 -41
-18 -8 14 -12 15 -25 5 -18 -16 -36 6 -27 35 4 12 2 16 -4 12 -6 -4 -16 3 -22
14 -15 29 -80 29 -80 0z"/>
<path d="M977 10433 c-3 -4 -8 -27 -12 -49 -5 -34 -10 -41 -24 -37 -10 2 -36
-3 -57 -12 -93 -40 -138 -37 -150 12 -9 34 -47 40 -99 14 -23 -11 -61 -21 -83
-21 -43 0 -92 -17 -92 -32 0 -4 -26 -8 -57 -8 -35 -1 -66 -6 -77 -15 -22 -17
-52 -20 -60 -6 -4 5 -7 21 -8 36 -2 20 -7 25 -23 23 -18 -3 -20 -11 -23 -80
-2 -67 0 -80 17 -97 17 -17 19 -25 10 -44 -6 -14 -25 -30 -42 -38 -31 -14
-156 -162 -157 -185 0 -7 -7 -14 -15 -18 -12 -4 -13 -11 -5 -32 6 -15 8 -35 5
-45 -4 -11 -3 -28 0 -40 5 -16 14 -19 38 -17 28 3 34 9 47 46 13 37 18 42 45
42 49 0 58 12 50 60 -7 38 -4 45 26 77 32 32 37 34 79 28 77 -11 81 -13 78
-48 -4 -40 21 -48 52 -17 19 19 20 25 10 49 -31 76 44 173 152 196 32 6 60 51
52 82 -8 31 12 36 30 9 9 -14 17 -54 19 -98 3 -43 9 -72 15 -71 6 2 9 -10 7
-27 -2 -17 0 -30 5 -30 6 0 11 9 11 20 2 31 3 32 29 88 18 39 30 52 46 52 17
0 23 -7 27 -32 3 -20 -1 -39 -9 -49 -23 -26 -17 -58 12 -69 25 -10 25 -12 11
-33 -8 -12 -23 -23 -35 -25 -24 -4 -19 -37 6 -45 10 -3 25 -8 35 -12 12 -5 17
-2 17 9 0 9 7 16 16 16 11 0 14 6 9 21 -4 12 -2 24 4 28 7 5 0 22 -21 50 -30
41 -31 44 -15 70 8 14 25 27 36 29 28 4 51 61 51 124 0 27 3 47 8 44 13 -8 72
22 72 37 0 18 -56 81 -63 70z"/>
<path d="M1820 10341 c-15 -28 -12 -68 7 -109 21 -47 17 -43 47 -46 37 -4 100
67 85 95 -5 11 -15 19 -20 19 -6 0 -28 14 -49 30 -44 35 -56 37 -70 11z"/>
<path d="M2149 10263 c-1 -5 -2 -12 -3 -18 -4 -30 -19 -54 -34 -58 -13 -3 -12
-6 8 -14 14 -6 32 -18 39 -27 14 -17 61 -22 61 -8 0 5 18 17 41 27 45 21 69
52 45 61 -7 3 -20 4 -27 3 -28 -5 -98 13 -103 27 -6 15 -25 19 -27 7z"/>
<path d="M5498 10223 c-10 -3 -18 -8 -18 -12 0 -5 -18 -26 -40 -47 -54 -53
-53 -78 6 -127 20 -17 22 -16 65 22 l43 40 23 -21 c32 -30 33 -66 1 -115 -16
-23 -28 -51 -28 -62 0 -25 29 -35 64 -22 l26 11 0 160 c0 88 -2 160 -4 160 -3
0 -17 -5 -31 -10 -21 -8 -34 -6 -59 8 -17 10 -39 17 -48 15z"/>
<path d="M1436 10038 c-13 -51 -9 -58 39 -58 38 0 45 -3 45 -20 0 -24 8 -25
30 -5 27 25 56 -4 64 -65 7 -53 14 -58 60 -40 35 13 37 70 4 85 -13 6 -27 20
-33 33 -5 12 -15 22 -21 22 -7 0 -14 10 -18 22 -4 18 -8 20 -18 10 -18 -18
-35 -15 -76 13 -45 31 -68 32 -76 3z"/>
<path d="M510 9833 c-8 -3 -27 -14 -41 -24 -19 -13 -36 -17 -62 -12 -31 5 -39
1 -66 -28 -17 -19 -31 -39 -31 -44 0 -14 66 -33 82 -24 7 4 15 5 18 1 3 -4 14
-12 25 -18 11 -6 22 -20 23 -30 2 -10 13 -29 25 -41 11 -13 15 -23 9 -23 -7 0
-12 5 -12 10 0 18 -18 10 -23 -10 -3 -13 -14 -20 -30 -20 -26 0 -67 -30 -67
-50 0 -16 37 -47 76 -64 59 -26 146 7 194 73 19 28 19 61 -1 61 -34 0 21 56
64 66 25 5 28 8 13 16 -9 5 -14 13 -11 18 3 5 1 11 -5 15 -19 12 -10 35 23 55
35 22 52 26 42 10 -3 -5 -1 -19 5 -30 8 -14 8 -20 0 -20 -7 0 -10 -6 -7 -12 2
-7 -2 -17 -9 -23 -7 -5 -16 -22 -19 -37 -5 -21 -3 -27 14 -33 28 -9 44 3 38
27 -7 24 2 50 13 43 5 -3 11 -1 15 5 3 6 -1 13 -9 16 -18 7 -22 34 -6 34 6 0
10 15 10 34 0 35 0 35 -40 30 -22 -3 -40 -1 -40 4 0 5 -18 14 -39 20 -38 9
-40 8 -52 -19 -15 -38 -44 -37 -64 1 -15 30 -26 34 -55 23z"/>
<path d="M1090 9757 c-27 -7 -29 -10 -19 -30 13 -25 55 -65 88 -85 20 -11 26
-9 60 18 22 16 44 30 49 30 15 0 23 16 16 33 -12 33 -122 53 -194 34z"/>
<path d="M3298 9666 c-21 -18 -38 -40 -38 -49 0 -19 29 -37 62 -37 29 -1 50
-17 66 -53 16 -37 16 -40 -13 -71 -14 -15 -28 -38 -31 -51 -5 -21 -12 -25 -44
-25 -21 0 -43 -6 -49 -14 -9 -11 0 -14 49 -19 80 -7 100 -1 101 32 3 54 7 71
19 86 12 14 15 14 30 0 23 -21 43 -19 36 3 -4 11 5 27 24 45 l29 28 7 -24 c4
-18 14 -26 34 -29 25 -4 29 0 34 25 3 16 6 65 6 108 l0 78 -25 -24 c-28 -29
-50 -32 -63 -9 -15 26 -71 9 -86 -26 l-11 -28 -44 44 c-24 24 -46 44 -50 44
-3 -1 -23 -16 -43 -34z"/>
<path d="M5378 9643 c-31 -4 -38 -8 -43 -34 -8 -36 -1 -47 19 -30 10 9 20 9
39 0 28 -13 39 -56 30 -116 l-6 -36 35 26 c19 15 40 27 46 27 6 0 15 6 19 14
4 8 17 15 28 17 12 3 21 14 23 27 3 18 -5 26 -42 41 -24 11 -52 31 -62 45 -9
14 -24 25 -33 24 -9 -1 -33 -3 -53 -5z"/>
<path d="M5193 9524 c-8 -18 -9 -34 -2 -51 7 -20 6 -28 -8 -38 -15 -11 -14
-15 15 -43 32 -31 32 -33 24 -88 -9 -56 -9 -56 22 -75 32 -20 54 -23 80 -13
13 5 11 13 -16 50 -26 36 -29 46 -18 59 7 9 13 51 15 106 l3 91 -29 -6 c-22
-4 -31 -1 -39 14 -15 27 -33 25 -47 -6z"/>
<path d="M5580 9215 c-23 -25 -23 -25 -2 -25 15 0 20 -5 16 -15 -4 -11 -2 -13
9 -10 10 5 14 0 13 -17 -1 -20 -6 -23 -40 -21 -48 3 -76 -11 -77 -40 -1 -26
-30 -79 -46 -84 -6 -2 -14 5 -17 15 -8 24 -42 35 -67 22 -23 -13 -59 -59 -59
-77 0 -10 4 -11 19 -3 24 12 51 13 70 1 10 -7 13 -29 12 -82 -1 -41 -4 -83 -7
-95 -4 -17 1 -23 33 -32 25 -8 46 -24 62 -47 13 -19 27 -32 32 -29 5 3 17 0
28 -5 16 -9 20 -7 25 15 9 34 -1 62 -25 69 -25 8 -25 46 1 68 11 9 20 25 20
35 0 10 14 39 30 65 30 47 30 50 30 182 0 124 -1 135 -18 135 -10 0 -29 -11
-42 -25z"/>
<path d="M1832 9108 c-12 -6 -22 -18 -20 -27 1 -9 -8 -28 -20 -42 -17 -20 -31
-25 -53 -23 -23 3 -36 -3 -55 -23 -29 -31 -33 -74 -6 -67 9 3 26 -2 37 -10 19
-14 19 -15 -12 -26 -37 -14 -44 -37 -11 -42 20 -3 36 -38 18 -38 -20 0 -21
-44 -1 -93 27 -69 106 -339 117 -402 8 -46 11 -50 37 -50 35 -1 62 -28 62 -63
0 -18 6 -28 18 -30 14 -3 18 1 13 15 -21 68 -66 410 -66 500 0 49 15 79 25 51
3 -7 18 -103 34 -213 16 -110 36 -225 43 -255 l13 -55 2 45 c3 59 22 176 35
220 14 48 71 160 81 160 4 0 6 -3 4 -7 -3 -5 -19 -43 -36 -86 -40 -100 -54
-192 -42 -277 5 -36 9 -57 10 -47 1 23 28 22 41 -3 6 -12 16 -18 23 -14 7 4 1
-5 -12 -19 -23 -26 -24 -29 -9 -59 l15 -32 35 110 c27 84 32 110 22 112 -21 5
-17 40 6 54 11 7 20 16 20 20 0 14 -20 8 -40 -12 -11 -11 -30 -20 -42 -20
l-22 0 22 20 c12 11 25 33 28 48 4 15 16 44 28 64 20 35 23 37 63 31 l43 -6
25 54 c29 64 30 77 8 109 -21 29 -18 90 4 107 21 16 53 -1 53 -28 0 -11 -4
-18 -9 -14 -15 8 -23 -13 -13 -31 8 -14 14 -8 35 33 14 28 40 92 57 142 27 75
31 99 25 138 -5 37 -9 44 -16 30 -6 -9 -16 -17 -24 -17 -8 0 -18 -12 -21 -27
-10 -41 -24 -55 -50 -49 -13 4 -25 2 -28 -3 -7 -11 -46 -2 -46 10 0 5 -6 9
-14 9 -9 0 -12 -7 -9 -20 3 -11 13 -20 23 -20 13 0 19 -12 24 -51 4 -28 5 -54
2 -57 -8 -8 -46 29 -46 44 0 7 -10 19 -22 25 -17 9 -24 9 -33 -5 -20 -27 -84
-49 -101 -35 -12 10 -17 8 -28 -7 -14 -18 -15 -18 -20 6 -3 14 -4 39 -3 55 2
30 2 30 62 30 33 0 62 4 64 10 2 5 -8 18 -23 29 -22 17 -30 18 -46 8 -28 -17
-67 -15 -74 4 -4 9 -3 33 0 52 6 31 5 34 -10 29 -10 -4 -20 -7 -22 -7 -2 0 -4
-9 -4 -20 0 -12 -7 -20 -17 -20 -13 0 -14 -3 -5 -12 7 -7 12 -21 12 -32 -1
-21 -1 -21 -15 -1 -25 36 -49 57 -80 71 -16 7 -23 13 -14 14 9 0 21 11 27 25
11 24 10 25 -21 24 -17 0 -42 -5 -55 -11z"/>
<path d="M1867 6867 c-4 -10 -13 -14 -21 -11 -16 6 -173 -133 -168 -149 1 -4
-2 -6 -7 -3 -5 4 -23 -11 -40 -31 -17 -21 -64 -67 -106 -102 -72 -61 -92 -87
-60 -75 9 4 15 0 15 -10 0 -20 13 -20 51 0 17 8 36 14 42 11 19 -7 71 16 107
46 26 23 30 31 20 37 -8 5 -12 12 -8 15 3 4 15 -2 27 -11 l21 -18 -28 -12
c-15 -7 -21 -13 -14 -13 8 -1 28 5 45 13 30 13 78 28 102 31 6 0 9 6 8 12 -1
6 6 9 17 6 11 -3 39 1 63 8 35 10 43 16 39 31 -3 14 -7 16 -18 7 -11 -9 -14
-8 -14 2 0 8 -21 44 -46 82 -35 51 -45 73 -40 92 5 21 11 24 39 20 17 -3 25
-2 17 2 -8 3 -20 13 -26 21 -9 13 -12 13 -17 -1z"/>
<path d="M4025 5674 c-11 -9 -36 -22 -55 -30 l-35 -14 1 -78 c1 -42 4 -89 7
-104 3 -16 1 -30 -4 -34 -5 -3 -9 -17 -8 -32 l1 -27 8 25 7 25 12 -28 c14 -36
14 -57 0 -37 -9 12 -10 12 -5 -3 3 -10 6 -24 6 -30 0 -7 6 -1 13 13 7 14 21
24 30 24 20 -2 22 30 8 86 -17 65 -20 148 -5 167 7 10 14 26 14 35 0 10 9 23
20 30 20 13 27 28 13 28 -5 0 -17 -8 -28 -16z"/>
<path d="M4420 4488 c42 -20 109 -68 96 -68 -3 0 3 -9 15 -21 11 -11 19 -23
16 -25 -8 -8 -78 27 -72 36 3 5 0 8 -7 5 -24 -9 -73 11 -72 28 1 10 -2 17 -7
17 -5 0 -9 -15 -9 -34 0 -29 3 -33 20 -29 12 3 36 -5 60 -21 22 -14 44 -26 50
-26 20 0 88 -84 94 -116 4 -18 12 -35 19 -37 9 -4 9 -6 -1 -6 -7 -1 -10 -5 -7
-11 10 -17 25 -11 25 10 0 11 -4 20 -9 20 -5 0 -7 9 -4 21 4 16 8 17 14 7 6
-9 9 -4 9 15 0 17 5 27 15 27 22 0 30 -28 19 -69 -24 -88 25 -103 84 -27 12
16 22 26 22 22 0 -14 -29 -62 -48 -79 -20 -19 -20 -19 -1 -38 26 -26 40 -21
56 22 l12 34 -4 -50 c-5 -43 -4 -46 6 -25 12 29 17 47 18 74 1 14 6 17 26 12
14 -4 25 -2 25 4 0 5 -6 10 -12 10 -9 0 -8 4 2 11 12 8 11 9 -6 4 -22 -6 -55
19 -192 147 -39 37 -78 68 -86 68 -8 0 -16 3 -18 8 -9 20 -154 102 -180 102
-7 0 7 -10 32 -22z"/>
<path d="M5600 3894 c-14 -8 -33 -12 -42 -10 -14 3 -18 -2 -18 -21 0 -16 -15
-39 -41 -64 -38 -37 -44 -59 -14 -59 7 0 24 -14 36 -31 19 -27 20 -35 10 -51
-18 -28 -5 -35 28 -15 16 9 41 17 55 17 l26 0 0 125 c0 69 -3 125 -7 124 -5
-1 -19 -7 -33 -15z"/>
<path d="M4274 3847 c-16 -9 -19 -17 -13 -32 11 -30 11 -35 -7 -35 -8 0 -13
-4 -9 -10 3 -5 12 -7 19 -4 9 4 15 -5 19 -28 11 -65 37 -142 56 -162 24 -26
85 -172 77 -185 -3 -5 1 -11 9 -15 8 -3 15 -13 15 -22 0 -21 39 -76 50 -69 5
3 12 0 17 -7 4 -7 17 -18 29 -24 21 -12 35 0 56 46 3 8 6 -6 6 -32 0 -29 -5
-48 -12 -48 -6 0 -5 -4 3 -9 8 -5 11 -16 8 -24 -10 -26 13 -37 35 -15 14 14
30 19 61 16 35 -2 42 1 45 17 2 11 15 32 29 46 l24 27 -31 62 c-40 79 -110
258 -110 281 0 10 -4 21 -10 24 -5 3 -10 12 -10 20 0 27 -63 177 -77 182 -19
8 -40 -24 -36 -56 2 -14 0 -20 -3 -13 -3 6 -15 12 -27 12 -16 0 -18 3 -8 9 17
11 -3 25 -21 15 -7 -4 -10 -4 -6 1 4 4 -2 16 -14 26 -25 22 -130 26 -164 6z"/>
<path d="M4710 3715 c0 -6 7 -23 15 -38 8 -16 21 -50 29 -75 26 -88 148 -332
166 -332 9 0 28 64 34 115 5 36 1 46 -41 98 -32 41 -48 55 -54 46 -4 -7 -5
-17 -3 -21 3 -4 0 -8 -6 -8 -7 0 -10 6 -7 13 3 9 -3 13 -16 13 -19 -1 -23 6
-29 57 -6 48 -14 64 -48 99 -22 23 -40 38 -40 33z"/>
<path d="M1 2453 c0 -230 4 -404 9 -388 22 87 32 146 31 195 -1 30 -1 171 -1
314 0 142 -2 267 -5 277 -4 11 -13 19 -21 19 -12 0 -14 -61 -13 -417z"/>
<path d="M1068 283 c-22 -6 -23 -29 -3 -67 12 -23 13 -31 3 -37 -9 -6 -9 -13
1 -33 8 -13 11 -31 8 -39 -3 -9 1 -18 9 -21 16 -6 20 -56 4 -56 -5 0 -10 -7
-10 -15 0 -11 12 -15 50 -15 38 0 50 4 50 15 0 8 3 15 8 15 4 0 6 17 6 37 -1
37 -21 90 -46 126 -11 14 -10 19 1 26 14 9 10 20 -18 53 -15 18 -29 20 -63 11z"/>
<path d="M5206 161 c-3 -4 3 -32 13 -61 10 -29 20 -47 23 -40 5 16 41 -1 73
-36 12 -13 32 -24 44 -24 25 0 26 7 5 31 -14 16 -14 19 10 34 14 10 26 22 26
27 0 21 -46 47 -85 48 -22 0 -49 7 -59 15 -22 17 -42 19 -50 6z"/>
</g>
</svg>
