<?xml version="1.0" standalone="no"?>
<!DOCTYPE svg PUBLIC "-//W3C//DTD SVG 20010904//EN"
 "http://www.w3.org/TR/2001/REC-SVG-20010904/DTD/svg10.dtd">
<svg version="1.0" xmlns="http://www.w3.org/2000/svg"
 width="310.000000pt" height="470.000000pt" viewBox="0 0 310.000000 470.000000"
 preserveAspectRatio="xMidYMid meet">
<metadata>
Created by potrace 1.16, written by Peter Selinger 2001-2019
</metadata>
<g transform="translate(0.000000,470.000000) scale(0.100000,-0.100000)"
fill="#000000" stroke="none">
<path d="M1567 3763 c-15 -4 -16 -13 -11 -73 7 -74 -8 -115 -44 -115 -25 0
-26 -37 -2 -89 22 -49 35 -57 45 -27 3 11 12 22 20 25 8 3 15 14 15 25 0 28
44 39 65 17 20 -20 55 -5 55 23 0 32 -30 91 -46 91 -8 0 -12 5 -9 11 4 6 -2
13 -14 16 -25 6 -27 18 -5 27 21 8 18 9 42 -13 12 -10 19 -21 15 -25 -10 -9
60 15 75 27 16 13 15 42 -3 60 -17 17 -55 11 -68 -10 -12 -19 -25 -16 -59 12
-29 25 -37 27 -71 18z"/>
<path d="M2640 3422 c0 -8 -9 -16 -19 -19 -21 -5 -31 -31 -31 -79 0 -39 -31
-72 -48 -51 -28 34 -98 0 -132 -63 -14 -26 -13 -76 3 -92 14 -15 16 -66 4 -85
-11 -17 -59 -17 -75 -1 -10 10 -15 10 -22 -2 -5 -8 -10 -20 -10 -26 0 -15 65
-44 100 -44 20 0 30 -5 30 -15 0 -8 -4 -15 -10 -15 -5 0 -10 -9 -10 -21 0 -11
4 -18 9 -14 6 3 10 -25 10 -70 0 -41 -4 -77 -9 -80 -5 -3 -6 -21 -3 -40 8 -49
-4 -84 -32 -95 -14 -5 -25 -14 -25 -20 0 -5 -7 -10 -15 -10 -8 0 -15 -7 -15
-15 0 -8 -5 -15 -11 -15 -5 0 -7 -4 -4 -10 4 -6 -2 -7 -17 -1 -19 7 -23 16
-23 55 0 25 -4 46 -9 46 -5 0 -3 6 3 14 8 10 9 16 1 21 -6 3 -8 10 -5 15 3 5
1 11 -5 15 -7 4 -7 12 0 25 23 43 5 54 -23 14 -19 -25 -25 -43 -26 -76 -1 -22
-31 -24 -31 -2 0 11 -5 14 -16 10 -12 -5 -14 -1 -8 17 6 20 4 20 -20 -6 -14
-15 -26 -33 -26 -40 0 -8 -3 -8 -9 2 -7 11 -10 11 -17 0 -6 -10 -10 -4 -14 21
-5 36 -17 41 -52 26 -10 -5 -16 -11 -13 -15 2 -4 -2 -8 -10 -8 -7 0 -16 9 -18
19 -4 14 2 22 19 28 13 5 24 16 24 24 0 8 6 16 12 18 35 12 -10 144 -59 178
-33 23 -34 23 -69 4 -45 -23 -68 -56 -59 -84 7 -22 44 -27 63 -8 9 9 12 4 12
-24 0 -34 -20 -94 -36 -110 -15 -15 -13 -58 2 -58 8 0 13 -4 9 -10 -3 -5 -11
-7 -19 -4 -8 3 -19 -15 -31 -58 -20 -69 -61 -121 -76 -97 -6 9 -4 15 6 17 13
3 13 6 0 25 -19 27 -19 37 0 37 8 0 15 4 15 10 0 5 -6 9 -12 7 -9 -1 -12 9
-12 31 2 36 -6 41 -21 14 -29 -52 -59 -94 -77 -103 -16 -8 -23 -6 -39 12 -11
13 -22 34 -25 48 -3 14 -12 40 -20 56 -8 17 -12 38 -9 47 4 9 2 25 -3 35 -8
13 -6 24 8 43 31 44 33 67 10 87 -12 10 -41 36 -64 59 -32 30 -46 38 -58 31
-19 -12 -58 23 -58 53 0 13 -7 20 -20 20 -13 0 -20 -7 -20 -20 0 -23 -3 -24
-30 -8 -21 14 -30 9 -35 -19 -2 -10 -4 -18 -5 -18 -1 0 -4 -11 -6 -24 -6 -31
-2 -29 -51 -37 -37 -6 -42 -4 -48 17 -4 13 -15 32 -23 42 -9 10 -16 36 -17 59
0 32 -4 42 -18 44 -11 1 -21 -6 -25 -17 -7 -19 -9 -19 -31 5 -26 27 -41 26
-41 -4 0 -13 -5 -17 -21 -13 -12 4 -18 11 -15 20 3 7 -1 16 -9 19 -20 8 -47
-15 -41 -33 3 -8 1 -11 -4 -8 -14 9 -12 42 3 48 9 3 9 7 0 17 -6 7 -9 18 -6
25 2 8 -7 21 -21 30 -20 13 -26 26 -26 51 0 24 -5 34 -15 34 -15 0 -20 -22
-16 -67 2 -29 -20 -30 -44 -3 -26 28 -49 26 -43 -4 6 -29 -27 -45 -35 -16 -3
11 -15 17 -38 18 -40 1 -59 -13 -59 -42 0 -11 -13 -34 -30 -49 -16 -16 -30
-35 -30 -43 0 -20 -26 -6 -38 21 -10 22 -9 99 3 136 5 14 2 17 -13 14 -15 -3
-19 1 -15 16 6 22 19 25 26 7 2 -7 4 1 5 17 1 44 -18 87 -37 83 -12 -3 -15
-14 -13 -51 3 -53 -14 -99 -30 -76 -7 11 -8 9 -7 -6 1 -11 -3 -38 -9 -60 -6
-22 -13 -102 -15 -177 -2 -75 -8 -143 -14 -150 -6 -7 -13 -29 -17 -48 -5 -30
-5 -32 4 -11 6 13 12 22 14 20 7 -8 -7 -118 -15 -114 -4 3 -10 1 -13 -4 -4 -5
-2 -12 3 -15 5 -4 8 -36 6 -72 -2 -39 2 -76 10 -92 10 -20 11 -43 3 -92 -5
-36 -6 -86 -3 -112 4 -36 2 -48 -7 -48 -10 0 -13 -25 -13 -98 0 -77 3 -95 11
-83 10 13 14 9 23 -24 8 -31 8 -42 -4 -55 -8 -9 -15 -24 -15 -34 0 -9 -5 -14
-10 -11 -6 4 -10 -19 -10 -62 -1 -37 -3 -135 -6 -218 -4 -103 -2 -165 6 -201
11 -45 10 -60 -4 -103 -23 -72 -23 -382 0 -426 21 -39 64 -213 57 -231 -3 -8
-8 -12 -12 -10 -4 3 -13 1 -19 -3 -10 -6 -10 -15 -2 -35 15 -40 12 -56 -10
-56 -26 0 -27 -46 -3 -120 13 -42 27 -61 67 -92 94 -75 264 -137 446 -164 19
-3 46 -7 60 -9 35 -6 162 -18 180 -17 8 0 44 -4 80 -9 114 -17 670 -14 670 3
0 5 19 8 43 8 23 -1 74 5 112 13 39 8 74 12 79 9 5 -3 6 0 2 6 -5 8 5 12 31
12 21 0 45 4 52 9 8 5 22 6 30 1 16 -8 46 12 34 23 -3 3 3 3 14 1 28 -7 168
42 244 87 143 83 149 106 149 639 0 432 -4 592 -20 680 -14 75 -2 198 22 229
10 14 16 32 12 43 -3 10 -6 74 -7 143 -1 69 -6 125 -10 125 -5 0 -6 27 -2 60
5 42 4 60 -4 60 -20 0 -31 -48 -25 -106 4 -41 3 -54 -5 -49 -6 3 -11 12 -10
18 1 7 -1 20 -6 31 -8 17 1 74 24 161 6 22 11 80 11 128 0 109 18 278 31 294
17 19 21 123 7 140 -11 14 -14 13 -20 -8 -7 -23 -4 11 8 92 5 30 3 36 -13 36
-10 0 -24 -7 -31 -16 -8 -9 -11 -10 -7 -3 4 7 2 19 -4 26 -12 14 -6 107 8 115
4 4 11 22 15 41 10 48 23 212 18 228 -6 17 -62 12 -62 -6z m-471 -889 c-1 -5
-1 -17 0 -28 1 -17 3 -17 11 -5 8 13 11 12 24 -5 9 -11 16 -24 16 -29 0 -6 15
4 33 22 32 31 57 41 57 23 0 -6 -5 -13 -11 -16 -6 -5 -4 -12 7 -20 16 -11 16
-14 -6 -46 -13 -19 -17 -28 -10 -21 21 18 30 15 30 -13 0 -15 5 -24 13 -22 21
4 13 -28 -10 -38 -13 -5 -23 -13 -23 -18 0 -4 4 -6 8 -3 4 2 14 1 20 -3 10 -6
9 -14 -3 -37 -8 -16 -15 -24 -16 -19 0 6 -5 -6 -12 -25 -15 -43 -42 -51 -51
-16 -7 27 -26 36 -26 12 0 -7 -9 -16 -21 -19 -14 -4 -22 1 -28 15 -5 15 -10
18 -15 10 -4 -7 -12 -10 -17 -6 -5 3 -18 0 -27 -8 -16 -12 -16 -11 -2 7 8 11
25 33 38 49 30 37 22 44 -21 17 -34 -21 -87 -29 -87 -13 0 5 12 13 28 19 26
11 26 12 -9 7 -25 -4 -39 -1 -49 11 -12 14 -12 18 1 26 8 5 21 9 29 10 8 0 4
5 -10 9 -23 7 -23 8 9 9 33 1 34 1 16 21 -10 11 -13 20 -7 20 7 0 12 -4 12 -8
0 -5 18 -17 40 -27 22 -10 40 -24 40 -30 0 -7 11 -16 25 -19 14 -4 25 -13 25
-21 0 -25 25 -17 43 14 19 32 22 61 7 61 -5 0 -10 7 -10 16 0 8 -7 22 -15 30
-12 13 -19 13 -50 0 -20 -9 -35 -22 -35 -32 0 -13 -4 -12 -18 7 -24 31 -37 75
-17 59 10 -9 15 -2 20 32 6 33 9 38 15 24 6 -19 7 -19 12 2 6 20 30 33 27 15z
m-947 -392 c9 28 28 -26 19 -57 -6 -23 -13 -28 -32 -26 -13 1 -26 7 -29 12 -4
6 -12 -1 -20 -14 -7 -14 -26 -30 -41 -37 -24 -9 -27 -14 -18 -26 22 -26 -4
-38 -51 -24 -50 15 -87 70 -37 56 21 -6 21 -6 -3 15 -22 19 -22 21 -5 17 11
-3 29 -8 40 -12 19 -8 19 -7 -1 12 -26 26 -22 83 6 83 10 0 20 5 22 11 7 21
67 0 82 -28 l13 -26 7 39 8 38 18 -23 c13 -18 19 -20 22 -10z m199 -192 c14
-22 10 -39 -8 -39 -15 0 -16 -2 -3 -10 25 -16 40 -11 41 13 0 14 2 17 6 7 3
-8 12 -22 20 -32 12 -13 12 -20 2 -36 -17 -27 9 -68 50 -77 19 -4 31 -14 34
-28 2 -12 8 -30 12 -39 4 -11 3 -18 -4 -18 -7 0 -15 10 -20 22 -6 18 -9 19
-14 5 -12 -32 -27 -18 -21 21 l6 37 -22 -22 c-25 -27 -35 -29 -26 -7 8 21 -11
44 -35 44 -11 0 -19 7 -19 15 0 8 -7 15 -15 15 -25 0 -17 17 11 24 20 5 23 10
15 20 -6 8 -25 16 -41 20 -49 9 -122 46 -117 59 9 27 131 32 148 6z m818 -86
c26 -25 29 -33 25 -73 -8 -89 -20 -130 -39 -130 -8 0 -17 -9 -20 -21 -5 -14
-13 -19 -26 -16 -12 3 -19 0 -19 -9 0 -15 -12 -19 -24 -7 -4 4 -27 6 -51 4
-35 -2 -45 1 -46 13 -3 37 -5 41 -22 38 -20 -3 -21 2 -7 29 8 15 7 19 -5 19
-21 0 -19 13 11 57 36 54 94 103 120 103 13 0 26 5 29 10 11 18 43 10 74 -17z
m-161 -842 c17 -17 32 -34 32 -39 0 -6 7 -12 15 -16 8 -3 15 -12 15 -21 0 -8
5 -15 10 -15 6 0 3 -11 -5 -24 -15 -22 -14 -24 3 -28 14 -4 18 -13 17 -34 -2
-16 -4 -31 -5 -34 -1 -3 -2 -8 -1 -12 1 -11 -23 -10 -54 2 -14 5 -25 16 -24
22 3 21 -12 48 -27 48 -8 0 -14 5 -14 11 0 16 -29 41 -40 34 -5 -3 -10 -1 -10
4 0 25 -149 -21 -171 -52 -9 -13 -59 22 -59 42 0 9 -3 26 -6 39 -5 16 -2 22
10 22 9 0 19 7 23 16 4 11 13 14 29 10 18 -5 22 -3 18 9 -5 11 -2 14 12 9 11
-4 24 -11 31 -16 7 -6 13 -4 15 4 4 10 8 10 23 -2 16 -13 19 -12 39 12 20 24
40 34 76 37 9 0 30 -12 48 -28z m-1221 -82 c7 -6 16 -8 21 -5 6 3 12 -4 15
-16 6 -22 6 -22 24 -3 21 23 46 26 65 7 6 -6 17 -12 24 -12 7 0 15 -14 19 -30
4 -17 15 -35 26 -41 19 -10 19 -11 -3 -41 l-22 -31 25 7 c52 16 69 18 69 7 0
-6 -17 -20 -37 -31 l-38 -21 38 6 c43 7 51 -10 12 -25 -28 -11 -35 -34 -7 -26
9 3 24 1 32 -4 13 -8 13 -13 2 -30 -7 -11 -10 -25 -7 -30 3 -5 1 -12 -5 -15
-8 -5 -7 -11 1 -21 16 -19 4 -45 -19 -41 -11 1 -41 22 -68 46 -46 40 -49 42
-52 21 -2 -14 8 -33 30 -56 19 -19 41 -45 48 -60 12 -22 12 -27 0 -34 -10 -6
-22 -2 -37 12 l-23 21 0 -25 c0 -31 -6 -37 -30 -31 -13 3 -22 17 -26 39 -7 39
-17 42 -41 14 -25 -29 -53 -26 -53 6 0 19 -4 25 -15 20 -16 -6 -35 22 -28 42
3 7 -4 12 -16 12 -28 0 -26 8 6 42 34 35 26 44 -22 24 -47 -20 -45 -20 -45 8
0 13 7 26 15 30 24 9 17 26 -10 26 -16 0 -25 6 -25 15 0 8 7 15 15 15 16 0 20
12 8 24 -11 11 -15 58 -4 52 6 -4 7 4 1 23 -9 34 -3 46 17 29 10 -8 12 -8 8 4
-4 10 1 17 14 21 15 4 21 13 21 35 0 26 3 29 32 30 18 0 38 -4 45 -9z"/>
<path d="M870 798 c0 -5 -11 -24 -25 -42 -27 -36 -32 -56 -12 -56 6 -1 21 -15
32 -33 25 -39 63 -44 102 -14 22 17 24 26 20 61 -3 22 -11 42 -16 44 -6 2 -11
10 -11 17 0 8 -9 17 -21 20 -35 11 -69 13 -69 3z"/>
</g>
</svg>
