<?xml version="1.0" standalone="no"?>
<!DOCTYPE svg PUBLIC "-//W3C//DTD SVG 20010904//EN"
 "http://www.w3.org/TR/2001/REC-SVG-20010904/DTD/svg10.dtd">
<svg version="1.0" xmlns="http://www.w3.org/2000/svg"
 width="2084.000000pt" height="2084.000000pt" viewBox="0 0 2084.000000 2084.000000"
 preserveAspectRatio="xMidYMid meet">
<metadata>
Created by potrace 1.16, written by Peter Selinger 2001-2019
</metadata>
<g transform="translate(0.000000,2084.000000) scale(0.100000,-0.100000)"
fill="#000000" stroke="none">
<path d="M8790 14922 c0 -4 21 -16 48 -26 75 -31 105 -55 99 -83 -5 -28 8 -39
28 -23 10 8 15 9 15 2 0 -6 9 -13 20 -17 30 -9 36 -64 12 -111 -11 -22 -23
-54 -27 -71 -3 -18 -11 -35 -16 -38 -5 -4 -9 -15 -9 -26 0 -57 -67 -130 -106
-115 -7 3 -54 -33 -104 -80 -50 -46 -99 -84 -108 -84 -13 0 -12 3 4 14 10 8
16 17 13 20 -11 11 -108 -95 -114 -126 -4 -17 -15 -32 -24 -35 -9 -2 -24 -16
-33 -31 -10 -15 -23 -35 -30 -45 -11 -15 -10 -20 5 -28 9 -6 17 -17 17 -26 0
-12 7 -14 35 -9 49 9 195 87 276 145 36 26 87 61 115 76 145 83 175 108 204
165 39 77 59 229 40 303 -25 99 -37 111 -137 137 -24 6 -43 15 -43 20 0 4 -15
18 -33 29 -48 29 -147 72 -147 63z"/>
<path d="M7890 14404 c0 -3 9 -19 21 -35 11 -16 17 -29 12 -28 -26 4 -29 -5
-26 -82 2 -52 12 -107 27 -152 13 -40 27 -89 31 -109 6 -33 11 -38 34 -38 20
0 36 -12 64 -50 26 -34 33 -50 22 -50 -11 0 -13 -5 -5 -25 5 -14 6 -25 1 -25
-19 0 -21 -45 -3 -60 18 -15 19 -45 1 -34 -5 3 -21 -4 -35 -15 l-25 -20 31
-16 c18 -9 29 -19 26 -23 -4 -3 -12 0 -18 6 -7 7 -19 12 -27 12 -10 -1 -4 -7
12 -16 33 -18 35 -28 3 -22 -23 5 -25 1 -31 -46 -9 -61 -50 -195 -68 -216 -6
-9 -27 -26 -44 -38 l-32 -23 13 39 c8 22 21 54 30 70 9 17 16 44 16 61 0 16 5
33 10 36 14 8 13 115 -1 115 -5 0 -9 -10 -7 -22 3 -20 -2 -23 -32 -24 -19 0
-43 -4 -52 -8 -11 -5 -18 -4 -18 3 0 9 -5 9 -20 1 -11 -6 -35 -8 -54 -5 -25 5
-35 3 -39 -9 -4 -9 -13 -16 -21 -16 -8 0 -17 -4 -20 -8 -3 -5 8 -6 25 -4 36 5
38 -10 4 -28 -35 -19 -31 -34 8 -27 32 6 32 6 10 -10 -26 -17 -31 -35 -9 -27
8 3 23 1 33 -5 15 -9 13 -10 -14 -11 -17 0 -35 -4 -38 -10 -8 -12 38 -24 70
-18 19 4 23 2 15 -7 -6 -7 -20 -11 -30 -8 -14 4 -20 0 -20 -11 0 -11 -9 -16
-29 -16 -16 0 -34 -7 -41 -15 -7 -8 -17 -12 -22 -9 -21 13 -100 -8 -131 -35
-18 -16 -37 -26 -43 -24 -9 3 -34 -57 -34 -80 0 -13 81 -48 124 -53 40 -6 49
-3 83 24 21 17 65 37 96 45 l58 15 -24 -41 c-20 -35 -75 -240 -123 -465 -2
-13 -8 -20 -13 -18 -15 10 -102 -26 -186 -75 -74 -44 -175 -134 -175 -157 0
-5 -7 -26 -15 -46 -15 -36 -16 -36 -41 -20 -15 10 -29 13 -34 8 -11 -11 -31
-131 -24 -148 3 -7 -9 -47 -26 -90 -17 -42 -34 -100 -37 -129 -5 -48 -4 -51
10 -32 8 11 19 17 23 13 4 -4 1 -14 -5 -22 -11 -13 -8 -15 16 -13 23 2 28 -2
28 -20 0 -13 5 -23 10 -23 6 -1 16 -12 23 -26 7 -13 17 -24 23 -24 6 0 9 -6 6
-14 -3 -8 -1 -16 6 -19 20 -6 57 5 57 18 0 8 -8 11 -20 8 -16 -4 -19 -2 -14
10 3 9 11 15 16 14 6 -1 13 4 15 11 3 7 -4 12 -19 12 -21 1 -21 2 -5 11 15 9
23 6 41 -10 12 -12 27 -21 34 -21 6 0 9 -7 6 -15 -4 -8 -12 -15 -20 -15 -8 0
-14 -5 -14 -11 0 -8 13 -9 40 -5 l40 6 -20 -20 c-24 -24 -18 -40 13 -40 16 0
18 -3 9 -12 -9 -9 -5 -15 18 -24 31 -14 61 -65 41 -72 -7 -2 -3 -15 9 -32 26
-36 25 -42 -4 -34 -13 3 -27 1 -30 -5 -10 -15 -26 -14 -26 3 0 14 -71 66 -92
66 -10 0 -10 2 1 9 17 11 -51 35 -80 28 -10 -3 -22 -1 -25 4 -3 5 -13 9 -23 9
-14 0 -17 -6 -13 -26 2 -14 11 -28 18 -31 17 -6 18 -24 2 -21 -12 3 -13 -11
-5 -50 2 -8 10 -18 18 -23 11 -7 11 -9 -3 -9 -24 0 -23 -21 2 -53 11 -14 20
-30 20 -36 0 -19 -28 -12 -35 9 -8 25 -71 74 -85 65 -6 -3 -10 3 -10 16 0 12
-3 19 -6 16 -4 -3 -6 -42 -6 -85 1 -62 9 -99 37 -182 29 -82 34 -105 23 -111
-7 -5 -16 -9 -19 -9 -3 0 -30 -21 -60 -46 -55 -47 -137 -172 -160 -244 -6 -19
-22 -63 -35 -97 -14 -35 -30 -96 -37 -137 l-13 -73 33 -49 c18 -27 38 -64 44
-84 7 -19 22 -56 36 -82 21 -44 22 -48 6 -49 -28 -2 -55 -7 -98 -18 -22 -6
-65 -11 -96 -11 -47 0 -59 4 -80 26 -13 14 -44 40 -69 56 -49 32 -46 29 45
-51 17 -14 54 -47 82 -74 l50 -47 58 35 c32 19 77 42 100 51 41 15 42 17 32
44 -12 32 5 65 30 56 7 -3 13 -1 13 4 0 6 8 10 18 10 14 0 12 4 -8 20 -14 10
-25 23 -25 28 0 5 -11 19 -25 31 l-25 22 34 -7 c33 -6 34 -5 27 21 -6 25 -5
27 17 21 16 -4 29 0 37 9 7 8 16 12 21 9 5 -3 9 0 9 5 0 6 -4 11 -10 11 -5 0
-9 5 -7 12 1 6 -9 17 -23 25 -24 12 -24 13 -3 13 20 0 43 25 43 47 0 5 -17 15
-37 23 -21 7 -32 15 -25 18 10 3 8 8 -5 18 -15 11 -15 13 -2 14 8 0 20 -5 26
-11 8 -8 19 -6 39 8 l28 18 -34 6 c-35 6 -24 13 16 10 27 -2 58 41 42 57 -7 7
-8 15 -4 19 4 4 11 1 15 -6 13 -20 57 -6 64 20 3 11 11 19 19 18 25 -3 39 1
33 10 -3 5 -1 12 4 16 14 8 1 37 -14 32 -7 -3 -12 5 -12 24 0 23 4 28 17 24 9
-3 25 1 36 9 18 14 18 15 -7 24 -15 6 -29 17 -32 26 -4 9 -13 13 -22 10 -8 -3
-15 -2 -15 3 0 6 -13 10 -30 11 -26 1 -36 -8 -81 -74 -53 -76 -65 -86 -76 -58
-16 42 83 161 164 196 117 50 112 48 76 41 -17 -3 -48 0 -68 7 l-36 12 38 33
c57 50 115 79 248 123 127 43 316 79 337 65 13 -8 -5 -12 -151 -32 -79 -12
-104 -21 -55 -21 47 0 59 -20 26 -42 -15 -10 -22 -18 -16 -18 6 0 12 -12 12
-26 0 -15 5 -30 11 -34 9 -5 8 -12 -5 -24 -16 -16 -15 -17 3 -22 14 -4 19 -13
17 -29 -1 -13 3 -31 10 -40 10 -14 6 -23 -26 -54 -36 -37 -44 -67 -25 -98 8
-12 -14 -23 -44 -23 -22 0 -23 -3 -6 -31 10 -17 9 -22 -6 -34 -13 -9 -15 -14
-5 -18 21 -7 -14 -59 -53 -79 l-32 -17 27 -11 c15 -5 34 -10 42 -10 8 0 13 -4
9 -9 -3 -6 2 -14 11 -19 14 -8 11 -11 -17 -21 l-34 -12 24 -18 24 -18 -51 -18
c-29 -11 -50 -21 -47 -23 2 -3 32 6 65 18 63 24 98 21 41 -3 l-33 -14 61 -12
c33 -7 63 -16 67 -22 3 -6 17 -14 30 -19 13 -5 24 -14 24 -19 0 -6 -6 -8 -13
-5 -7 2 -24 0 -38 -5 l-24 -9 25 -10 c14 -6 19 -11 13 -11 -18 -1 -16 -21 2
-21 8 0 15 -4 15 -10 0 -5 7 -7 15 -4 11 5 13 2 9 -10 -3 -9 -14 -16 -24 -16
-19 0 -34 -25 -24 -41 3 -5 10 -6 16 -3 7 4 8 2 4 -4 -3 -6 3 -16 14 -22 11
-6 18 -15 15 -20 -3 -6 18 -21 47 -35 36 -17 44 -24 26 -22 -21 3 -28 -1 -33
-21 -4 -15 -1 -28 6 -33 19 -12 2 -39 -26 -39 -14 0 -25 -4 -25 -10 0 -5 6
-10 13 -10 9 0 8 -3 -2 -9 -29 -19 0 -31 62 -25 61 6 94 19 292 116 75 36 78
37 48 11 -56 -49 -241 -136 -298 -140 -49 -4 -152 -30 -168 -44 -5 -4 14 -14
42 -24 52 -17 60 -35 15 -35 -16 0 -23 4 -18 11 4 7 -1 10 -12 7 -10 -2 -20
-11 -22 -21 -3 -14 4 -17 33 -17 28 0 44 -7 65 -30 15 -16 36 -30 47 -30 10 0
27 -7 37 -15 11 -8 28 -15 37 -15 10 0 19 -6 21 -12 3 -7 13 -13 24 -13 13 0
18 -6 16 -19 -3 -14 1 -17 12 -13 24 10 46 -3 46 -25 0 -12 8 -27 18 -35 12
-11 9 -10 -10 1 -31 18 -42 20 -33 6 3 -5 1 -10 -4 -10 -20 0 -11 -19 17 -34
20 -11 22 -15 9 -16 -28 0 -9 -20 19 -20 30 0 69 -41 51 -52 -7 -4 -22 -8 -34
-8 -13 0 -23 -5 -23 -11 0 -7 -10 -9 -24 -5 -14 3 -28 1 -31 -5 -4 -5 -18 -15
-32 -20 -20 -7 -24 -15 -21 -34 6 -28 -5 -31 -47 -15 -17 7 -24 7 -20 0 9 -14
-19 -12 -33 2 -9 9 -12 9 -12 0 0 -6 11 -14 25 -18 23 -6 33 -23 20 -36 -3 -3
-49 1 -103 8 -71 10 -115 23 -164 47 -38 18 -68 30 -68 26 0 -25 195 -88 271
-89 14 0 29 -3 33 -7 3 -4 16 -8 29 -10 26 -3 256 -22 275 -23 9 0 5 -14 -13
-43 -58 -101 -66 -177 -34 -338 39 -198 96 -289 234 -372 33 -19 92 -63 130
-97 75 -66 153 -110 282 -159 l81 -32 203 2 c176 1 225 -2 359 -24 85 -14 207
-40 270 -57 97 -27 125 -31 181 -25 68 6 139 23 106 24 -11 1 -30 10 -44 21
l-26 20 37 0 c20 0 36 4 36 9 0 22 -13 41 -29 41 -14 1 -14 2 2 11 21 12 22
29 2 29 -8 0 -15 5 -15 11 0 5 4 7 10 4 6 -4 6 4 -1 22 -20 56 -34 83 -42 83
-4 0 -2 9 5 20 10 16 10 24 0 40 -7 12 -10 25 -7 30 4 6 -13 10 -40 10 -33 0
-45 4 -42 13 3 7 20 11 48 10 37 -2 41 0 28 10 -15 11 -15 17 -2 57 8 25 20
50 25 57 5 7 7 17 3 23 -10 16 21 12 35 -5 8 -10 10 -38 6 -92 -4 -66 -4 -71
4 -33 13 60 30 289 31 420 0 86 2 100 11 80 7 -16 12 -109 12 -254 1 -157 4
-214 9 -180 5 27 9 57 10 67 1 20 6 21 41 7 21 -8 24 -7 19 8 -5 14 -3 15 7 5
9 -9 19 -9 32 -2 23 13 39 2 18 -11 -11 -7 -8 -10 15 -10 27 -1 28 -2 9 -10
-38 -15 -38 -30 0 -30 19 0 38 -4 41 -10 6 -9 -8 -14 -27 -11 -5 0 -8 -4 -8
-9 0 -17 36 -11 71 13 22 15 33 31 32 44 -2 15 7 23 38 33 23 8 43 20 46 27 3
7 12 13 21 13 13 0 13 -2 -3 -13 -11 -9 -14 -16 -7 -21 16 -10 42 4 42 23 0 9
6 23 13 30 10 11 7 12 -13 6 -14 -4 -32 -10 -40 -12 -10 -3 -9 0 4 11 20 17
13 38 -12 34 -17 -3 -22 3 -22 22 0 6 10 5 25 -2 14 -6 25 -14 25 -18 0 -4 11
-10 24 -12 45 -9 54 18 51 135 -2 58 0 118 5 134 6 19 9 -6 9 -84 1 -114 15
-151 27 -73 5 30 11 40 25 40 21 0 26 26 7 33 -8 3 -6 6 5 6 9 1 17 -3 17 -9
0 -15 40 -32 64 -26 23 6 59 36 74 62 7 13 13 14 30 5 17 -9 24 -7 41 16 23
28 64 53 88 53 8 0 11 4 8 10 -4 6 10 9 34 8 25 -1 48 5 58 15 22 19 77 41 68
27 -8 -14 35 -13 90 2 l46 12 -6 38 c-7 37 1 47 21 29 5 -5 26 -12 46 -15 29
-5 39 -3 50 12 7 10 25 27 41 37 26 17 28 17 47 0 11 -10 23 -15 27 -11 4 4 1
11 -7 16 -17 11 -11 13 47 14 47 1 50 -3 27 -38 -8 -13 -11 -26 -7 -29 14 -8
168 14 174 25 4 6 19 7 35 4 43 -9 175 26 297 77 160 69 218 112 472 354 314
300 312 298 340 295 15 -2 43 -12 63 -23 20 -10 42 -19 49 -19 21 0 15 41 -15
105 -48 101 -48 107 0 188 65 112 174 347 186 402 6 28 14 75 17 105 7 62 38
239 60 345 8 39 17 110 21 160 4 49 15 119 25 155 34 116 28 153 -46 297 -36
69 -75 138 -86 154 l-20 29 33 0 c18 0 49 -4 68 -9 19 -5 54 -11 77 -14 l42
-5 42 64 c23 35 58 78 77 96 48 41 201 113 275 128 l57 11 0 42 c0 24 -7 52
-15 64 -15 21 -13 24 49 68 35 25 71 56 80 70 9 14 25 25 34 25 20 0 62 39 62
58 0 7 9 12 21 12 23 0 76 52 90 90 8 20 12 22 20 10 7 -12 16 -8 48 25 21 22
54 49 74 59 35 18 77 73 77 101 0 7 -7 15 -15 19 -8 3 -15 10 -15 15 0 6 7 8
16 4 12 -4 15 0 12 18 -2 16 -11 25 -24 27 -12 2 -30 12 -40 23 -16 18 -16 19
5 19 20 0 19 3 -14 35 -19 20 -35 40 -35 45 0 21 -50 10 -66 -15 -9 -14 -23
-25 -30 -25 -17 0 -18 -12 -2 -28 10 -10 6 -11 -20 -6 -26 5 -35 2 -51 -17
l-18 -23 -32 31 c-40 41 -69 50 -89 29 -14 -14 -14 -17 1 -34 15 -17 16 -21 3
-31 -12 -10 -16 -8 -21 8 -10 34 -39 43 -66 23 -35 -26 -196 -122 -206 -122
-14 -1 -47 -33 -116 -117 -37 -45 -81 -93 -97 -106 -49 -42 -161 -197 -177
-246 -8 -25 -24 -53 -34 -63 -10 -9 -19 -26 -19 -38 0 -28 -21 -68 -88 -167
l-56 -83 -55 31 c-31 18 -58 35 -61 39 -3 4 -16 10 -30 14 -23 6 -23 5 -6 -6
81 -56 101 -88 54 -88 -19 0 -18 -2 6 -21 27 -21 76 -107 76 -131 -1 -7 -21
10 -46 37 -38 43 -43 46 -33 20 7 -16 21 -37 31 -47 23 -21 23 -34 -2 -41 -26
-7 -25 -21 1 -46 13 -12 17 -21 10 -26 -8 -4 -8 -13 0 -28 12 -21 11 -22 -8
-4 -20 17 -21 17 -25 -7 -3 -17 0 -27 10 -31 12 -4 7 -12 -21 -32 -26 -19 -34
-30 -27 -38 7 -9 -1 -15 -30 -24 -43 -13 -51 -25 -23 -35 15 -6 15 -8 3 -16
-8 -6 -25 -10 -38 -10 -12 0 -31 -5 -41 -12 -15 -9 -25 -9 -46 0 -15 7 -31 9
-37 6 -7 -4 -8 -2 -4 4 4 7 19 12 34 13 15 0 21 3 15 6 -7 2 -13 16 -13 29 0
21 -3 23 -19 15 -27 -15 -34 -1 -12 23 22 25 36 76 21 76 -5 0 -10 5 -10 10 0
6 7 10 16 8 10 -2 19 3 21 10 3 7 -5 12 -22 12 -24 0 -26 2 -14 16 10 12 10
17 1 23 -7 4 -10 15 -6 24 5 14 2 16 -12 10 -17 -6 -17 -5 -5 10 7 9 18 14 25
11 6 -3 3 1 -6 9 -24 19 -23 31 2 24 11 -3 20 -1 20 3 0 5 -16 12 -36 16 -23
4 -34 11 -30 20 3 7 0 15 -7 17 -9 3 -9 8 1 18 14 16 16 69 2 69 -5 0 -10 5
-10 10 0 6 7 10 17 10 9 0 13 3 9 7 -4 4 -28 7 -54 8 -46 0 -47 1 -44 30 2 17
15 41 30 55 15 14 28 30 30 35 5 20 97 8 149 -19 57 -29 67 -31 58 -15 -4 5
-32 22 -63 37 -49 23 -69 26 -150 26 -56 0 -97 -5 -104 -12 -7 -7 -35 -12 -64
-12 l-51 0 -6 78 c-23 285 -31 347 -57 450 -32 122 -61 194 -127 312 -69 125
-91 155 -181 257 -48 54 -103 118 -122 143 -46 61 -78 92 -125 123 -67 44 -80
56 -69 67 10 10 -4 81 -88 419 -35 143 -46 176 -66 189 -20 13 -24 13 -42 -3
-11 -10 -20 -25 -20 -34 0 -27 46 -220 75 -316 24 -78 47 -205 38 -205 -2 0
-27 12 -56 27 -35 18 -78 29 -132 34 -44 5 -106 12 -137 15 l-57 6 -11 50
c-13 52 -27 57 -47 18 l-11 -23 -13 22 c-23 35 -32 24 -26 -30 5 -43 4 -50 -9
-45 -8 3 -57 13 -107 21 -117 20 -186 33 -263 51 -92 21 -108 20 -339 -21
-139 -25 -325 -128 -534 -295 -104 -82 -105 -83 -130 -67 -14 9 -43 24 -64 33
-35 15 -37 19 -32 48 15 80 15 226 1 261 -23 54 -38 47 -86 -37 -34 -62 -56
-85 -46 -49 3 11 9 31 12 44 3 12 15 46 26 75 16 40 18 56 9 65 -8 8 -15 6
-29 -8 -12 -14 -13 -16 -1 -7 9 6 18 9 21 7 6 -6 -27 -114 -66 -218 -19 -53
-23 -58 -46 -53 -131 31 -618 23 -753 -12 -64 -16 -77 -17 -73 -5 3 8 2 12 -3
9 -5 -3 -14 9 -20 27 l-11 32 20 -25 c11 -14 20 -21 20 -16 0 21 -139 272
-187 336 -36 48 -53 80 -53 100 0 24 -5 30 -22 31 -13 1 -30 2 -39 3 -9 1 -26
9 -37 19 -11 10 -22 14 -23 8 -2 -6 -25 3 -50 19 -36 22 -56 45 -85 99 -33 61
-54 86 -54 65z m326 -365 c8 -17 29 -45 45 -63 16 -17 58 -90 93 -162 l64
-132 -61 -12 c-34 -7 -75 -15 -91 -19 -29 -7 -31 -5 -73 77 -42 82 -122 202
-171 254 -19 21 -22 29 -11 33 86 31 157 54 171 55 10 0 25 -14 34 -31z m2259
-209 c24 -10 28 -9 -70 -17 -44 -3 -97 -12 -119 -19 -21 -8 -51 -14 -66 -14
-15 0 -75 -20 -134 -45 -106 -44 -136 -53 -136 -37 0 22 195 101 310 124 84
18 184 21 215 8z m632 -140 c32 -10 45 -10 69 2 18 9 39 12 54 8 l25 -7 -30
-9 c-16 -4 -37 -7 -44 -5 -13 2 -13 0 -1 -14 18 -22 64 -45 90 -45 11 0 20 -6
20 -13 0 -7 5 -18 11 -24 7 -7 14 -36 16 -65 5 -60 13 -73 50 -83 20 -5 23 -9
14 -15 -11 -6 -9 -11 8 -19 12 -7 19 -16 16 -20 -10 -18 26 -71 49 -71 12 0
35 -13 51 -30 15 -16 32 -27 36 -24 5 3 18 -10 28 -27 15 -25 17 -36 9 -46 -8
-10 -6 -19 9 -36 30 -33 37 -48 19 -41 -11 4 -16 0 -16 -10 0 -9 -4 -16 -10
-16 -5 0 -10 -7 -10 -15 0 -8 6 -15 14 -15 7 0 19 -7 26 -15 10 -12 10 -15 -3
-15 -9 0 -19 5 -22 10 -13 21 -24 9 -13 -15 6 -13 15 -22 20 -19 5 3 7 2 6 -3
-2 -4 2 -26 9 -48 50 -172 55 -269 22 -423 -11 -53 -35 -126 -52 -162 -18 -36
-33 -68 -35 -72 -2 -5 25 -8 60 -8 86 0 232 -19 280 -36 81 -28 218 -143 372
-309 95 -103 104 -117 110 -161 13 -94 -50 -237 -133 -303 -30 -24 -52 -56
-82 -117 -35 -74 -119 -212 -222 -364 -44 -65 -164 -218 -208 -265 -37 -40
-37 -40 -42 -145 -5 -102 -6 -109 -64 -240 -76 -173 -84 -188 -150 -290 -129
-200 -116 -186 -258 -264 -71 -40 -149 -84 -171 -98 -98 -63 -160 -80 -314
-90 -80 -5 -181 -6 -225 -3 -44 3 -143 1 -220 -5 -419 -31 -456 -29 -553 37
-100 68 -162 116 -162 126 0 13 78 -34 125 -75 23 -21 54 -42 67 -47 42 -16
214 -33 264 -27 152 19 491 41 542 35 113 -14 168 -10 259 20 227 75 315 112
394 166 45 30 85 55 90 55 28 0 245 401 274 506 9 32 23 75 31 94 16 37 34
147 26 155 -3 2 -17 -4 -31 -14 -14 -10 -60 -35 -101 -56 -41 -20 -113 -66
-160 -100 -96 -71 -173 -104 -317 -134 -105 -22 -300 -30 -428 -16 -109 11
-245 54 -281 89 -6 6 -25 23 -43 39 -33 29 -45 82 -16 71 8 -4 15 -11 15 -18
0 -6 17 -30 38 -53 l37 -43 119 -16 c84 -11 122 -12 129 -5 8 8 5 11 -9 11
-15 0 -16 2 -4 9 8 6 17 8 22 5 4 -3 38 1 75 8 72 12 133 44 125 66 -3 9 3 11
21 7 17 -5 26 -2 30 9 4 9 16 16 27 16 11 0 20 5 20 10 0 6 6 10 14 10 8 0 13
7 12 16 -1 20 49 52 83 53 24 1 24 1 5 16 -14 11 -15 14 -4 15 8 0 20 8 26 18
6 9 32 27 57 40 26 13 49 27 52 33 4 5 19 9 36 9 16 0 29 4 29 8 0 5 19 12 43
18 23 5 41 14 40 21 -1 6 36 23 87 39 49 15 88 29 87 30 -1 1 -47 7 -102 14
-55 7 -107 16 -115 22 -12 7 -11 8 5 3 10 -3 77 -8 148 -12 98 -4 128 -2 122
7 -4 6 -13 9 -21 6 -7 -3 -16 -1 -19 3 -3 5 1 11 9 14 18 7 82 -25 79 -39 -1
-7 9 -9 25 -6 24 5 26 4 13 -11 -7 -10 -19 -17 -27 -17 -20 0 -27 -19 -12 -37
11 -15 11 -16 -6 -10 -22 9 -56 0 -56 -14 0 -5 5 -8 11 -7 6 2 14 -3 16 -9 3
-7 -3 -13 -12 -13 -9 0 -14 -4 -10 -9 3 -6 -21 -13 -55 -17 -33 -4 -63 -11
-66 -15 -3 -5 -27 -9 -53 -9 -26 0 -51 -4 -56 -9 -6 -6 -31 -11 -58 -13 -52
-3 -62 -17 -27 -35 23 -11 23 -12 -13 -27 -39 -16 -44 -25 -25 -44 9 -9 6 -14
-13 -21 -34 -14 0 -14 42 0 19 6 80 34 136 61 91 45 123 52 123 30 0 -10 -95
-73 -150 -100 -25 -12 -77 -30 -115 -39 -43 -11 -61 -19 -47 -21 12 -2 22 -10
22 -18 0 -25 52 -8 172 53 83 43 124 72 180 126 40 40 91 85 114 102 132 97
171 131 191 167 13 22 35 54 49 71 14 16 64 95 111 176 48 80 111 175 140 211
29 36 69 97 88 135 19 39 46 90 59 115 36 65 56 115 55 137 0 10 -13 28 -28
40 -27 21 -27 21 -39 2 -10 -16 -9 -19 4 -19 11 0 14 -5 10 -16 -3 -9 -6 -22
-6 -30 0 -8 -8 -14 -17 -14 -15 0 -16 -2 -3 -10 13 -8 13 -10 -2 -10 -11 0
-15 -5 -12 -15 4 -9 -6 -22 -30 -36 -22 -13 -36 -29 -36 -41 0 -11 -5 -18 -12
-16 -7 3 -23 -8 -36 -24 -13 -15 -28 -25 -34 -22 -11 7 -68 -54 -68 -74 0 -8
-6 -12 -15 -9 -8 4 -17 2 -20 -3 -3 -4 0 -10 7 -12 8 -3 6 -16 -8 -43 -15 -28
-30 -41 -52 -47 -29 -8 -31 -11 -20 -28 7 -11 21 -20 30 -20 10 0 18 -4 18
-10 0 -5 -9 -10 -21 -10 -11 0 -17 -4 -14 -10 3 -5 17 -10 31 -10 32 0 29 -33
-3 -38 -12 -2 -27 -10 -33 -17 -10 -12 -9 -16 6 -22 13 -5 7 -9 -27 -17 -34
-9 -45 -16 -47 -34 -3 -17 1 -22 13 -20 18 3 44 -26 33 -37 -3 -3 -17 0 -32 6
-21 10 -29 10 -39 0 -9 -10 -9 -11 4 -6 9 3 22 -2 30 -12 12 -16 12 -17 -1 -6
-12 9 -24 7 -54 -8 -22 -10 -49 -19 -61 -19 -11 0 -27 -6 -33 -12 -19 -19
-155 -49 -167 -37 -10 10 40 58 63 59 6 0 12 7 12 15 0 8 7 15 15 15 8 0 15 3
15 8 -1 12 -30 46 -30 34 0 -6 -7 -9 -15 -6 -28 11 -16 21 40 33 l56 13 -31
31 -32 32 26 9 c30 11 33 23 9 43 -17 14 -17 14 0 9 9 -3 24 -9 32 -12 10 -4
18 3 25 21 14 37 13 44 -9 38 -10 -3 -22 0 -25 6 -5 7 3 11 18 11 18 0 26 5
26 18 0 11 17 24 47 37 46 19 236 150 300 205 17 15 37 30 45 32 7 3 10 8 7
11 -3 4 -63 -36 -133 -88 -151 -113 -197 -141 -282 -172 -35 -12 -87 -34 -114
-48 -28 -14 -50 -21 -50 -15 0 5 57 37 127 71 124 59 227 123 288 179 17 14
54 44 84 65 30 22 49 41 43 43 -21 7 -12 32 23 65 79 73 97 87 115 87 25 0 25
3 -2 54 -54 98 -159 216 -193 216 -8 0 -29 13 -47 29 -98 85 -239 131 -401
131 l-97 0 -33 -47 c-17 -25 -51 -70 -74 -99 -24 -29 -50 -74 -59 -100 -32
-94 -204 -327 -319 -432 -31 -29 -78 -64 -103 -79 -26 -15 -64 -40 -85 -56
-21 -16 -41 -27 -44 -23 -4 3 -4 7 -2 9 2 2 22 17 44 34 22 17 54 38 72 46 53
28 200 175 240 240 20 34 51 83 70 108 18 26 33 50 33 54 0 3 15 25 34 48 18
23 46 71 62 107 15 36 37 74 49 86 29 30 155 190 155 198 0 3 9 25 19 49 48
103 62 204 51 353 -8 99 -14 133 -31 160 -11 19 -25 34 -30 34 -5 0 -9 5 -9
10 0 21 -95 167 -139 213 -57 60 -91 82 -178 111 -57 19 -78 22 -128 15 -33
-5 -98 -13 -146 -18 -67 -7 -99 -17 -155 -46 -107 -56 -224 -159 -224 -197 0
-10 18 -62 40 -115 22 -54 43 -116 47 -138 3 -22 19 -64 35 -92 40 -72 31 -88
-12 -22 -20 31 -50 62 -70 72 l-35 19 33 -6 c33 -6 34 -6 27 27 -4 17 -16 49
-26 69 -10 20 -30 72 -45 115 -58 176 -154 258 -364 312 -41 10 -106 33 -144
50 -64 29 -71 31 -130 21 -33 -5 -77 -10 -97 -10 -20 0 -42 -7 -49 -15 -17
-20 -78 -36 -176 -45 -53 -4 -98 -15 -130 -31 -59 -29 -208 -169 -260 -245
-21 -30 -39 -52 -42 -50 -12 13 62 118 138 196 87 91 168 144 258 171 24 7 41
17 39 24 -3 6 15 19 39 29 38 16 43 21 38 41 -5 19 -2 24 13 24 10 -1 29 2 43
6 14 3 48 7 75 8 66 3 77 11 63 42 -10 22 -8 29 12 50 33 36 106 35 145 0 21
-21 30 -23 41 -14 12 9 13 9 9 -4 -8 -19 15 -34 26 -16 6 11 12 10 27 -4 19
-17 20 -17 18 10 -1 15 -5 34 -10 42 -7 11 -4 13 12 9 19 -5 22 -2 22 28 0 23
6 37 19 44 38 20 99 -26 71 -54 -13 -13 -13 -29 0 -21 6 3 10 -1 10 -9 0 -19
-3 -18 39 -6 21 6 40 6 51 0 13 -7 21 -5 29 4 9 11 9 15 -1 19 -7 3 -4 6 7 6
31 1 40 -11 42 -54 1 -21 4 -49 8 -62 4 -16 1 -23 -10 -23 -21 0 -14 -23 10
-34 16 -7 17 -9 5 -14 -20 -7 -40 -34 -39 -52 2 -32 -2 -40 -21 -40 -10 0 -23
-7 -28 -15 -7 -14 -12 -14 -45 0 -67 28 -53 15 28 -26 84 -42 133 -82 167
-137 l20 -32 40 22 c21 12 60 47 86 78 25 30 35 45 21 33 -32 -29 -43 -29 -36
-1 4 14 0 29 -10 40 -15 17 -15 18 0 18 10 0 17 4 17 9 0 5 -18 7 -40 4 -32
-5 -40 -3 -40 10 0 10 6 14 14 11 8 -3 23 -1 33 5 16 9 14 10 -11 11 -27 0
-28 1 -14 18 12 13 15 34 12 86 -2 39 1 75 7 82 7 8 7 14 -1 19 -13 8 42 65
63 65 8 0 20 6 26 14 9 11 18 12 41 3 26 -10 27 -12 12 -24 -15 -11 -15 -12 5
-13 12 0 27 -2 35 -5 7 -3 29 4 48 16 30 19 32 23 18 33 -14 10 -8 12 33 13
27 0 52 -3 55 -8 9 -15 37 -10 31 5 -5 11 8 18 49 26 59 12 66 21 32 39 -24
12 -19 11 49 -9z m-1674 -763 c89 -32 141 -65 219 -136 l67 -62 72 31 c39 16
85 30 103 31 17 0 40 4 51 9 l20 9 -20 1 c-20 1 -20 1 0 15 16 13 21 13 32 2
10 -10 27 -11 74 -3 68 11 108 1 229 -58 57 -27 68 -30 90 -19 14 6 50 14 80
17 40 4 45 3 20 -3 -35 -7 -100 -38 -100 -46 0 -3 15 -29 34 -58 39 -61 76
-189 76 -265 0 -90 -59 -363 -91 -424 -13 -24 7 -24 34 0 11 9 17 12 14 5 -10
-15 -245 -217 -260 -222 -13 -4 102 121 118 129 23 12 54 44 49 52 -3 5 3 28
14 51 51 109 92 238 98 309 8 86 -3 147 -48 272 l-31 89 -116 75 c-132 85
-135 86 -298 60 -125 -20 -185 -46 -284 -119 -161 -120 -259 -232 -259 -297 0
-11 -10 -36 -23 -54 -21 -31 -24 -33 -47 -20 -15 8 -46 11 -79 9 -48 -3 -58
-8 -90 -44 -20 -21 -42 -48 -48 -59 -8 -10 -6 -2 2 20 31 79 70 101 167 93
l67 -6 11 37 c5 20 10 53 10 73 0 51 52 124 120 172 30 21 69 50 85 66 17 15
45 36 63 45 l33 17 -32 37 c-32 36 -85 74 -151 108 -37 19 -216 43 -328 44
-86 0 -104 -8 -192 -89 -52 -47 -60 -60 -83 -134 -32 -106 -63 -172 -64 -139
-2 39 30 174 49 212 26 50 101 117 167 147 34 16 85 28 132 33 138 13 177 11
244 -13z m-654 -221 c-2 -2 -49 -12 -104 -21 -151 -25 -272 -81 -356 -165 -69
-68 -178 -209 -209 -269 -10 -20 -25 -68 -35 -107 l-17 -70 31 -90 c17 -49 42
-154 56 -234 35 -200 36 -201 123 -330 68 -101 85 -119 133 -145 31 -16 71
-42 90 -56 49 -37 223 -129 245 -129 21 0 173 -58 189 -72 19 -17 -52 -7 -120
17 -38 13 -82 25 -96 25 -54 0 -246 121 -337 212 -114 114 -174 193 -221 292
l-48 99 -37 -109 c-55 -157 -66 -283 -42 -487 17 -142 27 -187 73 -341 l18
-60 115 -68 c71 -42 138 -92 175 -129 l60 -60 -75 49 c-41 27 -93 59 -116 70
-22 11 -76 47 -120 79 -63 48 -86 71 -111 119 -42 80 -70 237 -79 442 -6 152
-5 160 21 242 15 46 33 107 41 136 7 28 27 81 43 117 l30 65 -20 93 c-54 257
-52 227 -15 349 56 185 179 358 311 435 58 35 178 77 267 94 45 9 144 14 137
7z m69 -616 c11 -41 28 -95 37 -120 9 -25 23 -81 31 -125 20 -105 43 -154 88
-190 20 -17 53 -44 74 -61 20 -17 60 -46 87 -63 31 -20 40 -30 25 -26 -61 16
-130 56 -196 113 l-70 60 -32 104 c-37 119 -72 269 -97 414 -17 98 -17 104 1
175 l19 74 6 -140 c4 -97 12 -163 27 -215z m-1230 191 c-3 -83 -1 -171 3 -198
5 -26 15 -94 23 -149 19 -129 57 -234 124 -345 36 -61 67 -149 52 -149 -12 0
-150 281 -150 304 0 9 -8 33 -19 54 -31 60 -50 186 -51 337 -1 140 8 295 17
295 3 0 3 -67 1 -149z m2462 64 c14 -7 36 -25 49 -39 l25 -26 -28 -78 c-16
-42 -32 -93 -36 -112 -18 -85 -61 -133 -155 -174 -54 -25 -78 -46 -50 -46 8 0
43 -15 77 -32 33 -18 80 -43 104 -55 24 -13 44 -29 44 -37 0 -22 19 -29 38
-15 22 16 -154 -156 -247 -241 -39 -36 -71 -60 -71 -55 0 13 72 99 115 138 71
65 110 97 117 97 4 0 15 11 24 25 16 25 16 27 -5 49 -25 27 -58 41 -186 82
-73 24 -108 29 -185 29 -92 0 -97 -1 -155 -38 -70 -43 -75 -44 -75 -16 0 11
-9 51 -19 87 -26 90 -33 132 -21 132 6 0 10 -10 10 -23 0 -24 35 -165 42 -173
3 -2 32 10 65 27 l60 31 2 91 c2 160 17 202 85 240 l44 25 -44 -54 c-24 -30
-46 -67 -50 -82 -3 -15 -7 -33 -10 -40 -5 -18 7 -158 16 -171 4 -7 42 -12 91
-13 l84 -2 67 47 c64 46 168 149 168 167 0 5 -10 15 -22 21 -13 7 -48 35 -79
64 -68 62 -119 88 -165 83 -32 -4 -33 -3 -17 14 9 10 30 18 49 18 23 0 41 9
62 30 30 30 52 39 52 21 0 -5 -14 -20 -31 -32 l-31 -22 39 -39 c37 -39 146
-128 157 -128 3 0 15 31 27 70 l23 70 -25 26 c-27 29 -89 64 -114 64 -9 0 -13
5 -10 11 8 12 57 3 95 -16z m1376 -455 c46 -89 54 -110 65 -177 21 -122 -20
-209 -190 -403 -51 -58 -113 -140 -139 -184 -76 -127 -132 -178 -269 -243 -65
-30 -158 -72 -208 -93 -49 -20 -121 -51 -160 -67 -38 -17 -122 -45 -185 -63
-63 -19 -136 -44 -161 -56 -26 -13 -78 -31 -115 -40 -38 -9 -84 -23 -103 -31
-78 -35 -281 -17 -476 42 -150 46 -215 80 -294 154 -35 34 -67 61 -72 61 -14
0 -100 119 -127 177 -22 49 -26 71 -25 139 1 89 9 110 60 167 l34 38 -26 45
c-14 24 -23 44 -20 44 13 0 62 -30 114 -69 37 -28 88 -52 165 -77 61 -21 134
-48 161 -61 75 -34 104 -30 221 31 125 66 237 108 269 100 12 -3 36 1 53 10
16 8 52 20 78 26 151 31 384 105 464 146 83 43 160 110 209 183 21 31 48 65
60 76 l22 19 -11 -28 c-21 -57 -94 -171 -134 -210 -49 -48 -243 -137 -353
-161 -116 -26 -157 -36 -197 -51 -21 -8 -95 -28 -165 -45 -69 -16 -132 -36
-141 -44 -44 -40 -250 -115 -315 -115 -31 0 -96 26 -225 90 -52 26 -116 52
-141 58 -26 7 -53 14 -62 17 -15 6 -20 0 -78 -115 -35 -68 -36 -87 -3 -153 96
-190 159 -265 265 -319 78 -40 245 -98 309 -107 30 -5 100 -17 155 -26 122
-22 196 -14 355 38 58 19 150 49 205 67 55 17 136 51 180 75 139 76 198 104
282 136 46 17 104 46 130 65 75 54 186 128 203 135 8 4 36 44 62 90 29 51 64
98 89 118 57 47 199 264 199 305 0 74 -41 271 -65 314 -14 25 -25 49 -25 55 0
19 52 -38 76 -83z m-2036 -756 c41 -40 56 -46 160 -73 63 -17 153 -44 200 -60
l85 -30 113 24 c110 23 136 32 197 69 l30 18 -32 -30 c-33 -31 -148 -74 -240
-88 -53 -8 -161 11 -232 41 -31 12 -89 28 -129 34 -93 14 -113 25 -187 101
-68 71 -39 65 35 -6z m-787 -828 c71 -43 155 -90 187 -105 60 -29 160 -90 160
-98 0 -26 -283 111 -377 182 -32 24 -76 63 -98 86 -22 24 -31 36 -20 28 11 -9
78 -51 148 -93z m1477 49 c0 -17 -57 -91 -113 -146 -68 -68 -185 -141 -270
-169 -68 -22 -238 -12 -353 21 -76 21 -139 26 -289 20 -27 -1 -61 2 -75 8 -24
9 -23 10 10 10 19 1 62 11 95 22 l60 22 75 -27 c41 -15 122 -39 180 -53 104
-26 106 -26 165 -9 33 9 87 21 120 27 73 12 116 39 220 140 102 99 175 155
175 134z m-610 -610 c-26 -31 -137 -113 -206 -152 -184 -104 -399 -135 -686
-99 -62 8 -158 20 -212 27 -54 6 -130 12 -168 13 -58 0 -67 2 -53 13 22 15
119 27 148 18 25 -8 321 -26 467 -28 107 -2 300 9 308 18 8 8 -67 6 -177 -5
-61 -7 -108 -7 -117 -2 -14 8 -12 10 10 16 15 4 31 4 36 1 6 -4 10 1 10 10 0
12 5 15 18 10 30 -12 72 -14 72 -4 0 5 -11 14 -25 19 -14 5 -25 14 -25 20 0 6
8 6 23 1 52 -21 65 -24 124 -25 44 -1 59 2 52 10 -7 8 0 8 26 0 19 -6 35 -14
35 -18 0 -16 37 -7 55 12 12 13 25 17 44 14 21 -4 47 10 131 70 102 73 136 92
110 61z m-56 -565 c-19 -57 -51 -135 -70 -173 -20 -38 -33 -71 -30 -74 3 -3
10 6 17 20 6 14 22 28 34 31 25 6 42 36 22 37 -7 0 -2 4 11 10 16 6 31 5 45
-3 12 -6 35 -14 52 -18 27 -5 30 -9 30 -50 0 -25 -4 -48 -8 -51 -16 -12 20
-34 54 -34 28 0 35 4 37 23 2 13 -2 22 -9 22 -10 0 -10 3 -2 11 17 17 31 3 25
-26 -5 -28 0 -30 28 -13 14 9 22 10 31 1 8 -8 3 -13 -20 -18 -17 -4 -29 -10
-26 -15 3 -4 -2 -11 -11 -14 -10 -4 -14 -13 -10 -22 4 -12 1 -14 -13 -9 -11 3
-22 1 -26 -5 -9 -15 -35 -12 -35 5 0 14 13 20 35 15 6 -1 5 4 -2 10 -7 8 -23
9 -43 5 -29 -6 -30 -8 -13 -21 16 -12 16 -15 3 -24 -8 -6 -27 -8 -41 -6 -14 3
-31 0 -38 -7 -8 -8 -14 -8 -22 0 -7 7 -5 15 6 27 19 19 12 21 -17 5 -18 -10
-20 -9 -15 5 6 15 4 15 -17 -1 -22 -17 -23 -19 -9 -35 15 -17 14 -18 -4 -18
-11 0 -23 3 -27 8 -4 4 -11 7 -14 8 -4 0 -15 4 -24 8 -9 4 -26 1 -40 -8 -16
-10 -28 -12 -38 -6 -12 8 -13 10 -1 10 8 0 11 3 7 7 -3 4 -29 -15 -56 -42 -28
-27 -50 -44 -50 -37 0 7 -13 12 -30 12 -23 0 -30 4 -30 20 0 13 -7 20 -20 20
-11 0 -19 -4 -18 -8 4 -13 -53 -58 -97 -76 -31 -13 -36 -19 -25 -26 20 -13 4
-12 -43 1 -31 8 -42 8 -55 -4 -10 -8 -29 -17 -44 -19 -23 -4 -28 -1 -28 14 0
16 -3 17 -20 8 -25 -14 -61 -4 -54 14 3 8 -4 16 -18 19 -28 8 -51 50 -35 66 7
7 6 15 -3 27 -8 9 -13 29 -12 44 3 42 -14 80 -37 80 -14 0 -19 5 -15 15 4 8 1
15 -5 15 -6 0 -10 5 -8 11 3 18 -19 21 -35 5 -18 -17 -108 -10 -108 9 0 20
-27 26 -41 9 -10 -13 -14 -13 -29 1 -9 8 -30 15 -47 15 -17 0 -38 8 -49 21
-12 13 -25 18 -40 15 -18 -5 -21 -2 -17 14 7 25 9 25 56 0 34 -18 41 -18 39 1
-1 4 15 10 36 14 20 4 53 14 72 22 19 9 43 15 53 14 16 -2 22 10 17 34 -1 5 7
2 17 -8 16 -14 25 -15 56 -6 20 5 37 12 37 14 0 2 -12 11 -27 20 l-28 16 29
-4 c16 -3 44 1 62 9 53 22 101 18 131 -12 29 -29 24 -34 81 64 20 35 38 57 40
49 6 -27 -72 -168 -132 -241 -52 -63 -54 -66 -15 -29 43 41 137 86 204 99 23
4 32 10 28 20 -6 17 -2 17 31 4 21 -7 26 -6 26 5 0 8 5 15 10 15 6 0 10 -7 10
-15 0 -9 7 -18 16 -22 8 -3 13 -12 10 -20 -4 -10 -1 -13 13 -8 19 6 37 -18 26
-35 -3 -4 2 -10 10 -14 9 -3 12 -12 8 -22 -5 -14 -2 -16 20 -12 22 4 26 1 29
-20 3 -22 9 -26 46 -29 37 -4 42 -2 42 17 0 17 3 19 19 10 29 -15 32 -13 25
15 -5 19 -2 25 9 25 9 0 20 -7 25 -17 8 -13 18 0 49 63 22 43 52 111 68 149
31 80 35 88 41 82 2 -2 -12 -50 -32 -107z"/>
<path d="M7687 14358 c-7 -25 24 -81 63 -115 16 -14 20 -22 11 -23 -8 0 -23 8
-33 17 -13 12 -22 13 -29 6 -15 -15 2 -44 50 -85 31 -26 39 -39 34 -56 -4 -19
-8 -20 -27 -10 -11 7 -28 11 -36 10 -10 -1 -11 1 -2 4 6 3 12 13 12 22 0 8 -3
12 -7 9 -3 -4 -11 3 -18 16 -6 12 -19 21 -28 21 -13 -1 -15 1 -8 10 14 17 -16
59 -36 51 -9 -3 -22 3 -30 12 -14 17 -14 17 -10 -3 4 -20 -1 -22 -62 -29 -69
-7 -149 -37 -191 -73 -18 -15 -21 -21 -9 -22 8 0 20 5 27 12 17 17 28 0 15
-22 -10 -14 -9 -21 3 -31 19 -15 138 -13 165 4 17 10 22 9 33 -5 15 -21 113
-57 191 -70 33 -5 75 -16 94 -24 18 -8 36 -12 39 -9 3 2 0 22 -6 42 -36 126
-53 198 -63 278 -7 49 -14 84 -17 77 -2 -7 -13 -12 -23 -12 -11 0 -17 5 -14
10 4 6 -11 10 -38 10 -38 0 -46 -3 -50 -22z"/>
<path d="M14795 12905 c-49 -24 -166 -80 -260 -126 -230 -111 -256 -121 -282
-114 -13 3 -23 2 -23 -2 0 -5 -13 -15 -29 -24 -30 -18 -51 -10 -51 18 0 16
-14 17 -43 1 -58 -33 -244 -157 -256 -172 -12 -14 -9 -16 32 -16 25 0 68 -5
94 -11 48 -11 50 -11 96 24 95 73 240 155 514 293 156 78 288 144 294 146 7 2
10 9 8 15 -2 6 -40 -6 -94 -32z"/>
<path d="M5010 12189 c41 -33 84 -59 100 -59 8 -1 27 -19 43 -41 15 -22 40
-45 55 -52 15 -6 35 -22 45 -34 10 -12 50 -38 89 -58 40 -20 79 -42 88 -50 18
-16 131 -68 136 -62 11 11 -200 145 -327 208 -19 10 -41 30 -47 44 l-12 27 40
-7 c67 -11 180 -81 180 -111 0 -15 60 -44 92 -44 12 -1 52 -18 88 -40 l65 -39
33 35 c17 19 37 32 42 29 6 -3 10 -2 10 4 0 14 -50 51 -69 51 -9 0 -26 6 -38
13 -88 50 -215 116 -253 132 -25 11 -57 28 -72 38 -14 11 -32 17 -39 15 -12
-4 19 -25 114 -78 20 -11 37 -25 37 -30 0 -21 -22 -20 -62 3 -24 14 -72 35
-108 48 -36 13 -70 30 -76 38 -7 9 -20 12 -36 8 -18 -5 -30 -1 -43 13 -13 14
-31 20 -59 20 l-41 0 25 -21z"/>
<path d="M5710 12127 c0 -38 68 -150 87 -143 8 3 17 6 19 6 2 0 4 7 4 15 0 17
37 44 70 50 33 6 33 9 6 42 -21 25 -36 31 -83 37 -31 4 -67 9 -80 12 -19 5
-23 2 -23 -19z"/>
<path d="M6130 12031 c0 -38 -11 -46 -31 -20 -24 32 -39 15 -39 -44 l-1 -52
-47 52 c-53 58 -50 59 -139 -9 -51 -39 -52 -40 -36 -64 12 -20 13 -24 1 -24
-7 0 -24 7 -36 16 -12 8 -22 11 -22 6 0 -5 -19 -22 -42 -37 l-42 -28 97 -94
c54 -51 95 -98 92 -104 -4 -5 -12 -6 -18 -2 -28 16 -122 89 -126 96 -1 4 -10
13 -18 20 -8 7 -25 21 -38 33 -13 12 -29 18 -40 14 -16 -6 -14 -9 11 -29 16
-12 47 -39 69 -59 22 -20 66 -56 97 -80 32 -23 63 -52 69 -64 7 -13 24 -32 38
-43 82 -64 177 -160 188 -190 17 -50 120 -171 217 -254 78 -68 126 -132 126
-169 0 -7 -13 -12 -29 -12 -17 0 -32 -4 -36 -9 -9 -15 116 -23 170 -11 104 23
105 23 128 2 13 -12 44 -23 74 -27 l53 -7 -61 99 c-33 54 -74 117 -90 141 -38
56 -124 269 -149 371 -11 44 -34 109 -50 146 -17 37 -30 73 -30 81 0 17 -46
122 -105 239 l-40 80 -82 32 -83 31 0 -27z"/>
<path d="M3145 11771 c-3 -10 -1 -31 6 -47 10 -26 8 -31 -17 -49 -63 -46 -75
-60 -69 -78 4 -10 18 -17 32 -17 13 0 44 -5 69 -11 38 -10 47 -9 63 5 24 22
31 20 31 -9 0 -21 5 -25 28 -25 15 0 70 -14 122 -30 51 -17 102 -30 111 -30
27 0 32 -17 14 -44 -14 -22 -14 -27 2 -62 35 -79 51 -94 95 -94 31 0 41 -4 45
-19 4 -16 9 -18 28 -11 22 8 23 7 18 -28 -7 -53 23 -88 82 -96 41 -7 64 -20
52 -32 -8 -8 -209 36 -297 66 -93 32 -197 50 -187 33 4 -6 37 -19 73 -29 69
-18 85 -34 63 -60 -10 -13 -10 -17 2 -25 8 -5 24 -9 35 -9 12 0 42 -11 65 -25
24 -14 51 -25 60 -25 8 0 24 -12 36 -28 14 -19 31 -28 54 -30 43 -3 195 -43
329 -86 256 -83 349 -106 424 -106 46 0 213 -34 361 -75 50 -13 113 -27 140
-31 28 -3 77 -12 110 -20 33 -8 91 -14 128 -14 59 0 71 -3 93 -25 27 -27 50
-32 56 -13 2 6 18 11 35 10 27 0 33 4 38 29 6 27 10 29 51 29 24 0 44 4 44 8
0 8 -58 37 -127 62 -18 7 -33 16 -33 19 0 6 -154 82 -289 143 -24 10 -63 34
-85 52 -23 18 -70 50 -106 71 -36 20 -126 81 -200 134 -74 54 -169 118 -210
144 -41 25 -110 80 -154 122 -43 41 -82 75 -87 75 -5 0 -41 20 -82 45 -41 24
-105 58 -143 75 -38 17 -87 39 -109 50 -88 41 -135 58 -135 50 0 -17 52 -49
92 -55 23 -4 48 -14 55 -21 8 -7 22 -18 31 -23 9 -5 13 -13 9 -17 -4 -5 -49 7
-100 25 -98 35 -126 43 -197 61 -25 6 -54 16 -65 22 -10 6 -91 28 -178 49
-186 45 -301 53 -312 20z"/>
<path d="M16778 11475 c-68 -8 -116 -18 -130 -29 -63 -46 -113 -76 -122 -73
-6 2 -20 -9 -33 -23 -12 -15 -37 -33 -55 -40 -18 -8 -52 -24 -76 -38 -39 -22
-41 -26 -25 -37 13 -9 35 -10 83 -3 36 5 103 8 150 8 137 -2 165 2 168 25 1
11 -9 36 -23 55 -28 38 -24 48 27 64 19 6 38 22 45 37 11 23 22 27 95 37 46 7
114 12 151 12 43 0 66 4 62 10 -8 13 -182 11 -317 -5z"/>
<path d="M16430 11444 c-237 -54 -269 -64 -391 -127 -68 -35 -141 -69 -161
-76 -21 -7 -38 -16 -38 -20 0 -17 27 -31 62 -31 21 0 38 -5 38 -11 0 -8 5 -7
16 2 13 10 17 10 25 -2 7 -11 9 -9 9 7 0 27 17 34 84 34 36 0 61 6 77 18 13
10 38 25 54 33 34 16 118 66 185 109 25 16 65 41 90 54 51 29 42 30 -50 10z"/>
<path d="M13885 11401 c-242 -137 -260 -151 -299 -243 -15 -38 -33 -68 -40
-68 -6 0 -27 -24 -46 -53 -19 -28 -43 -59 -52 -68 -10 -9 -18 -20 -18 -23 0
-4 -6 -13 -12 -20 -7 -8 -20 -24 -28 -36 -8 -13 -22 -30 -31 -39 -31 -32 -60
-104 -71 -179 -8 -54 -26 -108 -60 -182 -49 -104 -177 -473 -179 -514 0 -12
-3 -15 -6 -8 -2 6 -11 12 -18 12 -7 0 -15 10 -19 23 -7 30 -64 102 -96 124
-15 10 -9 -1 16 -28 50 -52 69 -89 78 -147 3 -23 15 -59 25 -78 20 -37 20 -61
0 -180 -13 -76 1 -152 44 -241 23 -48 52 -82 134 -157 57 -53 121 -108 143
-122 22 -15 40 -30 40 -35 0 -26 131 -123 228 -168 12 -6 22 -15 22 -21 0 -5
7 -10 15 -10 8 0 15 -4 15 -10 0 -5 4 -10 10 -10 5 0 38 -21 74 -47 86 -63
158 -108 173 -108 7 0 56 -43 110 -96 65 -64 117 -105 153 -122 30 -14 61 -35
68 -46 7 -12 18 -21 26 -21 7 0 27 -7 44 -16 17 -8 51 -16 74 -17 24 -1 48 -8
53 -15 8 -10 17 -11 36 -4 16 7 31 7 43 0 10 -5 20 -7 23 -4 4 3 12 1 20 -5
10 -9 13 -8 13 5 0 9 5 16 10 16 19 0 10 -65 -15 -110 l-25 -45 25 28 c14 15
30 48 36 73 16 61 29 55 29 -15 0 -61 -12 -83 -70 -124 -25 -17 -25 -17 7 -2
39 19 73 65 76 105 1 16 7 30 13 30 6 0 23 11 37 24 14 13 28 22 31 19 3 -3
18 3 33 13 15 10 35 20 43 20 68 8 167 28 175 36 7 7 3 8 -12 4 -19 -6 -161
-26 -300 -43 -90 -10 -285 29 -445 88 -82 31 -85 33 -243 193 -133 134 -180
174 -280 238 -66 43 -143 90 -172 105 -29 14 -51 28 -49 30 8 9 384 -90 421
-111 22 -12 61 -30 88 -40 28 -11 47 -24 47 -33 0 -9 6 -13 15 -9 8 3 28 -6
45 -20 16 -14 34 -22 40 -19 6 4 16 2 23 -3 7 -6 28 -12 48 -15 20 -2 42 -7
47 -11 15 -9 111 -16 282 -21 163 -5 246 7 244 38 -1 9 1 15 5 12 4 -2 33 2
64 9 31 7 57 11 57 8 0 -3 5 -1 10 4 6 6 14 30 19 55 6 30 9 36 10 17 1 -37
16 -43 39 -13 11 13 22 21 26 18 3 -3 6 0 6 7 0 7 3 11 6 7 15 -15 283 97 300
125 3 5 -29 -9 -73 -30 -112 -57 -205 -83 -283 -81 -57 2 -71 -2 -111 -28 -26
-16 -71 -37 -101 -48 -48 -16 -66 -17 -144 -8 -49 5 -98 13 -109 17 -16 6 -17
6 -5 -3 12 -8 8 -11 -20 -11 -20 0 -40 -4 -45 -8 -15 -13 -137 -32 -161 -26
-11 3 -64 51 -116 108 -57 60 -130 126 -179 160 -169 116 -209 148 -285 229
-42 45 -72 73 -67 62 6 -11 49 -59 95 -106 62 -65 76 -83 55 -75 -22 9 -30 8
-37 -4 -7 -12 -12 -11 -29 4 -12 11 -27 16 -37 12 -11 -4 -22 1 -32 15 -14 20
-16 21 -28 5 -11 -16 -13 -16 -18 2 -9 27 -76 25 -76 -2 0 -16 -2 -15 -19 5
-18 22 -22 23 -42 11 -19 -12 -21 -12 -16 2 4 10 1 16 -7 16 -8 0 -16 6 -19
13 -3 8 -9 7 -19 -6 -13 -18 -15 -17 -26 7 -6 14 -20 26 -29 26 -25 1 -63 34
-63 55 0 15 -2 15 -16 4 -13 -11 -17 -10 -25 4 -6 9 -17 17 -26 17 -9 0 -25 8
-35 17 -16 15 -21 15 -28 3 -7 -11 -11 -8 -19 13 -6 15 -17 27 -26 27 -9 0
-15 9 -15 22 0 21 -1 21 -13 3 -38 -51 -50 49 -17 139 12 30 27 57 35 60 8 3
15 11 15 18 0 7 13 23 28 35 15 12 34 38 42 57 7 20 20 36 27 36 9 0 10 7 3
28 -9 24 -8 25 3 10 18 -22 27 -13 27 26 0 21 3 27 9 17 6 -9 11 -10 15 -2 4
6 4 11 -1 11 -4 0 -1 5 7 10 8 5 16 14 16 20 1 5 2 15 3 21 0 6 7 9 14 6 8 -3
22 13 37 44 12 27 26 49 29 49 4 0 17 -37 29 -82 20 -76 21 -79 16 -29 -3 29
-13 74 -23 100 -22 59 -69 133 -80 127 -4 -3 -18 -31 -30 -63 -11 -32 -73
-161 -137 -288 -92 -182 -114 -221 -109 -185 9 57 17 145 21 237 2 58 18 116
74 283 90 270 152 392 260 517 20 23 46 66 58 95 35 89 138 312 166 361 36 60
88 99 281 208 28 16 46 29 40 29 -5 0 -32 -13 -60 -29z"/>
<path d="M2627 11413 c-4 -3 0 -14 8 -23 14 -15 9 -16 -62 -12 -56 3 -88 0
-113 -11 l-35 -15 83 -1 c127 -1 254 -32 469 -114 22 -9 67 -21 100 -27 32 -5
77 -14 101 -19 55 -11 52 9 -4 27 -21 7 -79 26 -129 42 -218 70 -314 108 -344
133 -31 26 -61 34 -74 20z"/>
<path d="M14281 11359 c-48 -36 -66 -54 -119 -118 -10 -12 -15 -13 -18 -3 -9
20 -27 14 -67 -23 -21 -19 -42 -35 -48 -35 -5 0 -14 -12 -20 -26 -5 -15 -12
-24 -16 -20 -7 7 -39 -35 -36 -46 2 -4 -3 -5 -11 -2 -16 6 -26 -6 -32 -43 -3
-15 -14 -33 -25 -41 -12 -8 -33 -26 -48 -41 -15 -14 -60 -55 -99 -90 -52 -46
-69 -68 -62 -76 8 -9 -5 -20 -46 -41 -100 -50 -190 -173 -239 -324 -10 -30
-28 -76 -41 -102 -13 -26 -24 -54 -24 -63 0 -9 22 -39 49 -66 27 -28 64 -79
82 -114 19 -35 35 -62 37 -60 2 1 -12 34 -31 71 -34 68 -34 69 -15 89 10 10
17 24 14 31 -3 7 6 22 20 35 13 12 24 30 24 38 0 9 14 31 31 49 29 33 31 33
55 17 21 -14 28 -14 41 -3 13 10 17 10 20 1 7 -19 31 -16 36 5 3 12 10 5 23
-25 10 -24 25 -43 32 -43 7 0 12 -15 13 -37 0 -21 4 -56 9 -78 5 -26 6 -5 2
60 -9 138 -7 172 12 240 15 49 27 68 68 105 28 25 92 84 142 132 99 92 147
116 209 102 48 -10 61 -19 82 -58 27 -51 11 -56 -35 -11 -22 21 -43 36 -46 32
-4 -4 1 -9 10 -13 26 -10 19 -40 -11 -50 -16 -5 -56 -27 -91 -49 -60 -38 -63
-42 -58 -72 3 -18 1 -33 -5 -33 -5 0 -9 -7 -9 -15 0 -8 -31 -38 -70 -66 -38
-28 -70 -56 -70 -61 0 -5 -8 -18 -18 -28 -18 -19 -47 -118 -38 -128 3 -2 8 12
11 31 7 34 9 36 46 34 21 -1 41 -7 43 -14 3 -7 13 -13 22 -13 12 0 15 7 11 27
l-5 27 18 -24 c9 -12 22 -20 28 -16 6 3 12 1 14 -6 7 -20 28 2 28 30 0 19 3
23 11 15 8 -8 7 -19 -4 -39 -8 -16 -27 -80 -42 -143 -23 -94 -26 -127 -21
-185 6 -66 38 -172 71 -236 20 -39 19 -40 -13 -29 -15 5 -32 19 -37 32 -6 12
-18 23 -28 25 -15 3 -18 0 -12 -17 6 -20 4 -21 -22 -15 -78 20 -78 20 -81 50
-1 16 -11 83 -22 149 -11 66 -22 136 -24 155 -2 19 -3 8 -3 -25 0 -33 6 -87
13 -120 17 -85 27 -326 15 -345 -8 -11 -11 -2 -11 35 0 60 -43 387 -48 363 -2
-9 4 -70 12 -135 8 -65 18 -160 22 -211 7 -88 6 -92 -12 -85 -17 6 -18 5 -5
-11 17 -20 80 -53 166 -85 88 -34 173 -78 235 -124 61 -45 110 -92 110 -106 0
-26 104 -111 174 -141 42 -19 76 -38 76 -43 0 -10 99 1 115 13 6 4 17 8 25 8
29 1 94 30 98 43 7 23 33 48 65 64 l29 15 -6 -30 c-3 -17 -1 -30 4 -30 6 0 10
15 11 33 1 29 2 27 10 -13 6 -30 5 -61 -2 -93 -6 -26 -10 -50 -8 -51 2 -2 13
0 24 5 11 4 14 8 8 8 -17 1 -17 41 0 41 8 0 19 11 25 25 8 16 23 28 42 32 17
3 38 16 48 28 9 12 22 20 29 18 6 -2 21 10 33 27 12 16 27 30 35 30 15 0 74
65 76 83 1 7 1 21 0 32 -2 19 -1 19 12 3 16 -20 27 -14 27 15 0 11 3 17 7 14
7 -8 33 38 33 59 0 8 7 14 16 14 8 0 12 5 9 10 -3 6 -1 10 6 10 36 0 50 95 28
190 -6 25 -13 63 -15 85 -2 22 -6 58 -9 80 -2 22 -9 78 -14 125 -5 47 -14 116
-20 155 -8 49 -9 84 -1 118 5 26 10 56 9 65 -1 25 -17 -35 -33 -125 -8 -43
-26 -100 -40 -128 -23 -45 -24 -51 -11 -70 8 -11 23 -30 32 -43 21 -30 53
-127 53 -161 -1 -62 -32 -200 -58 -251 -31 -62 -75 -94 -203 -145 -41 -16
-103 -48 -139 -71 -155 -99 -275 -141 -364 -129 -58 7 -125 34 -145 58 -12 15
-9 15 20 -1 46 -23 246 -22 303 2 52 22 42 29 -13 10 -59 -20 -63 -11 -7 12
25 11 46 22 46 26 0 5 14 20 30 35 17 14 30 33 30 40 0 8 4 11 10 8 12 -7 71
35 64 47 -3 4 0 8 7 8 6 0 26 15 43 33 17 17 34 31 38 29 5 -1 8 16 8 38 0 26
5 43 14 46 21 8 44 90 44 159 1 33 -2 54 -4 48 -8 -20 -22 -15 -30 9 -3 12
-20 33 -36 48 -16 15 -30 38 -32 51 -7 59 -19 89 -35 89 -12 0 -17 12 -18 53
-4 81 -10 99 -33 92 -17 -6 -20 -1 -20 32 -1 21 -7 52 -15 68 -12 23 -13 25
-8 5 4 -14 6 -92 5 -173 -2 -124 -6 -155 -22 -189 l-19 -41 26 -31 c37 -43 51
-84 54 -147 3 -82 -14 -120 -80 -178 -66 -57 -84 -65 -159 -75 -43 -6 -60 -3
-85 12 -18 10 -48 25 -67 32 -19 7 -66 36 -105 63 -79 57 -72 40 11 -23 65
-51 69 -65 14 -56 -27 4 -40 3 -40 -5 0 -6 -6 -9 -14 -6 -8 3 -32 9 -53 13
-31 5 -36 4 -25 -7 17 -18 15 -30 -3 -23 -9 4 -15 0 -15 -10 0 -22 -4 -21 -50
13 -21 15 -53 34 -69 41 -30 12 -35 35 -6 23 43 -16 -3 36 -80 92 -46 33 -75
61 -75 72 0 4 -15 25 -34 45 -25 27 -36 34 -45 25 -8 -8 -11 -4 -11 16 0 26 1
27 23 13 22 -15 166 -50 174 -43 2 2 -25 11 -59 20 -82 20 -118 34 -118 46 0
11 197 -40 228 -60 12 -8 22 -19 22 -26 0 -12 13 -17 34 -14 15 3 57 -30 51
-39 -4 -6 2 -10 12 -10 10 0 35 -11 55 -25 42 -28 58 -31 58 -11 0 19 -20 32
-20 14 -1 -22 -86 80 -110 132 -13 28 -28 46 -35 44 -7 -3 -24 20 -43 58 -26
54 -31 79 -37 173 -4 61 -7 117 -6 125 2 8 3 47 4 87 1 39 5 74 8 78 4 3 19
-9 34 -26 26 -32 27 -34 20 -133 -3 -56 -2 -134 4 -174 9 -68 13 -77 68 -142
104 -125 115 -144 121 -202 3 -34 12 -61 25 -75 11 -12 69 -43 129 -68 98 -42
111 -45 126 -32 9 8 28 18 42 22 34 11 70 35 70 48 0 5 -8 3 -18 -6 -18 -17
-48 -30 -96 -41 l-29 -7 7 69 c6 56 4 73 -8 85 -16 16 -11 24 62 104 13 14 21
31 18 38 -3 8 7 21 21 30 29 20 66 96 61 128 -3 17 -7 13 -16 -18 -6 -22 -19
-49 -28 -60 -15 -19 -15 -18 -10 14 3 18 6 42 6 53 0 10 5 16 10 13 6 -4 10
13 10 44 0 27 -5 53 -10 56 -6 4 -8 10 -5 15 8 13 -30 125 -53 158 -11 15 -21
36 -23 46 -5 22 -4 21 -121 77 -58 27 -93 39 -107 34 -15 -4 -21 -2 -21 8 0
19 30 26 115 28 l70 1 -54 10 c-48 9 -67 7 -150 -18 -53 -15 -117 -37 -143
-50 -27 -12 -48 -19 -48 -16 1 17 19 31 70 52 30 12 80 33 111 46 40 17 75 24
122 24 36 0 68 4 71 8 6 11 -39 55 -74 72 -17 9 -13 1 15 -23 35 -32 37 -36
18 -37 -12 0 -25 5 -28 10 -3 6 -25 10 -48 11 -23 0 -36 3 -29 6 24 10 11 23
-22 23 -49 0 -54 18 -9 25 54 9 62 13 28 14 -16 0 -55 -6 -85 -14 -30 -8 -71
-15 -90 -15 -31 1 -33 2 -18 14 9 7 54 21 99 31 69 16 89 17 136 7 72 -15 97
-32 135 -93 26 -43 34 -49 52 -43 11 5 66 9 121 9 85 0 107 -4 144 -23 24 -13
45 -21 48 -18 2 2 -12 35 -31 72 -19 38 -35 65 -36 61 0 -4 11 -30 25 -57 14
-27 25 -52 25 -55 0 -8 -78 35 -91 51 -6 8 -19 14 -28 14 -9 0 -28 14 -43 30
-17 20 -22 30 -12 30 27 0 14 16 -31 38 -25 12 -50 22 -55 22 -21 0 -120 42
-116 49 7 10 -90 6 -191 -9 -58 -9 -83 -16 -83 -26 0 -9 -12 -14 -35 -14 -19
0 -35 -3 -35 -7 0 -5 -23 -9 -52 -11 -40 -2 -59 -9 -84 -32 -41 -36 -173 -115
-180 -107 -3 3 16 20 43 38 26 18 82 65 123 104 90 87 138 115 250 148 130 40
210 49 297 37 84 -11 88 -13 178 -76 97 -68 154 -156 178 -273 10 -49 21 -69
54 -103 22 -24 53 -65 67 -93 37 -71 88 -152 105 -167 8 -7 2 8 -13 35 -21 36
-25 55 -21 81 5 25 -1 51 -23 102 -16 38 -35 98 -42 134 -8 36 -18 68 -23 71
-5 4 -11 18 -12 32 -5 47 -16 69 -31 63 -20 -7 -31 24 -13 35 11 6 2 21 -40
63 -43 44 -58 53 -68 44 -11 -9 -17 -6 -29 10 -8 13 -26 22 -40 22 -13 0 -24
5 -24 10 0 6 -7 10 -15 10 -8 0 -15 -4 -15 -9 0 -11 -90 18 -111 36 -8 7 -25
13 -36 13 -11 0 -26 7 -33 15 -7 9 -20 14 -29 13 -22 -4 -75 38 -66 52 8 13
-33 29 -63 24 -12 -3 -32 0 -43 6 -15 9 -24 8 -35 -1 -8 -7 -14 -7 -14 -1 0
10 -181 22 -190 12 -3 -3 -36 -13 -75 -23 -38 -10 -72 -21 -75 -26 -3 -5 -25
-18 -49 -30 -24 -13 -46 -31 -48 -42 -3 -12 -14 -19 -29 -19 -18 0 -25 -7 -30
-27 -8 -33 -32 -63 -51 -63 -7 0 -13 -6 -13 -14 0 -8 -9 -17 -19 -21 -11 -3
-23 -15 -26 -26 -4 -10 -22 -31 -40 -45 -19 -14 -37 -38 -40 -54 -5 -24 -41
-60 -59 -60 -2 0 9 26 25 58 41 80 36 91 -6 12 -75 -139 -90 -114 -17 30 138
274 134 268 305 395 79 59 97 68 190 91 56 15 113 32 127 39 59 30 191 66 262
72 72 6 217 -6 348 -28 114 -19 236 -106 316 -226 54 -81 60 -86 29 -23 -35
70 -156 189 -227 224 -91 44 -360 84 -474 70 -38 -4 -76 -7 -84 -6 -25 3 -71
-9 -65 -17 6 -11 -162 -76 -255 -100 -41 -10 -76 -18 -77 -17 -2 2 64 93 146
202 25 33 71 82 101 108 72 63 75 66 70 66 -3 0 -29 -18 -59 -41z m-130 -947
c-11 -21 -21 -53 -23 -72 -2 -19 -18 -66 -36 -104 -64 -137 -66 -309 -6 -427
14 -28 24 -60 22 -72 -2 -14 -19 20 -46 89 -36 93 -43 123 -45 190 -2 94 27
211 79 315 19 37 34 72 34 77 0 10 27 42 36 42 2 0 -4 -17 -15 -38z m203 -236
c37 14 131 -71 141 -128 3 -18 7 -72 8 -120 2 -71 7 -93 25 -117 27 -37 46
-112 39 -156 -5 -30 -4 -33 11 -24 31 20 52 57 69 121 l16 63 -31 49 c-17 27
-51 62 -74 79 -39 26 -40 28 -14 22 19 -4 32 -2 37 7 6 9 9 5 9 -13 0 -18 12
-36 41 -59 l41 -33 -7 -81 c-8 -99 -25 -140 -62 -159 -35 -17 -108 -22 -98 -7
4 6 13 9 21 6 21 -8 18 33 -7 99 -23 63 -37 70 -16 9 26 -74 29 -94 12 -94 -9
0 -15 9 -15 25 0 23 -17 32 -52 26 -4 0 -12 8 -18 19 -6 11 -16 17 -25 14 -8
-4 -15 -1 -15 5 0 7 -10 10 -25 7 -34 -6 -89 59 -110 130 -20 69 -19 77 5 71
14 -4 7 8 -23 37 -25 25 -45 38 -49 31 -4 -5 -7 15 -7 45 1 30 3 46 6 35 3
-11 26 -41 51 -68 l46 -47 13 42 c9 28 11 65 7 105 -7 70 0 91 22 69 8 -9 21
-13 28 -10z"/>
<path d="M14326 10129 c11 -42 10 -101 0 -156 l-9 -43 55 -25 c30 -14 69 -28
88 -31 29 -6 32 -5 27 10 -4 10 -8 34 -8 54 l-2 37 -7 -35 -6 -35 -8 30 c-4
17 -11 41 -16 55 -13 39 -20 100 -11 100 12 0 38 -43 44 -71 4 -24 4 -24 6 -1
3 54 -64 125 -128 138 l-33 7 8 -34z"/>
<path d="M16685 11130 c-76 -55 -88 -70 -55 -70 11 0 40 -18 62 -40 23 -22 48
-40 55 -40 29 0 92 -41 125 -80 l34 -42 50 23 c61 27 83 36 112 44 12 4 22 12
22 18 0 12 35 28 249 115 l114 46 -34 12 c-30 11 -36 10 -51 -7 -16 -19 -17
-19 -20 3 -2 19 -10 23 -43 25 -22 2 -64 8 -92 14 -49 11 -57 10 -120 -16 -38
-15 -86 -37 -108 -48 -22 -11 -64 -28 -93 -38 -29 -10 -66 -28 -82 -39 -17
-12 -38 -20 -48 -18 -12 3 -2 13 35 38 29 19 57 44 63 55 6 11 24 29 40 40 17
11 30 28 30 38 0 15 -11 17 -88 17 l-88 0 -69 -50z"/>
<path d="M16015 11138 c-49 -5 -91 -10 -92 -12 -2 -2 8 -32 21 -68 16 -42 27
-97 31 -154 3 -49 15 -126 27 -172 19 -73 24 -83 42 -80 13 2 66 59 139 148
65 80 126 149 137 155 22 12 104 114 97 121 -2 3 -55 20 -117 39 -118 37 -138
38 -285 23z"/>
<path d="M16450 10927 c-58 -50 -139 -126 -180 -167 -41 -42 -88 -85 -103 -95
-15 -10 -26 -20 -23 -22 2 -3 54 -15 115 -28 l111 -24 53 24 c30 13 74 36 99
52 25 15 115 60 201 98 148 66 181 90 126 90 -32 1 -69 14 -69 25 0 5 -17 19
-37 30 -21 12 -60 34 -88 50 -111 66 -87 70 -205 -33z"/>
<path d="M15261 10737 c16 -42 35 -114 41 -160 6 -45 19 -99 30 -119 10 -21
60 -74 111 -118 87 -76 167 -175 167 -206 0 -8 4 -14 10 -14 13 0 -4 43 -32
84 -12 17 -51 62 -86 100 -35 38 -73 89 -84 112 -10 24 -23 44 -28 44 -5 0
-11 8 -15 19 -3 10 -16 30 -29 44 -14 15 -28 49 -35 88 -15 72 -44 156 -66
185 -8 10 -1 -16 16 -59z"/>
<path d="M16110 10562 l-75 -3 -22 -67 -22 -67 35 -35 34 -34 43 42 c23 23 48
42 54 42 6 0 29 15 52 33 22 17 50 40 63 49 23 17 23 17 2 18 -12 0 -37 6 -55
13 -20 7 -66 11 -109 9z"/>
<path d="M6118 10405 c-81 -14 -134 -43 -192 -104 -20 -20 -39 -31 -58 -31
-15 0 -37 -9 -48 -20 -12 -12 -25 -18 -30 -15 -12 8 -61 -24 -59 -39 5 -44
-28 -64 -168 -102 -38 -11 -79 -31 -110 -55 -26 -21 -65 -51 -86 -65 -20 -15
-35 -29 -33 -31 2 -3 42 24 89 60 63 48 98 67 138 76 159 36 283 103 362 194
62 71 114 103 184 111 53 7 143 35 108 34 -11 0 -55 -6 -97 -13z"/>
<path d="M6850 10085 c91 -167 113 -212 140 -293 21 -59 38 -90 60 -108 16
-14 46 -49 65 -78 63 -95 72 -127 85 -306 6 -91 15 -192 20 -225 6 -33 12
-114 16 -180 4 -88 15 -160 42 -269 l36 -149 -68 -133 c-57 -115 -76 -141
-130 -191 -104 -95 -143 -162 -186 -314 -24 -89 -12 -87 57 12 29 41 77 110
109 154 31 44 70 103 87 132 121 201 167 254 247 293 72 35 75 37 73 56 -16
130 -16 155 1 173 21 23 29 111 14 150 -5 14 -12 80 -14 146 -4 107 -8 126
-35 184 -17 35 -28 72 -26 82 5 19 -13 92 -26 105 -4 4 -7 18 -7 30 0 13 -4
25 -9 28 -5 3 -8 17 -8 32 0 14 -5 35 -10 47 -26 57 -32 74 -35 97 -2 14 -9
24 -15 23 -7 -2 -17 13 -24 32 -10 27 -19 35 -43 37 -21 2 -30 8 -29 18 4 20
-52 54 -78 47 -10 -3 -19 -2 -19 2 0 3 -9 12 -21 19 -18 11 -24 11 -39 -3 -16
-15 -18 -14 -23 5 -3 11 -12 20 -21 20 -9 0 -16 7 -16 15 0 20 -52 124 -133
264 -78 133 -99 161 -37 46z"/>
<path d="M16415 10099 c-33 -5 -89 -11 -125 -14 -77 -7 -91 -14 -84 -41 5 -20
103 -74 134 -74 8 0 33 -9 55 -21 37 -20 41 -20 94 -5 31 9 74 20 96 24 43 8
51 24 54 100 l1 33 -57 -1 c-32 0 -69 1 -83 4 -14 2 -52 0 -85 -5z"/>
<path d="M6300 10021 c-45 -27 -136 -63 -215 -86 -49 -14 -97 -30 -105 -36
-23 -14 -74 -36 -135 -58 -29 -11 -28 -11 10 -6 22 3 76 8 120 12 76 6 84 8
155 58 41 29 104 67 139 85 88 44 121 39 231 -32 47 -30 110 -71 140 -90 100
-63 167 -143 233 -274 19 -38 43 -77 53 -85 15 -11 14 -8 -3 16 -11 17 -35 58
-52 93 -39 77 -95 159 -130 190 -22 20 -133 96 -183 127 -9 6 -42 28 -74 50
-48 32 -69 40 -114 42 -30 2 -62 -1 -70 -6z"/>
<path d="M4796 9593 c-3 -4 -25 -8 -48 -10 -23 -3 -68 -15 -100 -29 -31 -13
-66 -24 -76 -24 -31 0 -43 -24 -40 -77 l3 -48 70 0 c39 -1 76 4 84 9 7 6 29
35 48 66 19 30 46 67 60 81 14 15 20 29 15 33 -5 3 -12 3 -16 -1z"/>
<path d="M6410 9524 c0 -6 -25 -10 -56 -11 -59 -2 -69 -8 -99 -70 -13 -27 -22
-32 -68 -38 -28 -4 -59 -11 -67 -16 -10 -6 -5 -7 15 -4 17 2 50 7 74 10 29 4
56 16 78 35 34 31 57 36 82 21 11 -7 10 -11 -7 -20 -11 -6 -29 -26 -40 -45
-19 -32 -19 -35 -4 -49 25 -21 164 -98 169 -93 3 2 -3 19 -13 38 -9 18 -20 48
-25 66 -8 39 5 42 65 12 23 -10 70 -27 106 -36 36 -9 68 -18 73 -21 4 -2 -4
-18 -17 -34 -14 -16 -27 -38 -31 -49 -9 -29 -71 -56 -90 -40 -8 7 -15 9 -15 4
-1 -5 -7 5 -15 21 l-14 30 5 -40 c3 -22 11 -58 17 -80 l12 -40 3 38 c3 38 4
38 23 21 22 -20 23 -44 5 -95 -8 -22 -10 -43 -4 -52 5 -10 1 -31 -10 -59 -10
-23 -24 -65 -32 -93 -7 -27 -26 -84 -42 -127 -23 -60 -34 -77 -53 -82 -13 -3
-25 -13 -27 -22 -2 -9 -20 -22 -40 -29 -32 -11 -45 -10 -94 6 -69 23 -61 23
-74 -2 -9 -16 -8 -26 5 -45 9 -14 14 -31 12 -39 -4 -8 14 -23 45 -40 36 -20
47 -30 39 -38 -15 -15 -14 -33 5 -74 13 -25 14 -37 6 -45 -9 -9 -16 -7 -29 5
-31 30 -130 107 -137 107 -4 0 -17 9 -29 20 -28 27 -135 80 -159 80 -10 0 -33
7 -51 15 l-32 16 24 -21 c13 -11 29 -20 37 -20 8 0 14 -6 14 -13 0 -24 30 -76
48 -82 9 -3 36 -23 60 -45 24 -22 46 -40 49 -40 3 0 21 -10 40 -21 26 -16 31
-24 21 -30 -9 -6 -5 -9 14 -9 37 0 45 -18 13 -30 -43 -16 -70 -12 -160 24 -47
19 -85 31 -85 26 0 -5 9 -12 21 -15 l21 -7 -21 -14 c-11 -8 -26 -25 -32 -36
-9 -18 -8 -24 7 -35 15 -11 15 -13 2 -13 -26 0 -41 -26 -29 -49 10 -18 7 -22
-19 -36 -17 -9 -28 -20 -24 -26 4 -6 -13 -9 -48 -7 -49 3 -54 5 -70 38 -10 19
-18 28 -18 19 0 -26 37 -66 68 -72 15 -3 47 -1 71 4 60 13 106 3 120 -27 6
-13 22 -29 37 -34 14 -6 31 -23 37 -39 11 -29 18 -33 105 -48 26 -4 31 -9 27
-24 -6 -17 -1 -19 40 -19 25 0 54 4 64 9 10 6 74 19 143 31 69 11 170 34 223
51 96 30 158 40 171 26 11 -10 9 -11 -122 -55 -78 -26 -150 -59 -205 -93 -109
-68 -204 -108 -255 -109 -23 0 -79 7 -125 16 -63 12 -108 14 -179 9 -125 -10
-183 -7 -253 11 -33 8 -64 13 -70 11 -7 -2 6 -7 28 -11 22 -4 56 -16 75 -25
96 -48 159 -71 197 -71 16 0 27 -7 30 -18 3 -14 11 -18 30 -14 24 4 25 3 19
-21 -8 -35 16 -47 99 -50 36 -1 65 -5 65 -9 0 -5 -6 -8 -12 -8 -19 -1 24 -23
47 -25 14 -1 21 -10 23 -27 3 -24 8 -27 62 -33 33 -4 64 -13 71 -21 16 -19 49
-18 100 5 37 17 44 17 57 5 8 -8 22 -12 32 -9 10 3 20 0 23 -8 8 -20 54 -10
72 16 8 12 15 17 15 12 0 -4 10 1 23 12 12 11 33 26 45 33 13 6 33 31 43 55
11 24 24 47 29 50 6 3 10 11 10 16 0 6 -13 1 -30 -11 -37 -26 -37 -22 -11 92
19 77 48 157 100 270 11 26 21 49 21 52 0 2 15 37 33 78 44 97 57 128 57 136
-1 4 -10 -10 -21 -30 -11 -21 -24 -38 -29 -38 -5 0 -25 -15 -45 -34 -39 -37
-110 -54 -119 -29 -7 18 -26 16 -26 -2 0 -8 -6 -12 -14 -9 -8 3 -19 -3 -26
-15 -7 -13 -21 -21 -38 -21 -27 0 -67 -19 -118 -55 -18 -13 -29 -16 -31 -8 -5
15 -93 -8 -131 -35 l-29 -21 -59 24 c-32 14 -65 25 -73 25 -8 0 -51 13 -95 29
-110 40 -192 60 -218 53 -35 -9 -12 16 41 42 26 14 83 35 127 47 93 27 161 67
227 136 69 71 84 98 97 172 6 36 20 79 30 96 10 16 37 89 60 160 75 234 93
278 190 470 82 161 102 193 129 207 l33 16 -48 8 c-27 3 -61 13 -75 20 -15 7
-29 11 -31 9 -8 -9 -139 55 -144 70 -6 14 -27 14 -77 0 -20 -5 -33 -3 -47 10
-11 10 -20 14 -20 9z"/>
<path d="M5718 9327 c-31 -72 -61 -149 -68 -170 -7 -21 -38 -66 -69 -100 -32
-34 -64 -74 -72 -88 -57 -107 -70 -128 -78 -134 -6 -3 -8 -18 -5 -33 4 -19 -3
-42 -20 -72 -14 -25 -26 -54 -26 -64 0 -11 -25 -66 -55 -123 -30 -57 -55 -114
-55 -127 0 -33 -11 -39 -34 -19 -18 16 -17 14 3 -14 29 -43 41 -42 41 5 0 24
15 64 44 118 24 45 49 99 56 120 22 68 67 148 109 194 39 43 40 47 34 97 l-6
51 66 70 c37 39 69 83 73 98 4 15 33 93 66 173 32 79 56 146 55 148 -2 1 -28
-57 -59 -130z"/>
<path d="M7807 9130 c2 -80 8 -172 13 -205 26 -182 22 -412 -11 -536 -5 -20
-48 -101 -96 -180 -123 -205 -138 -242 -178 -432 -34 -166 -42 -186 -99 -262
-17 -22 -22 -33 -12 -25 18 14 19 13 12 -35 -12 -80 -91 -211 -187 -312 -33
-34 -59 -65 -59 -70 1 -20 145 150 196 232 43 68 59 104 67 152 10 59 13 63
38 63 33 0 78 34 93 71 7 16 27 39 46 51 19 13 36 34 38 46 2 12 10 22 18 22
8 0 13 5 11 11 -1 6 11 13 27 15 16 1 34 10 39 19 5 9 22 29 38 44 15 15 33
40 38 55 7 16 24 33 45 41 l35 15 -25 87 c-29 100 -39 171 -30 206 4 18 15 26
39 31 22 4 38 15 44 29 7 15 26 28 52 36 37 11 41 15 35 34 -8 27 -40 96 -53
117 -24 38 -42 89 -55 159 -8 42 -18 84 -21 94 -5 12 1 24 19 38 41 32 22 36
-25 5 -22 -15 -43 -25 -46 -22 -3 3 21 32 52 66 59 61 70 88 22 49 l-27 -20 0
71 c0 83 -11 110 -45 110 -17 0 -25 6 -26 18 -1 9 -3 31 -5 47 -2 17 -8 71
-13 120 -9 81 -9 76 -4 -55z"/>
<path d="M6320 9230 c0 -6 -27 -10 -61 -10 -51 0 -67 -5 -105 -31 -24 -16 -54
-43 -66 -60 -12 -16 -30 -29 -40 -29 -10 0 -18 -4 -18 -8 0 -5 -19 -16 -42
-25 -23 -9 -39 -20 -35 -23 4 -4 12 -2 20 4 7 6 32 14 56 18 23 4 56 17 74 30
82 61 123 84 146 84 31 0 111 -32 111 -44 0 -4 -8 -5 -17 -1 -10 4 -40 9 -68
11 l-50 3 48 -9 c60 -11 67 -16 40 -35 -11 -8 -24 -26 -27 -40 -5 -20 -12 -25
-39 -25 -56 0 -157 -84 -157 -131 0 -15 -4 -30 -9 -33 -10 -7 -8 -66 2 -83 4
-6 0 -16 -8 -23 -18 -15 -20 -91 -3 -108 17 -17 0 -28 -22 -14 -11 7 -20 8
-20 2 0 -19 38 -30 65 -20 14 5 42 10 60 10 28 0 33 -3 29 -17 -5 -15 -4 -16
5 -3 6 8 14 37 17 64 5 33 14 55 30 69 21 18 23 28 22 91 -1 50 4 80 15 101 9
17 19 46 23 65 11 73 15 81 56 107 54 36 88 67 88 81 0 6 -6 9 -14 6 -8 -3
-32 4 -55 15 -46 24 -51 25 -51 11z"/>
<path d="M12856 9176 c-11 -31 -27 -63 -38 -72 -14 -13 -15 -20 -6 -31 16 -20
1 -31 -55 -42 -27 -5 -51 -12 -55 -16 -14 -14 103 8 148 28 25 11 58 22 74 24
17 3 35 12 42 21 11 16 15 15 40 -8 l27 -25 -17 27 c-10 15 -27 28 -39 30 -12
2 -31 19 -44 38 -12 19 -30 46 -40 58 l-18 24 -19 -56z"/>
<path d="M16115 8663 c0 -103 -1 -110 -33 -165 -18 -32 -29 -58 -24 -58 4 0
30 -21 57 -46 28 -25 80 -70 118 -100 37 -30 67 -58 67 -63 0 -4 44 -43 98
-87 112 -91 171 -150 213 -215 29 -44 80 -88 155 -134 18 -11 55 -39 81 -62
55 -48 244 -175 251 -168 12 12 -33 55 -75 71 -44 17 -111 76 -94 82 8 3 329
-157 354 -176 28 -21 306 -141 342 -147 89 -16 89 -15 95 39 5 47 8 52 50 76
67 39 63 64 -18 97 -58 23 -65 24 -81 9 -25 -23 -31 -20 -24 14 4 24 2 30 -12
30 -10 0 -62 25 -118 55 -55 30 -106 55 -113 55 -21 0 -22 24 -2 46 17 20 18
24 3 79 -21 83 -38 105 -80 105 -28 0 -35 4 -35 20 0 14 -7 20 -23 20 -20 0
-22 4 -19 44 5 57 -9 82 -55 97 -42 13 -63 27 -63 41 0 11 17 6 135 -39 50
-19 120 -52 157 -74 70 -41 138 -69 167 -69 22 1 -20 32 -81 61 -52 24 -57 33
-31 61 15 17 15 20 3 28 -8 6 -24 10 -35 10 -11 0 -33 14 -50 31 -16 17 -42
36 -57 41 -15 6 -28 17 -28 25 0 21 -23 41 -56 49 -16 4 -40 12 -54 19 -14 7
-65 29 -115 50 -49 20 -119 52 -154 72 -35 19 -93 45 -129 59 -36 13 -71 29
-78 34 -23 20 -175 70 -212 70 -30 0 -147 36 -382 116 -13 4 -15 -11 -15 -103z"/>
<path d="M5883 8742 c4 -18 -1 -25 -29 -37 -41 -17 -50 -35 -33 -67 20 -38 95
-106 123 -114 32 -8 138 13 163 32 17 12 16 13 -4 15 -13 1 -27 3 -33 4 -5 1
-17 3 -25 4 -25 2 -105 81 -137 136 -16 27 -28 40 -25 27z"/>
<path d="M4359 8661 c-3 -17 -21 -33 -61 -55 -32 -17 -58 -36 -58 -43 0 -11
-153 -114 -231 -155 -18 -9 -40 -24 -48 -33 -14 -14 -14 -17 -1 -25 22 -14 29
-12 55 16 33 36 34 7 1 -33 -31 -38 -46 -67 -46 -92 0 -21 2 -20 59 8 32 16
71 41 87 54 16 13 40 28 54 32 26 8 133 72 186 112 39 29 42 29 55 -3 7 -20 6
-31 -5 -43 -10 -11 -12 -32 -9 -73 6 -62 17 -66 59 -23 l21 22 -23 44 c-33 61
-75 193 -83 259 -5 35 -9 46 -12 31z"/>
<path d="M13349 8607 c-54 -51 -70 -76 -28 -44 l36 27 19 -21 c23 -26 116 -99
150 -117 13 -7 24 -19 24 -25 0 -7 14 -21 32 -31 17 -11 48 -34 67 -52 42 -37
171 -124 186 -124 5 0 -15 16 -45 36 -30 20 -75 52 -100 72 -49 39 -252 241
-285 284 l-21 27 -35 -32z"/>
<path d="M11961 8455 l-84 -22 109 -107 c60 -59 150 -140 199 -181 117 -94
119 -96 104 -129 -12 -26 -25 -27 -85 -5 -12 4 -24 5 -27 3 -3 -3 -19 2 -36
11 -31 15 -42 6 -23 -20 10 -15 113 -55 158 -62 22 -4 48 -17 62 -32 l23 -25
-2 54 c-1 30 2 72 6 93 6 32 5 36 -9 31 -13 -5 -15 -2 -10 12 6 15 4 17 -6 7
-10 -10 -19 -3 -43 35 -16 26 -44 63 -61 83 -17 20 -62 91 -101 158 -38 66
-74 120 -80 120 -5 -1 -48 -12 -94 -24z"/>
<path d="M7435 8369 c-120 -143 -167 -209 -219 -304 -31 -56 -74 -124 -97
-151 -22 -27 -51 -70 -64 -95 -14 -26 -37 -67 -53 -90 -48 -74 -64 -127 -71
-237 -3 -56 -5 -102 -4 -102 1 0 12 17 24 38 13 20 59 75 104 122 44 47 91
100 104 118 12 17 28 32 34 32 36 0 165 121 216 203 27 44 34 68 67 224 13 68
31 137 38 155 8 18 12 42 9 53 -2 11 -6 37 -10 58 -3 20 -11 37 -17 36 -6 0
-33 -27 -61 -60z"/>
<path d="M10924 8382 c-6 -4 -22 -23 -35 -43 -13 -20 -56 -83 -95 -140 -80
-118 -181 -333 -251 -533 -43 -125 -45 -136 -45 -241 0 -159 34 -287 93 -351
17 -18 24 -19 67 -11 l49 10 -50 96 -49 96 6 78 c3 43 10 85 16 95 8 12 9 4 4
-33 -10 -68 -10 -68 25 -165 44 -118 71 -164 101 -168 32 -5 60 -30 60 -53 0
-10 4 -20 9 -23 5 -3 18 -22 30 -42 12 -19 17 -32 11 -29 -6 4 -10 -16 -10
-52 0 -32 -3 -68 -6 -80 -8 -29 14 -39 106 -46 64 -6 72 -5 58 7 -54 41 -75
185 -41 278 17 48 17 48 -8 75 -14 16 -33 39 -43 53 -9 14 -28 40 -41 59 -20
27 -25 45 -23 90 1 36 -6 77 -20 115 -33 88 -30 121 16 163 47 44 70 53 137
53 51 0 53 1 57 31 4 28 3 30 -21 26 -20 -4 -34 4 -66 37 -49 50 -65 79 -99
178 -55 161 -17 345 93 446 l35 32 -30 0 c-16 0 -34 -4 -40 -8z"/>
<path d="M5294 8268 c28 -68 29 -78 8 -78 -11 0 -24 -6 -30 -12 -10 -14 -14
-173 -5 -222 4 -25 8 -27 33 -22 41 8 47 -21 16 -81 -13 -27 -27 -71 -30 -98
l-6 -50 14 45 c11 39 31 81 83 175 30 54 39 50 68 -32 16 -43 32 -82 37 -88
11 -12 -30 105 -75 215 -19 47 -40 103 -47 125 -14 43 -68 155 -75 155 -2 0 2
-15 9 -32z"/>
<path d="M17750 8011 c0 -5 37 -28 83 -51 45 -24 129 -73 187 -110 58 -37 120
-75 137 -84 18 -9 40 -30 48 -46 25 -49 82 -70 71 -26 l-6 24 61 -19 c65 -20
116 -24 138 -10 9 6 -3 11 -35 16 -96 14 -230 75 -379 173 -78 52 -172 102
-189 102 -7 0 -29 9 -51 20 -42 21 -65 25 -65 11z"/>
<path d="M15250 7708 c1 -13 44 -68 54 -68 3 0 17 -11 32 -25 15 -14 35 -25
44 -25 9 0 47 -27 84 -59 37 -32 111 -88 166 -122 84 -54 120 -89 120 -116 0
-3 -15 -2 -34 1 -51 10 -152 81 -164 116 -11 29 -56 60 -88 60 -24 0 -121 66
-146 101 -12 16 -27 29 -32 29 -6 0 -25 17 -43 37 l-32 38 -53 -51 c-46 -43
-85 -76 -170 -144 -18 -15 -17 -18 40 -90 71 -91 117 -140 129 -140 5 0 18 6
29 14 10 8 29 12 42 9 19 -4 22 -1 22 21 0 30 -60 155 -84 175 -9 8 -16 20
-16 28 0 8 -7 28 -16 45 -9 16 -12 29 -7 27 63 -27 93 -48 105 -74 8 -20 32
-40 69 -60 32 -16 83 -49 115 -72 33 -23 90 -59 129 -79 38 -20 74 -43 80 -50
11 -14 70 -39 61 -26 -2 4 -36 30 -75 57 -40 29 -70 57 -71 68 0 22 11 22 41
-2 13 -10 58 -35 99 -56 41 -21 78 -42 82 -48 4 -6 18 -12 31 -12 13 -1 37
-11 52 -23 15 -12 39 -22 52 -22 15 0 33 -10 45 -25 22 -28 38 -32 38 -10 0 8
-10 20 -22 26 -13 7 -42 29 -64 50 -23 20 -55 44 -72 53 -17 9 -33 24 -37 33
-6 21 -61 83 -72 83 -5 0 -20 15 -34 33 -14 18 -50 45 -80 61 -30 16 -69 42
-87 58 -18 15 -49 36 -70 47 -20 10 -70 47 -109 80 -77 65 -83 68 -83 49z"/>
<path d="M13743 7688 c-16 -34 -103 -139 -148 -179 -59 -52 -144 -105 -191
-119 l-41 -12 49 -46 c55 -51 124 -160 134 -210 7 -32 18 -41 29 -22 4 6 10 8
15 5 4 -3 14 3 21 12 8 9 29 22 47 30 18 7 32 21 32 30 0 9 10 28 23 42 l22
25 -32 -23 c-28 -19 -33 -20 -33 -6 0 8 7 27 16 41 22 33 13 39 -19 14 -33
-26 -42 -25 -23 2 9 12 16 29 16 37 0 11 -3 11 -18 -2 -10 -10 -27 -17 -37
-17 -10 0 -26 -6 -35 -12 -9 -7 -6 -4 6 7 12 11 37 29 55 39 27 15 30 20 16
24 -10 2 -38 -8 -63 -23 -42 -25 -45 -25 -34 -6 6 12 20 21 31 21 17 0 20 5
15 23 -4 19 0 25 24 34 20 8 30 18 30 32 0 14 9 25 25 31 50 19 88 56 111 108
14 31 30 52 39 52 9 0 13 5 10 10 -11 18 5 69 23 73 9 3 -10 5 -44 6 -54 1
-62 -2 -71 -21z"/>
<path d="M4880 7623 c1 -4 19 -21 41 -38 64 -47 209 -206 209 -228 0 -17 112
-177 140 -201 17 -14 35 -45 45 -77 16 -51 19 -54 54 -57 20 -1 41 -9 47 -17
6 -8 23 -15 37 -15 20 0 30 -8 42 -32 14 -31 74 -102 92 -110 5 -1 21 -23 37
-48 42 -63 56 -73 75 -55 12 10 26 12 54 6 34 -8 39 -6 58 20 l20 29 42 -33
c23 -17 44 -34 47 -37 3 -3 20 -10 38 -17 32 -11 35 -10 65 21 18 19 37 42 43
52 10 15 14 17 25 7 20 -19 43 -16 54 9 6 12 26 26 50 33 22 6 55 19 72 29 18
9 35 15 37 14 3 -2 11 5 18 15 13 18 42 37 87 57 13 6 21 13 18 16 -6 7 -75
-28 -141 -72 -74 -48 -122 -56 -293 -52 l-148 4 -121 61 c-66 34 -139 66 -163
73 -71 19 -164 117 -232 244 -21 40 -35 53 -76 70 -67 28 -76 36 -171 147 -75
87 -203 203 -202 182z"/>
<path d="M12817 7573 c-8 -21 -25 -60 -36 -87 l-21 -48 -36 46 c-40 52 -35 50
-69 34 -31 -14 -33 -43 -3 -59 20 -11 20 -13 5 -24 -9 -7 -17 -17 -17 -24 0
-14 27 -15 35 -1 13 20 43 9 66 -25 25 -36 59 -47 59 -19 0 10 6 14 14 11 10
-4 14 0 11 13 -3 16 0 18 21 9 14 -5 33 -9 42 -9 15 0 15 2 2 11 -11 8 -12 12
-2 16 6 2 9 10 6 15 -5 7 -2 8 6 3 12 -7 30 10 30 29 0 5 -24 6 -53 2 -30 -3
-57 -3 -60 1 -4 3 3 22 15 42 16 26 18 32 6 23 -15 -12 -16 -11 -9 15 5 15 12
36 16 46 4 9 3 17 -3 17 -5 0 -17 -17 -25 -37z"/>
<path d="M8037 7464 c-32 -30 -80 -65 -107 -79 -27 -14 -72 -46 -101 -71 -48
-43 -154 -115 -264 -180 -27 -17 -93 -47 -146 -67 -52 -20 -117 -51 -145 -69
-78 -50 -104 -63 -179 -87 -45 -15 -83 -34 -105 -56 -58 -55 -209 -156 -302
-202 -93 -46 -241 -161 -300 -234 -20 -24 -51 -69 -71 -99 -38 -59 -84 -111
-132 -148 -17 -13 -9 -9 16 7 26 17 59 45 74 63 49 61 54 67 70 92 11 16 27
26 41 26 26 0 68 18 230 98 62 30 117 51 123 47 7 -4 26 -1 43 6 24 10 33 10
36 1 6 -20 28 -13 40 14 7 14 28 32 50 40 49 21 90 60 97 96 13 55 162 171
190 148 16 -13 91 56 100 91 7 29 95 109 146 133 20 9 45 25 55 34 22 20 150
102 160 102 11 0 136 91 195 142 30 26 58 48 62 48 22 0 187 137 187 156 0 7
-5 4 -63 -52z"/>
<path d="M9570 7485 c0 -14 -22 -19 -83 -18 -12 0 -27 -18 -44 -54 -15 -29
-28 -51 -30 -49 -3 2 -11 26 -18 53 -7 26 -14 40 -14 31 -2 -27 -20 -32 -43
-11 l-21 18 17 -30 c9 -16 26 -45 37 -62 37 -58 4 -93 -102 -106 -44 -6 -47
-5 -53 18 -7 26 -30 33 -42 14 -3 -6 0 -22 7 -36 11 -20 19 -24 46 -21 26 3
33 1 31 -11 -2 -9 -13 -17 -26 -19 -29 -4 -29 -32 1 -31 31 0 132 51 132 66 0
26 36 40 79 31 23 -4 57 -11 76 -14 32 -6 34 -5 16 8 -19 15 -19 16 2 27 11 6
29 11 39 11 28 0 44 20 33 40 -14 27 -39 31 -59 11 -10 -10 -37 -21 -60 -24
-38 -5 -40 -4 -24 9 10 7 23 14 28 14 6 0 33 23 60 51 28 29 44 48 36 44 -11
-7 -13 -2 -8 23 4 19 2 32 -3 32 -6 0 -10 -7 -10 -15z"/>
<path d="M14788 7382 l-47 -17 22 -30 c12 -16 29 -36 39 -43 10 -7 18 -17 18
-22 0 -28 169 -193 244 -239 60 -36 214 -93 228 -85 14 9 -12 34 -33 34 -11 0
-27 4 -37 9 -9 5 -56 27 -105 50 -76 35 -100 53 -183 137 l-95 97 7 63 c3 35
2 64 -2 63 -5 0 -30 -8 -56 -17z"/>
<path d="M12023 7013 c-23 -12 -38 -30 -53 -69 -20 -48 -83 -120 -130 -150 -9
-5 -22 -44 -32 -91 -14 -71 -22 -87 -56 -123 -39 -41 -40 -41 -82 -30 -23 6
-45 8 -49 5 -12 -13 -3 -207 14 -283 19 -82 72 -224 105 -278 34 -54 89 -95
199 -146 57 -27 123 -62 146 -78 24 -16 74 -45 113 -65 64 -32 78 -35 154 -35
103 0 150 13 191 51 l32 30 -40 -25 c-56 -35 -124 -49 -203 -44 -57 4 -80 12
-152 53 -47 26 -103 60 -125 75 -22 15 -65 38 -95 51 -90 39 -93 42 -85 78 7
31 7 32 27 15 14 -14 23 -16 36 -8 14 9 18 30 20 113 1 55 6 101 10 101 8 0
46 -133 63 -223 10 -56 35 -87 59 -72 12 7 11 49 0 85 -7 20 -8 16 -7 -20 2
-34 -2 -45 -13 -45 -9 0 -17 16 -23 45 -4 25 -17 81 -29 125 -11 44 -24 109
-28 145 -5 36 -14 93 -20 127 -6 35 -11 122 -12 195 -2 129 -1 135 29 203 17
39 34 86 38 105 3 19 13 49 20 65 17 38 31 135 19 134 -5 0 -23 -7 -41 -16z"/>
<path d="M14368 6914 c-6 -16 -13 -30 -14 -32 0 -1 -8 0 -16 3 -10 4 -14 14
-10 27 5 19 2 20 -24 14 -16 -4 -42 -22 -59 -41 -16 -18 -40 -38 -52 -44 -13
-7 -26 -23 -29 -36 -5 -19 -13 -25 -32 -25 -24 0 -97 -21 -198 -56 -23 -8 -52
-23 -64 -34 -12 -10 -57 -26 -101 -36 -43 -9 -79 -20 -79 -24 0 -5 -16 -17
-35 -29 l-35 -20 -70 25 c-54 21 -68 29 -60 39 8 10 4 18 -15 33 -22 18 -23
21 -7 27 34 13 -10 21 -97 17 l-84 -4 29 -19 c16 -11 63 -37 104 -58 63 -33
103 -49 238 -96 9 -3 -7 -31 -46 -82 -92 -121 -85 -117 -165 -82 -38 17 -79
32 -93 33 -13 1 -36 12 -51 24 -16 11 -81 58 -146 103 -139 97 -278 216 -315
270 -28 40 -42 48 -42 25 0 -8 45 -56 100 -106 54 -51 99 -95 98 -99 -4 -20
25 -49 111 -110 143 -102 222 -148 334 -193 56 -22 108 -45 115 -51 7 -5 26
-35 43 -66 30 -57 119 -164 119 -145 0 6 -15 28 -33 50 -46 54 -77 100 -77
113 0 6 8 11 19 11 10 0 24 7 32 16 9 11 22 14 45 9 21 -4 34 -1 36 7 7 20
141 23 181 5 114 -54 167 -69 167 -47 0 6 -8 10 -19 10 -10 0 -32 5 -49 11
-27 9 -30 13 -18 25 8 8 19 14 25 14 6 0 11 6 11 13 0 6 5 4 11 -5 13 -23 25
-23 54 1 19 14 21 21 12 30 -9 9 -8 14 3 21 8 6 21 8 29 5 7 -3 31 11 52 30
l39 35 -27 11 c-16 5 -38 21 -51 35 -18 18 -33 24 -67 24 -45 0 -65 19 -22 21
48 3 52 5 52 24 0 24 -29 33 -111 34 -58 1 -62 3 -67 26 -3 18 1 29 14 36 14
7 19 6 19 -2 0 -7 9 -4 21 7 21 19 21 19 18 -1 -3 -14 1 -19 13 -17 9 1 19 -2
23 -8 10 -16 45 -12 45 5 0 8 4 15 10 15 5 0 9 -10 7 -22 -2 -20 3 -23 36 -26
23 -2 37 1 37 9 0 7 10 9 24 7 17 -4 23 -1 19 9 -3 7 -13 13 -22 13 -12 0 -9
6 11 23 14 12 31 32 37 45 10 18 21 22 59 23 l47 2 -38 6 -39 6 22 28 c24 30
84 177 76 185 -3 2 -11 -8 -18 -24z"/>
<path d="M7905 6706 c-15 -25 -44 -87 -65 -139 -21 -52 -47 -112 -59 -134 -26
-53 -124 -134 -195 -163 -31 -12 -56 -27 -56 -32 0 -5 -3 -7 -7 -5 -5 3 -17 0
-28 -4 -18 -9 -18 -9 3 -5 12 2 22 0 22 -6 0 -10 -129 -241 -160 -288 -9 -14
-34 -51 -56 -83 -75 -114 -288 -328 -446 -450 -37 -28 -65 -53 -63 -56 11 -10
201 148 340 283 83 80 156 145 163 146 6 0 12 3 12 8 0 4 4 13 9 21 8 12 12
12 24 3 12 -10 19 -7 40 18 28 32 126 188 162 256 l22 41 27 -44 c15 -23 32
-43 36 -43 9 0 -40 -104 -60 -127 -5 -7 -11 -22 -13 -33 -2 -12 -8 -25 -14
-28 -6 -4 -14 -24 -18 -45 -4 -20 -11 -37 -17 -37 -5 0 -16 -15 -24 -32 -8
-18 -24 -47 -34 -64 -19 -29 -19 -33 -4 -62 11 -23 22 -32 40 -32 14 0 23 -4
19 -10 -5 -9 44 -40 64 -40 6 0 17 13 26 29 11 23 12 31 2 34 -6 3 -2 6 9 6
12 1 24 7 27 15 4 10 17 13 45 9 46 -6 64 10 36 33 -18 15 -18 15 1 9 11 -3
32 -9 47 -12 l27 -5 -19 -51 c-11 -28 -36 -77 -56 -110 -20 -32 -34 -60 -31
-63 20 -20 156 255 181 366 10 41 28 109 42 150 60 186 85 375 74 548 -8 111
-34 272 -45 272 -2 0 -16 -20 -30 -44z"/>
<path d="M10320 6390 c0 -25 -6 -32 -35 -44 -40 -17 -41 -18 -19 -52 13 -19
14 -28 5 -37 -14 -14 -15 -30 -1 -22 6 3 14 -5 20 -19 14 -38 27 -32 33 15 7
51 15 59 33 34 8 -11 21 -19 28 -17 7 1 19 -5 26 -13 7 -8 18 -15 24 -15 6 0
-16 24 -48 54 l-60 53 52 18 c50 18 50 19 31 36 -14 12 -16 18 -7 22 7 3 4 6
-7 6 -12 1 -26 -4 -33 -11 -9 -9 -13 -7 -18 5 -10 27 -24 20 -24 -13z"/>
<path d="M13086 6238 c-70 -81 -130 -184 -186 -319 -31 -75 -66 -149 -77 -165
-38 -54 -83 -171 -83 -216 1 -163 205 -442 399 -542 39 -21 125 -20 185 0 41
14 58 15 119 4 61 -10 87 -9 172 5 104 18 147 33 60 21 -27 -4 -84 -9 -126
-13 -74 -6 -76 -5 -111 26 -37 32 -68 41 -68 18 0 -20 -69 -18 -111 4 -39 19
-79 63 -79 85 0 7 -20 51 -44 97 -25 47 -42 87 -39 90 3 3 -4 18 -15 34 -10
15 -27 51 -36 79 -16 51 -16 52 6 88 15 23 29 35 40 32 18 -4 21 7 42 154 12
90 37 170 52 170 3 0 3 -11 0 -25 -4 -14 -3 -37 1 -52 7 -25 8 -23 15 22 19
135 20 160 4 205 -11 33 -12 47 -4 58 10 11 12 131 3 140 -1 2 -13 4 -25 5
-12 1 -26 9 -31 19 -14 26 -22 23 -63 -24z"/>
<path d="M9261 6241 l-23 -23 71 -71 c38 -40 97 -108 131 -152 63 -83 80 -98
80 -71 0 9 7 16 15 16 8 0 15 4 15 9 0 17 -88 126 -177 220 l-89 95 -23 -23z"/>
<path d="M9120 5933 c0 -6 7 -16 15 -23 8 -7 15 -16 15 -21 0 -13 199 -279
208 -279 5 0 14 11 22 24 11 21 10 28 -10 58 -13 18 -28 38 -34 43 -6 6 -29
31 -50 58 -21 26 -41 45 -44 42 -3 -3 -32 20 -64 52 -32 32 -58 52 -58 46z"/>
</g>
</svg>
