<?xml version="1.0" standalone="no"?>
<!DOCTYPE svg PUBLIC "-//W3C//DTD SVG 20010904//EN"
 "http://www.w3.org/TR/2001/REC-SVG-20010904/DTD/svg10.dtd">
<svg version="1.0" xmlns="http://www.w3.org/2000/svg"
 width="564.000000pt" height="423.000000pt" viewBox="0 0 564.000000 423.000000"
 preserveAspectRatio="xMidYMid meet">
<metadata>
Created by potrace 1.16, written by Peter Selinger 2001-2019
</metadata>
<g transform="translate(0.000000,423.000000) scale(0.100000,-0.100000)"
fill="#000000" stroke="none">
<path d="M0 2760 c0 -1080 3 -1470 11 -1470 8 0 7 -6 -2 -17 -11 -12 -11 -17
-2 -20 9 -3 10 -9 1 -23 -9 -14 -9 -25 0 -44 7 -16 8 -26 2 -26 -16 0 -11 -37
5 -44 8 -3 15 -12 15 -20 0 -22 29 -27 61 -11 16 9 29 11 29 5 0 -5 -7 -10
-16 -10 -8 0 -12 -5 -9 -10 3 -6 -1 -17 -9 -25 -13 -14 -16 -13 -26 6 -7 12
-18 18 -26 15 -9 -3 -12 -1 -9 4 3 6 2 10 -4 10 -5 0 -11 8 -14 18 -2 9 -4 0
-3 -20 0 -23 4 -35 10 -31 6 3 5 0 -2 -8 -14 -16 -17 -73 -2 -64 5 3 10 1 10
-4 0 -6 -4 -11 -10 -11 -12 0 -13 -40 -2 -55 10 -15 52 -17 52 -3 0 6 3 8 7 5
7 -8 -25 -47 -39 -47 -5 0 -6 5 -3 10 3 6 0 10 -8 10 -9 0 -15 -10 -15 -24 0
-15 5 -23 13 -20 6 3 18 -3 26 -13 13 -16 12 -17 -3 -5 -17 14 -38 9 -38 -9 0
-6 4 -7 10 -4 5 3 10 2 10 -4 0 -5 -4 -12 -9 -15 -12 -8 -10 -126 3 -126 7 0
8 -3 1 -8 -10 -7 -18 -72 -9 -72 3 0 12 7 20 15 9 8 20 15 25 15 6 0 -2 -11
-16 -24 -16 -15 -24 -30 -19 -37 4 -8 3 -9 -4 -5 -9 5 -12 -9 -11 -48 1 -34 6
-56 13 -56 6 0 5 -4 -3 -9 -10 -7 -10 -10 -1 -16 7 -4 17 -1 22 6 8 12 9 11 5
-1 -2 -8 -12 -14 -21 -14 -23 2 -20 -23 3 -29 12 -3 27 4 40 19 12 13 26 24
32 24 7 0 -3 -14 -20 -31 -21 -20 -40 -29 -52 -26 -10 3 -19 1 -19 -4 0 -5 5
-9 12 -9 9 0 9 -3 0 -12 -16 -16 -15 -48 1 -48 8 0 9 -3 1 -8 -12 -8 -18 -152
-6 -152 10 0 42 37 36 43 -3 2 7 12 22 21 14 10 28 15 32 12 3 -3 0 -6 -7 -6
-9 0 -11 -8 -8 -21 4 -17 3 -19 -6 -10 -13 13 -31 15 -23 2 4 -5 -7 -21 -22
-36 -24 -22 -29 -36 -31 -80 l-2 -54 137 1 c102 1 137 5 141 15 3 7 15 13 27
13 21 -1 21 -1 2 -15 -19 -14 -18 -15 13 -15 25 0 32 4 28 14 -3 8 1 17 9 20
28 11 36 6 19 -10 -21 -21 -13 -29 15 -14 16 9 25 9 33 1 14 -14 48 15 40 35
-3 8 0 14 7 14 6 0 8 -4 5 -10 -3 -5 -1 -10 6 -10 9 0 9 -3 0 -14 -8 -10 -9
-16 -1 -21 35 -21 34 54 -1 92 -19 19 -20 23 -6 23 11 0 17 8 17 25 0 29 6 31
26 11 17 -18 18 -27 1 -21 -16 7 -41 -32 -26 -41 6 -3 16 -1 22 5 19 19 31 12
14 -7 -16 -18 -23 -42 -12 -42 3 0 17 11 31 25 14 14 27 25 29 25 12 0 3 -14
-26 -41 -25 -23 -27 -29 -13 -29 16 0 16 -1 -2 -15 -18 -14 -18 -14 9 -15 15
0 27 5 27 13 0 9 2 9 9 -1 12 -19 87 -12 83 8 -2 8 0 12 4 8 4 -4 14 -2 22 5
13 10 15 9 9 -5 -3 -10 -2 -18 3 -18 6 0 10 5 10 10 0 6 5 10 11 10 5 0 7 -4
4 -10 -7 -11 29 -21 60 -16 28 4 59 18 67 30 5 8 8 7 8 -1 0 -7 -8 -17 -17
-22 -17 -10 -17 -10 1 -11 10 0 25 8 32 17 13 17 15 17 25 1 5 -10 17 -18 25
-18 8 0 12 4 9 10 -3 5 -1 10 5 10 6 0 9 4 6 8 -3 5 1 9 9 9 18 0 19 -9 3 -25
-19 -19 8 -15 31 4 26 22 16 47 -15 40 -14 -4 -24 -2 -24 4 0 5 5 10 11 10 5
0 7 5 4 10 -8 13 8 13 21 0 14 -14 47 -1 41 15 -3 6 1 12 9 12 18 0 15 -36 -4
-56 -9 -9 -10 -17 -3 -24 14 -14 42 10 34 29 -3 8 1 14 11 14 19 0 22 30 4 30
-7 1 -4 8 8 18 14 12 19 24 14 37 -6 18 -7 18 -17 1 -10 -17 -10 -17 -15 2
-10 36 6 45 40 25 28 -18 30 -21 18 -44 -7 -13 -19 -23 -26 -21 -11 3 -11 0 0
-12 16 -20 30 -20 30 -1 0 9 6 18 14 21 8 3 13 11 10 19 -5 12 24 30 34 20 3
-3 0 -5 -8 -5 -10 0 -10 -3 0 -15 21 -25 29 -17 27 24 -1 22 1 37 4 35 12 -7
39 8 33 18 -4 6 -3 13 2 17 10 7 35 69 37 89 0 14 7 15 25 3 10 -6 10 -10 -3
-21 -8 -7 -15 -21 -15 -31 0 -10 -11 -35 -25 -55 -14 -20 -25 -43 -25 -51 0
-8 -3 -12 -7 -10 -5 3 -9 -6 -9 -20 -2 -32 -10 -39 -27 -24 -9 7 -23 8 -34 4
-16 -6 -19 -13 -12 -30 5 -13 16 -23 26 -23 12 0 14 -3 6 -11 -8 -8 -17 -8
-32 0 -17 10 -20 9 -15 -4 4 -8 1 -15 -5 -15 -6 0 -11 -9 -11 -20 0 -14 6 -20
23 -19 12 0 17 3 10 6 -10 3 -10 7 0 18 15 16 28 10 20 -10 -3 -8 0 -15 6 -15
6 0 11 5 11 10 0 22 2 26 22 48 13 13 16 22 9 22 -9 0 -8 5 3 16 9 8 16 20 16
25 0 6 9 5 21 -1 11 -7 23 -9 26 -6 8 8 -7 27 -17 21 -18 -11 -22 18 -5 33 17
16 17 16 12 0 -3 -9 0 -21 7 -27 10 -8 16 -4 25 15 13 30 7 45 -17 38 -14 -5
-15 -4 -2 5 12 8 12 11 1 11 -11 0 -10 5 3 25 9 13 16 32 16 40 0 9 7 23 15
32 8 8 13 19 10 24 -4 5 1 6 9 3 17 -6 21 -20 9 -26 -5 -1 -18 -22 -30 -45
-20 -39 -20 -44 -6 -58 8 -9 13 -22 10 -30 -3 -7 -1 -15 4 -17 5 -2 -4 -19
-22 -38 -20 -22 -33 -30 -36 -22 -3 6 -11 12 -18 12 -7 0 -13 -6 -12 -12 1
-44 -4 -57 -20 -52 -15 5 -15 4 1 -6 15 -10 16 -14 5 -21 -7 -4 -10 -11 -6
-16 11 -10 46 37 40 53 -2 7 4 17 15 23 16 8 21 7 26 -5 3 -8 2 -12 -4 -9 -6
3 -10 -5 -10 -18 0 -32 44 -54 66 -32 20 19 38 19 30 0 -4 -10 1 -15 14 -15
12 0 17 5 14 14 -3 8 0 17 5 21 6 3 9 11 6 16 -4 5 1 9 10 9 11 0 14 6 9 24
-6 27 11 44 20 20 4 -10 14 -14 26 -11 26 7 30 -2 17 -33 -18 -44 -17 -56 3
-57 11 -1 20 3 20 10 0 8 3 8 12 -1 7 -7 27 -12 46 -12 30 0 34 3 29 21 -4 15
-2 19 9 15 10 -4 14 0 12 11 -2 9 2 18 9 20 15 5 9 -33 -8 -53 -10 -12 -3 -14
40 -12 41 2 50 6 46 19 -3 10 1 16 11 16 9 0 14 -7 11 -17 -3 -13 4 -16 34
-16 22 0 39 4 39 9 0 6 3 7 7 4 3 -4 12 -2 20 5 11 8 12 7 7 -6 -3 -9 -2 -16
4 -16 17 0 23 30 7 36 -8 4 -12 11 -8 18 3 6 -3 3 -14 -6 -11 -10 -27 -18 -36
-18 -9 0 -17 -5 -17 -12 0 -27 -16 9 -19 45 -1 4 -10 3 -22 -3 -11 -7 -23 -9
-27 -6 -3 3 0 6 6 6 7 0 11 6 9 13 -1 6 4 11 11 9 7 -1 26 7 42 18 l28 20 5
-21 c4 -15 1 -19 -11 -15 -22 7 -49 -9 -33 -18 6 -4 15 -5 20 -2 5 4 11 0 14
-6 7 -19 40 16 42 44 2 27 -20 52 -40 44 -9 -3 -15 1 -15 10 0 11 5 14 18 9
31 -13 47 -10 46 8 -1 9 2 17 7 17 5 0 7 11 3 25 -5 20 -1 27 17 34 18 7 20
10 6 10 -10 1 -20 7 -23 15 -3 8 -11 13 -18 10 -9 -3 -13 4 -12 24 1 17 6 28
12 25 7 -2 10 5 9 19 -1 13 0 15 2 6 2 -10 9 -18 16 -18 8 0 8 -3 -1 -12 -7
-7 -12 -19 -12 -28 1 -13 3 -12 14 2 7 10 16 15 19 11 4 -3 5 4 2 15 -2 12 1
24 6 27 5 4 7 10 4 15 -3 4 2 11 11 14 10 4 13 2 8 -6 -5 -7 -7 -24 -6 -38 1
-15 -5 -35 -13 -46 -9 -12 -14 -14 -15 -6 0 7 -5 10 -10 7 -16 -10 -11 -22 11
-28 23 -6 17 -27 -7 -27 -15 0 -20 -26 -5 -32 5 -1 7 -15 4 -30 -3 -15 -9 -25
-13 -23 -5 3 -11 1 -14 -4 -4 -5 -2 -12 4 -16 5 -3 7 -25 3 -50 -6 -44 -6 -44
23 -40 24 4 27 3 14 -7 -18 -16 -24 -38 -9 -38 13 0 33 21 37 40 2 8 11 24 20
34 16 18 16 19 -2 12 -16 -5 -17 -4 -6 9 17 21 31 9 25 -23 -2 -15 1 -30 8
-34 7 -5 -1 -6 -18 -2 -29 6 -29 6 -10 -10 14 -12 15 -14 4 -10 -10 3 -20 1
-24 -5 -10 -16 27 -13 52 4 18 13 21 20 13 40 -7 19 -6 23 4 19 14 -5 15 -41
2 -62 -5 -8 2 -12 20 -12 22 0 25 3 21 22 -4 12 -1 28 5 35 6 7 6 13 1 13 -5
0 -8 14 -5 30 2 17 8 30 13 30 5 0 7 -13 5 -30 -2 -16 0 -30 5 -30 8 0 6 -23
-6 -52 -5 -13 -2 -18 9 -18 9 0 17 9 17 20 3 39 4 43 14 47 6 2 11 -6 11 -17
0 -11 -4 -20 -8 -20 -4 0 -5 -7 -2 -14 4 -11 23 -15 75 -14 38 0 72 4 75 9 3
5 10 9 15 9 6 0 7 -5 3 -11 -4 -7 -1 -10 7 -7 9 3 14 21 14 51 0 52 4 57 23
27 8 -13 8 -20 2 -20 -7 0 -8 -6 0 -19 13 -26 13 -34 -2 -25 -8 4 -9 3 -5 -2
4 -4 23 -9 42 -11 29 -1 36 3 49 27 9 19 10 30 3 33 -12 4 -1 27 13 27 14 0
20 -30 9 -56 -13 -36 -5 -41 22 -15 18 16 19 21 7 21 -11 0 -15 6 -11 20 3 11
9 18 13 15 5 -3 11 1 14 7 3 7 3 3 0 -9 -3 -13 -1 -23 5 -23 6 0 7 -7 4 -17
-5 -12 -3 -14 8 -9 8 4 5 0 -6 -9 -19 -16 -19 -16 10 -13 17 2 33 8 37 13 5 6
8 5 8 -2 0 -18 58 -16 76 2 14 13 14 15 0 15 -9 0 -16 5 -16 10 0 6 5 10 12
10 9 0 9 3 0 12 -19 19 -44 -9 -31 -34 9 -16 8 -19 -6 -16 -9 1 -16 8 -17 13
0 6 -4 17 -9 26 -6 12 -4 21 6 29 11 9 12 16 5 25 -8 10 -3 15 20 23 16 6 30
18 30 26 0 20 16 21 24 1 3 -9 0 -15 -10 -15 -8 0 -12 -5 -9 -10 4 -6 16 -8
26 -5 22 7 52 -12 43 -26 -3 -5 -10 -7 -15 -3 -5 3 -7 10 -4 15 8 12 -2 11
-26 -2 -14 -7 -17 -14 -11 -22 5 -7 8 -20 7 -29 -2 -10 0 -18 5 -18 4 0 6 -9
3 -20 -5 -17 0 -20 30 -20 19 0 37 6 40 13 3 9 9 9 26 0 25 -15 54 -18 31 -3
-13 8 -13 11 2 27 17 16 18 16 18 -4 0 -23 17 -40 28 -29 3 4 0 16 -7 27 -16
26 -9 34 17 20 14 -7 18 -17 15 -31 -4 -15 0 -20 16 -20 12 0 21 6 21 15 0 8
5 15 11 15 6 0 9 -7 5 -15 -8 -21 30 -20 42 1 8 15 10 15 15 0 5 -12 20 -16
61 -16 30 0 58 5 61 10 3 6 2 10 -3 10 -18 0 -5 45 14 47 10 2 13 0 7 -3 -7
-3 -13 -15 -13 -25 0 -11 4 -18 9 -14 5 3 13 0 17 -6 4 -8 3 -9 -4 -5 -7 4
-12 3 -12 -2 0 -14 176 -15 202 -1 12 7 18 7 14 1 -4 -7 39 -11 124 -11 79 0
130 3 130 9 0 6 -8 10 -17 11 -11 0 -13 3 -5 6 6 2 12 9 12 14 0 6 -5 7 -10 4
-6 -3 -10 -2 -10 3 0 11 30 25 38 17 3 -3 0 -5 -5 -5 -8 0 -8 -9 0 -30 6 -16
18 -30 25 -30 8 0 12 6 8 15 -4 10 1 15 14 15 11 0 20 -7 20 -15 0 -8 5 -15
10 -15 6 0 10 7 10 15 0 19 16 19 24 0 6 -17 36 -21 36 -5 0 6 -4 10 -8 10 -4
0 -8 9 -9 19 -2 18 0 19 18 3 10 -9 19 -22 19 -29 0 -10 24 -12 99 -11 83 2
98 5 94 18 -4 12 -1 11 9 -2 22 -26 149 -24 173 2 9 10 14 23 11 29 -4 5 -1
13 5 17 8 4 9 3 5 -4 -4 -7 -2 -12 5 -12 7 0 2 -11 -11 -25 -18 -20 -20 -25
-8 -25 9 0 19 6 21 12 4 10 6 10 6 1 1 -9 18 -13 50 -13 30 0 51 5 54 13 4 10
6 10 6 0 1 -7 12 -13 25 -13 24 0 24 1 10 27 -18 36 -18 48 1 29 8 -8 15 -19
15 -24 0 -18 26 -32 37 -21 8 8 13 8 17 0 4 -6 14 -11 22 -11 11 0 13 6 8 23
l-6 22 19 -23 c11 -12 24 -22 28 -22 4 0 15 10 26 22 12 14 17 17 13 7 -8 -25
12 -28 182 -27 144 0 157 2 161 19 3 10 10 16 15 13 5 -3 7 -11 5 -18 -4 -9
21 -13 95 -14 64 -1 97 2 93 8 -3 6 -1 10 4 10 6 0 11 -4 11 -10 0 -6 113 -9
305 -9 l305 1 0 144 c0 89 -4 144 -10 144 -5 0 -10 5 -10 11 0 5 4 8 10 4 14
-9 11 366 -3 384 -9 11 -9 13 -1 8 17 -10 19 294 2 305 -10 6 -10 8 0 8 9 0
12 329 12 1610 l0 1610 -2820 0 -2820 0 0 -1470z m2362 1130 c29 -11 45 -11
73 -3 23 7 35 8 33 1 -2 -5 -8 -10 -13 -10 -22 0 -65 -33 -60 -46 3 -8 5 -18
5 -23 0 -6 4 -8 9 -5 5 3 8 -5 7 -19 -2 -34 -11 -31 -30 9 -8 18 -23 39 -33
47 -15 13 -16 12 -11 -9 4 -14 2 -20 -5 -15 -6 4 -8 -2 -5 -15 4 -12 2 -22 -3
-22 -5 0 -9 9 -9 19 0 21 -17 37 -28 27 -3 -4 -1 -16 6 -26 16 -26 15 -31 -3
-24 -8 4 -15 12 -15 20 0 17 -2 17 -34 3 -20 -9 -29 -9 -41 1 -25 20 -17 30
23 30 42 0 89 18 96 37 7 17 -32 27 -50 12 -11 -9 -18 -9 -22 -2 -12 18 -75
21 -112 6 -19 -8 -51 -16 -70 -18 -43 -3 -185 -34 -223 -49 -24 -9 -28 -16
-25 -43 2 -18 0 -29 -5 -26 -5 3 -7 0 -5 -8 3 -8 10 -13 16 -12 6 2 9 -4 6
-12 -5 -11 -11 -12 -24 -5 -26 14 -33 12 -27 -4 7 -18 -17 -28 -32 -13 -16 16
-14 -9 3 -41 17 -31 28 -61 31 -82 1 -8 6 -23 10 -32 8 -20 -2 -23 -25 -8 -11
7 -11 10 -2 10 7 0 10 5 7 10 -4 6 -12 7 -18 3 -7 -4 -5 2 3 12 11 14 12 19 3
22 -7 3 -13 14 -13 25 0 18 -2 19 -17 7 -15 -13 -15 -12 -4 8 9 18 9 22 -2 18
-8 -4 -13 2 -13 15 0 11 4 20 9 20 4 0 5 5 2 10 -5 8 -11 8 -19 0 -9 -7 -23
-7 -45 1 -17 6 -38 9 -45 6 -22 -9 -38 16 -23 33 10 11 8 11 -8 0 -11 -8 -21
-15 -23 -16 -2 -1 2 -11 9 -23 7 -11 10 -23 6 -27 -9 -9 -48 26 -42 36 3 4 -6
7 -20 6 -30 -1 -29 0 -9 -20 13 -14 13 -16 1 -16 -9 0 -18 6 -20 13 -4 9 -7 9
-15 -1 -5 -7 -16 -10 -24 -7 -10 4 -15 1 -15 -7 3 -26 -18 -22 -31 6 -12 24
-12 30 -1 37 11 7 10 9 -3 9 -10 0 -24 13 -33 29 -8 16 -19 32 -25 34 -6 3 -5
4 2 3 7 -2 21 1 32 6 13 7 28 5 52 -8 19 -10 34 -22 34 -26 0 -4 6 -5 14 -2 8
3 17 1 21 -5 3 -6 14 -11 23 -11 14 0 15 2 2 10 -8 5 -12 11 -9 14 8 8 211 77
237 81 19 3 21 1 11 -11 -6 -8 -10 -17 -7 -20 7 -7 59 17 83 39 25 23 57 31
98 23 26 -5 174 18 185 28 9 10 213 -2 244 -14z m-210 -92 c-7 -7 -12 -20 -12
-29 0 -9 -8 -19 -19 -22 -14 -3 -18 -12 -15 -33 l4 -29 -11 28 c-10 26 -29 37
-29 17 0 -14 23 -64 37 -78 7 -7 13 -20 13 -29 0 -9 6 -13 15 -9 8 3 15 1 15
-4 0 -6 -7 -10 -15 -10 -8 0 -15 -7 -15 -15 0 -8 -7 -15 -15 -15 -8 0 -15 4
-15 9 0 5 -3 18 -6 28 -6 16 -5 16 9 -2 13 -16 16 -17 17 -4 0 8 -4 19 -9 25
-5 5 -14 26 -20 46 -14 41 -36 65 -46 48 -3 -5 -1 -10 5 -10 7 0 6 -5 -2 -14
-11 -12 -14 -12 -21 0 -5 8 -14 11 -20 7 -7 -4 -26 -8 -44 -9 -18 0 -39 -7
-48 -14 -16 -14 -21 -50 -6 -50 11 0 30 -53 36 -99 5 -44 -10 -30 -30 27 -10
26 -20 54 -23 62 -3 8 -5 25 -6 37 -1 23 -16 45 -16 24 0 -17 -52 -10 -58 8
-3 10 0 12 11 8 9 -3 19 -2 22 3 4 6 15 10 26 10 10 0 19 7 19 16 0 18 62 46
84 38 10 -4 16 -1 16 7 0 12 2 12 9 0 7 -11 13 -11 32 0 30 16 132 47 138 42
3 -2 -1 -9 -7 -15z m1017 -300 c15 -9 25 -9 45 0 28 13 35 6 11 -12 -12 -9
-11 -17 8 -57 21 -43 21 -46 4 -41 -11 3 -16 10 -13 19 3 7 -15 0 -40 -18 -25
-17 -43 -33 -40 -36 3 -3 13 0 22 7 13 11 17 11 24 0 7 -11 11 -10 25 3 19 19
25 21 25 7 0 -5 -13 -16 -30 -25 -21 -11 -30 -12 -30 -4 0 7 -3 10 -6 7 -3 -4
-4 -9 -2 -12 6 -11 -41 -36 -56 -30 -9 3 -16 17 -16 29 0 13 -2 29 -5 37 -2 7
13 27 34 43 37 29 38 31 24 63 -15 35 -12 38 16 20z m85 -181 c-3 -9 -10 -17
-16 -17 -5 0 -6 5 -3 10 3 6 2 10 -3 10 -16 0 -24 -33 -10 -41 7 -4 9 -11 5
-16 -5 -4 -12 -1 -16 6 -11 17 -35 3 -37 -21 -3 -29 26 -21 111 30 8 5 45 11
45 8 0 -1 11 -31 24 -67 15 -42 21 -71 15 -80 -5 -8 -6 -22 -3 -31 9 -29 -3
-21 -20 14 -20 38 -20 44 -2 29 8 -7 17 -8 20 -3 3 6 -1 15 -9 22 -8 7 -13 16
-10 20 9 14 -17 70 -32 70 -11 0 -13 -4 -6 -12 19 -25 24 -78 8 -85 -12 -4
-13 -8 -3 -20 9 -11 9 -16 -3 -24 -12 -7 -12 -9 1 -9 13 0 13 -1 0 -10 -17
-11 -25 -4 -35 29 -6 18 -4 22 6 15 10 -6 10 -3 -1 11 -14 18 -15 18 -18 -3
-2 -11 1 -30 7 -40 20 -37 -16 -34 -51 3 -18 19 -38 35 -45 35 -19 0 -29 50
-12 61 13 8 12 10 -10 13 -5 0 -13 5 -18 10 -4 5 -3 6 4 2 7 -3 14 2 18 13 8
27 88 102 98 92 4 -4 5 -15 1 -24z m-1974 -135 c0 -5 9 -19 19 -31 11 -13 22
-28 25 -34 3 -9 7 -8 14 2 8 11 11 9 17 -9 6 -18 12 -21 37 -16 16 3 40 3 51
0 24 -6 63 -60 73 -99 5 -19 12 -24 34 -22 23 2 26 5 19 19 -17 31 -9 33 17 3
21 -24 27 -27 34 -15 7 10 10 11 10 3 0 -7 7 -13 15 -13 11 0 9 9 -10 38 -14
20 -28 42 -33 47 -20 24 -20 53 0 58 15 4 17 3 8 -8 -8 -9 -7 -14 4 -18 8 -3
17 2 21 11 5 14 7 14 15 2 14 -22 12 -30 -7 -31 -13 0 -12 -3 5 -10 13 -5 28
-7 33 -3 5 3 9 -2 9 -10 0 -9 -3 -15 -7 -15 -19 3 -33 -2 -33 -12 0 -7 9 -9
24 -5 16 4 26 1 29 -9 4 -9 1 -12 -7 -9 -7 3 -13 -2 -13 -11 0 -8 4 -15 9 -15
16 0 7 -30 -9 -31 -12 -1 -10 -4 7 -9 18 -6 20 -8 7 -9 -10 -1 -17 -7 -14 -13
2 -7 14 -12 25 -11 15 2 20 -2 16 -12 -10 -26 -34 -16 -49 18 -15 36 -45 68
-45 48 0 -6 -6 -10 -12 -9 -7 2 -12 -3 -10 -10 1 -8 -2 -11 -8 -7 -6 4 -8 16
-4 27 5 17 3 19 -18 13 -39 -12 -42 -22 -14 -52 15 -16 25 -36 22 -45 -2 -10
0 -18 6 -18 5 0 6 -5 2 -11 -3 -6 -17 -8 -31 -4 -18 4 -24 2 -20 -7 2 -7 10
-12 17 -10 8 2 9 -5 5 -19 -6 -16 -4 -20 6 -14 8 5 11 5 7 0 -4 -4 -3 -14 3
-21 6 -8 6 -14 0 -18 -5 -3 -22 22 -38 56 -29 62 -28 85 3 54 24 -24 35 -19
23 11 -18 48 -29 56 -49 34 -27 -32 -54 -16 -90 50 -17 32 -30 62 -30 66 1 4
-6 10 -15 13 -15 5 -14 9 8 23 19 12 27 13 30 4 3 -7 6 -5 6 6 1 9 -5 17 -12
17 -19 0 -59 -39 -52 -51 4 -5 0 -9 -9 -9 -8 0 -20 14 -28 30 -7 17 -16 30
-20 30 -18 0 -15 -20 8 -53 14 -20 21 -37 17 -37 -4 -1 1 -8 12 -18 23 -19 32
-64 12 -61 -32 4 -35 0 -24 -31 6 -16 17 -30 24 -30 7 0 13 -6 13 -14 0 -17
60 -79 68 -71 3 3 -4 12 -16 21 -12 8 -20 20 -16 25 3 5 20 -8 37 -29 18 -21
39 -36 46 -34 10 3 12 0 8 -12 -4 -10 -3 -15 3 -11 6 3 10 2 10 -4 0 -17 -20
-23 -36 -10 -8 6 -17 9 -21 5 -4 -3 2 -13 13 -21 10 -8 14 -15 8 -15 -6 0 -17
7 -24 15 -9 11 -17 12 -30 5 -13 -7 -21 -6 -26 2 -4 7 -3 8 4 4 7 -4 12 -2 12
4 0 6 5 8 10 5 19 -12 10 14 -13 37 -12 13 -31 37 -42 54 -11 17 -33 51 -50
75 -30 46 -41 79 -26 79 5 0 11 -7 15 -15 8 -21 27 -19 20 3 -6 17 -15 42 -19
52 -2 3 -6 15 -10 26 -7 21 -65 41 -65 22 0 -4 -3 -7 -7 -6 -5 0 -15 -2 -25
-6 -13 -6 -14 -14 -8 -37 10 -32 3 -38 -15 -13 -9 13 -9 26 2 58 8 22 18 45
23 50 5 5 5 17 -1 28 -10 19 4 27 16 8 10 -16 22 -11 28 11 3 12 10 18 15 15
6 -3 8 2 5 14 -3 11 0 20 6 20 6 0 11 -4 11 -8z m-30 -267 c5 3 19 0 31 -8 13
-9 16 -17 10 -22 -6 -3 -11 -1 -11 4 0 6 -7 11 -15 11 -20 0 -19 -33 1 -71 15
-30 15 -31 -5 -24 -27 8 -26 2 2 -28 18 -20 24 -22 35 -11 14 16 16 28 2 19
-15 -9 -12 2 6 19 14 15 13 16 -8 16 -16 0 -19 3 -10 8 7 5 10 17 7 28 -5 13
2 9 19 -11 14 -16 26 -33 26 -37 0 -5 9 -17 21 -29 12 -12 18 -27 14 -39 -3
-10 1 -35 10 -56 9 -21 11 -40 6 -43 -13 -9 25 -97 41 -93 7 2 10 0 6 -4 -4
-4 4 -17 18 -29 14 -12 29 -37 33 -55 4 -22 13 -34 25 -36 29 -4 46 -37 26
-49 -5 -3 -10 3 -10 15 0 17 -4 20 -19 15 -17 -5 -22 1 -31 33 -9 37 -40 78
-40 54 0 -15 60 -164 72 -179 5 -7 8 -20 6 -30 -3 -19 -53 91 -108 237 -17 47
-39 98 -48 114 -11 22 -12 31 -4 34 7 2 12 8 12 14 0 6 -7 8 -15 4 -10 -4 -18
6 -26 34 -13 43 -20 48 -38 27 -8 -10 -6 -18 7 -33 9 -10 26 -46 36 -79 11
-33 26 -67 33 -76 7 -9 10 -19 6 -22 -3 -4 0 -7 7 -7 7 0 11 -3 8 -6 -3 -3 3
-29 14 -57 19 -51 30 -91 31 -114 0 -6 6 -9 14 -6 16 6 17 -9 1 -25 -9 -9 -9
-15 0 -24 16 -16 15 -25 -3 -25 -8 0 -12 4 -9 9 8 12 -10 10 -23 -3 -8 -8 -14
-5 -22 10 -9 15 -9 21 -1 21 22 0 4 33 -19 37 -35 5 -37 11 -8 24 17 8 23 17
20 27 -4 10 -2 13 5 8 8 -5 10 -2 6 8 -3 9 -10 13 -15 10 -5 -3 -12 2 -15 10
-3 9 -12 16 -19 16 -25 0 -36 26 -25 55 8 22 8 30 -2 37 -20 12 -34 10 -20 -4
17 -17 15 -48 -3 -48 -14 0 -19 12 -16 33 0 4 -3 7 -9 7 -10 0 -33 71 -25 79
3 2 13 -6 24 -17 17 -20 81 -42 81 -28 0 3 -15 12 -32 19 -18 8 -40 22 -48 32
-11 14 -11 17 -1 11 15 -10 9 19 -15 66 -8 15 -14 34 -14 43 0 9 -5 13 -10 10
-6 -4 -8 -10 -5 -14 5 -10 -41 -32 -49 -24 -14 14 -4 45 25 78 23 26 27 35 15
35 -9 0 -16 7 -16 16 0 13 3 14 15 4 8 -6 19 -9 25 -5 17 11 2 23 -25 20 -14
-2 -28 1 -31 6 -3 5 0 8 7 7 6 -2 13 2 16 8 2 7 -4 11 -14 10 -21 -1 -31 33
-12 44 7 5 22 2 35 -7 13 -8 28 -12 34 -8z m265 -246 c-4 -5 0 -9 8 -9 21 0
42 -51 25 -63 -10 -7 -9 -8 3 -4 8 3 26 -6 39 -20 15 -15 26 -20 30 -13 7 12
40 3 40 -12 0 -5 6 -8 13 -7 26 5 67 -14 67 -30 0 -13 -2 -14 -9 -2 -8 12 -14
12 -33 4 -20 -10 -21 -12 -4 -12 11 -1 16 -4 13 -8 -4 -3 -1 -13 6 -22 11 -14
10 -15 -8 -1 -28 21 -34 31 -28 47 3 7 -2 13 -11 13 -9 0 -16 5 -16 10 0 6 -4
10 -10 10 -5 0 -10 -7 -10 -15 0 -8 5 -15 11 -15 5 0 7 -5 4 -11 -4 -6 -13 -8
-21 -5 -12 4 -12 2 -4 -14 12 -22 30 -27 30 -7 0 16 32 -37 50 -83 7 -19 22
-45 33 -57 21 -24 16 -46 -5 -25 -7 7 -20 12 -29 12 -10 0 -21 5 -25 12 -4 7
-3 8 4 4 20 -12 33 3 20 24 -10 15 -15 17 -28 7 -13 -10 -13 -10 -3 4 15 19 6
59 -14 59 -8 0 -12 -3 -10 -7 3 -5 -2 -14 -10 -22 -12 -11 -14 -11 -11 1 2 8
-14 29 -34 47 -21 18 -38 39 -38 47 0 8 -4 14 -10 14 -5 0 -10 5 -10 10 0 6 7
10 15 10 8 0 15 7 15 15 0 8 -5 15 -10 15 -6 0 -15 12 -21 28 -6 15 -16 39
-24 54 -13 27 -10 42 7 32 4 -3 6 -10 3 -15z m332 -378 c13 -24 26 -35 44 -35
28 -2 79 -47 79 -71 0 -8 6 -15 13 -15 8 0 13 -11 12 -27 0 -18 -6 -27 -14
-25 -9 2 -11 -3 -7 -15 3 -10 -5 -4 -19 12 -14 17 -25 28 -26 25 -5 -32 -2
-67 6 -64 9 3 50 -47 87 -107 23 -37 5 -49 -28 -18 -15 14 -20 26 -15 33 6 7
1 11 -16 13 -14 0 -30 7 -37 13 -8 10 -8 11 2 6 7 -4 12 -2 12 6 0 15 -35 48
-50 48 -6 0 -10 5 -10 11 0 6 8 8 18 5 15 -5 15 -4 -2 8 -10 8 -15 20 -11 25
3 6 -1 14 -9 17 -12 5 -13 10 -5 26 9 16 8 19 -2 13 -9 -6 -11 -3 -6 8 7 20 3
21 -23 7 -15 -8 -22 -6 -31 12 -18 32 -21 110 -6 120 9 6 9 8 -1 8 -7 0 -10 5
-6 11 8 14 25 -3 51 -50z m1989 -346 c-3 -8 -1 -15 5 -15 6 0 7 -4 4 -10 -3
-5 0 -8 7 -5 7 2 20 -1 28 -8 17 -13 56 -87 52 -99 -1 -5 2 -8 8 -8 6 0 10 -7
10 -15 0 -11 11 -15 40 -15 36 0 39 -2 31 -22 -9 -26 -67 -46 -84 -29 -8 8 -7
11 1 11 17 0 15 17 -5 61 -18 38 -39 47 -37 15 2 -19 -7 -21 -24 -4 -8 8 -12
9 -12 1 0 -6 -9 -9 -20 -6 -11 3 -20 0 -20 -6 0 -6 7 -11 16 -11 8 0 13 -4 10
-9 -3 -5 -15 -7 -26 -4 -12 3 -22 -1 -26 -11 -3 -9 -16 -16 -28 -15 -20 0 -20
1 3 10 23 9 23 10 5 23 -14 11 -21 11 -26 3 -5 -7 -5 4 -1 23 7 42 20 52 52
44 19 -4 22 -2 14 8 -15 19 -22 57 -12 64 5 3 9 14 9 25 0 11 7 19 16 19 10 0
14 -6 10 -15z m-2192 -426 c15 -22 25 -43 22 -47 -3 -3 1 -13 9 -22 9 -10 18
-35 20 -56 6 -46 24 -93 42 -112 7 -8 10 -19 6 -25 -4 -7 -9 -4 -14 9 -4 10
-8 13 -8 7 -1 -19 -21 -16 -21 3 0 14 -2 14 -15 0 -19 -19 -19 -27 0 -20 13 5
14 2 5 -21 -6 -15 -8 -30 -6 -33 3 -2 8 8 12 22 l6 27 20 -21 c10 -11 16 -25
12 -32 -4 -7 -3 -8 4 -4 7 4 12 17 12 29 0 26 15 11 23 -23 4 -17 -1 -35 -14
-55 -19 -27 -20 -22 -3 20 3 8 2 15 -4 15 -5 0 -13 -10 -16 -22 l-7 -23 -9 23
c-5 12 -15 22 -22 22 -9 0 -8 -3 2 -10 13 -8 13 -11 -2 -27 -17 -16 -18 -16
-18 2 0 17 -2 18 -10 5 -8 -12 -12 -13 -19 -1 -7 10 -12 8 -25 -10 -9 -13 -16
-29 -16 -36 0 -7 -4 -13 -10 -13 -5 0 -10 7 -10 15 0 8 -8 15 -17 15 -10 0
-27 7 -37 15 -15 11 -16 17 -7 29 9 11 8 15 -6 20 -12 5 -25 -2 -43 -24 -27
-33 -40 -38 -40 -16 0 17 -18 31 -28 21 -3 -3 0 -10 8 -15 12 -7 12 -12 2 -22
-10 -10 -15 -10 -22 2 -7 10 -10 11 -10 3 0 -17 -15 -16 -34 2 -8 9 -12 23 -9
32 4 10 2 14 -7 11 -7 -2 -14 -15 -15 -28 -2 -31 -55 -69 -55 -40 0 6 7 13 15
16 19 8 20 24 1 24 -13 0 -86 -81 -86 -96 0 -4 7 1 15 12 12 15 16 16 24 5 5
-7 14 -10 20 -7 6 4 11 2 11 -3 0 -6 -4 -11 -10 -11 -5 0 -10 -4 -10 -9 0 -5
8 -7 19 -4 30 8 35 -15 11 -50 -20 -30 -23 -18 -6 24 6 14 -8 18 -43 10 -2 -1
2 -8 9 -16 9 -10 9 -15 1 -15 -6 0 -11 -7 -11 -15 0 -8 -4 -15 -10 -15 -5 0
-10 7 -10 15 0 8 -5 25 -12 39 -9 20 -14 23 -25 15 -15 -13 -18 -33 -3 -24 6
3 7 -1 4 -10 -5 -13 -9 -13 -22 -3 -13 11 -15 10 -9 -5 4 -10 0 -29 -9 -43 -9
-13 -14 -27 -11 -30 9 -9 27 6 27 22 0 8 5 14 10 14 14 0 12 -23 -2 -39 -11
-11 -10 -13 0 -7 7 4 15 1 18 -8 3 -9 11 -16 16 -16 6 0 7 8 3 18 -12 30 -14
72 -5 72 10 0 14 -14 11 -38 -1 -8 3 -20 9 -27 7 -8 8 -20 4 -26 -5 -8 -3 -9
6 -4 10 6 12 3 8 -12 -7 -26 30 -52 43 -31 5 7 9 9 9 4 0 -9 -47 -83 -60 -96
-9 -9 -34 -65 -32 -72 1 -5 -5 -8 -13 -8 -20 0 -19 12 5 38 22 23 27 56 8 50
-7 -3 -14 -14 -16 -26 -2 -12 -8 -22 -13 -22 -5 0 -9 -5 -9 -12 0 -6 -8 -21
-19 -32 -10 -12 -22 -32 -26 -46 -6 -23 -5 -23 22 8 19 22 30 28 30 18 0 -9
-5 -16 -10 -16 -6 0 -7 -3 -4 -6 4 -4 -3 -20 -15 -36 -18 -26 -22 -28 -30 -14
-8 14 -13 15 -24 5 -8 -6 -14 -18 -14 -26 0 -13 2 -13 17 -2 15 13 15 12 2 -8
-9 -15 -17 -19 -23 -13 -12 12 -29 13 -22 1 6 -10 -29 -87 -44 -96 -13 -8 -50
4 -50 16 0 6 8 6 20 -1 19 -10 25 -4 21 22 0 4 6 5 14 2 8 -4 15 -2 15 4 0 15
-26 22 -39 9 -8 -8 -11 -7 -11 4 0 17 -34 49 -52 49 -9 0 -9 3 1 12 10 11 14
9 23 -5 9 -17 11 -17 24 8 18 35 18 38 -6 30 -27 -8 -25 0 5 33 14 15 25 31
25 37 1 15 59 82 60 68 0 -6 -4 -15 -10 -18 -16 -10 -12 -25 5 -19 8 4 15 1
15 -5 0 -17 -31 -61 -42 -61 -6 0 -5 6 2 15 7 8 9 15 4 16 -5 0 0 4 11 9 16 7
17 9 3 9 -9 1 -26 -12 -37 -28 -18 -25 -19 -32 -8 -55 13 -23 15 -24 30 -8 16
15 17 15 17 -1 0 -9 -4 -17 -9 -17 -5 0 -11 -8 -15 -17 -3 -10 -9 -24 -12 -31
-4 -8 0 -10 10 -6 9 3 16 13 16 20 0 16 12 33 52 74 33 34 24 49 -10 18 -21
-19 -24 -20 -19 -5 4 10 7 23 7 28 0 5 7 9 15 9 8 0 15 9 15 20 0 11 5 20 11
20 6 0 9 7 5 15 -3 8 -1 15 4 15 6 0 10 5 10 11 0 11 37 49 48 49 2 0 1 -7 -2
-16 -6 -14 -4 -15 9 -4 21 18 0 31 -31 20 -23 -9 -64 -3 -64 10 0 4 7 10 15
14 8 3 15 1 15 -4 0 -6 8 -5 19 2 11 7 18 15 15 19 -2 4 0 10 6 14 5 3 15 15
21 27 11 20 11 20 -15 2 -14 -11 -26 -28 -26 -39 l-1 -20 -15 20 c-12 14 -18
16 -21 7 -3 -7 -10 -18 -17 -25 -18 -18 5 -62 23 -44 10 10 12 8 9 -8 -3 -16
-10 -20 -43 -18 -38 2 -42 -1 -77 -53 -21 -30 -38 -59 -38 -63 0 -11 -31 -23
-39 -15 -3 3 2 11 12 18 9 7 17 16 17 20 0 4 10 20 21 35 13 17 18 34 14 42
-5 8 -4 10 4 5 13 -9 31 11 93 101 27 41 45 58 48 49 4 -13 8 -12 25 0 19 14
19 15 -3 20 -12 4 -22 11 -22 18 0 6 -7 2 -15 -8 -8 -11 -15 -15 -15 -10 0 6
7 19 15 30 19 25 19 35 0 28 -8 -4 -17 1 -21 10 -5 14 -34 24 -34 12 0 -2 -3
-13 -7 -23 -6 -16 -5 -16 11 -4 29 24 42 -1 20 -38 -20 -33 -30 -38 -37 -18
-3 8 -10 6 -21 -8 -17 -20 -17 -20 -11 3 7 25 -12 31 -21 7 -4 -8 -15 -15 -25
-15 -11 0 -22 -7 -26 -16 -4 -11 -13 -14 -31 -9 -22 5 -24 4 -13 -9 7 -8 9
-21 5 -27 -4 -8 -3 -9 4 -5 7 4 12 1 12 -8 0 -34 -35 -12 -42 26 -5 29 15 58
26 39 11 -16 34 -2 39 24 6 34 -4 40 -20 13 -7 -13 -12 -17 -13 -10 0 7 12 24
26 37 18 17 22 25 12 25 -8 0 -29 -16 -46 -36 -19 -21 -38 -34 -46 -31 -8 3
-17 -1 -20 -10 -4 -11 -2 -14 9 -9 12 4 13 2 2 -14 -6 -11 -15 -20 -19 -20 -5
0 -8 -7 -8 -17 0 -15 1 -15 18 0 23 21 32 21 32 2 0 -8 -6 -12 -13 -9 -7 2
-27 -15 -45 -41 -20 -28 -39 -45 -52 -45 -24 0 -25 9 -5 36 20 27 19 33 -10
44 -29 11 -56 4 -49 -13 5 -17 -13 -43 -23 -33 -4 5 -3 11 4 13 7 2 10 10 7
17 -3 8 2 21 11 29 13 14 14 20 3 37 -7 11 -19 20 -27 20 -11 0 -10 5 4 20 23
25 7 25 -23 0 -22 -18 -23 -48 -1 -35 5 4 9 1 9 -5 0 -7 7 -10 15 -6 21 7 19
-1 -6 -32 l-22 -27 7 28 c6 27 -8 39 -17 15 -3 -8 -6 -6 -6 4 -1 10 -7 16 -13
14 -7 -1 -10 -1 -5 1 9 6 9 33 0 33 -4 0 -18 -12 -30 -27 -17 -21 -21 -23 -16
-8 4 11 14 25 22 32 9 6 12 15 8 19 -4 5 -12 2 -17 -6 -6 -8 -10 -10 -10 -4 0
6 10 19 22 30 18 16 20 17 15 2 -7 -20 14 -40 31 -29 7 4 10 15 7 23 -4 10 5
24 27 39 27 19 30 19 16 3 -14 -16 -14 -21 -2 -32 7 -6 11 -19 8 -27 -7 -18 7
-20 24 -3 8 8 15 8 24 0 17 -14 35 -3 54 33 21 40 18 42 -16 10 -16 -16 -33
-26 -36 -22 -4 4 14 25 39 48 42 36 45 42 32 55 -18 18 -6 48 22 58 14 6 16 5
6 -5 -15 -15 -17 -33 -4 -25 10 6 25 -24 16 -32 -3 -3 -5 0 -5 6 0 7 -5 12
-11 12 -6 0 -8 -7 -5 -16 4 -9 1 -23 -5 -30 -20 -24 5 -15 29 10 19 20 21 28
12 51 -16 43 -12 63 21 97 l31 33 -6 -27 c-4 -19 -2 -28 6 -28 9 0 9 -3 0 -12
-10 -10 -15 -10 -21 1 -6 10 -10 10 -16 1 -4 -6 -4 -14 -1 -17 3 -3 1 -12 -5
-20 -8 -9 -8 -13 -1 -13 6 0 15 8 21 17 5 10 13 14 17 10 4 -4 -3 -18 -16 -32
-24 -25 -16 -36 9 -12 11 10 12 9 5 -3 -5 -8 -7 -23 -6 -32 2 -12 -2 -15 -17
-11 -13 3 -23 -2 -30 -16 -9 -16 -9 -21 0 -21 8 0 7 -6 -4 -17 -13 -15 -13
-21 -3 -36 12 -15 15 -15 26 -2 9 11 9 15 1 15 -7 0 -10 11 -8 25 4 31 16 43
26 26 7 -10 10 -9 16 8 7 22 21 28 27 11 5 -14 48 0 48 16 0 7 -5 16 -12 20
-8 5 -9 2 -4 -12 6 -16 4 -15 -14 4 -27 28 -22 36 15 22 23 -9 26 -8 21 6 -3
8 -6 20 -6 25 0 6 -4 7 -10 4 -15 -9 -12 4 4 21 20 19 30 18 22 -3 -6 -14 -3
-14 16 3 12 10 18 12 12 4 -13 -17 -25 -50 -19 -50 2 0 12 8 21 18 16 15 17
15 12 0 -5 -11 0 -18 13 -21 10 -3 19 -1 19 3 0 10 -32 73 -41 80 -3 3 -9 17
-12 31 -9 37 -67 48 -67 13 0 -8 -7 -14 -15 -14 -8 0 -15 9 -15 20 0 11 -4 20
-10 20 -5 0 -10 5 -10 12 0 6 10 3 21 -8 22 -19 22 -19 14 6 -4 14 -11 26 -15
28 -3 1 -5 15 -2 31 5 35 34 46 56 22 29 -32 16 -48 -33 -41 -13 1 -13 -1 -1
-15 10 -13 15 -13 21 -3 7 10 9 10 9 1 0 -14 26 -18 34 -5 5 8 -7 77 -19 106
-7 16 -5 18 8 13 10 -4 20 0 26 11 9 15 10 15 11 -4 0 -12 -7 -25 -16 -28 -8
-3 -12 -11 -9 -17 4 -6 13 -8 21 -5 11 4 10 0 -2 -19 -13 -20 -14 -28 -4 -40
10 -12 10 -18 0 -30 -9 -11 -9 -15 -1 -15 7 0 9 -4 6 -10 -3 -5 -2 -10 3 -10
5 0 12 9 15 21 3 12 10 18 16 14 6 -3 9 -11 6 -16 -4 -5 -1 -9 6 -9 8 0 9 16
4 56 -6 52 -5 55 12 50 15 -5 19 0 21 22 1 21 -5 31 -30 45 -22 13 -28 21 -20
26 7 4 10 15 6 24 -4 11 -1 17 9 17 16 0 27 -20 27 -49 0 -10 12 -30 26 -45
21 -21 23 -26 10 -26 -10 0 -15 -4 -12 -9 9 -14 -4 -41 -20 -41 -20 0 -17 -17
7 -41 26 -26 18 -53 -13 -43 -22 6 -22 6 -6 -12 22 -25 8 -55 -16 -35 -9 8
-16 20 -16 27 0 14 -12 19 -23 8 -12 -12 15 -53 32 -47 14 4 14 3 1 -6 -13
-10 -12 -14 9 -31 15 -13 21 -26 17 -37 -6 -17 -5 -17 8 0 7 9 17 17 22 17 6
0 10 10 11 21 3 29 10 34 28 19 8 -7 15 -9 15 -4 0 5 5 2 10 -6 8 -13 11 -13
27 2 9 10 13 21 9 25 -4 4 -12 1 -17 -7 -9 -13 -10 -12 -6 2 6 17 -18 33 -34
23 -5 -4 -6 1 -3 9 3 9 1 16 -5 16 -7 0 -9 9 -6 23 4 16 0 29 -14 41 -20 18
-20 18 9 48 21 20 32 46 41 89 8 40 15 57 22 50 7 -7 6 -20 -2 -39 -7 -18 -10
-44 -6 -66 6 -29 5 -35 -7 -31 -21 8 -42 -21 -32 -42 8 -19 11 -29 13 -52 1
-10 4 -11 15 -2 18 15 30 -1 21 -30 -5 -14 -3 -19 3 -15 6 3 12 0 15 -6 2 -7
8 -10 12 -6 4 4 2 15 -6 24 -12 15 -11 16 9 10 17 -6 21 -4 16 8 -3 9 -11 16
-18 16 -6 0 -5 4 3 9 8 5 11 16 8 24 -4 11 -2 14 9 10 8 -3 13 -12 10 -19 -7
-18 6 -25 24 -13 13 8 13 10 0 19 -13 9 -13 11 0 21 13 9 13 10 -1 6 -9 -3
-22 -1 -29 3 -9 5 -19 1 -31 -13 -21 -27 -29 -21 -22 15 3 17 10 25 19 21 10
-4 14 4 14 30 0 27 5 37 21 42 11 4 23 4 26 2 8 -9 -7 -27 -23 -27 -16 0 -18
-9 -4 -30 6 -10 10 -11 10 -2 0 6 6 12 14 12 8 0 16 6 19 13 3 8 12 5 30 -12
19 -17 33 -22 51 -17 14 3 27 3 29 -2 10 -14 -5 -62 -19 -62 -8 0 -14 -5 -14
-11 0 -5 -4 -7 -10 -4 -16 10 -12 35 5 29 8 -4 15 -1 15 5 0 14 -35 14 -61 0
-21 -11 -16 -34 6 -25 8 3 17 -3 20 -13 6 -20 30 -22 58 -6 13 8 18 26 20 76
1 50 5 66 17 65 8 -1 16 7 18 17 3 16 1 17 -17 7 -17 -9 -21 -8 -21 5 0 8 6
15 14 15 8 0 16 6 19 14 3 8 15 12 31 9 34 -7 41 -30 10 -37 -28 -7 -30 -18
-9 -36 12 -10 15 -10 15 1 0 8 6 5 14 -7 12 -16 17 -17 28 -6 11 11 10 15 -6
24 -15 8 -16 12 -5 19 8 4 16 3 20 -3 4 -6 14 3 25 21 l18 31 27 -26 c17 -17
29 -22 34 -15 3 6 10 9 14 7 3 -3 7 4 7 14 0 10 -4 17 -7 14 -4 -2 -15 9 -25
25 -9 15 -24 27 -33 26 -9 -1 -10 0 -3 2 6 3 12 11 12 19 0 8 5 12 10 9 12 -7
12 -3 4 19 -3 9 -11 13 -17 9 -6 -3 -7 -1 -3 5 4 7 2 20 -3 29 -7 13 -10 14
-11 4 0 -8 -3 -12 -6 -8 -5 5 3 27 10 27 2 0 16 -18 30 -41z m-140 -366 c-10
-11 -13 -24 -9 -42 8 -31 16 -40 22 -24 5 13 33 6 33 -8 0 -6 -9 -19 -20 -31
-24 -26 -27 -50 -5 -42 9 4 15 0 15 -8 0 -7 -10 -15 -22 -15 -13 -1 -24 -7
-26 -13 -5 -15 -22 -12 -22 4 0 8 -6 16 -12 18 -9 3 -8 10 5 22 25 25 12 34
-15 10 -19 -17 -21 -17 -15 -1 4 11 1 17 -8 17 -19 0 -19 17 -1 35 13 14 60 9
51 -5 -8 -12 21 -44 33 -36 17 10 15 36 -3 36 -9 0 -18 7 -21 15 -9 23 -48 18
-74 -10 -13 -14 -20 -25 -15 -25 4 0 0 -9 -10 -20 -14 -15 -15 -23 -6 -33 9
-11 8 -17 -4 -27 -11 -9 -15 -9 -15 -1 0 9 -4 9 -13 -1 -11 -10 -15 -52 -8
-78 0 -3 10 10 21 28 16 25 25 32 40 27 14 -4 20 -2 20 9 0 15 18 32 26 23 3
-2 -7 -19 -22 -37 -35 -41 -42 -85 -14 -87 13 -1 20 4 20 15 0 13 -2 14 -9 3
-6 -9 -11 -10 -15 -2 -4 6 -2 11 4 11 7 0 10 6 8 12 -3 7 1 18 8 25 7 7 14 18
17 25 3 10 8 10 17 2 9 -9 7 -15 -7 -25 -19 -15 -23 -32 -10 -45 4 -4 7 0 7 9
0 10 5 17 10 17 19 0 10 -29 -15 -48 -14 -11 -25 -23 -25 -27 0 -21 -45 -105
-56 -105 -19 0 -18 14 2 31 14 12 44 61 44 73 0 3 -6 3 -14 0 -7 -3 -23 -27
-36 -55 -13 -27 -27 -49 -32 -49 -4 0 -8 -8 -8 -17 -1 -21 -34 -63 -50 -63 -6
0 -9 4 -6 9 3 4 0 16 -7 26 -12 16 -15 16 -30 1 -8 -9 -18 -12 -21 -7 -3 5 1
12 10 15 9 3 14 12 11 19 -2 6 6 23 19 37 13 13 24 19 24 13 0 -6 -7 -19 -16
-27 -18 -18 -9 -40 13 -32 11 4 13 1 8 -14 -5 -15 -3 -18 9 -14 9 3 16 12 16
19 0 17 26 66 39 74 5 3 13 20 17 36 7 28 6 29 -11 15 -16 -13 -85 -41 -85
-35 0 2 6 10 13 17 14 15 57 86 57 95 0 3 -8 -4 -19 -16 -17 -20 -19 -20 -26
-4 -6 16 -8 15 -21 -7 l-14 -25 2 30 c2 20 -1 29 -10 27 -7 -1 5 21 26 50 21
29 46 53 55 53 9 0 25 10 37 23 18 19 19 23 5 28 -12 5 -13 9 -4 20 14 17 6
29 -11 19 -6 -4 -9 -17 -6 -29 3 -11 1 -28 -4 -36 -7 -12 -13 -11 -34 9 -32
30 -28 57 12 83 31 19 32 19 33 1 0 -10 3 -13 5 -7 3 6 20 9 39 7 24 -2 35 1
35 9 0 9 3 8 10 -2 8 -13 12 -12 28 5 10 11 21 28 25 38 4 10 11 15 17 12 6
-4 4 -12 -6 -22z m617 -252 c-9 -6 2 -11 34 -15 35 -6 45 -11 41 -22 -3 -8 -2
-14 3 -14 5 0 11 -9 14 -21 3 -11 15 -23 26 -26 29 -7 28 -46 -1 -61 -79 -39
-146 16 -111 89 11 23 10 26 -4 25 -8 0 -17 8 -19 18 -3 24 3 36 19 36 8 0 8
-3 -2 -9z m-1105 -63 c-9 -5 -16 -16 -16 -23 0 -8 -7 -15 -16 -15 -14 0 -14 3
-4 15 14 17 2 20 -20 4 -11 -8 -12 -12 -2 -16 6 -2 10 -8 7 -13 -10 -17 31 -4
47 15 32 36 34 40 34 50 -1 5 8 11 19 14 l20 3 -20 -23 c-11 -13 -25 -29 -32
-36 -6 -7 -15 -22 -18 -33 -5 -15 -12 -19 -28 -15 -16 4 -30 -2 -51 -24 -15
-16 -27 -31 -25 -33 4 -5 -25 -48 -34 -48 -4 0 -5 5 -2 10 3 6 3 15 -1 21 -4
6 -17 -2 -34 -23 -18 -21 -24 -35 -17 -40 6 -4 16 1 23 10 7 9 15 14 19 11 3
-4 -1 -14 -11 -23 -12 -13 -13 -20 -4 -31 7 -8 9 -23 5 -36 -6 -18 -4 -21 9
-16 22 9 20 -10 -3 -22 -16 -9 -18 -7 -18 15 0 26 -20 47 -35 38 -4 -3 -8 0
-8 6 0 7 9 9 23 5 15 -4 18 -4 8 3 -7 5 -11 14 -8 19 12 20 -63 7 -77 -12 -9
-11 -15 -15 -15 -10 0 6 9 21 19 34 18 20 22 22 37 10 10 -8 14 -9 10 -2 -4 6
-1 15 6 20 8 4 19 18 26 30 13 25 15 45 2 24 -5 -8 -11 -9 -15 -3 -3 6 1 18
10 27 14 13 19 14 26 3 7 -11 10 -10 18 2 28 44 28 44 43 32 19 -16 29 -4 15
18 -10 15 -6 23 19 48 23 24 33 28 42 19 10 -9 15 -8 23 8 9 14 13 16 16 6 3
-8 -3 -18 -12 -23z m384 -147 c0 -6 -5 -13 -10 -16 -12 -8 -9 -57 4 -67 6 -4
4 -14 -5 -24 -12 -16 -12 -17 3 -11 10 3 20 2 23 -3 8 -13 -27 -91 -48 -109
-9 -7 -15 -17 -12 -21 3 -5 1 -12 -5 -15 -8 -5 -7 -12 2 -23 12 -14 10 -14
-10 -3 -21 11 -26 10 -43 -8 -11 -12 -17 -21 -13 -21 4 0 0 -8 -9 -18 -10 -10
-14 -22 -10 -25 3 -4 -2 -7 -11 -7 -12 0 -16 -5 -12 -16 8 -20 -19 -70 -44
-84 -20 -11 -30 3 -10 15 13 8 13 25 0 25 -15 0 -42 -59 -33 -73 5 -9 3 -9 -9
0 -8 7 -18 10 -21 7 -3 -4 -4 5 -1 19 3 19 -1 29 -16 37 -23 12 -24 11 -10
-25 8 -21 7 -26 -2 -22 -7 2 -12 11 -10 19 1 9 -4 18 -12 21 -10 4 -13 1 -9
-9 3 -7 0 -14 -7 -14 -6 0 -8 -4 -5 -10 3 -5 2 -10 -3 -10 -16 0 -21 27 -9 39
9 10 7 16 -7 27 -11 8 -15 14 -9 14 7 0 10 12 8 30 -2 17 1 30 6 30 6 0 7 -6
3 -12 -5 -9 -2 -8 9 1 22 18 33 8 13 -11 -22 -23 -24 -52 -2 -56 11 -2 16 0
12 7 -4 6 -3 11 3 11 5 0 13 -5 16 -10 7 -12 26 -14 24 -2 -3 18 2 32 11 32 6
0 8 -13 5 -30 -5 -31 8 -42 19 -15 7 18 37 20 55 3 11 -11 12 -9 6 9 -5 19 -3
22 11 16 14 -5 15 -3 5 15 -8 15 -8 22 -1 22 5 0 10 5 10 11 0 6 -6 9 -14 6
-8 -3 -17 1 -20 9 -6 17 -1 18 24 4 13 -7 21 -6 30 5 10 11 10 15 1 15 -8 0
-6 6 4 16 9 9 13 19 10 22 -3 4 -10 0 -15 -8 -6 -10 -10 -11 -10 -3 0 7 -7 10
-17 7 -13 -4 -11 0 6 15 23 21 47 29 37 12 -9 -15 23 -22 43 -9 10 6 27 25 37
42 9 17 21 33 25 36 4 3 10 18 13 32 4 24 2 26 -13 16 -10 -6 -18 -16 -18 -23
0 -19 -66 -110 -71 -97 -2 7 3 24 12 37 9 13 16 36 16 50 0 27 9 32 28 13 8
-8 10 -5 6 16 -3 20 -1 25 7 20 7 -4 9 -3 5 4 -3 6 -1 23 4 38 14 36 7 41 -11
6 -7 -15 -22 -38 -31 -52 -10 -14 -19 -37 -20 -52 -1 -15 -5 -25 -9 -22 -4 2
-9 -5 -12 -15 -3 -14 -11 -18 -25 -14 -15 3 -25 -3 -38 -24 -9 -15 -25 -40
-34 -54 -17 -23 -17 -26 -1 -37 14 -10 14 -11 -3 -5 -13 4 -17 3 -12 -5 4 -7
3 -12 -3 -12 -19 0 -20 17 0 48 10 18 19 37 19 44 0 6 10 19 22 29 11 11 16
19 9 19 -7 0 -9 5 -6 11 4 6 14 8 22 5 19 -8 61 25 55 43 -2 7 0 16 5 20 5 3
19 27 31 54 12 26 27 47 33 47 6 0 8 7 5 16 -3 8 0 21 7 29 14 17 27 19 27 6z
m-158 -59 c-7 -9 -15 -25 -18 -34 -4 -10 -11 -18 -16 -18 -5 0 -6 -4 -3 -10 3
-5 3 -10 -2 -10 -10 0 -37 -59 -31 -66 10 -9 37 8 32 20 -3 7 2 19 11 26 8 7
15 20 15 30 0 24 10 31 31 20 14 -8 21 -6 29 10 6 11 15 18 20 15 5 -3 -2 -24
-15 -45 -14 -22 -25 -44 -25 -50 0 -5 -5 -10 -11 -10 -5 0 -7 -4 -4 -10 3 -5
0 -10 -8 -10 -10 0 -13 7 -10 20 3 11 9 17 14 14 5 -3 9 -2 9 3 0 4 3 19 7 32
4 16 3 22 -5 18 -5 -4 -12 -4 -15 0 -2 5 -2 2 0 -6 3 -14 -47 -101 -59 -101
-4 0 -10 5 -13 10 -3 6 -11 10 -16 10 -6 0 -7 -4 -4 -10 11 -18 -5 -31 -25
-20 -14 7 -23 6 -34 -6 -14 -13 -16 -13 -16 -1 0 9 6 17 13 20 9 3 9 8 1 16
-9 9 -16 3 -33 -24 -12 -20 -18 -41 -15 -47 4 -6 9 -5 15 3 4 7 11 10 14 7 13
-13 -7 -29 -28 -22 -18 5 -20 4 -9 -7 6 -7 12 -20 12 -29 0 -10 -9 -4 -24 15
-24 30 -24 30 -5 51 10 11 16 24 12 27 -3 4 2 7 13 7 13 0 15 3 6 8 -8 6 -3
15 19 31 18 13 29 19 25 12 -4 -6 -2 -11 3 -11 6 0 11 5 11 11 0 5 5 7 10 4 6
-3 10 0 10 9 0 8 4 16 10 18 5 2 11 12 13 24 4 26 45 79 54 70 4 -4 1 -11 -7
-16 -7 -5 -15 -16 -16 -26 -2 -9 -9 -21 -16 -25 -9 -6 -10 -11 -2 -19 8 -8 18
1 38 34 14 24 26 53 26 62 0 14 3 15 12 6 10 -10 10 -16 0 -30z m-662 -31 c0
-5 -10 -15 -22 -24 -13 -8 -20 -18 -16 -22 9 -9 57 26 58 43 0 6 5 12 10 12 7
0 7 -6 0 -19 -12 -24 -13 -31 -1 -31 5 0 12 8 14 18 4 13 5 11 6 -5 1 -24 15
-30 27 -12 3 6 15 8 26 6 13 -4 22 1 29 16 9 21 9 21 5 -2 -3 -13 2 -34 11
-47 9 -15 11 -24 4 -24 -6 0 -11 -4 -11 -10 0 -5 7 -7 15 -4 8 4 15 1 15 -5 0
-7 8 -15 18 -18 9 -4 41 -21 70 -39 l53 -31 -23 -17 c-13 -9 -16 -14 -8 -10 8
4 5 -4 -8 -18 -13 -14 -20 -28 -15 -30 4 -3 2 -3 -4 -2 -7 2 -13 -4 -13 -14 0
-13 -2 -14 -9 -3 -11 17 13 66 42 86 16 11 18 15 5 15 -8 0 -22 -10 -31 -22
-8 -13 -19 -19 -23 -15 -5 5 2 18 15 29 20 16 22 21 11 28 -10 6 -17 4 -23 -5
-4 -8 -15 -15 -24 -15 -14 0 -14 2 2 20 21 23 4 28 -18 5 -8 -8 -17 -11 -21
-8 -3 4 -7 1 -7 -5 -1 -7 -2 -16 -3 -21 0 -5 -11 -21 -23 -34 -41 -47 -48 -69
-27 -84 10 -7 13 -13 8 -13 -6 0 -15 5 -22 12 -8 8 -12 8 -12 1 0 -6 11 -18
24 -27 23 -15 25 -14 31 3 3 11 12 22 20 25 8 3 15 14 15 25 0 10 7 22 16 25
9 3 14 13 10 21 -8 21 10 27 25 9 11 -13 10 -17 -4 -26 -14 -7 -15 -13 -6 -31
12 -22 12 -22 -10 -3 -27 25 -28 13 0 -13 23 -21 20 -36 -11 -44 -17 -4 -18
-2 -9 14 7 15 6 19 -6 19 -8 0 -15 -6 -15 -14 0 -19 -17 -29 -51 -31 -17 -1
-25 3 -22 10 2 7 -3 15 -11 18 -11 4 -13 1 -9 -10 4 -11 2 -14 -5 -9 -7 4 -12
2 -12 -5 0 -10 -3 -10 -12 0 -10 11 -10 14 0 18 6 3 12 9 12 15 0 6 15 29 33
51 17 23 31 43 29 44 -1 2 2 9 8 16 6 6 19 24 31 40 11 15 28 27 37 27 15 1
15 2 -1 11 -11 6 -22 7 -27 3 -4 -5 -26 -33 -49 -62 -22 -30 -41 -49 -41 -42
0 6 7 18 16 27 10 11 12 19 5 26 -13 13 -64 -36 -66 -64 -1 -15 3 -18 19 -13
15 4 17 3 8 -4 -8 -5 -13 -12 -13 -16 3 -19 0 -26 -10 -26 -8 0 -8 5 1 15 7 8
10 15 7 15 -3 0 -13 3 -21 6 -12 5 -15 2 -10 -10 5 -12 0 -19 -15 -23 -11 -3
-18 -9 -15 -14 3 -5 1 -9 -5 -9 -5 0 -13 5 -16 10 -3 6 -1 10 5 10 6 0 8 5 5
10 -3 6 -13 10 -21 10 -10 0 -12 -5 -8 -12 5 -8 1 -8 -12 2 -29 22 -30 23 -14
18 17 -5 50 21 50 40 0 7 5 10 10 7 7 -4 6 -14 -1 -28 -9 -15 -9 -22 -1 -25
21 -7 26 -2 28 22 0 14 16 37 37 56 20 18 35 36 32 40 -6 10 22 40 38 40 6 0
3 -6 -8 -13 -10 -8 -15 -19 -11 -25 12 -20 34 -13 38 11 2 12 9 23 16 23 6 1
15 2 20 3 4 1 -6 9 -23 20 -26 16 -32 16 -46 5 -24 -21 -34 -17 -14 6 12 14
25 18 41 14 13 -4 24 -4 24 -1 0 14 -13 37 -22 37 -5 0 -6 -4 -3 -10 3 -5 1
-10 -4 -10 -6 0 -11 7 -11 17 0 14 -2 14 -20 -2 -11 -10 -17 -22 -13 -28 3 -5
1 -7 -5 -3 -6 3 -13 2 -17 -4 -3 -5 -11 -10 -16 -10 -6 0 -3 7 5 16 22 21 20
40 -1 23 -10 -8 -21 -18 -25 -24 -11 -15 -9 4 2 26 15 27 -2 23 -23 -6 -18
-24 -15 -51 4 -40 5 4 9 4 9 1 0 -2 3 -12 7 -22 6 -16 3 -15 -21 4 -16 12 -33
22 -39 22 -6 0 -21 10 -34 22 -13 12 -23 16 -23 10 0 -6 5 -14 10 -17 15 -9
12 -19 -10 -42 -18 -20 -22 -21 -50 -7 -21 11 -30 23 -30 40 0 30 -13 31 -33
2 -9 -13 -16 -18 -16 -12 -1 6 10 21 24 34 14 13 25 18 25 12 0 -9 9 -7 28 4
15 9 20 10 11 3 -21 -19 -31 -69 -12 -62 8 3 12 8 9 10 -3 3 5 15 17 28 12 12
30 32 39 44 10 11 23 21 30 21 6 0 2 -10 -10 -23 -12 -13 -19 -27 -15 -30 10
-10 23 -8 23 3 0 15 33 50 48 50 7 0 10 5 7 10 -3 6 -1 10 4 10 6 0 11 -4 11
-9z m990 4 c0 -3 -7 -17 -16 -30 -9 -14 -13 -25 -9 -25 5 0 0 -9 -10 -20 -10
-11 -16 -20 -12 -20 3 0 13 -3 22 -7 14 -5 16 -2 11 14 -4 12 -1 25 9 33 8 7
15 23 15 36 0 28 15 32 24 7 4 -9 1 -20 -6 -25 -7 -4 -9 -8 -4 -8 4 0 1 -11
-7 -24 -15 -23 -13 -36 5 -36 5 0 7 4 3 9 -3 5 -1 12 5 16 5 3 10 15 10 25 0
26 15 33 41 19 15 -8 19 -8 15 0 -4 6 -2 11 5 11 7 0 9 -11 5 -35 -4 -22 -3
-35 4 -35 5 0 10 7 10 15 0 8 4 15 10 15 5 0 7 7 4 15 -4 8 -1 15 5 15 6 0 7
8 4 17 -6 15 -5 16 9 3 14 -13 13 -19 -8 -57 -27 -47 -29 -57 -11 -47 7 5 6 1
-3 -10 -13 -17 -15 -17 -23 8 -9 26 -26 35 -28 16 -1 -5 -3 -14 -4 -20 -1 -5
-3 -19 -4 -30 -1 -13 -6 -17 -16 -14 -11 5 -13 10 -5 19 6 7 10 17 9 21 -4 25
3 44 16 44 21 0 19 23 -4 37 -16 10 -18 8 -17 -10 2 -27 -14 -67 -26 -67 -5 0
-6 -9 -3 -20 4 -11 2 -20 -4 -20 -6 0 -8 -7 -4 -15 3 -10 0 -15 -8 -13 -9 2
-13 -4 -11 -14 2 -11 -3 -18 -12 -18 -16 0 -13 23 7 48 7 8 5 12 -6 12 -8 0
-20 -13 -26 -30 -12 -35 -16 -37 -18 -10 -1 11 2 20 6 20 5 0 7 11 6 25 -3 25
17 35 30 15 9 -15 22 -12 22 4 0 8 -6 12 -14 9 -7 -3 -16 2 -19 11 -3 9 -10
14 -14 11 -10 -6 -24 14 -25 34 0 8 10 25 23 38 12 12 22 27 22 33 0 5 5 10
10 10 6 0 10 -2 10 -5z"/>
</g>
</svg>
