<?xml version="1.0" standalone="no"?>
<!DOCTYPE svg PUBLIC "-//W3C//DTD SVG 20010904//EN"
 "http://www.w3.org/TR/2001/REC-SVG-20010904/DTD/svg10.dtd">
<svg version="1.0" xmlns="http://www.w3.org/2000/svg"
 width="310.000000pt" height="470.000000pt" viewBox="0 0 310.000000 470.000000"
 preserveAspectRatio="xMidYMid meet">
<metadata>
Created by potrace 1.16, written by Peter Selinger 2001-2019
</metadata>
<g transform="translate(0.000000,470.000000) scale(0.100000,-0.100000)"
fill="#000000" stroke="none">
<path d="M0 3512 l0 -1188 38 4 c26 3 42 -1 51 -12 17 -20 41 -21 41 -1 0 9 9
15 25 15 22 0 25 -4 25 -32 -1 -18 4 -85 9 -148 16 -179 25 -884 12 -876 -6 4
-20 2 -32 -4 -15 -9 -24 -9 -32 -1 -6 6 -22 11 -35 11 -19 0 -22 4 -17 20 5
17 2 20 -20 20 -14 0 -35 5 -46 10 -19 11 -19 0 -19 -660 l0 -670 1099 0 c967
1 1100 2 1105 16 6 15 59 16 84 0 7 -4 14 -2 17 6 3 7 19 14 37 15 17 1 35 8
39 14 5 8 25 10 62 6 49 -5 58 -3 72 16 11 15 14 17 11 5 -4 -13 7 -18 65 -28
71 -12 78 -17 57 -38 -9 -9 -8 -12 6 -12 11 0 25 8 32 18 13 16 13 16 14 0 0
-10 7 -18 16 -18 12 0 15 6 10 23 -3 12 -6 28 -6 35 0 15 -27 16 -32 1 -3 -9
-10 -9 -23 -2 -11 6 -40 10 -63 8 -44 -2 -44 -2 -24 18 13 12 25 16 33 11 8
-5 22 -7 32 -6 9 2 17 -2 17 -8 0 -7 10 -9 28 -6 30 7 47 -2 47 -23 0 -8 6
-16 13 -19 6 -2 12 3 12 12 0 21 18 20 22 -1 3 -15 6 -15 24 5 13 14 27 20 37
16 12 -4 17 -1 17 12 0 16 2 17 10 4 5 -8 10 -10 10 -4 0 7 16 15 35 18 26 5
35 12 33 24 -2 14 4 17 34 16 21 -1 35 3 32 7 -3 5 2 9 10 9 16 0 46 26 46 40
0 5 -25 8 -55 8 -30 0 -55 -5 -55 -9 0 -5 -4 -9 -10 -9 -5 0 -10 9 -10 20 0
16 6 19 29 16 15 -2 33 -6 39 -10 6 -4 23 7 38 24 15 16 33 30 41 30 21 0 18
99 -4 116 -17 13 -17 13 0 14 9 0 17 7 17 15 0 16 -23 14 -78 -6 -16 -6 -24
-5 -26 4 -12 40 -17 48 -25 42 -5 -3 -7 -20 -4 -38 5 -31 3 -32 -32 -35 -33
-2 -36 0 -33 20 2 17 -2 23 -14 22 -12 -1 -18 5 -18 20 0 16 2 18 9 7 5 -8 16
-11 25 -8 20 8 21 27 1 27 -8 0 -15 4 -15 9 0 4 -12 6 -27 3 -26 -5 -27 -4
-14 12 10 12 26 16 49 14 22 -2 37 2 40 10 2 7 -6 12 -22 12 -31 0 -36 29 -6
37 24 6 25 16 5 33 -19 16 -15 34 10 41 11 3 19 11 17 18 -4 17 18 42 29 35
18 -11 29 7 13 23 -9 10 -13 25 -10 39 5 17 1 24 -15 29 -25 8 -23 52 3 47 13
-2 19 7 24 35 12 65 19 73 69 70 33 -2 45 1 45 11 0 8 -6 12 -15 8 -12 -4 -15
3 -15 34 0 29 4 40 15 40 11 0 15 12 15 50 0 48 -1 50 -27 51 -26 0 -26 1 -7
9 32 13 38 29 20 49 -20 22 -21 51 -1 51 8 0 15 9 15 20 0 11 -7 20 -15 20
-18 0 -20 16 -2 24 10 5 9 7 0 12 -18 8 -16 24 2 24 16 0 21 35 7 44 -10 6 -8
32 3 60 5 11 3 21 -5 26 -7 5 -10 15 -6 25 5 13 2 16 -10 11 -8 -3 -20 -6 -25
-6 -5 0 -9 -7 -9 -15 0 -9 9 -15 21 -15 27 0 21 -35 -6 -35 -11 -1 -25 -4 -31
-8 -19 -11 -25 35 -7 55 22 25 1 48 -43 48 -19 0 -34 3 -34 8 0 13 15 28 33
35 20 8 19 44 -1 40 -7 -2 -12 7 -12 20 -1 22 -1 22 -17 2 -15 -19 -15 -19 -9
7 8 36 -12 47 -34 18 -17 -22 -18 -22 -22 -4 -3 20 24 54 43 54 7 0 18 -8 26
-17 13 -16 14 -16 8 10 -6 31 10 37 20 7 4 -12 1 -28 -7 -37 -11 -15 -11 -16
5 -10 10 4 21 7 23 7 3 0 2 5 -1 10 -12 19 6 68 26 73 10 3 19 0 20 -6 0 -7 4
-2 9 11 6 12 18 22 30 22 23 0 26 10 8 28 -10 10 -10 15 1 21 9 6 5 10 -16 15
-27 7 -27 8 -9 21 10 8 23 12 27 9 5 -3 9 447 9 1001 0 885 -2 1006 -15 1011
-19 8 -19 24 0 24 13 0 15 35 15 255 0 186 -3 261 -12 276 -10 17 -10 23 0 26
9 3 12 38 12 124 l0 119 -1550 0 -1550 0 0 -1188z m1504 869 c9 -7 16 -20 16
-27 0 -8 5 -14 11 -14 6 0 8 8 4 19 -3 11 -1 22 5 26 16 10 331 6 432 -5 48
-6 172 -17 275 -24 104 -8 224 -22 268 -31 108 -21 205 -70 227 -113 23 -46
32 -53 24 -17 -5 25 -4 27 5 12 6 -10 8 -25 5 -34 -4 -9 3 -63 15 -122 21
-103 22 -116 14 -611 -13 -874 -17 -1005 -35 -1144 -6 -49 -6 -84 0 -91 10
-12 16 -547 6 -563 -11 -19 5 -42 28 -38 11 2 15 1 8 -1 -8 -3 -11 -11 -8 -19
3 -9 1 -12 -4 -9 -16 10 -18 -10 -24 -172 -3 -84 -8 -163 -11 -175 -3 -13 -2
-50 3 -83 6 -38 6 -69 0 -85 -19 -50 -26 4 -29 227 -2 122 -8 218 -12 214 -9
-9 -14 -31 -17 -66 -1 -17 -3 -17 -11 5 -11 26 -6 195 7 260 6 32 5 34 -10 21
-15 -12 -16 -7 -16 62 0 61 3 75 14 71 16 -6 28 71 14 98 -4 9 -8 37 -8 62 0
26 -5 46 -12 49 -10 4 -10 8 1 15 9 7 11 16 6 28 -8 17 -9 17 -12 -3 -3 -13
-11 -23 -19 -23 -8 0 -18 -10 -23 -22 -6 -17 -10 -6 -15 47 -9 85 -16 115 -26
115 -11 0 -18 -80 -8 -86 4 -3 8 -17 8 -31 0 -13 9 -68 19 -121 17 -86 21
-195 12 -329 -1 -30 -14 -29 -31 2 -15 27 -36 35 -26 9 3 -9 9 -27 12 -41 5
-20 3 -24 -12 -21 -15 2 -20 -4 -22 -27 -2 -16 -11 -38 -20 -48 -15 -17 -16
-17 -29 5 l-13 23 -6 -23 c-6 -19 -11 -22 -33 -17 -14 3 -31 12 -37 20 -8 11
-13 12 -22 3 -14 -14 -16 -108 -2 -108 5 0 7 -6 4 -13 -3 -8 2 -20 11 -27 24
-20 57 -99 57 -134 -1 -17 -10 -48 -21 -69 -13 -27 -17 -45 -12 -60 5 -13 3
-39 -4 -64 -11 -37 -11 -43 4 -48 32 -10 71 -52 71 -77 0 -33 -52 -82 -80 -75
-16 4 -24 -1 -32 -19 -14 -29 -38 -31 -45 -4 -6 23 -43 27 -43 4 0 -8 -4 -12
-10 -9 -5 3 -10 1 -10 -4 0 -6 4 -11 10 -11 15 0 35 -43 21 -48 -6 -2 -8 -8
-5 -14 4 -6 0 -14 -7 -19 -11 -7 -10 -9 4 -9 9 0 17 -5 17 -11 0 -7 17 -10 45
-7 25 2 45 -1 45 -5 0 -5 10 -6 23 -2 22 6 22 6 -2 -13 -18 -14 -20 -21 -10
-24 11 -4 9 -11 -8 -30 -13 -13 -23 -32 -23 -41 0 -19 -34 -57 -51 -57 -5 0
-8 4 -5 9 3 5 -1 14 -8 20 -11 10 -16 8 -21 -8 -4 -13 -15 -21 -28 -22 l-22 0
21 -9 c25 -10 34 -37 23 -69 -7 -17 -14 -21 -30 -16 -12 4 -27 1 -37 -8 -9 -8
-32 -18 -49 -22 -32 -6 -33 -6 -33 29 0 25 4 36 15 36 21 0 19 18 -4 25 -22 7
-33 39 -24 75 8 34 23 52 40 46 11 -5 11 -2 1 17 -7 12 -11 27 -10 34 3 14
-38 44 -50 37 -5 -3 -12 3 -15 14 -3 13 -15 22 -32 24 -27 3 -39 33 -26 66 6
16 7 16 19 -1 13 -16 14 -16 20 5 3 13 6 34 6 48 0 15 4 30 9 35 5 6 11 33 14
60 3 28 13 67 22 89 9 21 14 40 12 42 -5 5 -38 -9 -77 -31 -22 -13 -25 -13
-28 0 -6 25 -26 17 -40 -15 -15 -32 -46 -55 -62 -45 -24 15 -60 138 -60 208 0
73 18 117 51 129 34 12 40 47 9 55 -11 3 -20 9 -20 14 0 5 6 6 13 3 9 -3 12 6
9 36 -4 35 -7 40 -29 40 -15 0 -22 4 -17 11 3 6 15 9 25 6 21 -6 49 26 49 55
0 10 5 18 10 18 6 0 10 8 10 19 0 10 7 24 15 31 9 7 14 19 11 27 -3 7 -1 13 5
13 17 0 39 27 39 49 0 12 5 21 12 21 6 0 9 3 5 6 -11 11 48 104 66 104 13 0
27 -79 27 -154 0 -104 9 -93 14 18 3 65 9 93 22 107 9 10 22 18 28 17 6 -1 21
2 34 6 39 13 27 62 -26 114 -34 33 -51 42 -78 42 -29 0 -34 3 -34 24 0 12 4
36 9 52 5 16 12 54 14 84 l5 55 -15 -55 c-8 -30 -17 -68 -20 -85 -3 -16 -12
-34 -19 -40 -7 -5 -20 -41 -30 -80 -9 -38 -23 -80 -32 -92 -8 -13 -12 -30 -8
-38 4 -10 -2 -19 -18 -25 -13 -4 -26 -19 -29 -31 -6 -22 -7 -22 -26 -5 -11 10
-27 16 -36 12 -12 -4 -14 0 -8 22 3 15 13 32 21 38 8 6 12 16 8 22 -12 20 103
322 123 322 5 0 9 10 8 23 0 12 3 31 7 42 4 11 -11 -11 -33 -50 -22 -38 -41
-75 -41 -82 0 -7 -9 -20 -19 -30 -10 -10 -21 -27 -24 -38 -3 -14 -5 -11 -6 10
0 17 11 91 25 165 29 159 51 376 59 585 l6 150 -21 -40 c-15 -28 -20 -50 -16
-75 12 -73 13 -109 4 -230 -5 -69 -10 -136 -13 -150 -2 -14 -11 -68 -19 -120
-9 -52 -17 -104 -20 -115 -2 -11 -7 -40 -11 -65 -4 -25 -12 -56 -18 -70 -6
-14 -11 -51 -12 -82 -3 -65 -32 -125 -58 -120 -20 3 -22 -11 -5 -38 13 -20 6
-40 -32 -90 -15 -20 -22 -22 -31 -13 -10 10 -10 18 -1 38 13 29 6 32 -20 8
-24 -21 -32 -12 -17 20 6 14 26 31 43 37 28 11 29 13 11 20 -11 4 -31 6 -45 2
-22 -5 -23 -3 -12 10 10 13 10 17 0 21 -10 4 -9 9 4 17 12 7 17 22 16 45 -1
35 -11 45 -23 24 -4 -6 -13 -8 -21 -5 -9 3 -14 -1 -14 -12 0 -15 -2 -15 -10
-2 -8 12 -10 12 -10 1 0 -10 -3 -11 -13 -2 -8 6 -16 8 -20 5 -3 -3 -15 -1 -26
6 -15 7 -21 21 -21 43 0 18 -4 38 -9 46 -11 17 5 67 25 75 16 6 19 36 4 36 -5
0 -10 7 -10 16 0 8 5 12 10 9 6 -4 16 7 23 24 7 17 16 29 19 26 9 -9 58 59 58
78 0 17 4 19 50 21 18 1 26 9 34 35 9 30 7 36 -15 54 l-24 19 21 14 c15 10 20
22 16 39 -9 50 -83 20 -98 -40 -3 -14 -9 -25 -13 -25 -9 0 -60 -40 -88 -69
-24 -25 -32 -84 -12 -97 8 -4 7 -9 -2 -14 -9 -6 -8 -12 6 -27 18 -17 18 -18
-1 -22 -10 -2 -22 -8 -27 -15 -5 -7 -14 -3 -28 14 -19 23 -21 23 -31 7 -9 -17
-12 -17 -33 -3 -14 9 -30 16 -37 16 -6 0 -21 9 -33 20 -18 17 -23 18 -47 6
-23 -12 -29 -12 -39 0 -13 16 -34 19 -24 4 3 -6 -1 -7 -9 -4 -9 3 -16 10 -16
14 0 15 -40 -2 -50 -21 -6 -10 -16 -16 -24 -13 -7 3 -16 -2 -19 -10 -8 -19
-34 -21 -40 -3 -5 16 -37 -9 -37 -30 0 -29 -34 -8 -41 25 -7 37 -25 60 -36 49
-4 -4 1 -21 10 -36 21 -36 21 -41 2 -41 -8 0 -15 4 -15 9 0 5 -10 7 -22 4 -18
-4 -20 -2 -9 5 12 9 9 14 -15 28 -17 10 -38 31 -47 47 -11 19 -23 27 -32 23
-10 -4 -20 3 -27 20 -9 19 -17 24 -34 20 -16 -4 -24 -1 -29 12 -3 11 -16 24
-30 30 -19 9 -24 20 -27 54 -2 36 -7 44 -25 46 -28 4 -28 6 -1 42 18 24 20 35
11 62 -7 26 -6 40 8 64 15 28 39 119 39 147 -1 22 -17 -17 -30 -70 -10 -45
-39 -92 -41 -67 0 5 -2 27 -4 49 -3 29 -2 36 6 25 11 -16 3 28 -12 65 -7 17
-8 16 -8 -8 -1 -15 -8 -30 -16 -34 -21 -8 -46 27 -38 52 4 11 6 28 5 38 0 9 2
17 6 17 4 0 5 32 4 71 -3 49 0 69 7 65 7 -4 11 1 11 14 0 19 2 19 23 6 12 -9
32 -13 45 -9 23 6 30 27 11 38 -5 4 -8 12 -6 18 2 7 0 20 -5 31 -7 12 -7 21 1
25 6 4 7 18 2 36 -6 25 -3 33 16 48 28 22 30 47 4 47 -13 0 -21 8 -23 23 -2
15 -9 21 -20 19 -10 -2 -18 1 -18 7 0 5 -14 16 -31 25 -27 13 -31 13 -36 0 -3
-9 2 -31 11 -50 19 -41 22 -128 4 -122 -7 3 -16 15 -20 29 -6 19 -7 18 -2 -6
3 -16 8 -54 11 -83 l6 -53 -33 6 c-27 5 -31 3 -26 -11 3 -8 3 -20 0 -26 -8
-13 -37 30 -31 47 3 7 -1 16 -10 19 -10 4 -14 2 -10 -6 12 -33 18 -58 13 -58
-16 0 -36 14 -36 26 0 8 -7 17 -15 20 -8 4 -15 11 -15 16 0 29 -65 49 -87 27
-7 -7 -22 10 -52 56 -22 36 -41 71 -41 76 0 15 -42 0 -63 -23 -11 -11 -21 -41
-24 -73 -8 -80 -21 -58 -22 37 0 46 -3 115 -7 153 -7 91 -8 101 -5 160 2 28 0
67 -4 87 -5 30 -1 46 22 85 l28 48 6 -36 c3 -20 20 -59 37 -88 18 -28 32 -55
32 -59 0 -9 49 -66 53 -61 27 40 29 61 22 244 -1 55 -4 112 -4 128 -2 49 -68
32 -97 -26 -27 -52 -45 -69 -61 -55 -16 13 -28 4 -37 -27 -12 -43 4 215 19
294 32 174 55 222 127 258 43 22 211 66 300 78 71 11 384 20 629 20 167 0 220
-4 233 -14z m-834 -2572 c0 -4 9 -9 20 -12 15 -4 20 -14 20 -39 0 -18 4 -28 8
-22 11 17 49 26 57 14 4 -6 1 -17 -5 -25 -10 -12 -9 -16 4 -21 13 -5 14 -9 5
-20 -9 -11 -6 -16 12 -23 21 -8 21 -10 5 -10 -20 -1 -20 -1 0 -17 14 -11 16
-17 6 -21 -9 -3 -10 -9 -2 -18 8 -9 7 -14 -3 -18 -10 -4 -22 12 -37 49 -26 60
-38 74 -72 79 -13 2 -33 7 -45 10 -15 5 -23 3 -23 -4 0 -6 -4 -11 -10 -11 -10
0 -43 70 -36 77 2 3 7 -5 11 -16 10 -33 37 -27 29 5 -5 19 -4 25 5 20 7 -4 11
0 11 11 0 12 7 19 20 19 11 0 20 -3 20 -7z m-73 -182 c12 -25 19 -28 41 -22
72 18 85 11 107 -64 6 -20 4 -23 -10 -17 -14 5 -16 2 -12 -13 3 -14 -2 -21
-20 -26 -30 -7 -43 0 -43 26 0 10 -4 19 -10 19 -5 0 -10 -7 -10 -15 0 -19 -14
-19 -29 -1 -7 8 -9 26 -5 43 l7 28 -23 -28 c-16 -20 -26 -25 -33 -18 -7 7 -5
16 6 29 22 25 22 31 -8 54 -32 25 -32 38 1 36 17 -2 31 -12 41 -31z m698 -22
c41 -11 52 -21 66 -62 6 -19 20 -44 31 -55 14 -14 18 -27 13 -45 -4 -17 -1
-29 11 -37 15 -11 15 -14 0 -29 -20 -19 -82 -38 -102 -30 -18 7 -18 -16 1 -41
8 -10 12 -22 10 -26 -7 -11 -85 -4 -98 9 -15 15 -27 14 -27 -2 0 -17 -59 -86
-60 -69 0 6 0 15 1 18 0 4 -5 10 -11 14 -14 9 -48 -7 -74 -33 -38 -37 -90 -12
-84 40 3 24 7 28 30 25 19 -2 28 3 33 17 4 12 12 18 21 14 7 -3 14 -1 15 3 0
5 2 17 4 26 2 9 -6 24 -16 34 -10 9 -19 14 -19 9 0 -4 -7 -2 -16 6 -14 11 -13
14 7 25 l22 12 -21 6 c-28 9 -28 23 -1 31 12 4 18 12 15 21 -3 8 -1 14 5 14 6
0 6 8 -1 21 -10 18 -7 26 24 56 19 19 39 32 45 28 6 -3 11 -2 11 2 0 11 122 9
165 -2z m390 -215 c13 -14 22 -17 30 -10 9 8 16 2 25 -21 17 -40 4 -62 -39
-69 -24 -4 -38 -15 -55 -43 -22 -36 -23 -36 -39 -19 -10 10 -17 23 -17 29 0 6
-7 24 -15 39 -22 42 -18 63 13 77 15 6 31 17 35 24 12 19 41 16 62 -7z m-481
-536 c9 -3 16 -15 16 -25 0 -25 16 -25 23 0 6 25 57 17 57 -10 0 -10 5 -21 11
-25 7 -4 2 -15 -15 -31 -28 -26 -34 -49 -13 -56 24 -8 -14 -39 -41 -32 -15 4
-21 2 -17 -5 3 -5 13 -10 22 -10 8 0 28 -10 45 -21 25 -18 27 -23 15 -30 -22
-13 -97 29 -97 54 0 10 -9 32 -21 48 -16 23 -24 27 -34 19 -23 -19 -54 -1 -76
42 -11 22 -19 41 -17 41 2 1 13 8 26 15 21 11 24 10 45 -25 l22 -38 3 35 c5
61 11 67 46 54z"/>
<path d="M989 2793 c-17 -43 -12 -145 15 -283 15 -78 20 -127 14 -131 -5 -3 1
-21 15 -42 22 -33 26 -35 38 -20 8 9 14 37 13 62 -2 85 -9 176 -15 186 -4 6
-12 53 -19 105 -15 113 -22 142 -38 148 -7 2 -17 -9 -23 -25z"/>
<path d="M2385 2300 c-3 -5 -14 -10 -25 -10 -24 0 -58 -79 -38 -91 7 -5 17 -9
21 -9 16 0 61 -41 63 -56 1 -8 8 -22 15 -30 12 -14 14 -14 26 2 17 24 16 34
-3 34 -13 0 -15 7 -9 38 13 71 14 95 4 113 -10 20 -44 26 -54 9z"/>
<path d="M2254 1501 c-11 -9 -26 -25 -32 -36 -10 -18 -11 -17 -12 13 0 45 -32
44 -54 -2 -9 -19 -16 -38 -16 -44 0 -5 -7 -15 -15 -22 -13 -10 -19 -10 -35 5
-20 18 -20 17 -20 -13 0 -17 5 -34 11 -37 6 -4 8 -13 5 -21 -4 -10 2 -14 19
-14 21 0 25 -5 27 -32 0 -18 1 -41 0 -50 -1 -10 8 -23 20 -29 16 -9 18 -13 7
-20 -8 -4 -14 -19 -15 -31 -1 -13 -5 -31 -9 -40 -5 -13 -3 -18 8 -18 10 0 18
13 23 34 4 26 13 38 35 47 27 10 119 106 119 123 0 12 -28 6 -40 -9 -22 -26
-33 -17 -25 21 8 47 23 70 52 83 30 14 32 57 3 66 -11 3 -20 13 -20 20 0 22
-13 24 -36 6z"/>
</g>
</svg>
