<?xml version="1.0" standalone="no"?>
<!DOCTYPE svg PUBLIC "-//W3C//DTD SVG 20010904//EN"
 "http://www.w3.org/TR/2001/REC-SVG-20010904/DTD/svg10.dtd">
<svg version="1.0" xmlns="http://www.w3.org/2000/svg"
 width="350.000000pt" height="469.000000pt" viewBox="0 0 350.000000 469.000000"
 preserveAspectRatio="xMidYMid meet">
<metadata>
Created by potrace 1.16, written by Peter Selinger 2001-2019
</metadata>
<g transform="translate(0.000000,469.000000) scale(0.100000,-0.100000)"
fill="#000000" stroke="none">
<path d="M1828 3235 c-20 -14 -42 -34 -48 -45 -11 -21 -54 -25 -78 -7 -17 13
-62 -11 -62 -32 0 -9 -9 -27 -20 -41 -11 -14 -20 -29 -20 -33 0 -24 -80 -58
-80 -35 0 5 -10 8 -22 6 -15 -2 -24 -11 -26 -27 -3 -18 0 -22 12 -18 18 7 19
3 9 -32 l-6 -23 -11 21 c-12 21 -12 21 -46 -9 -19 -16 -43 -29 -53 -30 -10 0
-16 -4 -12 -9 3 -5 1 -12 -5 -16 -5 -3 -10 0 -10 7 0 16 -37 41 -50 33 -6 -4
-10 -13 -10 -21 0 -12 -9 -14 -47 -8 -27 3 -56 11 -65 16 -24 12 -58 -7 -58
-32 0 -12 -7 -20 -16 -20 -9 0 -14 -7 -12 -18 2 -11 -3 -27 -11 -36 -11 -13
-12 -22 -4 -34 14 -23 53 -28 53 -8 0 10 9 16 21 16 18 0 19 -2 9 -15 -12 -15
-4 -19 37 -18 13 1 5 -28 -11 -39 -6 -4 -23 -8 -38 -8 -14 0 -28 -6 -31 -12
-3 -8 -9 -2 -15 13 -6 14 -22 33 -36 42 -24 16 -26 16 -45 -4 -11 -12 -17 -27
-14 -34 2 -8 -5 -18 -16 -25 -16 -8 -21 -8 -21 3 0 7 5 18 10 23 16 16 -12 35
-60 41 -36 5 -40 3 -40 -16 0 -11 -4 -21 -10 -21 -5 0 -7 -6 -4 -14 3 -8 0
-25 -8 -38 -12 -22 -13 -22 -18 17 -4 33 -9 40 -27 40 -12 0 -25 4 -29 8 -14
13 -22 7 -28 -23 -5 -28 -36 -44 -36 -20 0 21 29 68 46 74 11 4 15 14 11 31
-3 17 1 29 12 35 13 8 14 9 1 10 -18 0 -44 -39 -89 -132 -25 -52 -41 -72 -66
-84 -41 -19 -52 -14 -61 31 -3 19 -10 32 -15 29 -8 -5 -13 10 -10 30 1 5 -5 6
-14 3 -9 -4 -15 -1 -15 7 0 8 -7 16 -15 20 -17 6 -20 42 -5 51 6 3 10 15 10
26 0 11 5 17 10 14 6 -3 10 3 10 14 0 16 -6 21 -28 21 -16 0 -29 -6 -30 -12 0
-7 -4 -32 -8 -55 -4 -29 -3 -43 5 -43 6 0 11 -5 11 -11 0 -6 -15 0 -34 15 -20
15 -41 23 -50 20 -9 -3 -16 -1 -16 5 0 6 -7 11 -15 11 -10 0 -15 -10 -14 -32
0 -37 17 -86 18 -55 1 20 12 22 28 6 14 -14 33 -3 33 17 0 27 25 9 37 -27 8
-23 12 -27 13 -14 1 26 40 -82 40 -112 0 -35 -52 -26 -97 16 l-22 21 2 -80 c1
-44 -1 -80 -5 -80 -12 0 -10 -48 2 -55 6 -4 10 6 11 22 1 27 1 27 11 -7 6 -19
13 -68 15 -107 4 -67 6 -72 23 -63 14 8 19 5 23 -12 4 -12 4 -24 2 -27 -3 -2
-5 1 -5 7 0 7 -8 12 -17 12 -13 0 -14 -3 -6 -11 6 -6 9 -19 6 -28 -4 -12 -3
-13 4 -3 14 18 28 -2 37 -51 4 -21 10 -45 13 -54 5 -12 1 -14 -15 -8 -13 3
-22 2 -22 -3 0 -6 5 -12 11 -14 19 -6 19 -67 0 -78 -10 -6 -12 -9 -3 -10 7 0
10 -4 7 -10 -3 -5 -2 -10 3 -10 5 0 21 -12 36 -27 15 -15 35 -28 44 -29 9 -2
18 -8 20 -13 2 -6 12 -11 23 -11 10 0 19 -5 19 -12 0 -6 3 -8 6 -5 4 4 2 13
-4 20 -9 10 -8 14 3 14 8 0 15 -6 15 -13 0 -6 7 -14 15 -18 8 -3 15 -13 15
-22 0 -13 -3 -14 -15 -4 -12 10 -15 10 -15 -2 0 -27 26 -51 49 -45 27 7 28 -9
1 -23 -17 -9 -18 -14 -8 -30 7 -10 15 -17 20 -14 4 3 19 -3 33 -12 14 -9 32
-14 40 -10 8 3 15 2 15 -3 0 -4 16 -16 35 -27 l34 -18 29 27 c23 22 35 26 71
23 24 -2 46 -8 50 -14 3 -5 26 -13 51 -16 68 -9 103 -17 119 -30 11 -8 13 -8
8 1 -12 19 152 36 218 22 26 -5 32 26 8 39 -10 6 -34 12 -53 16 -19 3 -36 10
-38 15 -2 6 -10 11 -18 11 -8 0 -14 3 -14 8 1 11 37 52 47 52 5 0 15 11 23 24
7 14 22 27 35 30 12 3 27 17 33 30 7 16 21 26 39 28 22 2 29 9 31 31 2 15 -4
34 -12 43 -9 8 -16 26 -16 40 0 13 -5 24 -10 24 -6 0 -22 12 -36 28 l-24 27
-21 -28 c-11 -15 -25 -25 -30 -21 -5 3 -7 9 -4 14 3 5 -10 21 -30 37 -22 17
-35 37 -35 51 0 33 -43 72 -80 72 -16 0 -30 -4 -30 -10 0 -5 -4 -10 -10 -10
-5 0 -10 8 -10 19 0 10 -7 24 -15 31 -14 11 -13 14 2 25 19 13 53 16 53 6 0
-4 22 -7 50 -8 28 0 50 3 50 7 0 5 12 5 28 1 15 -4 52 -9 82 -10 30 -1 57 -6
58 -12 11 -28 32 -37 70 -27 36 9 40 14 55 62 20 61 41 84 119 125 56 30 123
41 130 21 2 -5 13 -7 26 -4 18 5 20 9 10 21 -7 8 -24 20 -38 26 -19 8 -21 11
-9 14 10 2 19 13 22 25 5 16 12 19 31 16 20 -4 26 -1 26 13 0 25 -11 29 -54
19 -29 -6 -36 -5 -32 5 3 9 -2 11 -17 7 -21 -5 -21 -4 -4 15 9 11 17 31 17 46
0 16 7 28 18 31 19 6 129 -7 138 -17 3 -3 0 -22 -7 -41 -7 -20 -16 -31 -20
-25 -3 6 -5 -19 -3 -57 3 -37 6 -70 8 -72 3 -2 -1 -23 -8 -45 -11 -37 -12 -62
-7 -116 1 -10 10 -11 37 -6 32 5 36 4 30 -10 -3 -9 -9 -29 -12 -43 -4 -15 -11
-32 -16 -39 -5 -7 -4 -13 3 -15 7 -2 9 -10 5 -16 -5 -8 -21 -10 -47 -6 -28 5
-39 3 -39 -6 0 -7 -7 -10 -14 -7 -11 4 -13 1 -9 -10 5 -13 2 -15 -11 -10 -10
4 -23 7 -29 7 -6 0 4 14 21 31 19 19 30 39 28 48 -3 9 -8 28 -12 44 -8 36 -23
34 -59 -7 -23 -27 -29 -42 -27 -70 2 -21 -1 -36 -7 -36 -6 0 -11 10 -11 21 0
17 -3 19 -14 10 -10 -8 -19 -6 -39 9 -14 11 -30 20 -35 20 -6 0 -14 9 -17 21
-10 31 -30 17 -33 -23 -3 -30 2 -39 27 -57 16 -12 34 -21 40 -21 18 0 13 -35
-8 -62 -25 -31 -35 -71 -27 -103 9 -34 38 -32 69 5 28 33 35 30 35 -15 0 -16
4 -31 10 -33 5 -1 -4 -27 -20 -57 -16 -30 -25 -55 -19 -55 6 0 11 4 11 10 0 9
72 81 77 76 1 -1 -3 -19 -9 -41 -5 -22 -9 -61 -9 -88 1 -34 -3 -49 -14 -53 -8
-4 -15 -12 -15 -20 0 -10 8 -12 30 -8 35 7 38 -2 14 -48 -25 -48 -33 -83 -22
-101 5 -10 34 -33 64 -52 29 -19 54 -42 54 -51 0 -11 5 -14 18 -9 38 16 104
26 120 19 9 -5 28 -8 42 -9 14 0 25 -3 25 -7 0 -3 12 -16 28 -28 33 -27 34
-36 2 -44 -15 -4 -27 -16 -31 -31 -6 -25 -57 -75 -75 -75 -10 0 -12 53 -3 87
3 12 16 25 28 29 19 7 19 8 -9 16 -46 14 -96 18 -89 7 3 -5 10 -7 15 -4 5 4 9
-4 9 -16 0 -12 8 -28 18 -35 16 -12 15 -13 -5 -11 -12 0 -24 9 -26 19 -6 22
-45 26 -160 13 -31 -4 -55 -10 -52 -15 3 -4 -4 -10 -15 -13 -21 -5 -28 -27 -9
-27 6 0 9 -7 6 -15 -10 -25 14 -28 39 -4 25 24 33 45 12 33 -9 -5 -10 -4 -3 4
7 8 21 9 40 4 17 -5 49 -8 72 -6 47 2 61 -7 38 -26 -12 -10 -18 -10 -30 0 -8
7 -22 10 -30 6 -19 -7 -19 -50 0 -66 8 -6 14 -15 13 -18 -2 -21 4 -32 17 -32
8 0 15 -9 15 -20 0 -10 7 -23 15 -28 10 -5 13 -15 9 -26 -6 -15 -14 -17 -44
-12 -34 5 -37 4 -48 -28 -17 -45 -85 -108 -109 -99 -10 3 -35 22 -56 42 -32
31 -36 39 -31 68 3 18 3 33 -1 33 -13 0 -51 -23 -77 -47 -19 -18 -32 -23 -48
-18 -18 6 -21 3 -18 -17 2 -15 9 -23 21 -22 20 2 23 -12 5 -19 -29 -10 5 -20
62 -18 39 1 60 -2 60 -10 0 -7 -10 -9 -24 -7 -14 3 -31 1 -38 -3 -9 -6 -3 -9
17 -10 17 -1 33 -1 38 0 4 0 7 -9 7 -22 0 -30 28 -59 83 -86 36 -17 50 -19 71
-11 15 5 28 10 29 10 2 0 2 -26 2 -57 0 -51 3 -58 27 -72 23 -13 33 -14 70 -3
24 8 62 17 86 21 25 5 54 19 69 34 l26 25 21 -23 c11 -13 38 -26 59 -30 33 -5
37 -4 37 15 0 24 -1 24 36 6 40 -21 155 -31 182 -17 39 21 7 124 -43 135 -11
3 -40 8 -65 11 -25 3 -56 14 -70 24 -32 25 -18 42 58 69 61 23 104 28 138 17
15 -5 23 -2 27 9 9 22 -38 45 -55 28 -15 -15 -64 -16 -73 -2 -3 6 1 7 9 4 9
-3 18 0 21 8 8 19 85 16 116 -5 13 -10 33 -17 44 -17 18 1 17 3 -9 24 -37 31
-15 40 36 15 21 -11 45 -19 55 -18 10 0 1 9 -24 21 -54 27 -70 61 -43 88 26
26 25 34 -5 50 -14 7 -25 17 -25 22 0 4 -11 8 -25 8 -24 0 -26 2 -19 38 4 20
13 50 21 66 8 15 13 36 10 46 -5 18 26 79 46 92 6 4 19 2 29 -3 15 -8 16 -13
6 -29 -7 -10 -9 -22 -5 -26 9 -10 45 24 53 50 4 11 14 32 24 46 9 14 20 37 24
52 7 32 35 60 80 82 39 19 24 20 -29 2 -27 -9 -46 -25 -60 -48 -26 -45 -47
-66 -80 -78 -47 -18 -85 -12 -114 18 -42 41 -78 72 -85 72 -3 0 -6 -8 -6 -17
0 -14 -4 -13 -24 6 -22 20 -25 21 -40 6 -9 -9 -16 -19 -17 -23 0 -4 -2 -15 -4
-24 -2 -9 3 -19 11 -22 8 -3 14 1 14 10 0 10 6 14 14 11 8 -3 17 -3 20 1 4 3
15 7 26 9 17 2 19 -1 13 -28 -4 -22 -2 -29 8 -27 8 2 13 -4 13 -14 -1 -10 2
-18 6 -18 12 0 30 26 23 33 -3 4 -1 7 6 7 8 0 11 -6 7 -16 -5 -13 -2 -15 15
-11 18 5 20 2 14 -16 -4 -12 -6 -35 -6 -52 0 -19 -10 -42 -29 -65 -22 -26 -30
-30 -30 -17 0 16 -33 57 -46 57 -3 0 -14 10 -24 22 -16 20 -17 27 -5 55 11 25
11 33 2 33 -7 0 -22 3 -35 6 -16 5 -22 3 -20 -6 2 -7 -2 -14 -8 -17 -8 -2 -12
9 -12 32 0 42 -9 56 -22 35 -15 -23 -12 -48 8 -68 9 -9 25 -30 35 -45 l17 -27
-32 0 c-23 0 -29 3 -19 9 11 7 10 14 -7 38 -39 55 -38 75 8 129 38 43 40 49
24 55 -11 4 -14 8 -8 8 14 1 26 41 13 41 -5 0 -9 6 -9 13 0 7 -9 18 -20 25
-22 13 -24 7 -22 -65 2 -35 -7 -46 -26 -34 -12 7 -16 36 -10 78 2 12 -1 21 -5
20 -5 -1 -15 9 -22 23 -11 19 -14 21 -15 8 0 -12 -8 -18 -25 -18 -14 0 -25 5
-25 10 0 6 7 10 15 10 9 0 18 7 22 16 4 12 14 14 40 9 22 -4 40 -2 50 7 14 11
16 10 9 -15 -4 -19 -3 -26 4 -22 5 3 10 3 10 -2 0 -4 11 -13 25 -20 22 -10 25
-9 25 9 0 13 4 17 13 11 14 -9 58 -5 70 6 4 5 5 20 1 35 -6 24 -10 26 -39 20
-29 -5 -33 -2 -48 27 -14 30 -14 34 1 45 13 9 20 10 31 1 12 -10 13 -8 9 11
-4 12 -2 22 3 22 5 0 9 -4 9 -10 0 -5 9 -10 20 -10 11 0 20 5 20 11 0 6 7 8
16 5 11 -4 26 4 45 25 22 25 32 29 42 21 7 -6 22 -10 33 -10 11 1 34 -4 51
-11 30 -12 31 -13 16 -39 -15 -26 -60 -63 -131 -108 -33 -21 -88 -91 -79 -100
2 -2 28 1 57 7 37 8 55 8 63 0 15 -15 19 -49 7 -56 -6 -4 -8 -11 -5 -16 10
-15 -18 -10 -43 7 -14 10 -27 12 -38 6 -12 -7 -6 -12 30 -26 25 -10 45 -21 43
-24 -5 -9 25 -36 42 -40 18 -4 61 26 61 42 0 8 18 32 40 54 39 38 50 65 31 76
-13 9 7 89 27 106 9 8 24 24 32 35 13 16 10 16 -17 -4 -27 -18 -33 -19 -33 -7
0 9 -6 16 -14 16 -26 0 -25 15 2 55 22 32 34 41 62 43 41 4 66 22 30 22 -29 0
-110 38 -110 52 0 6 7 7 16 4 14 -5 15 -4 5 8 -10 12 -10 20 0 38 11 20 14 20
17 6 2 -10 11 -18 19 -18 14 0 14 -3 -2 -20 -18 -20 -18 -21 1 -34 27 -20 83
-27 105 -13 11 7 19 23 19 39 0 16 6 28 13 28 6 0 21 8 32 17 16 13 17 15 3
10 -13 -5 -18 -1 -18 14 0 11 -14 33 -31 50 -29 28 -30 34 -27 95 3 55 1 62
-10 47 -9 -12 -12 -34 -8 -66 5 -42 3 -47 -9 -37 -8 7 -15 21 -15 32 0 27 -50
78 -77 78 -28 0 -29 -11 -3 -28 32 -20 15 -30 -30 -19 -36 10 -55 27 -30 27 6
0 10 4 10 9 0 5 -11 8 -25 7 -14 0 -25 -4 -25 -8 0 -11 -28 -10 -34 0 -3 5 -7
21 -10 36 -4 22 -1 29 14 33 11 3 18 9 15 13 -6 10 -58 0 -67 -14 -5 -8 -14
-7 -29 2 -11 7 -22 12 -23 10 -1 -2 -8 -15 -16 -30 -13 -28 -30 -37 -30 -18 0
6 6 10 13 10 7 1 4 6 -6 15 -15 10 -17 21 -12 45 5 23 3 34 -9 43 -9 7 -19 29
-23 50 -5 33 -4 37 12 31 19 -8 16 3 -9 34 -27 35 -10 76 21 51 12 -11 14 -26
9 -79 -4 -51 -2 -71 9 -86 11 -15 17 -16 23 -6 5 8 16 10 28 6 18 -7 18 -7 2
13 -22 24 -23 39 -3 47 8 3 15 15 15 26 0 15 7 20 24 20 27 0 63 29 48 39 -6
3 -12 14 -14 25 -2 14 4 19 26 22 31 3 81 48 71 63 -3 5 0 13 7 17 7 5 3 10
-13 16 -22 9 -23 10 -6 19 14 8 16 14 6 25 -16 19 -35 18 -51 -5 -7 -10 -23
-21 -36 -25 -21 -7 -22 -5 -16 18 5 21 3 26 -14 26 -11 0 -22 -6 -25 -14 -3
-8 -19 -17 -36 -21 -16 -3 -35 -13 -42 -21 -9 -11 -7 -14 10 -14 20 0 51 -20
51 -33 0 -3 -8 -7 -17 -11 -10 -3 -25 -11 -34 -17 -13 -10 -21 -8 -39 9 -12
11 -20 25 -16 30 3 5 -3 17 -14 27 -11 10 -20 24 -20 32 0 22 38 91 57 103 16
10 15 11 -4 7 -13 -3 -23 -1 -23 4 0 5 -7 9 -16 9 -9 0 -14 -6 -11 -12 3 -8
-4 -13 -19 -13 -20 0 -24 5 -24 33 0 35 -15 39 -34 10 -7 -12 -6 -25 2 -43 10
-21 17 -26 36 -21 32 8 35 1 23 -45 -6 -25 -20 -47 -36 -57 -14 -9 -31 -24
-38 -32 -9 -12 -14 -13 -24 -2 -19 18 -39 15 -39 -7 0 -24 -25 -34 -40 -15 -7
8 -17 14 -23 14 -7 0 -7 -4 1 -12 16 -16 15 -38 -2 -38 -18 0 -24 31 -21 98 2
35 -2 57 -11 67 -8 8 -10 16 -5 20 5 3 9 25 8 49 -1 38 -3 42 -14 28 -7 -10
-13 -28 -13 -42 0 -14 -9 -33 -19 -42 -18 -16 -20 -16 -24 0 -4 15 -5 15 -6 1
-1 -15 -29 -34 -37 -26 -2 2 -1 20 3 40 4 29 10 36 22 32 12 -3 16 2 16 20 0
17 -5 25 -18 25 -11 0 -15 -4 -11 -12 4 -7 3 -8 -4 -4 -7 4 -12 14 -12 22 0 8
5 12 10 9 6 -3 10 3 10 14 0 23 16 37 22 19 7 -19 28 1 28 28 0 17 -5 24 -20
24 -11 0 -23 7 -26 15 -8 21 -21 19 -27 -5 -8 -30 -33 -24 -48 12 -10 24 -10
33 -1 36 15 5 7 72 -14 122 -10 24 -22 36 -35 36 -10 0 -19 -4 -19 -8 0 -5 -9
-4 -19 2 -26 13 -30 13 -73 -15z m100 -261 c7 -7 9 -12 6 -9 -4 3 -13 0 -21
-6 -21 -18 16 -39 76 -41 45 -2 49 -4 36 -18 -8 -9 -15 -25 -15 -36 -1 -10 -7
-36 -14 -57 -10 -26 -10 -39 -3 -44 6 -4 3 -9 -9 -14 -13 -5 -14 -8 -4 -8 9
-1 23 8 33 19 10 12 22 18 28 14 6 -3 17 2 24 12 13 18 14 18 15 1 0 -10 -11
-22 -25 -27 -14 -5 -25 -14 -25 -19 0 -14 -70 -27 -138 -26 -50 2 -68 7 -85
24 -13 12 -16 21 -9 21 7 0 11 4 8 9 -3 5 1 14 9 21 8 7 15 18 15 25 0 16 52
61 80 70 11 4 18 11 14 16 -3 5 -15 7 -26 4 -10 -4 -30 -4 -43 -1 -20 5 -22
11 -20 48 1 24 3 45 4 47 3 8 77 -12 89 -25z m-1127 -485 c16 -8 18 -13 9 -24
-10 -12 -2 -15 41 -21 41 -6 60 -14 86 -41 19 -18 28 -33 21 -34 -10 0 -10 -2
0 -6 6 -2 10 -9 6 -14 -3 -5 0 -9 5 -9 6 0 11 -7 11 -16 0 -12 7 -15 30 -12
19 3 29 1 27 -6 -2 -6 -18 -12 -35 -14 -21 -2 -30 -7 -26 -14 5 -8 1 -9 -12
-4 -48 20 -79 26 -82 16 -6 -16 -20 -12 -49 18 -29 28 -37 64 -21 95 7 13 3
26 -16 48 -37 44 -35 60 5 38z m1859 -234 c8 -1 23 -5 34 -10 11 -5 26 -4 37
3 26 17 39 15 32 -4 -5 -13 0 -15 30 -10 45 7 57 -9 27 -38 -19 -17 -22 -18
-17 -3 6 16 5 16 -26 1 -17 -9 -36 -23 -40 -30 -11 -20 -45 -18 -43 2 0 9 -5
19 -13 22 -8 3 -11 0 -7 -7 9 -14 -36 -10 -46 4 -5 6 -8 3 -8 -6 0 -8 -11 -26
-24 -38 -24 -23 -25 -23 -19 -2 3 12 9 24 14 27 16 10 9 22 -15 28 -37 9 -39
32 -5 46 16 7 29 17 29 22 0 5 10 6 23 2 12 -4 29 -8 37 -9z"/>
<path d="M1110 1385 c-27 -23 -52 -35 -72 -35 -28 0 -68 -15 -78 -30 -3 -4
-21 -16 -40 -27 -34 -19 -35 -19 -50 0 -14 17 -19 17 -45 6 -17 -8 -32 -17
-35 -21 -3 -4 -11 -4 -17 0 -19 12 -3 50 23 56 30 8 24 22 -11 28 -32 7 -65
-17 -65 -45 0 -25 27 -70 39 -63 4 3 12 -4 19 -15 11 -17 9 -19 -17 -19 -37 0
-139 -52 -170 -88 -24 -27 -24 -27 -4 -30 24 -4 143 53 143 68 0 6 5 10 10 10
22 0 8 -26 -23 -44 l-32 -19 25 -6 c22 -6 20 -8 -23 -25 -47 -18 -47 -18 -47
-65 0 -26 6 -56 14 -66 7 -10 11 -27 8 -37 -2 -10 3 -30 13 -44 15 -24 21 -26
58 -20 23 4 52 14 65 22 12 8 22 10 22 4 0 -5 7 -10 15 -10 8 0 19 -9 25 -21
20 -36 68 -59 101 -47 33 11 41 32 38 96 -2 37 1 46 12 43 48 -14 78 -12 87 6
6 10 10 23 11 28 0 6 18 11 40 13 53 4 63 18 44 65 -12 30 -18 35 -29 26 -11
-9 -17 -5 -31 19 -22 39 -61 59 -70 37 -3 -9 -3 -35 1 -58 l6 -42 -23 27 c-21
25 -23 26 -34 10 -10 -15 -12 -12 -12 18 -1 43 12 65 33 57 10 -4 22 2 32 18
11 17 26 25 45 25 16 0 29 -4 29 -10 0 -5 -6 -10 -12 -10 -7 0 2 -13 19 -29
18 -15 29 -32 25 -37 -4 -5 3 0 16 10 22 19 31 43 12 31 -5 -3 -10 3 -10 14 0
12 4 21 9 21 5 0 13 14 16 32 9 40 33 67 45 49 5 -10 9 -8 14 4 11 31 6 37
-25 33 -25 -4 -33 -1 -37 14 -2 10 -10 18 -18 18 -10 0 -12 11 -7 45 5 41 4
45 -15 45 -11 0 -39 -16 -62 -35z"/>
<path d="M1539 948 c-36 -48 -59 -86 -59 -96 0 -13 93 -52 123 -52 32 0 57 29
57 67 0 25 -6 33 -31 43 -17 8 -39 26 -49 42 l-17 29 -24 -33z"/>
<path d="M1465 240 c-18 -12 -38 -17 -52 -14 -18 5 -25 1 -33 -21 -24 -62 -4
-106 49 -107 23 -1 38 5 47 18 7 10 20 26 28 34 21 22 46 72 46 93 0 24 -47
22 -85 -3z"/>
<path d="M1620 228 c0 -38 24 -95 38 -90 15 5 16 -10 0 -26 -9 -9 -9 -12 1
-12 7 0 11 -6 8 -14 -6 -16 32 -36 68 -36 19 0 26 7 31 28 3 15 7 32 9 37 4
16 -14 45 -28 45 -7 0 -24 14 -37 30 -44 54 -51 60 -71 60 -13 0 -19 -7 -19
-22z"/>
</g>
</svg>
